<svg xmlns="http://www.w3.org/2000/svg" width="52.175" height="60" viewBox="0 0 13.805 15.875"><defs><clipPath clipPathUnits="userSpaceOnUse" id="b"><path d="M0 0h936.12v612.12H0z" clip-rule="evenodd"/></clipPath><clipPath clipPathUnits="userSpaceOnUse" id="a"><path d="M0 0h936.12v612.12H0z" clip-rule="evenodd"/></clipPath><clipPath clipPathUnits="userSpaceOnUse" id="c"><path d="M0 0h936.12v612.12H0z" clip-rule="evenodd"/></clipPath><clipPath clipPathUnits="userSpaceOnUse" id="d"><path d="M0 0h936.12v612.12H0z" clip-rule="evenodd"/></clipPath><clipPath clipPathUnits="userSpaceOnUse" id="e"><path d="M0 0h936.12v612.12H0z" clip-rule="evenodd"/></clipPath><clipPath clipPathUnits="userSpaceOnUse" id="f"><path d="M0 0h936.12v612.12H0z" clip-rule="evenodd"/></clipPath><clipPath clipPathUnits="userSpaceOnUse" id="g"><path d="M0 0h936.12v612.12H0z" clip-rule="evenodd"/></clipPath><clipPath clipPathUnits="userSpaceOnUse" id="h"><path d="M0 0h936.12v612.12H0z" clip-rule="evenodd"/></clipPath><clipPath clipPathUnits="userSpaceOnUse" id="i"><path d="M0 0h936.12v612.12H0z" clip-rule="evenodd"/></clipPath><clipPath clipPathUnits="userSpaceOnUse" id="j"><path d="M0 0h936.12v612.12H0z" clip-rule="evenodd"/></clipPath><clipPath clipPathUnits="userSpaceOnUse" id="k"><path d="M0 0h936.12v612.12H0z" clip-rule="evenodd"/></clipPath><clipPath clipPathUnits="userSpaceOnUse" id="l"><path d="M0 0h936.12v612.12H0z" clip-rule="evenodd"/></clipPath><clipPath clipPathUnits="userSpaceOnUse" id="m"><path d="M0 0h936.12v612.12H0z" clip-rule="evenodd"/></clipPath><clipPath clipPathUnits="userSpaceOnUse" id="n"><path d="M0 0h936.12v612.12H0z" clip-rule="evenodd"/></clipPath><clipPath clipPathUnits="userSpaceOnUse" id="o"><path d="M0 0h936.12v612.12H0z" clip-rule="evenodd"/></clipPath><clipPath clipPathUnits="userSpaceOnUse" id="p"><path d="M0 0h936.12v612.12H0z" clip-rule="evenodd"/></clipPath></defs><path d="M1.201 14.343L3.024 2.64l3.88-1.109 3.747 1.056 1.952 11.755z" fill="#fd5" stroke="#deaa87" stroke-width=".353" stroke-linejoin="round" stroke-miterlimit="10"/><path d="M6.415 11.545l.15-.952.32-.09.31.085.161.957z" fill-rule="evenodd"/><path d="M6.415 11.545l.15-.952.32-.09.31.085.161.957z" fill="none"/><path d="M8.403 11.023a.417.417 0 1 1 .834 0 .417.417 0 0 1-.834 0z" fill-rule="evenodd"/><path d="M8.403 11.023a.417.417 0 1 1 .834 0 .417.417 0 0 1-.834 0z" fill="none"/><path d="M4.568 11.023a.417.417 0 1 1 .835 0 .417.417 0 0 1-.835 0z" fill-rule="evenodd"/><path d="M4.568 11.023a.417.417 0 1 1 .835 0 .417.417 0 0 1-.835 0z" fill="none"/><path d="M8.403 9.127a.417.417 0 1 1 .834 0 .417.417 0 0 1-.834 0z" fill-rule="evenodd"/><path d="M8.403 9.127a.417.417 0 1 1 .834 0 .417.417 0 0 1-.834 0z" fill="none"/><path d="M4.568 9.127a.417.417 0 1 1 .835 0 .417.417 0 0 1-.835 0z" fill-rule="evenodd"/><path d="M4.568 9.127a.417.417 0 1 1 .835 0 .417.417 0 0 1-.835 0z" fill="none"/><path d="M6.474 9.127a.417.417 0 1 1 .834 0 .417.417 0 0 1-.834 0z" fill-rule="evenodd"/><path d="M6.474 9.127a.417.417 0 1 1 .834 0 .417.417 0 0 1-.834 0z" fill="none"/><path d="M6.474 12.99c0-.231.187-.417.417-.417a.416.416 0 1 1 0 .833.417.417 0 0 1-.417-.417z" fill-rule="evenodd"/><path d="M6.474 12.99c0-.231.187-.417.417-.417a.416.416 0 1 1 0 .833.417.417 0 0 1-.417-.417z" fill="none"/><path d="M6.201 11.746l.225-1.42.477-.134.461.128.241 1.426z" fill-rule="evenodd"/><path d="M6.201 11.746l.225-1.42.477-.134.461.128.241 1.426z" fill="none"/><g clip-path="url(#a)" transform="matrix(.19884 0 0 -.19884 -76.271 53.605)" stroke-width="1.774"><path d="M417.247 255.98c-.208 0-.428-.077-.693-.21a.217.217 0 0 1-.006-.004 3.04 3.04 0 0 0-.41-.195 8.178 8.178 0 0 1-.69-.03c-.35-.023-.641-.139-.795-.384a.217.217 0 0 1-.002-.228l1.067-1.747c-1.057-2.456-2.741-5.234-5.06-8.334-2.537-3.368-4.8-5.7-6.767-6.99a.217.217 0 0 1 .014-.37c.212-.118.425-.184.637-.184.381 0 .815.246 1.453.687.636.44 1.448 1.093 2.44 1.959l.005.004c.261.11.55.326.942.684.425.387.95.925 1.578 1.617a.217.217 0 0 1 .002.002c1.346 1.525 2.173 2.383 2.562 2.713.36-.442.84-.803 1.461-1.065.104-.297.333-.684.737-1.28a.217.217 0 0 1 .004-.005c.361-.502.521-.91.521-1.188 0-.128-.033-.272-.068-.418l-5.618-1.359-.718.262a.217.217 0 0 1-.117.008l-.157-.032a.217.217 0 0 1-.174-.213v-.158a.217.217 0 0 1 .01-.068c.17-.51.328-.876.498-1.12a.217.217 0 0 1 .006-.009l.688-.877a.217.217 0 0 1 .136-.08l.94-.156a.217.217 0 0 1 .238.136c.125.321.337.529.682.657.531.143.942.244 1.224.304a.217.217 0 0 1 .043.014c.331.145.672.289 1.024.434l.004.002c.352.136.668.2.945.2l.12-.011c.106-.752.157-1.878.138-3.428-.02-1.545.059-2.702.226-3.558l-7.177-1.666-.547.117a.217.217 0 0 1-.088 0l-.418-.086-.824.238a.217.217 0 0 1-.276-.236c.11-.88.51-1.874 1.188-2.996a.217.217 0 0 1 .136-.1l.688-.156a.217.217 0 0 1 .129.012c.504.201.853.505 1.047.888 1.632.55 2.855.897 3.636 1.037a.217.217 0 0 1 .028.008c.954.311 1.56.498 1.795.557.802.123 1.412.195 1.812.215a.217.217 0 0 1 .053.01c.807.248 1.359.367 1.562.367.288 0 .695-.05 1.206-.153.669-.146 1.088-.231 1.304-.255a.217.217 0 0 1 .01 0l1.461-.094c.289-.037.928-.22 1.86-.551a.217.217 0 0 1 .001 0c.749-.257 1.451-.387 2.106-.387a.217.217 0 0 1 .011 0l.625.032a.217.217 0 0 1 .127.05c.412.343.643.777.643 1.26 0 .38-.182.743-.502 1.063-.319.319-.777.609-1.373.886-1 .49-1.876.722-2.639.678h-.004l-5.177-.248-.207.078c.021.021.019.047.05.068.104.07.272.132.502.17a.217.217 0 0 1 .004 0c.299.054.54.112.733.174.141.046.233.107.328.172h.004c.655.114 1.548.5 2.724 1.15a.217.217 0 0 1 .004.002c.54.311.974.544 1.303.696.329.152.57.215.621.215.125 0 .252-.019.379-.055a.217.217 0 0 1 .275.174 2.3 2.3 0 0 1 .034.379c0 .421-.201.82-.559 1.166-.358.346-.873.653-1.545.941a.217.217 0 0 1-.078.018l-2.377.093a.217.217 0 0 1-.201-.316l.449-.871c-.404-.955-1.29-1.958-2.648-2.986l-.112.562c.001.042.009.119.028.23.021.131.033.23.033.317 0 .12-.025.254-.069.43-.04.158-.056.275-.056.322 0 .075.018.224.058.426.044.215.067.38.067.513 0 .426.005.763.015 1.008.01.245.034.415.04.434a.217.217 0 0 1 .003.107l-.109.486.477.924 2.386.295 2.16-.37a.217.217 0 0 1 .112.01l.937.345a.217.217 0 0 1 .14.171c.023.155.034.3.034.438 0 .45-.19.85-.543 1.135l-.002.002c-.347.3-.76.457-1.205.457a.217.217 0 0 1-.06-.01.217.217 0 0 1-.002 0 6.075 6.075 0 0 0-.16-.023c-.154-.021-.4-.05-.735-.092-.65-.08-1.674-.207-3.004-.366l-.225.208.29.703a.217.217 0 0 1 .015.082c0 .537-.219 1.03-.627 1.437a.217.217 0 0 1-.08.051c-.096.035-.16.032-.242.055.346.108.695.22 1.566.437a.217.217 0 0 1 .002 0c.812.213 1.47.457 2.012.729.862-.983 1.725-1.985 2.586-3.006a.217.217 0 0 1 .01-.01c1.118-1.16 2.21-2 3.285-2.516a.217.217 0 0 1 .137-.017c.279.056.643.058 1.086-.002.607-.084.969-.127 1.156-.127.149 0 .34.022.596.064.266.041.459.06.56.06.755 0 1.266.019 1.567.065a.217.217 0 0 1 .107.05l.658.562a.217.217 0 0 1 .074.203l-.187 1.064a.217.217 0 0 1-.076.13c-.654.544-1.589 1.052-2.81 1.536h-.003c-1.413.582-2.36 1.033-2.808 1.326a.217.217 0 0 1-.008.006c-.752.448-1.541 1.072-2.365 1.875l-.002.002c-.115.115-.821.85-2.092 2.184a.217.217 0 0 1-.008.008c-1.875 1.777-3.244 3.016-4.283 3.902.329.096.62.214.83.389.293.244.453.585.453.965a.217.217 0 0 1-.004.04l-.094.5a.217.217 0 0 1-.088.137c-.65.462-1.192.81-1.632 1.047-.44.237-.769.37-1.057.37zm.037-5.02a113.323 113.323 0 0 0 2.399-3.47c-.02 0-.04.009-.059.009-.452 0-1.08-.212-1.967-.613a.217.217 0 0 1-.002 0c-.584-.271-1.034-.48-1.351-.625a30.39 30.39 0 0 0-.532-.24h-.002a35.594 35.594 0 0 0-1.488-.442l-.336.23zm-6.223-14.192a.217.217 0 0 1-.207-.308c.115-.245.306-1.066.514-2.354.151-1.031.503-1.791 1.086-2.234a.217.217 0 0 1 .229-.022c.342.172.653.222.959.168a.217.217 0 0 1 .228.112c.311.578.454 1.253.434 2.011V234.485a.217.217 0 0 1-.018.088c-.27.609-.741 1.088-1.383 1.42a.217.217 0 0 1-.013.006l-1.752.752a.217.217 0 0 1-.077.017z" aria-label="金" font-weight="400" font-size="32.04" font-family="HakusyuKaisyo" stroke-width="1.624" stroke-linejoin="round" stroke-miterlimit="10"/></g><path d="M74.784 41.178l1.82-11.7 3.88-1.11 3.748 1.057 1.952 11.753zM74.782 24.39l1.823-11.702 3.879-1.109 3.748 1.056 1.952 11.754zM90.039 24.157l1.741-11.312 3.704-1.07 3.58 1.02 1.864 11.362zM105.228 24.004l1.602-10.92 3.415-1.036 3.3.987 1.716 10.97zM89.878 40.96l1.74-11.311 3.704-1.073 3.579 1.022 1.865 11.361zM105.226 40.673l1.604-10.92 3.414-1.037 3.299.987 1.718 10.97zM120.595 23.774l1.537-10.531 3.267-.999 3.159.95 1.645 10.58zM120.656 40.606l1.535-10.53 3.269-.999 3.158.95 1.645 10.579zM86.209 62.33l-1.821 11.7-3.88 1.11-3.747-1.058-1.952-11.753zM86.098 45.823l-1.823 11.701-3.879 1.109-3.748-1.056-1.952-11.754zM70.93 45.887l-1.822 11.701-3.879 1.109-3.748-1.056-1.952-11.754zM115.261 46.165l-1.602 10.92-3.415 1.036-3.3-.986-1.716-10.97zM100.79 62.634l-1.74 11.31-3.704 1.073-3.579-1.021-1.865-11.362zM115.248 62.95l-1.604 10.921-3.414 1.036-3.299-.986-1.718-10.97zM130.263 46.207l-1.536 10.785-3.267 1.023-3.16-.974-1.644-10.834zM130.124 63.153l-1.535 10.53-3.27.998-3.158-.95-1.645-10.578zM100.804 45.954l-1.742 11.311-3.704 1.071-3.579-1.021-1.865-11.361z" fill="#fd5" stroke="#deaa87" stroke-width=".353" stroke-linejoin="round" stroke-miterlimit="10"/><path d="M79.996 21.81l.15-.952.32-.09.31.086.161.956z" fill-rule="evenodd"/><path d="M79.996 21.81l.15-.952.32-.09.31.086.161.956z" fill="none"/><path d="M81.983 19.393a.417.417 0 1 1 .834 0 .417.417 0 0 1-.834 0z" fill-rule="evenodd"/><path d="M81.983 19.393a.417.417 0 1 1 .834 0 .417.417 0 0 1-.834 0z" fill="none"/><path d="M78.149 19.393a.417.417 0 1 1 .834 0 .417.417 0 0 1-.834 0z" fill-rule="evenodd"/><path d="M78.149 19.393a.417.417 0 1 1 .834 0 .417.417 0 0 1-.834 0z" fill="none"/><path d="M80.054 19.393a.417.417 0 1 1 .835 0 .417.417 0 0 1-.835 0z" fill-rule="evenodd"/><path d="M80.054 19.393a.417.417 0 1 1 .835 0 .417.417 0 0 1-.835 0z" fill="none"/><path d="M81.983 23.255c0-.23.186-.416.417-.416a.416.416 0 1 1 0 .833.417.417 0 0 1-.417-.417z" fill-rule="evenodd"/><path d="M81.983 23.255c0-.23.186-.416.417-.416a.416.416 0 1 1 0 .833.417.417 0 0 1-.417-.417z" fill="none"/><path d="M78.149 23.255c0-.23.187-.416.417-.416a.416.416 0 1 1 0 .833.417.417 0 0 1-.417-.417z" fill-rule="evenodd"/><path d="M78.149 23.255c0-.23.187-.416.417-.416a.416.416 0 1 1 0 .833.417.417 0 0 1-.417-.417z" fill="none"/><path d="M79.782 22.012l.223-1.42.479-.134.46.128.24 1.426z" fill-rule="evenodd"/><path d="M79.782 22.012l.223-1.42.479-.134.46.128.24 1.426z" fill="none"/><g stroke-width="1.429"><path style="line-height:normal;font-variant-ligatures:normal;font-variant-position:normal;font-variant-caps:normal;font-variant-numeric:normal;font-variant-alternates:normal;font-variant-east-asian:normal;font-feature-settings:normal;font-variation-settings:normal;text-indent:0;text-align:start;text-decoration-line:none;text-decoration-style:solid;text-decoration-color:#000;text-transform:none;text-orientation:mixed;white-space:normal;shape-padding:0;shape-margin:0;inline-size:0;isolation:auto;mix-blend-mode:normal;solid-color:#000;solid-opacity:1" d="M95.473 20.371a.608.608 0 0 0-.606.606c0 .332.275.604.606.604a.607.607 0 0 0 .604-.604.608.608 0 0 0-.604-.606zm0 .37a.23.23 0 0 1 .233.236.23.23 0 0 1-.233.233.23.23 0 0 1-.235-.233c0-.132.103-.235.235-.235z" color="#000" font-weight="400" font-family="sans-serif" overflow="visible"/><path d="M96.993 19.068a.42.42 0 1 1 .838 0 .42.42 0 0 1-.838 0z" fill-rule="evenodd"/><path d="M96.993 19.068a.42.42 0 1 1 .838 0 .42.42 0 0 1-.838 0z" fill="none"/><path d="M93.135 19.068a.42.42 0 1 1 .838 0 .42.42 0 0 1-.838 0z" fill-rule="evenodd"/><path d="M93.135 19.068a.42.42 0 1 1 .838 0 .42.42 0 0 1-.838 0z" fill="none"/><path style="line-height:normal;font-variant-ligatures:normal;font-variant-position:normal;font-variant-caps:normal;font-variant-numeric:normal;font-variant-alternates:normal;font-variant-east-asian:normal;font-feature-settings:normal;font-variation-settings:normal;text-indent:0;text-align:start;text-decoration-line:none;text-decoration-style:solid;text-decoration-color:#000;text-transform:none;text-orientation:mixed;white-space:normal;shape-padding:0;shape-margin:0;inline-size:0;isolation:auto;mix-blend-mode:normal;solid-color:#000;solid-opacity:1" d="M95.473 18.464a.608.608 0 0 0-.606.604c0 .332.274.605.606.605a.608.608 0 0 0 .604-.605.607.607 0 0 0-.604-.604zm0 .37a.23.23 0 0 1 .233.234.23.23 0 0 1-.233.235.233.233 0 0 1-.235-.235.23.23 0 0 1 .235-.234z" color="#000" font-weight="400" font-family="sans-serif" overflow="visible"/><path d="M94.994 23.479l.15-.958.323-.09.312.085.16.963z" fill-rule="evenodd"/><path d="M94.994 23.479l.15-.958.323-.09.312.085.16.963z" fill="none"/><path d="M94.762 23.667l.224-1.42.478-.135.46.128.242 1.427z" fill-rule="evenodd"/><path d="M94.762 23.667l.224-1.42.478-.135.46.128.242 1.427z" fill="none"/></g><path d="M109.602 23.42l.191-1.213.407-.115.395.109.205 1.219z" fill-rule="evenodd"/><path d="M109.602 23.42l.191-1.213.407-.115.395.109.205 1.219z" fill="none"/><path style="line-height:normal;font-variant-ligatures:normal;font-variant-position:normal;font-variant-caps:normal;font-variant-numeric:normal;font-variant-alternates:normal;font-variant-east-asian:normal;font-feature-settings:normal;font-variation-settings:normal;text-indent:0;text-align:start;text-decoration-line:none;text-decoration-style:solid;text-decoration-color:#000;text-transform:none;text-orientation:mixed;white-space:normal;shape-padding:0;shape-margin:0;inline-size:0;isolation:auto;mix-blend-mode:normal;solid-color:#000;solid-opacity:1" d="M109.876 19.384v2.134h.648v-2.134z" color="#000" font-weight="400" font-family="sans-serif" overflow="visible"/><path d="M109.543 23.606l.225-1.419.477-.135.461.128.24 1.426z" fill-rule="evenodd"/><path d="M109.543 23.606l.225-1.419.477-.135.461.128.24 1.426z" fill="none"/><path d="M125.035 22.32l.135-.862.29-.081.28.078.146.865z" fill-rule="evenodd"/><path d="M125.035 22.32l.135-.862.29-.081.28.078.146.865z" fill="none"/><path d="M125.089 20.134a.377.377 0 1 1 .753 0 .377.377 0 0 1-.753 0z" fill-rule="evenodd"/><path d="M125.089 20.134a.377.377 0 1 1 .753 0 .377.377 0 0 1-.753 0z" fill="none"/><path d="M124.758 22.625l.224-1.42.478-.134.462.128.24 1.426z" fill-rule="evenodd"/><path d="M124.758 22.625l.224-1.42.478-.134.462.128.24 1.426z" fill="none"/><path d="M80 38.893l.15-.952.32-.09.31.085.16.957z" fill="red" fill-rule="evenodd"/><path d="M80 38.893l.15-.952.32-.09.31.085.16.957z" fill="none"/><path d="M81.988 38.372a.417.417 0 1 1 .834 0 .417.417 0 0 1-.834 0z" fill="red" fill-rule="evenodd"/><path d="M81.988 38.372a.417.417 0 1 1 .834 0 .417.417 0 0 1-.834 0z" fill="none"/><path d="M78.154 38.372a.416.416 0 1 1 .833 0 .417.417 0 0 1-.833 0z" fill="red" fill-rule="evenodd"/><path d="M78.154 38.372a.416.416 0 1 1 .833 0 .417.417 0 0 1-.833 0z" fill="none"/><path d="M81.988 36.475a.417.417 0 1 1 .834 0 .417.417 0 0 1-.834 0z" fill="red" fill-rule="evenodd"/><path d="M81.988 36.475a.417.417 0 1 1 .834 0 .417.417 0 0 1-.834 0z" fill="none"/><path d="M78.154 36.475a.416.416 0 1 1 .833 0 .417.417 0 0 1-.833 0z" fill="red" fill-rule="evenodd"/><path d="M78.154 36.475a.416.416 0 1 1 .833 0 .417.417 0 0 1-.833 0z" fill="none"/><path d="M80.06 36.475a.417.417 0 1 1 .834 0 .417.417 0 0 1-.834 0z" fill="red" fill-rule="evenodd"/><path d="M80.06 36.475a.417.417 0 1 1 .834 0 .417.417 0 0 1-.834 0z" fill="none"/><path d="M80.06 40.338a.417.417 0 1 1 .834 0 .417.417 0 0 1-.834 0z" fill="red" fill-rule="evenodd"/><path d="M80.06 40.338a.417.417 0 1 1 .834 0 .417.417 0 0 1-.834 0z" fill="none"/><path d="M79.778 39.169l.223-1.42.479-.134.46.128.24 1.426z" fill="red" fill-rule="evenodd"/><path d="M79.778 39.169l.223-1.42.479-.134.46.128.24 1.426z" fill="none"/><path d="M94.848 38.47l.15-.953.322-.09.308.086.162.956z" fill="red" fill-rule="evenodd"/><path d="M94.848 38.47l.15-.953.322-.09.308.086.162.956z" fill="none"/><path d="M96.836 37.948a.417.417 0 1 1 .835 0 .417.417 0 0 1-.835 0z" fill="red" fill-rule="evenodd"/><path d="M96.836 37.948a.417.417 0 1 1 .835 0 .417.417 0 0 1-.835 0z" fill="none"/><path d="M93.001 37.948a.417.417 0 1 1 .834 0 .417.417 0 0 1-.834 0z" fill="red" fill-rule="evenodd"/><path d="M93.001 37.948a.417.417 0 1 1 .834 0 .417.417 0 0 1-.834 0z" fill="none"/><path d="M96.836 36.051a.417.417 0 1 1 .835 0 .417.417 0 0 1-.835 0z" fill="red" fill-rule="evenodd"/><path d="M96.836 36.051a.417.417 0 1 1 .835 0 .417.417 0 0 1-.835 0z" fill="none"/><path d="M93.001 36.051a.417.417 0 1 1 .835.001.417.417 0 0 1-.835 0z" fill="red" fill-rule="evenodd"/><path d="M93.001 36.051a.417.417 0 1 1 .835.001.417.417 0 0 1-.835 0z" fill="none"/><path d="M94.908 36.051a.417.417 0 1 1 .835 0 .417.417 0 0 1-.835 0z" fill="red" fill-rule="evenodd"/><path d="M94.908 36.051a.417.417 0 1 1 .835 0 .417.417 0 0 1-.835 0z" fill="none"/><path d="M94.908 39.914a.417.417 0 1 1 .834 0 .417.417 0 0 1-.834 0z" fill="red" fill-rule="evenodd"/><path d="M94.908 39.914a.417.417 0 1 1 .834 0 .417.417 0 0 1-.834 0z" fill="none"/><path d="M94.634 38.76l.225-1.42.477-.134.461.128.241 1.426z" fill="red" fill-rule="evenodd"/><path d="M94.634 38.76l.225-1.42.477-.134.461.128.241 1.426z" fill="none"/><path d="M109.756 38.253l.15-.952.321-.09.309.086.161.956z" fill="red" fill-rule="evenodd"/><path d="M109.756 38.253l.15-.952.321-.09.309.086.161.956z" fill="none"/><path d="M111.744 37.732a.417.417 0 1 1 .834 0 .417.417 0 0 1-.834 0z" fill="red" fill-rule="evenodd"/><path d="M111.744 37.732a.417.417 0 1 1 .834 0 .417.417 0 0 1-.834 0z" fill="none"/><path d="M107.909 37.732a.417.417 0 1 1 .834 0 .417.417 0 0 1-.834 0z" fill="red" fill-rule="evenodd"/><path d="M107.909 37.732a.417.417 0 1 1 .834 0 .417.417 0 0 1-.834 0z" fill="none"/><path d="M111.744 35.835a.417.417 0 1 1 .834 0 .417.417 0 0 1-.834 0z" fill="red" fill-rule="evenodd"/><path d="M111.744 35.835a.417.417 0 1 1 .834 0 .417.417 0 0 1-.834 0z" fill="none"/><path d="M107.909 35.835a.417.417 0 1 1 .834 0 .417.417 0 0 1-.834 0z" fill="red" fill-rule="evenodd"/><path d="M107.909 35.835a.417.417 0 1 1 .834 0 .417.417 0 0 1-.834 0z" fill="none"/><path d="M109.816 35.835a.417.417 0 1 1 .834 0 .417.417 0 0 1-.834 0z" fill="red" fill-rule="evenodd"/><path d="M109.816 35.835a.417.417 0 1 1 .834 0 .417.417 0 0 1-.834 0z" fill="none"/><path d="M109.816 39.698a.417.417 0 1 1 .834 0 .417.417 0 0 1-.834 0z" fill="red" fill-rule="evenodd"/><path d="M109.816 39.698a.417.417 0 1 1 .834 0 .417.417 0 0 1-.834 0z" fill="none"/><path d="M109.563 38.544l.224-1.42.478-.135.46.128.24 1.427z" fill="red" fill-rule="evenodd"/><path d="M109.563 38.544l.224-1.42.478-.135.46.128.24 1.427z" fill="none"/><path d="M124.972 38.186l.15-.952.321-.09.309.085.161.957z" fill="red" fill-rule="evenodd"/><path d="M124.972 38.186l.15-.952.321-.09.309.085.161.957z" fill="none"/><path d="M126.96 37.665a.417.417 0 1 1 .834 0 .417.417 0 0 1-.834 0z" fill="red" fill-rule="evenodd"/><path d="M126.96 37.665a.417.417 0 1 1 .834 0 .417.417 0 0 1-.834 0z" fill="none"/><path d="M123.125 37.665a.417.417 0 1 1 .834 0 .417.417 0 0 1-.834 0z" fill="red" fill-rule="evenodd"/><path d="M123.125 37.665a.417.417 0 1 1 .834 0 .417.417 0 0 1-.834 0z" fill="none"/><path d="M126.96 35.768a.417.417 0 1 1 .834 0 .417.417 0 0 1-.834 0z" fill="red" fill-rule="evenodd"/><path d="M126.96 35.768a.417.417 0 1 1 .834 0 .417.417 0 0 1-.834 0z" fill="none"/><path d="M123.125 35.768a.417.417 0 1 1 .834 0 .417.417 0 0 1-.834 0z" fill="red" fill-rule="evenodd"/><path d="M123.125 35.768a.417.417 0 1 1 .834 0 .417.417 0 0 1-.834 0z" fill="none"/><path d="M125.032 35.768a.417.417 0 1 1 .834 0 .417.417 0 0 1-.834 0z" fill="red" fill-rule="evenodd"/><path d="M125.032 35.768a.417.417 0 1 1 .834 0 .417.417 0 0 1-.834 0z" fill="none"/><path d="M125.032 39.63a.417.417 0 1 1 .834 0 .417.417 0 0 1-.834 0z" fill="red" fill-rule="evenodd"/><path d="M125.032 39.63a.417.417 0 1 1 .834 0 .417.417 0 0 1-.834 0z" fill="none"/><path d="M124.777 38.476l.225-1.42.477-.134.463.128.24 1.426z" fill="red" fill-rule="evenodd"/><path d="M124.777 38.476l.225-1.42.477-.134.463.128.24 1.426z" fill="none"/><path d="M80.884 48.402l-.15.952-.32.09-.31-.086-.161-.956z" fill-rule="evenodd"/><path d="M80.884 48.402l-.15.952-.32.09-.31-.086-.161-.956z" fill="none"/><path d="M78.897 50.82a.417.417 0 1 1-.834 0 .417.417 0 0 1 .834 0z" fill-rule="evenodd"/><path d="M78.897 50.82a.417.417 0 1 1-.834 0 .417.417 0 0 1 .834 0z" fill="none"/><path d="M82.731 50.82a.417.417 0 1 1-.835 0 .417.417 0 0 1 .835 0z" fill-rule="evenodd"/><path d="M82.731 50.82a.417.417 0 1 1-.835 0 .417.417 0 0 1 .835 0z" fill="none"/><path d="M80.825 50.82a.417.417 0 1 1-.834 0 .417.417 0 0 1 .834 0z" fill-rule="evenodd"/><path d="M80.825 50.82a.417.417 0 1 1-.834 0 .417.417 0 0 1 .834 0z" fill="none"/><path d="M78.897 46.957c0 .23-.187.416-.417.416a.416.416 0 1 1 0-.833c.23 0 .417.187.417.417z" fill-rule="evenodd"/><path d="M78.897 46.957c0 .23-.187.416-.417.416a.416.416 0 1 1 0-.833c.23 0 .417.187.417.417z" fill="none"/><path d="M82.731 46.957c0 .23-.187.416-.417.416a.416.416 0 1 1 0-.833c.23 0 .417.187.417.417z" fill-rule="evenodd"/><path d="M82.731 46.957c0 .23-.187.416-.417.416a.416.416 0 1 1 0-.833c.23 0 .417.187.417.417z" fill="none"/><path d="M81.098 48.2l-.223 1.42-.479.135-.46-.128-.24-1.427z" fill-rule="evenodd"/><path d="M81.098 48.2l-.223 1.42-.479.135-.46-.128-.24-1.427z" fill="none"/><path d="M65.717 48.466l-.15.952-.32.09-.31-.086-.161-.956z" fill-rule="evenodd"/><path d="M65.717 48.466l-.15.952-.32.09-.31-.086-.161-.956z" fill="none"/><path d="M63.729 48.987a.417.417 0 1 1-.834 0 .417.417 0 0 1 .834 0z" fill-rule="evenodd"/><path d="M63.729 48.987a.417.417 0 1 1-.834 0 .417.417 0 0 1 .834 0z" fill="none"/><path d="M67.564 48.987a.417.417 0 1 1-.835 0 .417.417 0 0 1 .835 0z" fill-rule="evenodd"/><path d="M67.564 48.987a.417.417 0 1 1-.835 0 .417.417 0 0 1 .835 0z" fill="none"/><path d="M63.729 50.884a.417.417 0 1 1-.834 0 .417.417 0 0 1 .834 0z" fill-rule="evenodd"/><path d="M63.729 50.884a.417.417 0 1 1-.834 0 .417.417 0 0 1 .834 0z" fill="none"/><path d="M67.564 50.884a.417.417 0 1 1-.835 0 .417.417 0 0 1 .835 0z" fill-rule="evenodd"/><path d="M67.564 50.884a.417.417 0 1 1-.835 0 .417.417 0 0 1 .835 0z" fill="none"/><path d="M65.658 50.884a.417.417 0 1 1-.834 0 .417.417 0 0 1 .834 0z" fill-rule="evenodd"/><path d="M65.658 50.884a.417.417 0 1 1-.834 0 .417.417 0 0 1 .834 0z" fill="none"/><path d="M65.658 47.021c0 .23-.186.416-.417.416a.416.416 0 1 1 0-.833c.23 0 .417.187.417.417z" fill-rule="evenodd"/><path d="M65.658 47.021c0 .23-.186.416-.417.416a.416.416 0 1 1 0-.833c.23 0 .417.187.417.417z" fill="none"/><path d="M65.931 48.264l-.224 1.42-.478.135-.46-.128-.242-1.427z" fill-rule="evenodd"/><path d="M65.931 48.264l-.224 1.42-.478.135-.46-.128-.242-1.427z" fill="none"/><path d="M110.887 47.12l-.191 1.213-.407.114-.395-.108-.205-1.219z" fill-rule="evenodd"/><path d="M110.887 47.12l-.191 1.213-.407.114-.395-.108-.205-1.219z" fill="none"/><path style="line-height:normal;font-variant-ligatures:normal;font-variant-position:normal;font-variant-caps:normal;font-variant-numeric:normal;font-variant-alternates:normal;font-variant-east-asian:normal;font-feature-settings:normal;font-variation-settings:normal;text-indent:0;text-align:start;text-decoration-line:none;text-decoration-style:solid;text-decoration-color:#000;text-transform:none;text-orientation:mixed;white-space:normal;shape-padding:0;shape-margin:0;inline-size:0;isolation:auto;mix-blend-mode:normal;solid-color:#000;solid-opacity:1" d="M110.613 51.156V49.02h-.648v2.135z" color="#000" font-weight="400" font-family="sans-serif" overflow="visible"/><path d="M110.946 46.933l-.225 1.42-.477.135-.461-.128-.24-1.427z" fill-rule="evenodd"/><path d="M110.946 46.933l-.225 1.42-.477.135-.461-.128-.24-1.427z" fill="none"/><path d="M125.711 48.624l-.135.862-.29.081-.28-.078-.146-.865z" fill-rule="evenodd"/><path d="M125.711 48.624l-.135.862-.29.081-.28-.078-.146-.865z" fill="none"/><path d="M125.657 50.81a.377.377 0 1 1-.754 0 .377.377 0 0 1 .754 0z" fill-rule="evenodd"/><path d="M125.657 50.81a.377.377 0 1 1-.754 0 .377.377 0 0 1 .754 0z" fill="none"/><path d="M125.988 48.319l-.224 1.42-.478.134-.462-.128-.24-1.426z" fill-rule="evenodd"/><path d="M125.988 48.319l-.224 1.42-.478.134-.462-.128-.24-1.426z" fill="none"/><g stroke-width="1.429"><path style="line-height:normal;font-variant-ligatures:normal;font-variant-position:normal;font-variant-caps:normal;font-variant-numeric:normal;font-variant-alternates:normal;font-variant-east-asian:normal;font-feature-settings:normal;font-variation-settings:normal;text-indent:0;text-align:start;text-decoration-line:none;text-decoration-style:solid;text-decoration-color:#000;text-transform:none;text-orientation:mixed;white-space:normal;shape-padding:0;shape-margin:0;inline-size:0;isolation:auto;mix-blend-mode:normal;solid-color:#000;solid-opacity:1" d="M95.37 50.11a.608.608 0 0 0 .605-.606.608.608 0 0 0-.606-.604.607.607 0 0 0-.603.604c0 .332.271.606.603.606zm0-.37a.23.23 0 0 1-.234-.236.23.23 0 0 1 .233-.233.23.23 0 0 1 .236.233.233.233 0 0 1-.236.236z" color="#000" font-weight="400" font-family="sans-serif" overflow="visible"/><path d="M93.85 51.413a.42.42 0 1 1-.839 0 .42.42 0 0 1 .839 0z" fill-rule="evenodd"/><path d="M93.85 51.413a.42.42 0 1 1-.839 0 .42.42 0 0 1 .839 0z" fill="none"/><path d="M97.707 51.413a.42.42 0 1 1-.838 0 .42.42 0 0 1 .838 0z" fill-rule="evenodd"/><path d="M97.707 51.413a.42.42 0 1 1-.838 0 .42.42 0 0 1 .838 0z" fill="none"/><path style="line-height:normal;font-variant-ligatures:normal;font-variant-position:normal;font-variant-caps:normal;font-variant-numeric:normal;font-variant-alternates:normal;font-variant-east-asian:normal;font-feature-settings:normal;font-variation-settings:normal;text-indent:0;text-align:start;text-decoration-line:none;text-decoration-style:solid;text-decoration-color:#000;text-transform:none;text-orientation:mixed;white-space:normal;shape-padding:0;shape-margin:0;inline-size:0;isolation:auto;mix-blend-mode:normal;solid-color:#000;solid-opacity:1" d="M95.37 52.017a.608.608 0 0 0 .605-.604.608.608 0 0 0-.606-.605.608.608 0 0 0-.603.605c0 .332.272.604.603.604zm0-.37a.23.23 0 0 1-.234-.234.23.23 0 0 1 .233-.235c.132 0 .236.103.236.235a.23.23 0 0 1-.236.234z" color="#000" font-weight="400" font-family="sans-serif" overflow="visible"/><path d="M95.849 47.002l-.151.958-.322.09-.312-.085-.161-.963z" fill-rule="evenodd"/><path d="M95.849 47.002l-.151.958-.322.09-.312-.085-.161-.963z" fill="none"/><path d="M96.08 46.814l-.224 1.42-.477.135-.461-.128-.241-1.427z" fill-rule="evenodd"/><path d="M96.08 46.814l-.224 1.42-.477.135-.461-.128-.241-1.427z" fill="none"/></g><path d="M80.856 65.007l-.151.952-.321.09-.309-.086-.16-.956z" fill="red" fill-rule="evenodd"/><path d="M80.856 65.007l-.151.952-.321.09-.309-.086-.16-.956z" fill="none"/><path d="M78.867 65.528a.417.417 0 1 1-.834 0 .417.417 0 0 1 .834 0z" fill="red" fill-rule="evenodd"/><path d="M78.867 65.528a.417.417 0 1 1-.834 0 .417.417 0 0 1 .834 0z" fill="none"/><path d="M82.7 65.528a.416.416 0 1 1-.832 0 .417.417 0 0 1 .833 0z" fill="red" fill-rule="evenodd"/><path d="M82.7 65.528a.416.416 0 1 1-.832 0 .417.417 0 0 1 .833 0z" fill="none"/><path d="M78.867 67.425a.417.417 0 1 1-.834 0 .417.417 0 0 1 .834 0z" fill="red" fill-rule="evenodd"/><path d="M78.867 67.425a.417.417 0 1 1-.834 0 .417.417 0 0 1 .834 0z" fill="none"/><path d="M82.7 67.425a.416.416 0 1 1-.832 0 .417.417 0 0 1 .833 0z" fill="red" fill-rule="evenodd"/><path d="M82.7 67.425a.416.416 0 1 1-.832 0 .417.417 0 0 1 .833 0z" fill="none"/><path d="M80.795 67.425a.417.417 0 1 1-.834 0 .417.417 0 0 1 .834 0z" fill="red" fill-rule="evenodd"/><path d="M80.795 67.425a.417.417 0 1 1-.834 0 .417.417 0 0 1 .834 0z" fill="none"/><path d="M80.795 63.562a.417.417 0 1 1-.834 0 .417.417 0 0 1 .834 0z" fill="red" fill-rule="evenodd"/><path d="M80.795 63.562a.417.417 0 1 1-.834 0 .417.417 0 0 1 .834 0z" fill="none"/><path d="M81.077 64.73l-.223 1.42-.479.135-.46-.128-.24-1.426z" fill="red" fill-rule="evenodd"/><path d="M81.077 64.73l-.223 1.42-.479.135-.46-.128-.24-1.426z" fill="none"/><path d="M95.697 64.728l-.15.953-.322.09-.308-.086-.162-.957z" fill="red" fill-rule="evenodd"/><path d="M95.697 64.728l-.15.953-.322.09-.308-.086-.162-.957z" fill="none"/><path d="M93.709 65.25a.417.417 0 1 1-.835 0 .417.417 0 0 1 .835 0z" fill="red" fill-rule="evenodd"/><path d="M93.709 65.25a.417.417 0 1 1-.835 0 .417.417 0 0 1 .835 0z" fill="none"/><path d="M97.544 65.25a.417.417 0 1 1-.834 0 .417.417 0 0 1 .834 0z" fill="red" fill-rule="evenodd"/><path d="M97.544 65.25a.417.417 0 1 1-.834 0 .417.417 0 0 1 .834 0z" fill="none"/><path d="M93.709 67.147a.417.417 0 1 1-.835-.001.417.417 0 0 1 .835 0z" fill="red" fill-rule="evenodd"/><path d="M93.709 67.147a.417.417 0 1 1-.835-.001.417.417 0 0 1 .835 0z" fill="none"/><path d="M97.544 67.147a.417.417 0 1 1-.835-.001.417.417 0 0 1 .835 0z" fill="red" fill-rule="evenodd"/><path d="M97.544 67.147a.417.417 0 1 1-.835-.001.417.417 0 0 1 .835 0z" fill="none"/><path d="M95.637 67.147a.417.417 0 1 1-.835-.001.417.417 0 0 1 .835 0z" fill="red" fill-rule="evenodd"/><path d="M95.637 67.147a.417.417 0 1 1-.835-.001.417.417 0 0 1 .835 0z" fill="none"/><path d="M95.637 63.284a.417.417 0 1 1-.834 0 .417.417 0 0 1 .834 0z" fill="red" fill-rule="evenodd"/><path d="M95.637 63.284a.417.417 0 1 1-.834 0 .417.417 0 0 1 .834 0z" fill="none"/><path d="M95.91 64.438l-.224 1.42-.477.134-.461-.128-.241-1.426z" fill="red" fill-rule="evenodd"/><path d="M95.91 64.438l-.224 1.42-.477.134-.461-.128-.241-1.426z" fill="none"/><path d="M110.732 65.205l-.15.953-.322.09-.308-.086-.162-.957z" fill="red" fill-rule="evenodd"/><path d="M110.732 65.205l-.15.953-.322.09-.308-.086-.162-.957z" fill="none"/><path d="M108.743 65.727a.417.417 0 1 1-.834 0 .417.417 0 0 1 .834 0z" fill="red" fill-rule="evenodd"/><path d="M108.743 65.727a.417.417 0 1 1-.834 0 .417.417 0 0 1 .834 0z" fill="none"/><path d="M112.579 65.727a.417.417 0 1 1-.834 0 .417.417 0 0 1 .834 0z" fill="red" fill-rule="evenodd"/><path d="M112.579 65.727a.417.417 0 1 1-.834 0 .417.417 0 0 1 .834 0z" fill="none"/><path d="M108.743 67.624a.417.417 0 1 1-.834-.001.417.417 0 0 1 .834 0z" fill="red" fill-rule="evenodd"/><path d="M108.743 67.624a.417.417 0 1 1-.834-.001.417.417 0 0 1 .834 0z" fill="none"/><path d="M112.579 67.624a.417.417 0 1 1-.835-.001.417.417 0 0 1 .835 0z" fill="red" fill-rule="evenodd"/><path d="M112.579 67.624a.417.417 0 1 1-.835-.001.417.417 0 0 1 .835 0z" fill="none"/><path d="M110.672 67.624a.417.417 0 1 1-.835-.001.417.417 0 0 1 .835 0z" fill="red" fill-rule="evenodd"/><path d="M110.672 67.624a.417.417 0 1 1-.835-.001.417.417 0 0 1 .835 0z" fill="none"/><path d="M110.672 63.76a.417.417 0 1 1-.835 0 .417.417 0 0 1 .835 0z" fill="red" fill-rule="evenodd"/><path d="M110.672 63.76a.417.417 0 1 1-.835 0 .417.417 0 0 1 .835 0z" fill="none"/><path d="M110.925 64.915l-.225 1.42-.477.134-.461-.128-.24-1.426z" fill="red" fill-rule="evenodd"/><path d="M110.925 64.915l-.225 1.42-.477.134-.461-.128-.24-1.426z" fill="none"/><path d="M125.808 65.573l-.15.952-.322.09-.308-.086-.162-.956z" fill="red" fill-rule="evenodd"/><path d="M125.808 65.573l-.15.952-.322.09-.308-.086-.162-.956z" fill="none"/><path d="M123.82 66.094a.417.417 0 1 1-.835 0 .417.417 0 0 1 .835 0z" fill="red" fill-rule="evenodd"/><path d="M123.82 66.094a.417.417 0 1 1-.835 0 .417.417 0 0 1 .835 0z" fill="none"/><path d="M127.655 66.094a.417.417 0 1 1-.834 0 .417.417 0 0 1 .834 0z" fill="red" fill-rule="evenodd"/><path d="M127.655 66.094a.417.417 0 1 1-.834 0 .417.417 0 0 1 .834 0z" fill="none"/><path d="M123.82 67.99a.417.417 0 1 1-.835 0 .417.417 0 0 1 .835 0z" fill="red" fill-rule="evenodd"/><path d="M123.82 67.99a.417.417 0 1 1-.835 0 .417.417 0 0 1 .835 0z" fill="none"/><path d="M127.655 67.99a.417.417 0 1 1-.835 0 .417.417 0 0 1 .835 0z" fill="red" fill-rule="evenodd"/><path d="M127.655 67.99a.417.417 0 1 1-.835 0 .417.417 0 0 1 .835 0z" fill="none"/><path d="M125.748 67.99a.417.417 0 1 1-.835 0 .417.417 0 0 1 .835 0z" fill="red" fill-rule="evenodd"/><path d="M125.748 67.99a.417.417 0 1 1-.835 0 .417.417 0 0 1 .835 0z" fill="none"/><path d="M125.748 64.128a.417.417 0 1 1-.834 0 .417.417 0 0 1 .834 0z" fill="red" fill-rule="evenodd"/><path d="M125.748 64.128a.417.417 0 1 1-.834 0 .417.417 0 0 1 .834 0z" fill="none"/><path d="M126.002 65.282l-.224 1.42-.478.135-.462-.129-.24-1.426z" fill="red" fill-rule="evenodd"/><path d="M126.002 65.282l-.224 1.42-.478.135-.462-.129-.24-1.426z" fill="none"/><g aria-label="全" style="line-height:125%;-inkscape-font-specification:'EPSON 太行書体Ｂ, Normal'" font-size="72.314" font-family="EPSON 太行書体Ｂ" letter-spacing="0" word-spacing="0" fill="red" stroke-width="2.489"><path d="M79.21 34.988l.345-.195.12.112zm0-.878q0-.098.645-.353l-.015.293q-.09.15-.248.277-.382-.112-.382-.217zm-2.522-.623q0 .067.172.067.406 0 1.096-.428.263-.187.833-.788.293.368.75.368.129 0 .406-.045-.037.195-.06.42-1.08.45-1.08.699 0 .36.525.788-.398.3-.713.428-.143.03-.353.045-.21.03-.21.202 0 .195.225.316.18.097.353.097.187 0 .998-.195.586-.113 1.013-.113.781 0 1.66.068.39 0 .39-.383 0-.21-.158-.353-.42-.3-.66-.3-.196 0-.503.338-.654.097-.976.127l.007-.69q.308-.308.646-.593.195-.098.195-.24 0-.293-.728-.473.052-.203.262-.398.601-.15.601-.413 0-.24-.188-.353-.292-.142-.495-.142-.135 0-.375.277-.759.33-1.359.346.608-.721 1.276-1.577.848.676 1.659 1.577.518.548.75.623.443.127 1.044.127.48 0 .48-.202 0-.368-.337-.744-.166-.187-.623-.337-.556-.15-.736-.233-.736-.503-1.914-1.224.368-.442.368-.57 0-.143-.24-.353-.21-.172-.383-.172-.466.022-.466.15 0 .135.165.27-1.681 2.8-3.19 3.836-.127.045-.127.15z"/></g><g stroke-width="1.774"><g clip-path="url(#b)" transform="matrix(.19884 0 0 -.19884 -22.88 63.846)"><path d="M513.587 254.698q.313.094 1.126-.25.689-.25 1.096-.532-.032-.094-.032-.125.032-.094.22-.5.187-.376.187-.595l-.031-.188q-1.596-.657-2.284-2.847 2.753-.063 4.224-1.19l.281-1.313-.156-.532h-.188q-1.189-.031-2.503.782-1.126.72-2.222 1.44-1.282-1.19-2.565-4.193h.156q.876-.032 2.316.813 1.439.876 2.221.876.188 0 .376-.031l.625-.688v-.564q-.813-.187-1.846-.72-.845-.469-1.72-.97l1.439-.813.281-.657q.939.282 2.253.282.188 0 .438-.063.188-.281.344-.563.25-.375.25-.595 0-.093-.03-.25-.564-.25-1.847-.407-1.283-.156-1.846-.469v-4.255q1.408 1.314 1.721 2.284l-.281.688 2.94-.156.407-1.627-3.222-1.408q-.22.094-.438.094-.657 0-1.19-.657v-1.596q1.503.75 2.848.75.188 0 .438-.03.313-.188.72-.877-.72-.72-2.16-1.282l-2.315-.908q-.813-.438-2.44-1.22-.689-.188-2.034-.72-.907-.438-1.189-1.251l-.782.344q-.5.72-.5 1.752 0 .47.093.939l.688-.157q1.095.22 2.66.939 1.909.845 2.597 1.064l-.22 2.159q0 .563.095 1.72.125 1.158.125 1.721l-.25 1.033q-2.691-.657-3.41-1.47-.658.25-1.94 1.188 1.094.22 2.721 1.002 1.972.97 2.66 1.189.062.156.062.313 0 .375-.594 1-.563.627-.563.752 0 .094.094.219l-1.346.626-1.69-1.815q-.312-.532-1.063-1.502-.626-.688-1.408-.97-.188-.47-.782-.876-.564-.407-1.064-.376h-.032q6.32 7.885 8.605 14.8l-1.064.97.063.188h.062q.094 0 .282-.094.188-.063.25-.063zm16.677-2.002q.313-.72.313-1.377 0-.188-.031-.407l-.689-.438q-.125-1.063-.219-2.096-.187-1.189-.438-2.002-.281-.595-.688-2.097.939-.313 2.753-1.095l.345-.626q-.47-.75-1.972-1.032-.438-.282-1.22-.845-.313-.25-.782-.907-.438-.658-.782-.94 1.063-2.44 3.66-4.536 1.659-1.314 4.913-3.16l.188-.72q-.376-.375-1.033-.563-.876-.22-1.095-.313l-.657.125-1.064-.375-1.408.125q-2.19 1.783-3.63 4.161-1.063-.563-3.035-2.628-.594-.5-1.69-1.564-.656-.689-.656-1.784l-.876-.313-1.22 1.22-.126 1.346.845 6.633q-.031.313-.063.97.094 1.252.438 9.168 0 .125-.03.407-.032.281-.032.406 0 1.408-.47 2.284-.156.345-.844 1.096-.47.5-.47 1.063l1.408-.5q1.283.281 3.849.876.72.188 1.502.47.47.218 1.47.656.282.125.908.125.688 0 2.628-.813zm-9.042-2.503q.344-.25.469-.939.156-.688.375-.939.939.188 2.566.751 1.721.595 2.534.783l-.062 1.69q-3.88-.282-5.882-1.346zm4.067-2.566q-.375 0-1.126-.094-.72-.062-1.127-.062-.657 0-1.189-.438l-.344-2.19q0-.251.094-.689.125-.094.25-.156 2.316.782 5.007 2.158l.03 1.471zm-1.502-4.161v-.501l2.003-2.847q.031.031 1.001 1.095.751.782.657 1.251l-.188 1.002h.689l.438.594-.939.282zm-2.284-.657q-.281-2.879-.688-4.631l.125-.563-.125-2.034.375-.313q1.565.939 3.13 2.847-.501.908-.908 2.44-.376 1.284-.72 2.566zm-10.607-8.605l-.594-2.128q-.376.094-.908.47v.187q.032.25-.219.751.22 2.441.22 2.16 0 .625-.658 1.345 1.095-.22 1.47-.689.282-.312.376-.97.094-.782.313-1.126zm14.174 2.378q-.563-.282-1.596-.939-1.095-.75-1.627-1-.469.218-.594.218-.157 0-.22-.031-.25-.25-.25-1.721l.157-1.47q2.284.938 5.32 2.94-.251.532-.502 1.096-.375.72-.688.907z" aria-label="銀" font-weight="400" font-size="32.04" font-family="HakusyuKaisyo" stroke-width="1.624" stroke-linejoin="round" stroke-miterlimit="10"/></g></g><g stroke-width="1.774"><g clip-path="url(#c)" transform="matrix(.19884 0 0 -.19884 -28.013 63.78)"><path d="M626.046 255.379q.376-.188 1.472-.282.94-.062 1.41-.532l-.157-.814q-.533-.188-.564-.627v-.814l-.313-.908.156-.438 1.222.22q.313-.095 1.158-.126.846 0 1.378-.564.063-.156.063-.313 0-.407-.72-1.158-.032 0-1.128-.345-.626-.188-1.033-.595l-1.19-.47-.157-2.191q.407-.094.877-.094 1.065 0 1.91.281 2.662-.313 3.946-1.283v-.877l-1.723-.22q-.219-.03-.97.283-.72.313-1.159.313-.188 0-.376-.063-.313.125-.595.125-1.315 0-3.882-.595-.094-.03-1.597-.595-1.503-.563-1.628-.626-.533-.282-.752-.689l-1.19.345q-.094.344-.47.563-.344.22-.344.439 0 .031.031.125l.533-.031q.939.438 2.724.97 1.941.595 2.755.94l-.094.5.22 1.316-2.85.751-.877.846q2.224.407 3.727 1.127 0 .313.093 1.033.094.752.094 1.096l-.156 2.16q-.783.345-1.253 1.003zm-10.301-1.002q.939-.376 1.878-.72.971-.47 1.159-1.535-.814-.156-.94-.97v-1.566q0-.156-.062-.438-.063-.282-.063-.439 0-.438.407-.72.094 0 .407.032.22.03.376.03.69 0 1.033-.625l-.156-.72q-.72-.408-1.44-.783-1.002-.533-.971-1.096.062-.846.062-.658l-.281-1.284.125-.783q1.221-.438 2.442-.908 1.253-.688 1.315-2.066l-.626-.783q-.407-.031-1.096.094-.031 0-.72.532-.658.564-.72.658-.125.25-.501.72l-.157-.407.032-1.221-.22-1.315.126-.533-.126-.657.188-1.065-.125-.657.188-1.19q0-.126-.063-.376-.062-.22-.062-.345l.125-.72-.188-.689.282-.751-.564-1.284-.689.031q-.47.47-.689 1.316-.313 1.158-.438 1.44l.407 5.699-.062 1.096q-.69-.094-1.347-1.034-.47-.72-.94-1.471-.75-.97-2.41-1.879-2.067-1.065-2.63-1.566l-.439.126-1.472-.157-.626.188q1.347 1.033 3.977 3.225 1.315 1.127 2.943 3.601 1.66 2.505 2.098 4.133-2.067-.375-2.724-1.44-.564 0-1.221.595-.877.751-1.065.845l-.564 1.378q.22.094.47.094.564 0 1.315-.501 1.034.22 2.411.97 1.754 1.003 2.286 1.222l.282 3.851-.125 1.503q-.658.22-1.347 1.378l-.031.157q.72-.032.532-.032.564 0 1.034.47zm10.301-11.93l2.161-.814q.125-.439.125-.532 0-.251-.219-.658-.188-.376-.188-.595 0-.188.157-.438l.626.03q2.442.126 2.943-.75l-.03-.595q-.408-.345-1.441-.564-1.19-.22-1.566-.407-.72-.376-.72-1.253 0-.188.063-.563.093-.376.093-.564l-.156-.97.47-.188 1.315.25q.219.47 1.002.47l1.033-.25q.94-.22 1.941-.44 1.096-.312 1.754-.876l.188-.814-.345-.814-.595-.188q-.657.094-2.661.658-1.66.47-2.63.47-1.347 0-3.476-.345-2.38-.345-3.35-.783-.971-.407-1.504-1.221-.47.188-.845.814-.344.595-.595.657v.69l.438-.157q.971.376 2.662.845 1.941.501 2.693.752v2.661q-.282.094-1.816.157-1.127.062-1.722.657 2.692.846 4.008 1.566.062.908.062 1.816 0 .22-.031.407l-1.096.846q.094.156.25.47l-.03.093z" aria-label="桂" font-weight="400" font-size="32.064" font-family="HakusyuKaisyo" stroke-width="1.625" stroke-linejoin="round" stroke-miterlimit="10"/></g></g><g stroke-width="1.774"><g clip-path="url(#d)" transform="matrix(.19884 0 0 -.19884 -33.576 64.178)"><path d="M723.744 256.58l1.127-.22.594.22q.72-.126 1.252-.658t.532-1.251q0-1.002-.751-1.283-.626-.125-1.815-.407-.595-.188-1.877-.845-1.502-.75-1.69-1.126l1.596-.595q.219-.532 1.032-1.439 2.973.939 6.414.939 1.096 0 1.846-.72.783-.72.783-1.815l-.094-.438-1.346-.375-1.877.375q-1.22.22-1.94.22-.813 0-1.44-.22 3.411-3.66 7.229-5.413 1.314-.625 2.66-1.22 1.501-.688 2.502-1.47l.376-.72q-.5-.5-1.001-.72l-.689.157-1.283-.282-1.72.156-.626-.281q-2.16.25-3.88 2.002v-.469q-.25-.25-.5-.532-.251-.25-.251-.657 0-.219.125-.5 0-.752.031-2.097.032-1.47.032-2.065 0-3.473-1.659-4.13l-.563.125-.5.97q-.22.094-2.128.438-.188-.031-2.597-.344-1.627-.22-2.597-.563-.751-.438-2.253-1.252-.688.563-1.126 1.47.563 3.067.563 7.447 0 1.878-.845 2.16-.75-.47-.75-1.033-.72-.845-1.409-1.721-.939-1.158-1.596-1.596-1.345-.845-2.002-.845l-1.47.032q2.064 1.47 4.974 5.194 2.535 3.254 4.036 6.038-2.816 0-4.13-1.595-.156-.032-.344-.032-1.032 0-1.44 1.064-.187.438-.406 2.003.876-.125 2.065-.438 2.535.594 3.786.938 2.691.72 3.661 1.252-.188 1.126-1.126 2.44l-.438-.156-.501.156q-.782-.219-.908-.219-.125 0-.312.094l-2.629.125q.501.282 4.037 2.16 2.378 1.314 3.848 2.534l-.47.47v.343l.69-.062 1.188.281zm-.47-9.45q-.375-.094-.468-.813-.063-.564-.094-1.096l.187-.469-.281-1.533.219-.563q-.25-.094-.313-.5-.063-.376-.094-.69l.188-.844 3.473.282q1.377.125 2.41-.47-1.784 2.19-5.226 6.696zm-7.602-7.54l1.501-.595q.564.313 1.847.563 1.282.25 1.814.5-.313 1.065-.344 2.848-.031 1.783-.219 2.534-.939-.125-1.564-.876-.094-.125-1.002-1.595-.062-.157-1.157-1.627-.72-.908-.876-1.753zm1.877-1.91l.156-2.721q1.721.125 3.286.532 1.001.344 2.972 1.032h.908q.406 0 .782.188.125 1.502.125 1.658 0 .939-.657.939.375 0-1.909-.282-3.754-.532-5.663-1.345zm1.69-4.098l-.376.094q-1.001 0-1.22-.344v-.564q0 .157.125-.532-.063-.688.063-2.002.907.125 3.848.907 2.347.595 3.88.657v3.004l-.376.157q-2.628-.438-3.003-.532-2.003-.407-2.941-.845z" aria-label="香" font-weight="400" font-size="32.04" font-family="HakusyuKaisyo"/></g></g><g stroke-width="1.774"><g clip-path="url(#e)" transform="matrix(.19884 0 0 -.19884 -28.533 56.419)"><path d="M634.872 125.026q0-.281-.188-.563-.625-.407-1.439-.626-.782-.219-1.533-.406-.532-.22-1.565-.626-1.22-.47-3.41-1.033l-.532.063 1.94 1.815q1.22 1.189 1.345 2.159-.406.406-2.597.406-4.036 0-7.165-1.658-2.753-1.44-5.663-4.725l-1.44-1.69q-.876-1-1.564-1.501-.907.626-.907 2.44 0 .94 1.376 2.785.126.188 3.098 3.567 2.378 2.691 3.004 3.442 1.783 2.19 2.597 3.723-.47.939-1.001 1.22.438.22.844.439.595.281.845.281 1.502 0 2.128-.938 0-1.471-1.252-3.098-.406-.563-2.503-2.785-1.564-1.658-2.002-2.722 3.003 1.909 5.319 2.628 2.472.783 5.85.783 1.159 0 2.003-.126 1.033-.156 2.66-1.22 1.752-1.157 1.752-2.034zm-5.538-16.677q0-1.126-1.345-1.126-.188 0-.439.031-2.19.407-4.005.407-2.66 0-6.195-1.596-1.251.376-1.314 2.253l2.315 1.846q-.093.094-1.97 1.064-1.534.782-1.534 1.408 0 .845 1.19 1.909.97.876 1.97 1.345 2.378 1.126 2.597 1.252 1.283.876 1.283 2.378 0 .312-.062.625-1.002-.5-2.41-.5-.782 0-1.533.187l-.47.376q1.002.375 2.066 1.564 1.314 1.44 1.815 1.784.313.219.938.219 2.284 0 3.473-.782v-.25q.032-.626-.344-1.127-.344-.47-.72-.939-.437-.813-.5-2.534.125-.188 1.158-.438 1.063-.22 1.439-.657.031-.157.031-.313 0-1.001-2.284-3.38-2.66-2.753-3.004-3.441 1.784.532 4.13.532 3.724 0 3.724-2.097zm-7.885 7.385q-3.63-.658-4.63-2.785.187-.595 2.283-.72 1.44.532 2.347 3.505z" aria-label="全" font-weight="400" font-size="32.04" font-family="HakusyuSousyo_kk" fill="red"/></g></g><g stroke-width="1.774"><g clip-path="url(#f)" transform="matrix(.19884 0 0 -.19884 -33.488 55.676)"><path d="M729.677 120.538c-.334-.438-1.085-.918-2.253-1.44-1.147-.5-1.783-.834-1.909-1 .167-1.356.209-2.378.126-3.067.646-.563 1.032-1.147 1.157-1.752-.187-.667-.709-1.512-1.564-2.534-.855-1.002-1.387-1.794-1.596-2.378.376-.376 1.335-.751 2.879-1.127 1.376-.334 2.315-.918 2.816-1.752-.021-.334-.334-.605-.939-.813-.605-.23-2.19-.585-4.756-1.064-2.566-.5-4.099-.751-4.6-.751-.896 0-1.46.448-1.69 1.345.105.5.439 1.074 1.002 1.721.647.71 1.043 1.262 1.19 1.658-.21.167-.856.272-1.94.313-.981.021-1.471.48-1.471 1.377 0 .584.323 1.241.97 1.971.667.751 1.637 1.481 2.91 2.19 1.084.585 2.169 1.158 3.254 1.721.125.605.187 1.158.187 1.659 0 .208-.01.386-.031.532-.563-.167-1.898-.783-4.005-1.846-1.606-.814-2.993-1.21-4.161-1.19h-.22c-.375.188-.563.46-.563.814 0 .668.929 1.742 2.785 3.223v-.532l-.219-.688c.814.208 1.93.709 3.348 1.501 1.335.751 2.357 1.43 3.066 2.034.105.271.157.532.157.782 0 .23-.052.439-.157.626-1.543-1.001-2.962-1.658-4.255-1.971l4.068 4.005c-.835.125-1.586.5-2.253 1.126-.668.647-1.001 1.377-1.001 2.19 0 .355.187.991.563 1.91l.813 1.94c.5-.147 1.074-.418 1.721-.814.793-.48 1.19-.908 1.19-1.283 0-.146-.21-.47-.627-.97-.417-.5-.625-.907-.625-1.22 0-.105.01-.199.03-.282.189-.042.408-.063.658-.063.25 0 .636.021 1.158.063.521.042.917.063 1.189.063 1.585 0 2.346-.49 2.284-1.471v-.219c-.355-.25-1.054-.647-2.097-1.189-.897-.459-1.564-.887-2.002-1.283.542-.292 1.345-.553 2.41-.782a52.692 52.692 0 0 1 1.72-.157c.563-.104.99-.48 1.283-1.126zm-7.009-7.478v.063c-2.107-.584-3.63-1.398-4.568-2.441-.334-.375-.5-.688-.5-.939 0-.146.083-.25.25-.313a1.94 1.94 0 0 1 .469-.062c1.043 0 2.034.365 2.972 1.095.96.75 1.419 1.617 1.377 2.597zm.5-6.57c0 .291-.083.594-.25.907-.688-.751-1.251-1.325-1.69-1.721a.693.693 0 0 1 .22-.032c.396 0 .96.188 1.69.564.02.083.03.177.03.281z" aria-label="金" font-weight="400" font-size="32.04" font-family="HakusyuSousyo_kk" fill="red"/></g></g><g stroke-width="1.774"><g clip-path="url(#g)" transform="matrix(.19884 0 0 -.19884 -38.421 63.337)"><path d="M824.265 249.16q.383 0 1.311-.356.928-.328 1.174-.573.027-.219.027-.41 0-.464-.19-.655l-.055-2.485q.792 0 3.222 1.038.273-.082 1.365-.082.41 0 .737-.273.328-.246.3-.628v-.055q-.436-.437-1.092-.519-.628-.082-1.228-.136-2.895-.355-3.25-.519-.273-.273-.273-1.474 0-.246-.355-1.284l.574-.027 5.515.874q.656.109 1.72-.328.929-.382 1.53-.928l.054-1.065q-.655-.437-1.147-.437-.355 0-1.638.355-1.256.355-1.939.355-3.959 0-5.843-.929.519-.109 1.038-.245.519-.11.628-.71-.3-1.147-.3-1.993l-.083-.983q.028.163.082-.492l.055-.983q.055-.573.328-.874l2.266 2.24-.382.545q.109.601 1.092.601.218-.191.819-.218l.874-.055-2.157 2.403q3.85-.628 5.488-2.321v-.11q.027-.354-.3-.682-.41-.382-.465-.546h-.136q-.246-.027-.737.219-.492.273-.683.273l-.273-.656q-.765-.19-1.638-1.01-.656-.683-1.338-1.365-.464-.3-1.365-1.038-.465-.519-1.393-1.447-.41-.382-1.529-1.174-.737-.628-2.239-1.72-.983-.601-1.666-.929-.546-.163-1.583-.6-.601-.328-1.174-.656-.792-.382-1.284-.382-.19 0-.6.11l-.765-.192-.519.137q4.232 1.966 9.53 6.58-.41.901-1.038 1.475l-1.201 1.201q.873.246 2.239.683.027.245.027.464 0 .218-.082.655-.055.464-.055.71 0 1.283-.19 1.693-.165.437-1.148 1.174-.163 0-2.512-.437-1.665-.328-2.43-.573-1.583-.464-2.184-1.147l-.792-.3q-.737.3-1.31 1.037-.547.737-.574 1.502l.847-.055q.655-.464.819-.464.054 0 5.324 1.365l.546.383q-.382.163-.382.6 0 .137.027.437.055.328.055.464 0 2.813-.874 3.25l.137.082.027.109-.11.19.765.083q.137-.164 1.147-.382.846-.164.983-.82-.11-1.146-.546-3.74 1.42 0 2.648.491l-.436 1.147.163 3.823q-.109.273-.136.983 0 .71-.11.9-.327.465-.9 1.311.054.52 1.146.52zm-5.98-12.807q.301 0 .41-.246.055-.109.273-1.037.219-.901.219-1.038 0-.9-.383-1.665-.436-.847-1.174-1.174-.846.491-.846 1.392 0 .655.764 1.83.765 1.174.738 1.938z" aria-label="歩" font-weight="400" font-size="27.96" font-family="HakusyuKaisyo" stroke-width="1.417" stroke-linejoin="round" stroke-miterlimit="10"/></g></g><g stroke-width="1.774"><g clip-path="url(#h)" transform="matrix(.19884 0 0 -.19884 -38.422 55.882)"><path d="M817.292 125.451q.6 0 1.638-.437 1.338-.6 2.075-1.91.383-.71.956-2.595.546-1.775 1.12-2.621.764 0 2.785 2.102 1.938 2.021 2.157 2.813l-.41.874q.11 0 .492.081.327.028.518.028.765 0 1.884-1.284 1.12-1.283 1.093-2.075v-.19q-.738-.383-2.076-1.257-1.365-1.229-4.123-3.44-.464-.273-1.31-.792-.328-.191-.82-.792-.436-.491-.928-.71-2.757-2.73-2.757-4.15 0-1.557 3.33-1.557 1.584 0 3.878.601 3.631 1.01 3.795 1.038.792-.3 1.557-.574.846-.355 1.146-1.065 0-.655-.546-1.01-.518-.355-2.239-.9-1.583-.574-2.32-.71-1.393-.274-3.496-.274-2.675 0-4.614.929-2.567 1.174-2.567 3.522 0 1.775 1.366 3.768l2.402 3.331q-.71 1.31-1.283 2.457-.764 1.857-1.556 3.687-1.092 2.348-2.403 2.812.082.3 1.256.3z" aria-label="と" font-weight="400" font-size="27.96" font-family="HakusyuKaisyo" fill="red"/></g></g><g aria-label="全" style="line-height:125%;-inkscape-font-specification:'EPSON 太行書体Ｂ, Normal'" font-size="72.314" font-family="EPSON 太行書体Ｂ" letter-spacing="0" word-spacing="0" fill="red" stroke-width="2.489"><path d="M81.645 68.912l-.345.195-.12-.113zm0 .878q0 .097-.645.353l.015-.293q.09-.15.247-.278.383.113.383.218zm2.522.623q0-.068-.172-.068-.406 0-1.096.428-.263.188-.833.788-.293-.367-.751-.367-.128 0-.405.045.037-.196.06-.42 1.08-.451 1.08-.699 0-.36-.525-.788.398-.3.713-.428.143-.03.353-.045.21-.03.21-.203 0-.195-.225-.315-.18-.097-.353-.097-.187 0-.998.195-.586.112-1.014.112-.78 0-1.658-.067-.39 0-.39.383 0 .21.157.352.42.3.66.3.196 0 .503-.337.653-.098.976-.128l-.007.69q-.308.309-.646.594-.195.097-.195.24 0 .293.728.473-.052.203-.263.398-.6.15-.6.413 0 .24.187.352.293.143.496.143.135 0 .375-.278.758-.33 1.359-.345-.608.72-1.276 1.576-.848-.675-1.66-1.576-.517-.548-.75-.623-.443-.128-1.043-.128-.48 0-.48.203 0 .368.337.743.165.188.623.338.556.15.736.233.736.503 1.914 1.223-.368.443-.368.57 0 .143.24.353.21.173.383.173.466-.022.466-.15 0-.135-.166-.27 1.682-2.8 3.19-3.836.128-.045.128-.15z"/></g><g stroke-width="1.774"><g clip-path="url(#i)" transform="matrix(-.19884 0 0 .19884 183.76 6.367)"><path d="M513.587 254.698q.313.094 1.126-.25.689-.25 1.096-.532-.032-.094-.032-.125.032-.094.22-.5.187-.376.187-.595l-.031-.188q-1.596-.657-2.284-2.847 2.753-.063 4.224-1.19l.281-1.313-.156-.532h-.188q-1.189-.031-2.503.782-1.126.72-2.222 1.44-1.282-1.19-2.565-4.193h.156q.876-.032 2.316.813 1.439.876 2.221.876.188 0 .376-.031l.625-.688v-.564q-.813-.187-1.846-.72-.845-.469-1.72-.97l1.439-.813.281-.657q.939.282 2.253.282.188 0 .438-.063.188-.281.344-.563.25-.375.25-.595 0-.093-.03-.25-.564-.25-1.847-.407-1.283-.156-1.846-.469v-4.255q1.408 1.314 1.721 2.284l-.281.688 2.94-.156.407-1.627-3.222-1.408q-.22.094-.438.094-.657 0-1.19-.657v-1.596q1.503.75 2.848.75.188 0 .438-.03.313-.188.72-.877-.72-.72-2.16-1.282l-2.315-.908q-.813-.438-2.44-1.22-.689-.188-2.034-.72-.907-.438-1.189-1.251l-.782.344q-.5.72-.5 1.752 0 .47.093.939l.688-.157q1.095.22 2.66.939 1.909.845 2.597 1.064l-.22 2.159q0 .563.095 1.72.125 1.158.125 1.721l-.25 1.033q-2.691-.657-3.41-1.47-.658.25-1.94 1.188 1.094.22 2.721 1.002 1.972.97 2.66 1.189.062.156.062.313 0 .375-.594 1-.563.627-.563.752 0 .094.094.219l-1.346.626-1.69-1.815q-.312-.532-1.063-1.502-.626-.688-1.408-.97-.188-.47-.782-.876-.564-.407-1.064-.376h-.032q6.32 7.885 8.605 14.8l-1.064.97.063.188h.062q.094 0 .282-.094.188-.063.25-.063zm16.677-2.002q.313-.72.313-1.377 0-.188-.031-.407l-.689-.438q-.125-1.063-.219-2.096-.187-1.189-.438-2.002-.281-.595-.688-2.097.939-.313 2.753-1.095l.345-.626q-.47-.75-1.972-1.032-.438-.282-1.22-.845-.313-.25-.782-.907-.438-.658-.782-.94 1.063-2.44 3.66-4.536 1.659-1.314 4.913-3.16l.188-.72q-.376-.375-1.033-.563-.876-.22-1.095-.313l-.657.125-1.064-.375-1.408.125q-2.19 1.783-3.63 4.161-1.063-.563-3.035-2.628-.594-.5-1.69-1.564-.656-.689-.656-1.784l-.876-.313-1.22 1.22-.126 1.346.845 6.633q-.031.313-.063.97.094 1.252.438 9.168 0 .125-.03.407-.032.281-.032.406 0 1.408-.47 2.284-.156.345-.844 1.096-.47.5-.47 1.063l1.408-.5q1.283.281 3.849.876.72.188 1.502.47.47.218 1.47.656.282.125.908.125.688 0 2.628-.813zm-9.042-2.503q.344-.25.469-.939.156-.688.375-.939.939.188 2.566.751 1.721.595 2.534.783l-.062 1.69q-3.88-.282-5.882-1.346zm4.067-2.566q-.375 0-1.126-.094-.72-.062-1.127-.062-.657 0-1.189-.438l-.344-2.19q0-.251.094-.689.125-.094.25-.156 2.316.782 5.007 2.158l.03 1.471zm-1.502-4.161v-.501l2.003-2.847q.031.031 1.001 1.095.751.782.657 1.251l-.188 1.002h.689l.438.594-.939.282zm-2.284-.657q-.281-2.879-.688-4.631l.125-.563-.125-2.034.375-.313q1.565.939 3.13 2.847-.501.908-.908 2.44-.376 1.284-.72 2.566zm-10.607-8.605l-.594-2.128q-.376.094-.908.47v.187q.032.25-.219.751.22 2.441.22 2.16 0 .625-.658 1.345 1.095-.22 1.47-.689.282-.312.376-.97.094-.782.313-1.126zm14.174 2.378q-.563-.282-1.596-.939-1.095-.75-1.627-1-.469.218-.594.218-.157 0-.22-.031-.25-.25-.25-1.721l.157-1.47q2.284.938 5.32 2.94-.251.532-.502 1.096-.375.72-.688.907z" aria-label="銀" font-weight="400" font-size="32.04" font-family="HakusyuKaisyo" stroke-width="1.624" stroke-linejoin="round" stroke-miterlimit="10"/></g></g><g stroke-width="1.774"><g clip-path="url(#j)" transform="matrix(-.19884 0 0 .19884 148.403 6.405)"><path d="M417.247 255.98c-.208 0-.428-.077-.693-.21a.217.217 0 0 1-.006-.004 3.04 3.04 0 0 0-.41-.195 8.178 8.178 0 0 1-.69-.03c-.35-.023-.641-.139-.795-.384a.217.217 0 0 1-.002-.228l1.067-1.747c-1.057-2.456-2.741-5.234-5.06-8.334-2.537-3.368-4.8-5.7-6.767-6.99a.217.217 0 0 1 .014-.37c.212-.118.425-.184.637-.184.381 0 .815.246 1.453.687.636.44 1.448 1.093 2.44 1.959l.005.004c.261.11.55.326.942.684.425.387.95.925 1.578 1.617a.217.217 0 0 1 .002.002c1.346 1.525 2.173 2.383 2.562 2.713.36-.442.84-.803 1.461-1.065.104-.297.333-.684.737-1.28a.217.217 0 0 1 .004-.005c.361-.502.521-.91.521-1.188 0-.128-.033-.272-.068-.418l-5.618-1.359-.718.262a.217.217 0 0 1-.117.008l-.157-.032a.217.217 0 0 1-.174-.213v-.158a.217.217 0 0 1 .01-.068c.17-.51.328-.876.498-1.12a.217.217 0 0 1 .006-.009l.688-.877a.217.217 0 0 1 .136-.08l.94-.156a.217.217 0 0 1 .238.136c.125.321.337.529.682.657.531.143.942.244 1.224.304a.217.217 0 0 1 .043.014c.331.145.672.289 1.024.434l.004.002c.352.136.668.2.945.2l.12-.011c.106-.752.157-1.878.138-3.428-.02-1.545.059-2.702.226-3.558l-7.177-1.666-.547.117a.217.217 0 0 1-.088 0l-.418-.086-.824.238a.217.217 0 0 1-.276-.236c.11-.88.51-1.874 1.188-2.996a.217.217 0 0 1 .136-.1l.688-.156a.217.217 0 0 1 .129.012c.504.201.853.505 1.047.888 1.632.55 2.855.897 3.636 1.037a.217.217 0 0 1 .028.008c.954.311 1.56.498 1.795.557.802.123 1.412.195 1.812.215a.217.217 0 0 1 .053.01c.807.248 1.359.367 1.562.367.288 0 .695-.05 1.206-.153.669-.146 1.088-.231 1.304-.255a.217.217 0 0 1 .01 0l1.461-.094c.289-.037.928-.22 1.86-.551a.217.217 0 0 1 .001 0c.749-.257 1.451-.387 2.106-.387a.217.217 0 0 1 .011 0l.625.032a.217.217 0 0 1 .127.05c.412.343.643.777.643 1.26 0 .38-.182.743-.502 1.063-.319.319-.777.609-1.373.886-1 .49-1.876.722-2.639.678h-.004l-5.177-.248-.207.078c.021.021.019.047.05.068.104.07.272.132.502.17a.217.217 0 0 1 .004 0c.299.054.54.112.733.174.141.046.233.107.328.172h.004c.655.114 1.548.5 2.724 1.15a.217.217 0 0 1 .004.002c.54.311.974.544 1.303.696.329.152.57.215.621.215.125 0 .252-.019.379-.055a.217.217 0 0 1 .275.174 2.3 2.3 0 0 1 .034.379c0 .421-.201.82-.559 1.166-.358.346-.873.653-1.545.941a.217.217 0 0 1-.078.018l-2.377.093a.217.217 0 0 1-.201-.316l.449-.871c-.404-.955-1.29-1.958-2.648-2.986l-.112.562c.001.042.009.119.028.23.021.131.033.23.033.317 0 .12-.025.254-.069.43-.04.158-.056.275-.056.322 0 .075.018.224.058.426.044.215.067.38.067.513 0 .426.005.763.015 1.008.01.245.034.415.04.434a.217.217 0 0 1 .003.107l-.109.486.477.924 2.386.295 2.16-.37a.217.217 0 0 1 .112.01l.937.345a.217.217 0 0 1 .14.171c.023.155.034.3.034.438 0 .45-.19.85-.543 1.135l-.002.002c-.347.3-.76.457-1.205.457a.217.217 0 0 1-.06-.01.217.217 0 0 1-.002 0 6.075 6.075 0 0 0-.16-.023c-.154-.021-.4-.05-.735-.092-.65-.08-1.674-.207-3.004-.366l-.225.208.29.703a.217.217 0 0 1 .015.082c0 .537-.219 1.03-.627 1.437a.217.217 0 0 1-.08.051c-.096.035-.16.032-.242.055.346.108.695.22 1.566.437a.217.217 0 0 1 .002 0c.812.213 1.47.457 2.012.729.862-.983 1.725-1.985 2.586-3.006a.217.217 0 0 1 .01-.01c1.118-1.16 2.21-2 3.285-2.516a.217.217 0 0 1 .137-.017c.279.056.643.058 1.086-.002.607-.084.969-.127 1.156-.127.149 0 .34.022.596.064.266.041.459.06.56.06.755 0 1.266.019 1.567.065a.217.217 0 0 1 .107.05l.658.562a.217.217 0 0 1 .074.203l-.187 1.064a.217.217 0 0 1-.076.13c-.654.544-1.589 1.052-2.81 1.536h-.003c-1.413.582-2.36 1.033-2.808 1.326a.217.217 0 0 1-.008.006c-.752.448-1.541 1.072-2.365 1.875l-.002.002c-.115.115-.821.85-2.092 2.184a.217.217 0 0 1-.008.008c-1.875 1.777-3.244 3.016-4.283 3.902.329.096.62.214.83.389.293.244.453.585.453.965a.217.217 0 0 1-.004.04l-.094.5a.217.217 0 0 1-.088.137c-.65.462-1.192.81-1.632 1.047-.44.237-.769.37-1.057.37zm.037-5.02a113.323 113.323 0 0 0 2.399-3.47c-.02 0-.04.009-.059.009-.452 0-1.08-.212-1.967-.613a.217.217 0 0 1-.002 0c-.584-.271-1.034-.48-1.351-.625a30.39 30.39 0 0 0-.532-.24h-.002a35.594 35.594 0 0 0-1.488-.442l-.336.23zm-6.223-14.192a.217.217 0 0 1-.207-.308c.115-.245.306-1.066.514-2.354.151-1.031.503-1.791 1.086-2.234a.217.217 0 0 1 .229-.022c.342.172.653.222.959.168a.217.217 0 0 1 .228.112c.311.578.454 1.253.434 2.011V234.485a.217.217 0 0 1-.018.088c-.27.609-.741 1.088-1.383 1.42a.217.217 0 0 1-.013.006l-1.752.752a.217.217 0 0 1-.077.017z" aria-label="金" font-weight="400" font-size="32.04" font-family="HakusyuKaisyo" stroke-width="1.624" stroke-linejoin="round" stroke-miterlimit="10"/></g></g><g stroke-width="1.774"><g clip-path="url(#k)" transform="matrix(-.19884 0 0 .19884 254.066 6.362)"><path d="M723.744 256.58l1.127-.22.594.22q.72-.126 1.252-.658t.532-1.251q0-1.002-.751-1.283-.626-.125-1.815-.407-.595-.188-1.877-.845-1.502-.75-1.69-1.126l1.596-.595q.219-.532 1.032-1.439 2.973.939 6.414.939 1.096 0 1.846-.72.783-.72.783-1.815l-.094-.438-1.346-.375-1.877.375q-1.22.22-1.94.22-.813 0-1.44-.22 3.411-3.66 7.229-5.413 1.314-.625 2.66-1.22 1.501-.688 2.502-1.47l.376-.72q-.5-.5-1.001-.72l-.689.157-1.283-.282-1.72.156-.626-.281q-2.16.25-3.88 2.002v-.469q-.25-.25-.5-.532-.251-.25-.251-.657 0-.219.125-.5 0-.752.031-2.097.032-1.47.032-2.065 0-3.473-1.659-4.13l-.563.125-.5.97q-.22.094-2.128.438-.188-.031-2.597-.344-1.627-.22-2.597-.563-.751-.438-2.253-1.252-.688.563-1.126 1.47.563 3.067.563 7.447 0 1.878-.845 2.16-.75-.47-.75-1.033-.72-.845-1.409-1.721-.939-1.158-1.596-1.596-1.345-.845-2.002-.845l-1.47.032q2.064 1.47 4.974 5.194 2.535 3.254 4.036 6.038-2.816 0-4.13-1.595-.156-.032-.344-.032-1.032 0-1.44 1.064-.187.438-.406 2.003.876-.125 2.065-.438 2.535.594 3.786.938 2.691.72 3.661 1.252-.188 1.126-1.126 2.44l-.438-.156-.501.156q-.782-.219-.908-.219-.125 0-.312.094l-2.629.125q.501.282 4.037 2.16 2.378 1.314 3.848 2.534l-.47.47v.343l.69-.062 1.188.281zm-.47-9.45q-.375-.094-.468-.813-.063-.564-.094-1.096l.187-.469-.281-1.533.219-.563q-.25-.094-.313-.5-.063-.376-.094-.69l.188-.844 3.473.282q1.377.125 2.41-.47-1.784 2.19-5.226 6.696zm-7.602-7.54l1.501-.595q.564.313 1.847.563 1.282.25 1.814.5-.313 1.065-.344 2.848-.031 1.783-.219 2.534-.939-.125-1.564-.876-.094-.125-1.002-1.595-.062-.157-1.157-1.627-.72-.908-.876-1.753zm1.877-1.91l.156-2.721q1.721.125 3.286.532 1.001.344 2.972 1.032h.908q.406 0 .782.188.125 1.502.125 1.658 0 .939-.657.939.375 0-1.909-.282-3.754-.532-5.663-1.345zm1.69-4.098l-.376.094q-1.001 0-1.22-.344v-.564q0 .157.125-.532-.063-.688.063-2.002.907.125 3.848.907 2.347.595 3.88.657v3.004l-.376.157q-2.628-.438-3.003-.532-2.003-.407-2.941-.845z" aria-label="香" font-weight="400" font-size="32.04" font-family="HakusyuKaisyo"/></g></g><g stroke-width="1.774"><g clip-path="url(#l)" transform="matrix(-.19884 0 0 .19884 219.078 46.779)"><path d="M634.872 125.026q0-.281-.188-.563-.625-.407-1.439-.626-.782-.219-1.533-.406-.532-.22-1.565-.626-1.22-.47-3.41-1.033l-.532.063 1.94 1.815q1.22 1.189 1.345 2.159-.406.406-2.597.406-4.036 0-7.165-1.658-2.753-1.44-5.663-4.725l-1.44-1.69q-.876-1-1.564-1.501-.907.626-.907 2.44 0 .94 1.376 2.785.126.188 3.098 3.567 2.378 2.691 3.004 3.442 1.783 2.19 2.597 3.723-.47.939-1.001 1.22.438.22.844.439.595.281.845.281 1.502 0 2.128-.938 0-1.471-1.252-3.098-.406-.563-2.503-2.785-1.564-1.658-2.002-2.722 3.003 1.909 5.319 2.628 2.472.783 5.85.783 1.159 0 2.003-.126 1.033-.156 2.66-1.22 1.752-1.157 1.752-2.034zm-5.538-16.677q0-1.126-1.345-1.126-.188 0-.439.031-2.19.407-4.005.407-2.66 0-6.195-1.596-1.251.376-1.314 2.253l2.315 1.846q-.093.094-1.97 1.064-1.534.782-1.534 1.408 0 .845 1.19 1.909.97.876 1.97 1.345 2.378 1.126 2.597 1.252 1.283.876 1.283 2.378 0 .312-.062.625-1.002-.5-2.41-.5-.782 0-1.533.187l-.47.376q1.002.375 2.066 1.564 1.314 1.44 1.815 1.784.313.219.938.219 2.284 0 3.473-.782v-.25q.032-.626-.344-1.127-.344-.47-.72-.939-.437-.813-.5-2.534.125-.188 1.158-.438 1.063-.22 1.439-.657.031-.157.031-.313 0-1.001-2.284-3.38-2.66-2.753-3.004-3.441 1.784.532 4.13.532 3.724 0 3.724-2.097zm-7.885 7.385q-3.63-.658-4.63-2.785.187-.595 2.283-.72 1.44.532 2.347 3.505z" aria-label="全" font-weight="400" font-size="32.04" font-family="HakusyuSousyo_kk" fill="red"/></g></g><g stroke-width="1.774"><g clip-path="url(#m)" transform="matrix(-.19884 0 0 .19884 253.975 47.782)"><path d="M729.677 120.538c-.334-.438-1.085-.918-2.253-1.44-1.147-.5-1.783-.834-1.909-1 .167-1.356.209-2.378.126-3.067.646-.563 1.032-1.147 1.157-1.752-.187-.667-.709-1.512-1.564-2.534-.855-1.002-1.387-1.794-1.596-2.378.376-.376 1.335-.751 2.879-1.127 1.376-.334 2.315-.918 2.816-1.752-.021-.334-.334-.605-.939-.813-.605-.23-2.19-.585-4.756-1.064-2.566-.5-4.099-.751-4.6-.751-.896 0-1.46.448-1.69 1.345.105.5.439 1.074 1.002 1.721.647.71 1.043 1.262 1.19 1.658-.21.167-.856.272-1.94.313-.981.021-1.471.48-1.471 1.377 0 .584.323 1.241.97 1.971.667.751 1.637 1.481 2.91 2.19 1.084.585 2.169 1.158 3.254 1.721.125.605.187 1.158.187 1.659 0 .208-.01.386-.031.532-.563-.167-1.898-.783-4.005-1.846-1.606-.814-2.993-1.21-4.161-1.19h-.22c-.375.188-.563.46-.563.814 0 .668.929 1.742 2.785 3.223v-.532l-.219-.688c.814.208 1.93.709 3.348 1.501 1.335.751 2.357 1.43 3.066 2.034.105.271.157.532.157.782 0 .23-.052.439-.157.626-1.543-1.001-2.962-1.658-4.255-1.971l4.068 4.005c-.835.125-1.586.5-2.253 1.126-.668.647-1.001 1.377-1.001 2.19 0 .355.187.991.563 1.91l.813 1.94c.5-.147 1.074-.418 1.721-.814.793-.48 1.19-.908 1.19-1.283 0-.146-.21-.47-.627-.97-.417-.5-.625-.907-.625-1.22 0-.105.01-.199.03-.282.189-.042.408-.063.658-.063.25 0 .636.021 1.158.063.521.042.917.063 1.189.063 1.585 0 2.346-.49 2.284-1.471v-.219c-.355-.25-1.054-.647-2.097-1.189-.897-.459-1.564-.887-2.002-1.283.542-.292 1.345-.553 2.41-.782a52.692 52.692 0 0 1 1.72-.157c.563-.104.99-.48 1.283-1.126zm-7.009-7.478v.063c-2.107-.584-3.63-1.398-4.568-2.441-.334-.375-.5-.688-.5-.939 0-.146.083-.25.25-.313a1.94 1.94 0 0 1 .469-.062c1.043 0 2.034.365 2.972 1.095.96.75 1.419 1.617 1.377 2.597zm.5-6.57c0 .291-.083.594-.25.907-.688-.751-1.251-1.325-1.69-1.721a.693.693 0 0 1 .22-.032c.396 0 .96.188 1.69.564.02.083.03.177.03.281z" aria-label="金" font-weight="400" font-size="32.04" font-family="HakusyuSousyo_kk" fill="red"/></g></g><g stroke-width="1.774"><g clip-path="url(#n)" transform="matrix(-.19884 0 0 .19884 289.167 7.607)"><path d="M824.265 249.16q.383 0 1.311-.356.928-.328 1.174-.573.027-.219.027-.41 0-.464-.19-.655l-.055-2.485q.792 0 3.222 1.038.273-.082 1.365-.082.41 0 .737-.273.328-.246.3-.628v-.055q-.436-.437-1.092-.519-.628-.082-1.228-.136-2.895-.355-3.25-.519-.273-.273-.273-1.474 0-.246-.355-1.284l.574-.027 5.515.874q.656.109 1.72-.328.929-.382 1.53-.928l.054-1.065q-.655-.437-1.147-.437-.355 0-1.638.355-1.256.355-1.939.355-3.959 0-5.843-.929.519-.109 1.038-.245.519-.11.628-.71-.3-1.147-.3-1.993l-.083-.983q.028.163.082-.492l.055-.983q.055-.573.328-.874l2.266 2.24-.382.545q.109.601 1.092.601.218-.191.819-.218l.874-.055-2.157 2.403q3.85-.628 5.488-2.321v-.11q.027-.354-.3-.682-.41-.382-.465-.546h-.136q-.246-.027-.737.219-.492.273-.683.273l-.273-.656q-.765-.19-1.638-1.01-.656-.683-1.338-1.365-.464-.3-1.365-1.038-.465-.519-1.393-1.447-.41-.382-1.529-1.174-.737-.628-2.239-1.72-.983-.601-1.666-.929-.546-.163-1.583-.6-.601-.328-1.174-.656-.792-.382-1.284-.382-.19 0-.6.11l-.765-.192-.519.137q4.232 1.966 9.53 6.58-.41.901-1.038 1.475l-1.201 1.201q.873.246 2.239.683.027.245.027.464 0 .218-.082.655-.055.464-.055.71 0 1.283-.19 1.693-.165.437-1.148 1.174-.163 0-2.512-.437-1.665-.328-2.43-.573-1.583-.464-2.184-1.147l-.792-.3q-.737.3-1.31 1.037-.547.737-.574 1.502l.847-.055q.655-.464.819-.464.054 0 5.324 1.365l.546.383q-.382.163-.382.6 0 .137.027.437.055.328.055.464 0 2.813-.874 3.25l.137.082.027.109-.11.19.765.083q.137-.164 1.147-.382.846-.164.983-.82-.11-1.146-.546-3.74 1.42 0 2.648.491l-.436 1.147.163 3.823q-.109.273-.136.983 0 .71-.11.9-.327.465-.9 1.311.054.52 1.146.52zm-5.98-12.807q.301 0 .41-.246.055-.109.273-1.037.219-.901.219-1.038 0-.9-.383-1.665-.436-.847-1.174-1.174-.846.491-.846 1.392 0 .655.764 1.83.765 1.174.738 1.938z" aria-label="歩" font-weight="400" font-size="27.96" font-family="HakusyuKaisyo" stroke-width="1.417" stroke-linejoin="round" stroke-miterlimit="10"/></g></g><g stroke-width="1.774"><g clip-path="url(#o)" transform="matrix(-.19884 0 0 .19884 289.202 47.877)"><path d="M817.292 125.451q.6 0 1.638-.437 1.338-.6 2.075-1.91.383-.71.956-2.595.546-1.775 1.12-2.621.764 0 2.785 2.102 1.938 2.021 2.157 2.813l-.41.874q.11 0 .492.081.327.028.518.028.765 0 1.884-1.284 1.12-1.283 1.093-2.075v-.19q-.738-.383-2.076-1.257-1.365-1.229-4.123-3.44-.464-.273-1.31-.792-.328-.191-.82-.792-.436-.491-.928-.71-2.757-2.73-2.757-4.15 0-1.557 3.33-1.557 1.584 0 3.878.601 3.631 1.01 3.795 1.038.792-.3 1.557-.574.846-.355 1.146-1.065 0-.655-.546-1.01-.518-.355-2.239-.9-1.583-.574-2.32-.71-1.393-.274-3.496-.274-2.675 0-4.614.929-2.567 1.174-2.567 3.522 0 1.775 1.366 3.768l2.402 3.331q-.71 1.31-1.283 2.457-.764 1.857-1.556 3.687-1.092 2.348-2.403 2.812.082.3 1.256.3z" aria-label="と" font-weight="400" font-size="27.96" font-family="HakusyuKaisyo" fill="red"/></g></g><g stroke-width="1.774"><g clip-path="url(#p)" transform="matrix(-.19884 0 0 .19884 218.856 6.702)"><path d="M626.046 255.379q.376-.188 1.472-.282.94-.062 1.41-.532l-.157-.814q-.533-.188-.564-.627v-.814l-.313-.908.156-.438 1.222.22q.313-.095 1.158-.126.846 0 1.378-.564.063-.156.063-.313 0-.407-.72-1.158-.032 0-1.128-.345-.626-.188-1.033-.595l-1.19-.47-.157-2.191q.407-.094.877-.094 1.065 0 1.91.281 2.662-.313 3.946-1.283v-.877l-1.723-.22q-.219-.03-.97.283-.72.313-1.159.313-.188 0-.376-.063-.313.125-.595.125-1.315 0-3.882-.595-.094-.03-1.597-.595-1.503-.563-1.628-.626-.533-.282-.752-.689l-1.19.345q-.094.344-.47.563-.344.22-.344.439 0 .031.031.125l.533-.031q.939.438 2.724.97 1.941.595 2.755.94l-.094.5.22 1.316-2.85.751-.877.846q2.224.407 3.727 1.127 0 .313.093 1.033.094.752.094 1.096l-.156 2.16q-.783.345-1.253 1.003zm-10.301-1.002q.939-.376 1.878-.72.971-.47 1.159-1.535-.814-.156-.94-.97v-1.566q0-.156-.062-.438-.063-.282-.063-.439 0-.438.407-.72.094 0 .407.032.22.03.376.03.69 0 1.033-.625l-.156-.72q-.72-.408-1.44-.783-1.002-.533-.971-1.096.062-.846.062-.658l-.281-1.284.125-.783q1.221-.438 2.442-.908 1.253-.688 1.315-2.066l-.626-.783q-.407-.031-1.096.094-.031 0-.72.532-.658.564-.72.658-.125.25-.501.72l-.157-.407.032-1.221-.22-1.315.126-.533-.126-.657.188-1.065-.125-.657.188-1.19q0-.126-.063-.376-.062-.22-.062-.345l.125-.72-.188-.689.282-.751-.564-1.284-.689.031q-.47.47-.689 1.316-.313 1.158-.438 1.44l.407 5.699-.062 1.096q-.69-.094-1.347-1.034-.47-.72-.94-1.471-.75-.97-2.41-1.879-2.067-1.065-2.63-1.566l-.439.126-1.472-.157-.626.188q1.347 1.033 3.977 3.225 1.315 1.127 2.943 3.601 1.66 2.505 2.098 4.133-2.067-.375-2.724-1.44-.564 0-1.221.595-.877.751-1.065.845l-.564 1.378q.22.094.47.094.564 0 1.315-.501 1.034.22 2.411.97 1.754 1.003 2.286 1.222l.282 3.851-.125 1.503q-.658.22-1.347 1.378l-.031.157q.72-.032.532-.032.564 0 1.034.47zm10.301-11.93l2.161-.814q.125-.439.125-.532 0-.251-.219-.658-.188-.376-.188-.595 0-.188.157-.438l.626.03q2.442.126 2.943-.75l-.03-.595q-.408-.345-1.441-.564-1.19-.22-1.566-.407-.72-.376-.72-1.253 0-.188.063-.563.093-.376.093-.564l-.156-.97.47-.188 1.315.25q.219.47 1.002.47l1.033-.25q.94-.22 1.941-.44 1.096-.312 1.754-.876l.188-.814-.345-.814-.595-.188q-.657.094-2.661.658-1.66.47-2.63.47-1.347 0-3.476-.345-2.38-.345-3.35-.783-.971-.407-1.504-1.221-.47.188-.845.814-.344.595-.595.657v.69l.438-.157q.971.376 2.662.845 1.941.501 2.693.752v2.661q-.282.094-1.816.157-1.127.062-1.722.657 2.692.846 4.008 1.566.062.908.062 1.816 0 .22-.031.407l-1.096.846q.094.156.25.47l-.03.093z" aria-label="桂" font-weight="400" font-size="32.064" font-family="HakusyuKaisyo" stroke-width="1.625" stroke-linejoin="round" stroke-miterlimit="10"/></g></g></svg>