<?xml version="1.0" encoding="UTF-8" standalone="no"?>
<svg
   xmlns:dc="http://purl.org/dc/elements/1.1/"
   xmlns:cc="http://creativecommons.org/ns#"
   xmlns:rdf="http://www.w3.org/1999/02/22-rdf-syntax-ns#"
   xmlns:svg="http://www.w3.org/2000/svg"
   xmlns="http://www.w3.org/2000/svg"
   xmlns:sodipodi="http://sodipodi.sourceforge.net/DTD/sodipodi-0.dtd"
   xmlns:inkscape="http://www.inkscape.org/namespaces/inkscape"
   width="52.174999"
   height="60"
   viewBox="0 0 13.804635 15.875"
   version="1.1"
   id="svg11805"
   inkscape:version="1.0.1 (3bc2e813f5, 2020-09-07)"
   sodipodi:docname="koma.svg">
  <defs
     id="defs11799">
    <clipPath
       clipPathUnits="userSpaceOnUse"
       id="clipPath2597">
      <path
         d="M -9.79e-7,612.12 H 936.12 V 0 H -2.948e-6"
         clip-rule="evenodd"
         id="path2595" />
    </clipPath>
    <clipPath
       clipPathUnits="userSpaceOnUse"
       id="clipPath2597-8">
      <path
         d="M -9.79e-7,612.12 H 936.12 V 0 H -2.948e-6"
         clip-rule="evenodd"
         id="path2595-4" />
    </clipPath>
    <clipPath
       clipPathUnits="userSpaceOnUse"
       id="clipPath2711">
      <path
         d="M 0,0 H 936.12 V 612.12 H 0 Z"
         clip-rule="evenodd"
         id="path2709" />
    </clipPath>
    <clipPath
       clipPathUnits="userSpaceOnUse"
       id="clipPath2691">
      <path
         d="M 0,0 H 936.12 V 612.12 H 0 Z"
         clip-rule="evenodd"
         id="path2689" />
    </clipPath>
    <clipPath
       clipPathUnits="userSpaceOnUse"
       id="clipPath2731">
      <path
         d="M 0,0 H 936.12 V 612.12 H 0 Z"
         clip-rule="evenodd"
         id="path2729" />
    </clipPath>
    <clipPath
       clipPathUnits="userSpaceOnUse"
       id="clipPath1869">
      <path
         d="M 0,0 H 936.12 V 612.12 H 0 Z"
         clip-rule="evenodd"
         id="path1867" />
    </clipPath>
    <clipPath
       clipPathUnits="userSpaceOnUse"
       id="clipPath1979">
      <path
         d="M 0,0 H 936.12 V 612.12 H 0 Z"
         clip-rule="evenodd"
         id="path1977" />
    </clipPath>
    <clipPath
       clipPathUnits="userSpaceOnUse"
       id="clipPath1891">
      <path
         d="M 0,0 H 936.12 V 612.12 H 0 Z"
         clip-rule="evenodd"
         id="path1889" />
    </clipPath>
    <clipPath
       clipPathUnits="userSpaceOnUse"
       id="clipPath1913">
      <path
         d="M 0,0 H 936.12 V 612.12 H 0 Z"
         clip-rule="evenodd"
         id="path1911" />
    </clipPath>
    <clipPath
       clipPathUnits="userSpaceOnUse"
       id="clipPath1935">
      <path
         d="M 0,0 H 936.12 V 612.12 H 0 Z"
         clip-rule="evenodd"
         id="path1933" />
    </clipPath>
    <clipPath
       clipPathUnits="userSpaceOnUse"
       id="clipPath2007">
      <path
         d="M 0,0 H 936.12 V 612.12 H 0 Z"
         clip-rule="evenodd"
         id="path2005" />
    </clipPath>
    <clipPath
       clipPathUnits="userSpaceOnUse"
       id="clipPath2029">
      <path
         d="M 0,0 H 936.12 V 612.12 H 0 Z"
         clip-rule="evenodd"
         id="path2027" />
    </clipPath>
    <clipPath
       clipPathUnits="userSpaceOnUse"
       id="clipPath1957">
      <path
         d="M 0,0 H 936.12 V 612.12 H 0 Z"
         clip-rule="evenodd"
         id="path1955" />
    </clipPath>
    <clipPath
       clipPathUnits="userSpaceOnUse"
       id="clipPath2051">
      <path
         d="M 0,0 H 936.12 V 612.12 H 0 Z"
         clip-rule="evenodd"
         id="path2049" />
    </clipPath>
    <clipPath
       clipPathUnits="userSpaceOnUse"
       id="clipPath2711-20">
      <path
         d="M 0,0 H 936.12 V 612.12 H 0 Z"
         clip-rule="evenodd"
         id="path2709-1" />
    </clipPath>
    <clipPath
       clipPathUnits="userSpaceOnUse"
       id="clipPath2691-2">
      <path
         d="M 0,0 H 936.12 V 612.12 H 0 Z"
         clip-rule="evenodd"
         id="path2689-4" />
    </clipPath>
    <clipPath
       clipPathUnits="userSpaceOnUse"
       id="clipPath2731-0">
      <path
         d="M 0,0 H 936.12 V 612.12 H 0 Z"
         clip-rule="evenodd"
         id="path2729-2" />
    </clipPath>
    <clipPath
       clipPathUnits="userSpaceOnUse"
       id="clipPath1869-0">
      <path
         d="M 0,0 H 936.12 V 612.12 H 0 Z"
         clip-rule="evenodd"
         id="path1867-1" />
    </clipPath>
    <clipPath
       clipPathUnits="userSpaceOnUse"
       id="clipPath1979-7">
      <path
         d="M 0,0 H 936.12 V 612.12 H 0 Z"
         clip-rule="evenodd"
         id="path1977-1" />
    </clipPath>
    <clipPath
       clipPathUnits="userSpaceOnUse"
       id="clipPath1891-5">
      <path
         d="M 0,0 H 936.12 V 612.12 H 0 Z"
         clip-rule="evenodd"
         id="path1889-9" />
    </clipPath>
    <clipPath
       clipPathUnits="userSpaceOnUse"
       id="clipPath1935-2">
      <path
         d="M 0,0 H 936.12 V 612.12 H 0 Z"
         clip-rule="evenodd"
         id="path1933-8" />
    </clipPath>
    <clipPath
       clipPathUnits="userSpaceOnUse"
       id="clipPath2007-9">
      <path
         d="M 0,0 H 936.12 V 612.12 H 0 Z"
         clip-rule="evenodd"
         id="path2005-5" />
    </clipPath>
    <clipPath
       clipPathUnits="userSpaceOnUse"
       id="clipPath2029-2">
      <path
         d="M 0,0 H 936.12 V 612.12 H 0 Z"
         clip-rule="evenodd"
         id="path2027-8" />
    </clipPath>
    <clipPath
       clipPathUnits="userSpaceOnUse"
       id="clipPath1957-0">
      <path
         d="M 0,0 H 936.12 V 612.12 H 0 Z"
         clip-rule="evenodd"
         id="path1955-0" />
    </clipPath>
    <clipPath
       clipPathUnits="userSpaceOnUse"
       id="clipPath2051-6">
      <path
         d="M 0,0 H 936.12 V 612.12 H 0 Z"
         clip-rule="evenodd"
         id="path2049-3" />
    </clipPath>
    <clipPath
       clipPathUnits="userSpaceOnUse"
       id="clipPath1913-7">
      <path
         d="M 0,0 H 936.12 V 612.12 H 0 Z"
         clip-rule="evenodd"
         id="path1911-7" />
    </clipPath>
  </defs>
  <sodipodi:namedview
     id="base"
     pagecolor="#ffffff"
     bordercolor="#666666"
     borderopacity="1.0"
     inkscape:pageopacity="0.0"
     inkscape:pageshadow="2"
     inkscape:zoom="1.0708333"
     inkscape:cx="157.67501"
     inkscape:cy="233.12067"
     inkscape:document-units="mm"
     inkscape:current-layer="layer1"
     inkscape:document-rotation="0"
     showgrid="false"
     units="px"
     inkscape:window-width="954"
     inkscape:window-height="730"
     inkscape:window-x="0"
     inkscape:window-y="0"
     inkscape:window-maximized="0" />
  <metadata
     id="metadata11802">
    <rdf:RDF>
      <cc:Work
         rdf:about="">
        <dc:format>image/svg+xml</dc:format>
        <dc:type
           rdf:resource="http://purl.org/dc/dcmitype/StillImage" />
        <dc:title></dc:title>
      </cc:Work>
    </rdf:RDF>
  </metadata>
  <g
     inkscape:label="Capa 1"
     inkscape:groupmode="layer"
     id="layer1">
    <g
       id="g14191"
       transform="translate(-44.926897,-36.045944)">
      <path
         d="m 47.02543,49.747761 1.53498,-10.529916 3.26881,-0.998717 3.15884,0.950513 1.64494,10.57812 z"
         style="display:inline;fill:#ffdd55;stroke:#deaa87;stroke-width:0.352777;stroke-linecap:butt;stroke-linejoin:round;stroke-miterlimit:10;stroke-dasharray:none;stroke-opacity:1"
         id="path2043" />
      <path
         d="m 51.34115,47.327798 0.15064,-0.952172 0.32085,-0.09023 0.30881,0.08601 0.16118,0.956391 z"
         style="display:inline;fill:#ff0000;fill-opacity:1;fill-rule:evenodd;stroke:none;stroke-width:0.352777"
         id="path2467" />
      <path
         d="m 51.34115,47.327798 0.15064,-0.952172 0.32085,-0.09023 0.30881,0.08601 0.16118,0.956391 z"
         style="display:inline;fill:none;stroke:none;stroke-width:0.176388;stroke-linecap:butt;stroke-linejoin:round;stroke-miterlimit:10;stroke-dasharray:none;stroke-opacity:1"
         id="path2469" />
      <path
         d="m 53.32955,46.806595 c 0,-0.230321 0.18679,-0.416959 0.41726,-0.416959 0.23048,0 0.41576,0.186638 0.41576,0.416959 0,0.230323 -0.18528,0.416962 -0.41576,0.416962 -0.23047,0 -0.41726,-0.186639 -0.41726,-0.416962 z"
         style="display:inline;fill:#ff0000;fill-opacity:1;fill-rule:evenodd;stroke:none;stroke-width:0.352777"
         id="path2487" />
      <path
         d="m 53.32955,46.806595 c 0,-0.230321 0.18679,-0.416959 0.41726,-0.416959 0.23048,0 0.41576,0.186638 0.41576,0.416959 0,0.230323 -0.18528,0.416962 -0.41576,0.416962 -0.23047,0 -0.41726,-0.186639 -0.41726,-0.416962 z"
         style="display:inline;fill:none;stroke:none;stroke-width:0.176388;stroke-linecap:butt;stroke-linejoin:round;stroke-miterlimit:10;stroke-dasharray:none;stroke-opacity:1"
         id="path2489" />
      <path
         d="m 49.49436,46.806595 c 0,-0.230321 0.18678,-0.416959 0.41726,-0.416959 0.23047,0 0.41726,0.186638 0.41726,0.416959 0,0.230323 -0.18679,0.416962 -0.41726,0.416962 -0.23048,0 -0.41726,-0.186639 -0.41726,-0.416962 z"
         style="display:inline;fill:#ff0000;fill-opacity:1;fill-rule:evenodd;stroke:none;stroke-width:0.352777"
         id="path2491" />
      <path
         d="m 49.49436,46.806595 c 0,-0.230321 0.18678,-0.416959 0.41726,-0.416959 0.23047,0 0.41726,0.186638 0.41726,0.416959 0,0.230323 -0.18679,0.416962 -0.41726,0.416962 -0.23048,0 -0.41726,-0.186639 -0.41726,-0.416962 z"
         style="display:inline;fill:none;stroke:none;stroke-width:0.176388;stroke-linecap:butt;stroke-linejoin:round;stroke-miterlimit:10;stroke-dasharray:none;stroke-opacity:1"
         id="path2493" />
      <path
         d="m 53.32955,44.909636 c 0,-0.230022 0.18679,-0.416812 0.41726,-0.416812 0.23048,0 0.41576,0.18679 0.41576,0.416812 0,0.230322 -0.18528,0.417112 -0.41576,0.417112 -0.23047,0 -0.41726,-0.18679 -0.41726,-0.417112 z"
         style="display:inline;fill:#ff0000;fill-opacity:1;fill-rule:evenodd;stroke:none;stroke-width:0.352777"
         id="path2495" />
      <path
         d="m 53.32955,44.909636 c 0,-0.230022 0.18679,-0.416812 0.41726,-0.416812 0.23048,0 0.41576,0.18679 0.41576,0.416812 0,0.230322 -0.18528,0.417112 -0.41576,0.417112 -0.23047,0 -0.41726,-0.18679 -0.41726,-0.417112 z"
         style="display:inline;fill:none;stroke:none;stroke-width:0.176388;stroke-linecap:butt;stroke-linejoin:round;stroke-miterlimit:10;stroke-dasharray:none;stroke-opacity:1"
         id="path2497" />
      <path
         d="m 49.49436,44.909636 c 0,-0.230022 0.18678,-0.416812 0.41726,-0.416812 0.23047,0 0.41726,0.18679 0.41726,0.416812 0,0.230322 -0.18679,0.417112 -0.41726,0.417112 -0.23048,0 -0.41726,-0.18679 -0.41726,-0.417112 z"
         style="display:inline;fill:#ff0000;fill-opacity:1;fill-rule:evenodd;stroke:none;stroke-width:0.352777"
         id="path2499" />
      <path
         d="m 49.49436,44.909636 c 0,-0.230022 0.18678,-0.416812 0.41726,-0.416812 0.23047,0 0.41726,0.18679 0.41726,0.416812 0,0.230322 -0.18679,0.417112 -0.41726,0.417112 -0.23048,0 -0.41726,-0.18679 -0.41726,-0.417112 z"
         style="display:inline;fill:none;stroke:none;stroke-width:0.176388;stroke-linecap:butt;stroke-linejoin:round;stroke-miterlimit:10;stroke-dasharray:none;stroke-opacity:1"
         id="path2501" />
      <path
         d="m 51.40141,44.909636 c 0,-0.230022 0.18679,-0.416812 0.41727,-0.416812 0.22895,0 0.41575,0.18679 0.41575,0.416812 0,0.230322 -0.1868,0.417112 -0.41575,0.417112 -0.23048,0 -0.41727,-0.18679 -0.41727,-0.417112 z"
         style="display:inline;fill:#ff0000;fill-opacity:1;fill-rule:evenodd;stroke:none;stroke-width:0.352777"
         id="path2503" />
      <path
         d="m 51.40141,44.909636 c 0,-0.230022 0.18679,-0.416812 0.41727,-0.416812 0.22895,0 0.41575,0.18679 0.41575,0.416812 0,0.230322 -0.1868,0.417112 -0.41575,0.417112 -0.23048,0 -0.41727,-0.18679 -0.41727,-0.417112 z"
         style="display:inline;fill:none;stroke:none;stroke-width:0.176388;stroke-linecap:butt;stroke-linejoin:round;stroke-miterlimit:10;stroke-dasharray:none;stroke-opacity:1"
         id="path2505" />
      <path
         d="m 51.40141,48.772699 c 0,-0.230324 0.18679,-0.416962 0.41727,-0.416962 0.22895,0 0.41575,0.186639 0.41575,0.416962 0,0.230321 -0.1868,0.416959 -0.41575,0.416959 -0.23048,0 -0.41727,-0.186638 -0.41727,-0.416959 z"
         style="display:inline;fill:#ff0000;fill-opacity:1;fill-rule:evenodd;stroke:none;stroke-width:0.352777"
         id="path2507" />
      <path
         d="m 51.40141,48.772699 c 0,-0.230324 0.18679,-0.416962 0.41727,-0.416962 0.22895,0 0.41575,0.186639 0.41575,0.416962 0,0.230321 -0.1868,0.416959 -0.41575,0.416959 -0.23048,0 -0.41727,-0.186638 -0.41727,-0.416959 z"
         style="display:inline;fill:none;stroke:none;stroke-width:0.176388;stroke-linecap:butt;stroke-linejoin:round;stroke-miterlimit:10;stroke-dasharray:none;stroke-opacity:1"
         id="path2509" />
      <path
         d="m 51.14684,47.618375 0.22445,-1.419746 0.4775,-0.134669 0.46247,0.128192 0.23951,1.426223 z"
         style="display:inline;fill:#ff0000;fill-opacity:1;fill-rule:evenodd;stroke:none;stroke-width:0.352777"
         id="path3081" />
      <path
         d="m 51.14684,47.618375 0.22445,-1.419746 0.4775,-0.134669 0.46247,0.128192 0.23951,1.426223 z"
         style="display:inline;fill:none;stroke:none;stroke-width:0.176388;stroke-linecap:butt;stroke-linejoin:round;stroke-miterlimit:10;stroke-dasharray:none;stroke-opacity:1"
         id="path3083" />
      <g
         id="g2045"
         transform="matrix(0.19883967,0,0,-0.19883967,-112.05271,65.023988)"
         style="display:inline;stroke:none;stroke-width:1.77419">
        <g
           id="g2047"
           clip-path="url(#clipPath2051)"
           style="stroke:none;stroke-width:1.77419">
          <g
             aria-label="ã¨"
             transform="matrix(1,0,0,-1,810.22,106.42)"
             id="text2055"
             style="font-variant:normal;font-weight:normal;font-size:27.96px;font-family:HakusyuKaisyo;-inkscape-font-specification:HakusyuKaisyo;writing-mode:lr-tb;fill:#ff0000;fill-opacity:1;fill-rule:nonzero;stroke:none;stroke-width:1.77419">
            <path
               d="m 7.0719138,-19.031367 q 0.6007031,0 1.6382812,0.436875 1.33793,0.600704 2.075156,1.911328 0.382266,0.709922 0.955664,2.593946 0.546094,1.774804 1.119492,2.62125 0.764532,0 2.785078,-2.102461 1.938633,-2.020547 2.157071,-2.812383 l -0.409571,-0.87375 q 0.109219,0 0.491485,-0.08191 0.327656,-0.0273 0.518789,-0.0273 0.764531,0 1.884023,1.283321 1.119492,1.28332 1.092188,2.075156 v 0.191133 q -0.737227,0.382265 -2.075157,1.256015 -1.365234,1.228711 -4.123007,3.4403907 -0.46418,0.2730468 -1.310625,0.7918359 -0.327656,0.1911328 -0.819141,0.7918359 -0.436875,0.4914844 -0.928359,0.7099218 -2.7577735,2.7304687 -2.7577735,4.1503124 0,1.5563671 3.3311715,1.5563671 1.583672,0 3.877266,-0.6007031 3.631523,-1.0102734 3.795351,-1.037578 0.791836,0.3003515 1.556367,0.5733984 0.846446,0.3549609 1.146797,1.0648827 0,0.65531253 -0.546094,1.01027345 -0.518789,0.35496093 -2.238984,0.90105466 -1.583672,0.57339839 -2.320898,0.70992189 -1.392539,0.2730468 -3.495,0.2730468 -2.675859,0 -4.6144921,-0.92835932 -2.5666406,-1.17410152 -2.5666406,-3.52230458 0,-1.7748046 1.3652344,-3.7680467 1.2014062,-1.6655859 2.4028123,-3.3311718 -0.709922,-1.3106252 -1.2833202,-2.4574222 -0.7645312,-1.856718 -1.5563671,-3.686132 -1.0921875,-2.348203 -2.4028125,-2.812383 0.081914,-0.300352 1.2560156,-0.300352 z"
               style="stroke:none;stroke-width:1.77419"
               id="path5642" />
          </g>
        </g>
      </g>
    </g>
  </g>
</svg>
