<svg xmlns="http://www.w3.org/2000/svg" width="52.175" height="60" viewBox="0 0 13.805 15.875"><defs><clipPath clipPathUnits="userSpaceOnUse" id="a"><path d="M0 0h936.12v612.12H0z" clip-rule="evenodd"/></clipPath><clipPath clipPathUnits="userSpaceOnUse" id="b"><path d="M0 0h936.12v612.12H0z" clip-rule="evenodd"/></clipPath><clipPath clipPathUnits="userSpaceOnUse" id="c"><path d="M0 0h936.12v612.12H0z" clip-rule="evenodd"/></clipPath></defs><path d="M31.596 49.815l1.604-10.92 3.413-1.037 3.3.987 1.718 10.97z" fill="#fd5" stroke="#deaa87" stroke-width=".353" stroke-linejoin="round" stroke-miterlimit="10"/><path d="M36.125 47.395l.151-.952.32-.09.31.086.16.956z" fill="red" fill-rule="evenodd"/><path d="M36.125 47.395l.151-.952.32-.09.31.086.16.956z" fill="none"/><path d="M38.114 46.874a.417.417 0 1 1 .834 0 .417.417 0 0 1-.834 0z" fill="red" fill-rule="evenodd"/><path d="M38.114 46.874a.417.417 0 1 1 .834 0 .417.417 0 0 1-.834 0z" fill="none"/><path d="M34.279 46.874a.417.417 0 1 1 .834 0 .417.417 0 0 1-.834 0z" fill="red" fill-rule="evenodd"/><path d="M34.279 46.874a.417.417 0 1 1 .834 0 .417.417 0 0 1-.834 0z" fill="none"/><path d="M38.114 44.977a.417.417 0 1 1 .834 0 .417.417 0 0 1-.834 0z" fill="red" fill-rule="evenodd"/><path d="M38.114 44.977a.417.417 0 1 1 .834 0 .417.417 0 0 1-.834 0z" fill="none"/><path d="M34.279 44.977a.417.417 0 1 1 .834 0 .417.417 0 0 1-.834 0z" fill="red" fill-rule="evenodd"/><path d="M34.279 44.977a.417.417 0 1 1 .834 0 .417.417 0 0 1-.834 0z" fill="none"/><path d="M36.186 44.977a.417.417 0 1 1 .834 0 .417.417 0 0 1-.834 0z" fill="red" fill-rule="evenodd"/><path d="M36.186 44.977a.417.417 0 1 1 .834 0 .417.417 0 0 1-.834 0z" fill="none"/><path d="M36.186 48.84a.417.417 0 1 1 .834 0 .417.417 0 0 1-.834 0z" fill="red" fill-rule="evenodd"/><path d="M36.186 48.84a.417.417 0 1 1 .834 0 .417.417 0 0 1-.834 0z" fill="none"/><path d="M35.933 47.686l.224-1.42.478-.135.46.128.24 1.427z" fill="red" fill-rule="evenodd"/><path d="M35.933 47.686l.224-1.42.478-.135.46.128.24 1.427z" fill="none"/><g clip-path="url(#a)" transform="matrix(.19884 0 0 -.19884 -107.118 64.818)" stroke-width="1.774"><path d="M729.677 120.538c-.334-.438-1.085-.918-2.253-1.44-1.147-.5-1.783-.834-1.909-1 .167-1.356.209-2.378.126-3.067.646-.563 1.032-1.147 1.157-1.752-.187-.667-.709-1.512-1.564-2.534-.855-1.002-1.387-1.794-1.596-2.378.376-.376 1.335-.751 2.879-1.127 1.376-.334 2.315-.918 2.816-1.752-.021-.334-.334-.605-.939-.813-.605-.23-2.19-.585-4.756-1.064-2.566-.5-4.099-.751-4.6-.751-.896 0-1.46.448-1.69 1.345.105.5.439 1.074 1.002 1.721.647.71 1.043 1.262 1.19 1.658-.21.167-.856.272-1.94.313-.981.021-1.471.48-1.471 1.377 0 .584.323 1.241.97 1.971.667.751 1.637 1.481 2.91 2.19 1.084.585 2.169 1.158 3.254 1.721.125.605.187 1.158.187 1.659 0 .208-.01.386-.031.532-.563-.167-1.898-.783-4.005-1.846-1.606-.814-2.993-1.21-4.161-1.19h-.22c-.375.188-.563.46-.563.814 0 .668.929 1.742 2.785 3.223v-.532l-.219-.688c.814.208 1.93.709 3.348 1.501 1.335.751 2.357 1.43 3.066 2.034.105.271.157.532.157.782 0 .23-.052.439-.157.626-1.543-1.001-2.962-1.658-4.255-1.971l4.068 4.005c-.835.125-1.586.5-2.253 1.126-.668.647-1.001 1.377-1.001 2.19 0 .355.187.991.563 1.91l.813 1.94c.5-.147 1.074-.418 1.721-.814.793-.48 1.19-.908 1.19-1.283 0-.146-.21-.47-.627-.97-.417-.5-.625-.907-.625-1.22 0-.105.01-.199.03-.282.189-.042.408-.063.658-.063.25 0 .636.021 1.158.063.521.042.917.063 1.189.063 1.585 0 2.346-.49 2.284-1.471v-.219c-.355-.25-1.054-.647-2.097-1.189-.897-.459-1.564-.887-2.002-1.283.542-.292 1.345-.553 2.41-.782a52.692 52.692 0 0 1 1.72-.157c.563-.104.99-.48 1.283-1.126zm-7.009-7.478v.063c-2.107-.584-3.63-1.398-4.568-2.441-.334-.375-.5-.688-.5-.939 0-.146.083-.25.25-.313a1.94 1.94 0 0 1 .469-.062c1.043 0 2.034.365 2.972 1.095.96.75 1.419 1.617 1.377 2.597zm.5-6.57c0 .291-.083.594-.25.907-.688-.751-1.251-1.325-1.69-1.721a.693.693 0 0 1 .22-.032c.396 0 .96.188 1.69.564.02.083.03.177.03.281z" aria-label="金" font-weight="400" font-size="32.04" font-family="HakusyuSousyo_kk" fill="red"/></g><path d="M11.706 2.173l-1.536 10.53-3.268 1-3.159-.951L2.1 2.172z" fill="#fd5" stroke="#deaa87" stroke-width=".353" stroke-linejoin="round" stroke-miterlimit="10"/><path d="M7.267 3.627l-.136.862-.29.08-.28-.077-.145-.865z" fill-rule="evenodd"/><path d="M7.267 3.627l-.136.862-.29.08-.28-.077-.145-.865z" fill="none"/><path d="M7.212 5.813a.377.377 0 1 1-.753 0 .377.377 0 0 1 .753 0z" fill-rule="evenodd"/><path d="M7.212 5.813a.377.377 0 1 1-.753 0 .377.377 0 0 1 .753 0z" fill="none"/><path d="M7.544 3.321l-.225 1.42-.477.135-.463-.128-.24-1.427z" fill-rule="evenodd"/><path d="M7.544 3.321l-.225 1.42-.477.135-.463-.128-.24-1.427z" fill="none"/><g clip-path="url(#b)" transform="matrix(-.19884 0 0 .19884 170.723 -37.39)" stroke-width="1.774"><path d="M824.265 249.16q.383 0 1.311-.356.928-.328 1.174-.573.027-.219.027-.41 0-.464-.19-.655l-.055-2.485q.792 0 3.222 1.038.273-.082 1.365-.082.41 0 .737-.273.328-.246.3-.628v-.055q-.436-.437-1.092-.519-.628-.082-1.228-.136-2.895-.355-3.25-.519-.273-.273-.273-1.474 0-.246-.355-1.284l.574-.027 5.515.874q.656.109 1.72-.328.929-.382 1.53-.928l.054-1.065q-.655-.437-1.147-.437-.355 0-1.638.355-1.256.355-1.939.355-3.959 0-5.843-.929.519-.109 1.038-.245.519-.11.628-.71-.3-1.147-.3-1.993l-.083-.983q.028.163.082-.492l.055-.983q.055-.573.328-.874l2.266 2.24-.382.545q.109.601 1.092.601.218-.191.819-.218l.874-.055-2.157 2.403q3.85-.628 5.488-2.321v-.11q.027-.354-.3-.682-.41-.382-.465-.546h-.136q-.246-.027-.737.219-.492.273-.683.273l-.273-.656q-.765-.19-1.638-1.01-.656-.683-1.338-1.365-.464-.3-1.365-1.038-.465-.519-1.393-1.447-.41-.382-1.529-1.174-.737-.628-2.239-1.72-.983-.601-1.666-.929-.546-.163-1.583-.6-.601-.328-1.174-.656-.792-.382-1.284-.382-.19 0-.6.11l-.765-.192-.519.137q4.232 1.966 9.53 6.58-.41.901-1.038 1.475l-1.201 1.201q.873.246 2.239.683.027.245.027.464 0 .218-.082.655-.055.464-.055.71 0 1.283-.19 1.693-.165.437-1.148 1.174-.163 0-2.512-.437-1.665-.328-2.43-.573-1.583-.464-2.184-1.147l-.792-.3q-.737.3-1.31 1.037-.547.737-.574 1.502l.847-.055q.655-.464.819-.464.054 0 5.324 1.365l.546.383q-.382.163-.382.6 0 .137.027.437.055.328.055.464 0 2.813-.874 3.25l.137.082.027.109-.11.19.765.083q.137-.164 1.147-.382.846-.164.983-.82-.11-1.146-.546-3.74 1.42 0 2.648.491l-.436 1.147.163 3.823q-.109.273-.136.983 0 .71-.11.9-.327.465-.9 1.311.054.52 1.146.52zm-5.98-12.807q.301 0 .41-.246.055-.109.273-1.037.219-.901.219-1.038 0-.9-.383-1.665-.436-.847-1.174-1.174-.846.491-.846 1.392 0 .655.764 1.83.765 1.174.738 1.938z" aria-label="歩" font-weight="400" font-size="27.96" font-family="HakusyuKaisyo" stroke-width="1.417" stroke-linejoin="round" stroke-miterlimit="10"/></g><g><path d="M47.025 49.748l1.535-10.53 3.27-.999 3.158.95 1.645 10.579z" fill="#fd5" stroke="#deaa87" stroke-width=".353" stroke-linejoin="round" stroke-miterlimit="10"/><path d="M51.341 47.328l.15-.952.322-.09.308.085.162.957z" fill="red" fill-rule="evenodd"/><path d="M51.341 47.328l.15-.952.322-.09.308.085.162.957z" fill="none"/><path d="M53.33 46.807a.417.417 0 1 1 .834 0 .417.417 0 0 1-.834 0z" fill="red" fill-rule="evenodd"/><path d="M53.33 46.807a.417.417 0 1 1 .834 0 .417.417 0 0 1-.834 0z" fill="none"/><path d="M49.494 46.807a.417.417 0 1 1 .834 0 .417.417 0 0 1-.834 0z" fill="red" fill-rule="evenodd"/><path d="M49.494 46.807a.417.417 0 1 1 .834 0 .417.417 0 0 1-.834 0z" fill="none"/><path d="M53.33 44.91a.417.417 0 1 1 .834 0 .417.417 0 0 1-.834 0z" fill="red" fill-rule="evenodd"/><path d="M53.33 44.91a.417.417 0 1 1 .834 0 .417.417 0 0 1-.834 0z" fill="none"/><path d="M49.494 44.91a.417.417 0 1 1 .835 0 .417.417 0 0 1-.835 0z" fill="red" fill-rule="evenodd"/><path d="M49.494 44.91a.417.417 0 1 1 .835 0 .417.417 0 0 1-.835 0z" fill="none"/><path d="M51.401 44.91a.417.417 0 1 1 .835 0 .417.417 0 0 1-.835 0z" fill="red" fill-rule="evenodd"/><path d="M51.401 44.91a.417.417 0 1 1 .835 0 .417.417 0 0 1-.835 0z" fill="none"/><path d="M51.401 48.773a.417.417 0 1 1 .835 0 .417.417 0 0 1-.835 0z" fill="red" fill-rule="evenodd"/><path d="M51.401 48.773a.417.417 0 1 1 .835 0 .417.417 0 0 1-.835 0z" fill="none"/><path d="M51.147 47.618l.224-1.42.478-.134.462.128.24 1.426z" fill="red" fill-rule="evenodd"/><path d="M51.147 47.618l.224-1.42.478-.134.462.128.24 1.426z" fill="none"/><g clip-path="url(#c)" transform="matrix(.19884 0 0 -.19884 -112.053 65.024)" stroke-width="1.774"><path d="M817.292 125.451q.6 0 1.638-.437 1.338-.6 2.075-1.91.383-.71.956-2.595.546-1.775 1.12-2.621.764 0 2.785 2.102 1.938 2.021 2.157 2.813l-.41.874q.11 0 .492.081.327.028.518.028.765 0 1.884-1.284 1.12-1.283 1.093-2.075v-.19q-.738-.383-2.076-1.257-1.365-1.229-4.123-3.44-.464-.273-1.31-.792-.328-.191-.82-.792-.436-.491-.928-.71-2.757-2.73-2.757-4.15 0-1.557 3.33-1.557 1.584 0 3.878.601 3.631 1.01 3.795 1.038.792-.3 1.557-.574.846-.355 1.146-1.065 0-.655-.546-1.01-.518-.355-2.239-.9-1.583-.574-2.32-.71-1.393-.274-3.496-.274-2.675 0-4.614.929-2.567 1.174-2.567 3.522 0 1.775 1.366 3.768l2.402 3.331q-.71 1.31-1.283 2.457-.764 1.857-1.556 3.687-1.092 2.348-2.403 2.812.082.3 1.256.3z" aria-label="と" font-weight="400" font-size="27.96" font-family="HakusyuKaisyo" fill="red"/></g></g></svg>