<?xml version="1.0" encoding="UTF-8" standalone="no"?>
<svg
   width="52.175"
   height="60"
   viewBox="0 0 13.805 15.875"
   version="1.1"
   id="svg106"
   sodipodi:docname="1NG.svg"
   inkscape:version="1.4.2 (f4327f4, 2025-05-13)"
   xmlns:inkscape="http://www.inkscape.org/namespaces/inkscape"
   xmlns:sodipodi="http://sodipodi.sourceforge.net/DTD/sodipodi-0.dtd"
   xmlns="http://www.w3.org/2000/svg"
   xmlns:svg="http://www.w3.org/2000/svg">
  <sodipodi:namedview
     id="namedview106"
     pagecolor="#ffffff"
     bordercolor="#000000"
     borderopacity="0.25"
     inkscape:showpageshadow="2"
     inkscape:pageopacity="0.0"
     inkscape:pagecheckerboard="0"
     inkscape:deskcolor="#d1d1d1"
     inkscape:zoom="9.05"
     inkscape:cx="26.132597"
     inkscape:cy="30"
     inkscape:window-width="1366"
     inkscape:window-height="745"
     inkscape:window-x="-8"
     inkscape:window-y="-8"
     inkscape:window-maximized="1"
     inkscape:current-layer="svg106" />
  <defs
     id="defs6">
    <clipPath
       clipPathUnits="userSpaceOnUse"
       id="a">
      <path
         d="M0 0h936.12v612.12H0z"
         clip-rule="evenodd"
         id="path1" />
    </clipPath>
    <clipPath
       clipPathUnits="userSpaceOnUse"
       id="b">
      <path
         d="M0 0h936.12v612.12H0z"
         clip-rule="evenodd"
         id="path2" />
    </clipPath>
    <clipPath
       clipPathUnits="userSpaceOnUse"
       id="c">
      <path
         d="M0 0h936.12v612.12H0z"
         clip-rule="evenodd"
         id="path3" />
    </clipPath>
    <clipPath
       clipPathUnits="userSpaceOnUse"
       id="d">
      <path
         d="M0 0h936.12v612.12H0z"
         clip-rule="evenodd"
         id="path4" />
    </clipPath>
    <clipPath
       clipPathUnits="userSpaceOnUse"
       id="e">
      <path
         d="M0 0h936.12v612.12H0z"
         clip-rule="evenodd"
         id="path5" />
    </clipPath>
    <clipPath
       clipPathUnits="userSpaceOnUse"
       id="f">
      <path
         d="M0 0h936.12v612.12H0z"
         clip-rule="evenodd"
         id="path6" />
    </clipPath>
  </defs>
  <path
     d="M16.408 33.299l1.742-11.312 3.704-1.07 3.579 1.02L27.298 33.3zM31.596 49.815l1.604-10.92 3.413-1.037 3.3.987 1.718 10.97zM46.965 32.916l1.536-10.531 3.268-.999 3.159.95 1.645 10.58z"
     fill="#fd5"
     stroke="#deaa87"
     stroke-width=".353"
     stroke-linejoin="round"
     stroke-miterlimit="10"
     id="path7" />
  <g
     stroke-width="1.429"
     id="g17">
    <path
       style="line-height:normal;font-variant-ligatures:normal;font-variant-position:normal;font-variant-caps:normal;font-variant-numeric:normal;font-variant-alternates:normal;font-variant-east-asian:normal;font-feature-settings:normal;font-variation-settings:normal;text-indent:0;text-align:start;text-decoration-line:none;text-decoration-style:solid;text-decoration-color:#000;text-transform:none;text-orientation:mixed;white-space:normal;shape-padding:0;shape-margin:0;inline-size:0;isolation:auto;mix-blend-mode:normal;solid-color:#000;solid-opacity:1"
       d="M21.843 29.513a.608.608 0 0 0-.606.606c0 .332.274.604.606.604a.607.607 0 0 0 .604-.604.608.608 0 0 0-.604-.606zm0 .37a.23.23 0 0 1 .233.236.23.23 0 0 1-.233.233.23.23 0 0 1-.236-.233c0-.132.104-.235.236-.235z"
       color="#000"
       font-weight="400"
       font-family="sans-serif"
       overflow="visible"
       id="path8" />
    <path
       d="M23.362 28.21a.42.42 0 1 1 .839 0 .42.42 0 0 1-.839 0z"
       fill-rule="evenodd"
       id="path9" />
    <path
       d="M23.362 28.21a.42.42 0 1 1 .839 0 .42.42 0 0 1-.839 0z"
       fill="none"
       id="path10" />
    <path
       d="M19.505 28.21a.42.42 0 1 1 .838 0 .42.42 0 0 1-.838 0z"
       fill-rule="evenodd"
       id="path11" />
    <path
       d="M19.505 28.21a.42.42 0 1 1 .838 0 .42.42 0 0 1-.838 0z"
       fill="none"
       id="path12" />
    <path
       style="line-height:normal;font-variant-ligatures:normal;font-variant-position:normal;font-variant-caps:normal;font-variant-numeric:normal;font-variant-alternates:normal;font-variant-east-asian:normal;font-feature-settings:normal;font-variation-settings:normal;text-indent:0;text-align:start;text-decoration-line:none;text-decoration-style:solid;text-decoration-color:#000;text-transform:none;text-orientation:mixed;white-space:normal;shape-padding:0;shape-margin:0;inline-size:0;isolation:auto;mix-blend-mode:normal;solid-color:#000;solid-opacity:1"
       d="M21.843 27.606a.608.608 0 0 0-.606.604c0 .332.273.605.606.605a.608.608 0 0 0 .604-.605.607.607 0 0 0-.604-.604zm0 .37a.23.23 0 0 1 .233.234.23.23 0 0 1-.233.235.233.233 0 0 1-.236-.235.23.23 0 0 1 .236-.234z"
       color="#000"
       font-weight="400"
       font-family="sans-serif"
       overflow="visible"
       id="path13" />
    <path
       d="M21.364 32.62l.15-.957.323-.09.311.085.162.963z"
       fill-rule="evenodd"
       id="path14" />
    <path
       d="M21.364 32.62l.15-.957.323-.09.311.085.162.963z"
       fill="none"
       id="path15" />
    <path
       d="M21.132 32.809l.224-1.42.478-.135.46.128.241 1.427z"
       fill-rule="evenodd"
       id="path16" />
    <path
       d="M21.132 32.809l.224-1.42.478-.135.46.128.241 1.427z"
       fill="none"
       id="path17" />
  </g>
  <path
     d="M51.404 31.462l.136-.862.29-.081.28.078.146.865z"
     fill-rule="evenodd"
     id="path18" />
  <path
     d="M51.404 31.462l.136-.862.29-.081.28.078.146.865z"
     fill="none"
     id="path19" />
  <path
     d="M51.459 29.276a.377.377 0 1 1 .753 0 .377.377 0 0 1-.753 0z"
     fill-rule="evenodd"
     id="path20" />
  <path
     d="M51.459 29.276a.377.377 0 1 1 .753 0 .377.377 0 0 1-.753 0z"
     fill="none"
     id="path21" />
  <path
     d="M51.127 31.767l.225-1.42.477-.134.463.128.24 1.426z"
     fill-rule="evenodd"
     id="path22" />
  <path
     d="M51.127 31.767l.225-1.42.477-.134.463.128.24 1.426z"
     fill="none"
     id="path23" />
  <path
     d="M36.125 47.395l.151-.952.32-.09.31.086.16.956z"
     fill="red"
     fill-rule="evenodd"
     id="path24" />
  <path
     d="M36.125 47.395l.151-.952.32-.09.31.086.16.956z"
     fill="none"
     id="path25" />
  <path
     d="M38.114 46.874a.417.417 0 1 1 .834 0 .417.417 0 0 1-.834 0z"
     fill="red"
     fill-rule="evenodd"
     id="path26" />
  <path
     d="M38.114 46.874a.417.417 0 1 1 .834 0 .417.417 0 0 1-.834 0z"
     fill="none"
     id="path27" />
  <path
     d="M34.279 46.874a.417.417 0 1 1 .834 0 .417.417 0 0 1-.834 0z"
     fill="red"
     fill-rule="evenodd"
     id="path28" />
  <path
     d="M34.279 46.874a.417.417 0 1 1 .834 0 .417.417 0 0 1-.834 0z"
     fill="none"
     id="path29" />
  <path
     d="M38.114 44.977a.417.417 0 1 1 .834 0 .417.417 0 0 1-.834 0z"
     fill="red"
     fill-rule="evenodd"
     id="path30" />
  <path
     d="M38.114 44.977a.417.417 0 1 1 .834 0 .417.417 0 0 1-.834 0z"
     fill="none"
     id="path31" />
  <path
     d="M34.279 44.977a.417.417 0 1 1 .834 0 .417.417 0 0 1-.834 0z"
     fill="red"
     fill-rule="evenodd"
     id="path32" />
  <path
     d="M34.279 44.977a.417.417 0 1 1 .834 0 .417.417 0 0 1-.834 0z"
     fill="none"
     id="path33" />
  <path
     d="M36.186 44.977a.417.417 0 1 1 .834 0 .417.417 0 0 1-.834 0z"
     fill="red"
     fill-rule="evenodd"
     id="path34" />
  <path
     d="M36.186 44.977a.417.417 0 1 1 .834 0 .417.417 0 0 1-.834 0z"
     fill="none"
     id="path35" />
  <path
     d="M36.186 48.84a.417.417 0 1 1 .834 0 .417.417 0 0 1-.834 0z"
     fill="red"
     fill-rule="evenodd"
     id="path36" />
  <path
     d="M36.186 48.84a.417.417 0 1 1 .834 0 .417.417 0 0 1-.834 0z"
     fill="none"
     id="path37" />
  <path
     d="M35.933 47.686l.224-1.42.478-.135.46.128.24 1.427z"
     fill="red"
     fill-rule="evenodd"
     id="path38" />
  <path
     d="M35.933 47.686l.224-1.42.478-.135.46.128.24 1.427z"
     fill="none"
     id="path39" />
  <path
     d="M12.602 1.532l-1.82 11.7-3.88 1.11-3.748-1.057L1.202 1.532z"
     fill="#fd5"
     stroke="#deaa87"
     stroke-width=".353"
     stroke-linejoin="round"
     stroke-miterlimit="10"
     id="path40" />
  <path
     d="M7.387 3.817l-.15.953-.322.09-.309-.086-.16-.957z"
     fill="red"
     fill-rule="evenodd"
     id="path41" />
  <path
     d="M7.387 3.817l-.15.953-.322.09-.309-.086-.16-.957z"
     fill="none"
     id="path42" />
  <path
     d="M5.398 4.339a.417.417 0 1 1-.834 0 .417.417 0 0 1 .834 0z"
     fill="red"
     fill-rule="evenodd"
     id="path43" />
  <path
     d="M5.398 4.339a.417.417 0 1 1-.834 0 .417.417 0 0 1 .834 0z"
     fill="none"
     id="path44" />
  <path
     d="M9.232 4.339a.416.416 0 1 1-.833 0 .417.417 0 0 1 .833 0z"
     fill="red"
     fill-rule="evenodd"
     id="path45" />
  <path
     d="M9.232 4.339a.416.416 0 1 1-.833 0 .417.417 0 0 1 .833 0z"
     fill="none"
     id="path46" />
  <path
     d="M5.398 6.236a.417.417 0 1 1-.834-.001.417.417 0 0 1 .834 0z"
     fill="red"
     fill-rule="evenodd"
     id="path47" />
  <path
     d="M5.398 6.236a.417.417 0 1 1-.834-.001.417.417 0 0 1 .834 0z"
     fill="none"
     id="path48" />
  <path
     d="M9.232 6.236a.416.416 0 1 1-.833 0 .417.417 0 0 1 .833 0z"
     fill="red"
     fill-rule="evenodd"
     id="path49" />
  <path
     d="M9.232 6.236a.416.416 0 1 1-.833 0 .417.417 0 0 1 .833 0z"
     fill="none"
     id="path50" />
  <path
     d="M7.326 6.236a.417.417 0 1 1-.834-.001.417.417 0 0 1 .834 0z"
     fill="red"
     fill-rule="evenodd"
     id="path51" />
  <path
     d="M7.326 6.236a.417.417 0 1 1-.834-.001.417.417 0 0 1 .834 0z"
     fill="none"
     id="path52" />
  <path
     d="M7.326 2.372a.417.417 0 1 1-.834 0 .417.417 0 0 1 .834 0z"
     fill="red"
     fill-rule="evenodd"
     id="path53" />
  <path
     d="M7.326 2.372a.417.417 0 1 1-.834 0 .417.417 0 0 1 .834 0z"
     fill="none"
     id="path54" />
  <path
     d="M7.608 3.541l-.223 1.42-.479.135-.46-.129-.24-1.426z"
     fill="red"
     fill-rule="evenodd"
     id="path55" />
  <path
     d="M7.608 3.541l-.223 1.42-.479.135-.46-.129-.24-1.426z"
     fill="none"
     id="path56" />
  <path
     style="fill:#ff0000;fill-opacity:1;stroke-width:5.46948"
     d="m 9.177429,6.9668206 c 0.107376,0.05315 0.190711,0.130956 0.222523,0.207756 0.07432,0.179427 -0.02178,0.268328 -0.327465,0.302912 -0.187716,0.02124 -0.313182,0.07226 -0.577098,0.234672 -0.185478,0.114144 -0.337104,0.220534 -0.33695,0.236421 1.56e-4,0.01589 0.06478,0.07281 0.143614,0.126492 0.357755,0.243625 0.437362,0.403126 0.259232,0.519385 -0.05117,0.03339 -0.269787,0.11058 -0.485822,0.171523 -0.216035,0.06094 -0.404286,0.122428 -0.418336,0.136632 -0.01405,0.01421 -0.03722,0.08823 -0.05151,0.164491 l -0.02596,0.138665 0.326859,-0.02893 c 0.348071,-0.03081 0.499721,-0.0069 0.499721,0.07876 0,0.101188 -0.146977,0.184507 -0.445091,0.252311 -0.315185,0.07169 -0.423188,0.140282 -0.423188,0.2687791 0,0.070012 0.03269,0.076715 0.34161,0.070046 0.303247,-0.00655 0.362816,0.00505 0.530466,0.1033024 0.10387,0.060873 0.212519,0.1391899 0.241442,0.1740379 0.04555,0.05489 0.104494,0.01513 0.440828,-0.2973799 0.435849,-0.4049765 0.770416,-0.6245175 1.143972,-0.7506695 0.263466,-0.08897 0.505947,-0.111274 0.54381,-0.05001 0.01209,0.01955 -0.131017,0.153951 -0.317998,0.298669 C 9.62081,9.975812 8.65772,11.126383 7.788773,12.5184 l -0.295176,0.472859 0.08494,0.143958 c 0.106098,0.179825 0.06079,0.22989 -0.240332,0.265554 -0.177096,0.02097 -0.236399,0.0084 -0.393573,-0.08376 C 6.842849,13.257361 6.719685,13.144021 6.670934,13.065142 6.570149,12.902067 6.578384,12.873664 6.825,12.534 6.9042,12.424913 6.962127,12.329854 6.953718,12.322758 6.945318,12.315658 6.603527,12.099822 6.194195,11.843114 5.784864,11.586407 5.356926,11.313774 5.243221,11.237263 5.129518,11.160753 4.83236,11.031484 4.58287,10.950001 3.954573,10.744799 3.760449,10.638216 3.591717,10.405811 3.443959,10.202299 3.343219,9.9245273 3.368863,9.7913466 c 0.009,-0.046917 0.07969,-0.099569 0.17971,-0.133924 0.223481,-0.07676 1.061544,-0.0011 1.336919,0.1207381 0.13692,0.060566 0.437066,0.3284093 1.079936,0.9637133 0.867055,0.85685 1.232377,1.186872 1.308037,1.181643 0.0429,-0.003 1.230117,-1.475193 1.248194,-1.547849 0.01897,-0.07626 -0.490289,0.006 -0.916014,0.148004 -0.237364,0.07916 -0.425689,0.17292 -0.53461,0.266153 -0.124638,0.106685 -0.206767,0.143936 -0.317342,0.143936 -0.207545,0 -0.505376,-0.159144 -0.575913,-0.307735 -0.09939,-0.209371 0.01783,-0.33809 0.491625,-0.539872 0.0893,-0.03803 0.227992,-0.3166811 0.181006,-0.3636664 -0.01058,-0.01058 -0.133607,0.01635 -0.273388,0.059857 -0.271755,0.08458 -0.362155,0.07738 -0.362155,-0.028847 0,-0.11367 0.217432,-0.290809 0.475463,-0.38735 0.265731,-0.09942 0.30851,-0.138491 0.309489,-0.28265 5.29e-4,-0.0868 -0.01699,-0.09303 -0.262542,-0.09303 -0.33998,0 -0.503063,-0.107071 -0.463602,-0.304373 0.03631,-0.181563 0.210643,-0.343778 0.475985,-0.442903 0.316542,-0.118254 0.374834,-0.179862 0.374834,-0.396165 0,-0.212717 -1.9e-4,-0.212754 -0.615659,-0.119072 -0.299755,0.04563 -0.412851,0.08171 -0.49616,0.158304 -0.171052,0.157261 -0.305208,0.235929 -0.402336,0.235929 -0.12486,0 -0.55433,-0.2286 -0.666881,-0.354971 -0.125911,-0.141372 -0.12907,-0.426542 -0.006,-0.53791 0.0817,-0.07391 0.166515,-0.07877 1.374777,-0.07877 h 1.287706 l 0.590637,-0.134377 c 0.694327,-0.157967 0.76066,-0.161283 0.986816,-0.04934 z m -1.347585,0.643159 c -0.01,0.0099 0.01106,0.04729 0.04684,0.08307 0.05918,0.05918 0.08041,0.05628 0.234964,-0.03199 0.09345,-0.05338 0.170052,-0.108465 0.170227,-0.122416 2.65e-4,-0.02648 -0.42023,0.03989 -0.452034,0.07134 z m -0.06081,0.68076 c -0.160275,0.190476 -0.140695,0.218098 0.136754,0.19294 0.250916,-0.02275 0.467079,-0.102562 0.475178,-0.175439 0.0055,-0.0499 -0.241939,-0.139136 -0.394862,-0.142379 -0.07391,-0.0016 -0.145165,0.03943 -0.21707,0.124878 z"
     id="path566" />
  <g
     stroke-width="1.774"
     id="g59">
    <g
       clip-path="url(#a)"
       transform="matrix(.19884 0 0 -.19884 -101.644 72.921)"
       id="g58">
      <path
         d="M626.046 255.379q.376-.188 1.472-.282.94-.062 1.41-.532l-.157-.814q-.533-.188-.564-.627v-.814l-.313-.908.156-.438 1.222.22q.313-.095 1.158-.126.846 0 1.378-.564.063-.156.063-.313 0-.407-.72-1.158-.032 0-1.128-.345-.626-.188-1.033-.595l-1.19-.47-.157-2.191q.407-.094.877-.094 1.065 0 1.91.281 2.662-.313 3.946-1.283v-.877l-1.723-.22q-.219-.03-.97.283-.72.313-1.159.313-.188 0-.376-.063-.313.125-.595.125-1.315 0-3.882-.595-.094-.03-1.597-.595-1.503-.563-1.628-.626-.533-.282-.752-.689l-1.19.345q-.094.344-.47.563-.344.22-.344.439 0 .031.031.125l.533-.031q.939.438 2.724.97 1.941.595 2.755.94l-.094.5.22 1.316-2.85.751-.877.846q2.224.407 3.727 1.127 0 .313.093 1.033.094.752.094 1.096l-.156 2.16q-.783.345-1.253 1.003zm-10.301-1.002q.939-.376 1.878-.72.971-.47 1.159-1.535-.814-.156-.94-.97v-1.566q0-.156-.062-.438-.063-.282-.063-.439 0-.438.407-.72.094 0 .407.032.22.03.376.03.69 0 1.033-.625l-.156-.72q-.72-.408-1.44-.783-1.002-.533-.971-1.096.062-.846.062-.658l-.281-1.284.125-.783q1.221-.438 2.442-.908 1.253-.688 1.315-2.066l-.626-.783q-.407-.031-1.096.094-.031 0-.72.532-.658.564-.72.658-.125.25-.501.72l-.157-.407.032-1.221-.22-1.315.126-.533-.126-.657.188-1.065-.125-.657.188-1.19q0-.126-.063-.376-.062-.22-.062-.345l.125-.72-.188-.689.282-.751-.564-1.284-.689.031q-.47.47-.689 1.316-.313 1.158-.438 1.44l.407 5.699-.062 1.096q-.69-.094-1.347-1.034-.47-.72-.94-1.471-.75-.97-2.41-1.879-2.067-1.065-2.63-1.566l-.439.126-1.472-.157-.626.188q1.347 1.033 3.977 3.225 1.315 1.127 2.943 3.601 1.66 2.505 2.098 4.133-2.067-.375-2.724-1.44-.564 0-1.221.595-.877.751-1.065.845l-.564 1.378q.22.094.47.094.564 0 1.315-.501 1.034.22 2.411.97 1.754 1.003 2.286 1.222l.282 3.851-.125 1.503q-.658.22-1.347 1.378l-.031.157q.72-.032.532-.032.564 0 1.034.47zm10.301-11.93l2.161-.814q.125-.439.125-.532 0-.251-.219-.658-.188-.376-.188-.595 0-.188.157-.438l.626.03q2.442.126 2.943-.75l-.03-.595q-.408-.345-1.441-.564-1.19-.22-1.566-.407-.72-.376-.72-1.253 0-.188.063-.563.093-.376.093-.564l-.156-.97.47-.188 1.315.25q.219.47 1.002.47l1.033-.25q.94-.22 1.941-.44 1.096-.312 1.754-.876l.188-.814-.345-.814-.595-.188q-.657.094-2.661.658-1.66.47-2.63.47-1.347 0-3.476-.345-2.38-.345-3.35-.783-.971-.407-1.504-1.221-.47.188-.845.814-.344.595-.595.657v.69l.438-.157q.971.376 2.662.845 1.941.501 2.693.752v2.661q-.282.094-1.816.157-1.127.062-1.722.657 2.692.846 4.008 1.566.062.908.062 1.816 0 .22-.031.407l-1.096.846q.094.156.25.47l-.03.093z"
         aria-label="桂"
         font-weight="400"
         font-size="32.064"
         font-family="HakusyuKaisyo"
         stroke-width="1.625"
         stroke-linejoin="round"
         stroke-miterlimit="10"
         id="path58" />
    </g>
  </g>
  <g
     id="g66">
    <path
       d="M31.597 33.146l1.603-10.92 3.415-1.036 3.299.987 1.717 10.97z"
       fill="#fd5"
       stroke="#deaa87"
       stroke-width=".353"
       stroke-linejoin="round"
       stroke-miterlimit="10"
       id="path59" />
    <path
       d="M35.972 32.562l.191-1.213.407-.115.394.109.205 1.219z"
       fill-rule="evenodd"
       id="path60" />
    <path
       d="M35.972 32.562l.191-1.213.407-.115.394.109.205 1.219z"
       fill="none"
       id="path61" />
    <path
       style="line-height:normal;font-variant-ligatures:normal;font-variant-position:normal;font-variant-caps:normal;font-variant-numeric:normal;font-variant-alternates:normal;font-variant-east-asian:normal;font-feature-settings:normal;font-variation-settings:normal;text-indent:0;text-align:start;text-decoration-line:none;text-decoration-style:solid;text-decoration-color:#000;text-transform:none;text-orientation:mixed;white-space:normal;shape-padding:0;shape-margin:0;inline-size:0;isolation:auto;mix-blend-mode:normal;solid-color:#000;solid-opacity:1"
       d="M36.246 28.526v2.135h.648v-2.135z"
       color="#000"
       font-weight="400"
       font-family="sans-serif"
       overflow="visible"
       id="path62" />
    <path
       d="M35.913 32.748l.224-1.419.478-.135.46.128.24 1.426z"
       fill-rule="evenodd"
       id="path63" />
    <path
       d="M35.913 32.748l.224-1.419.478-.135.46.128.24 1.426z"
       fill="none"
       id="path64" />
    <g
       clip-path="url(#b)"
       transform="matrix(.19884 0 0 -.19884 -107.207 73.32)"
       stroke-width="1.774"
       id="g65">
      <path
         d="M723.744 256.58l1.127-.22.594.22q.72-.126 1.252-.658t.532-1.251q0-1.002-.751-1.283-.626-.125-1.815-.407-.595-.188-1.877-.845-1.502-.75-1.69-1.126l1.596-.595q.219-.532 1.032-1.439 2.973.939 6.414.939 1.096 0 1.846-.72.783-.72.783-1.815l-.094-.438-1.346-.375-1.877.375q-1.22.22-1.94.22-.813 0-1.44-.22 3.411-3.66 7.229-5.413 1.314-.625 2.66-1.22 1.501-.688 2.502-1.47l.376-.72q-.5-.5-1.001-.72l-.689.157-1.283-.282-1.72.156-.626-.281q-2.16.25-3.88 2.002v-.469q-.25-.25-.5-.532-.251-.25-.251-.657 0-.219.125-.5 0-.752.031-2.097.032-1.47.032-2.065 0-3.473-1.659-4.13l-.563.125-.5.97q-.22.094-2.128.438-.188-.031-2.597-.344-1.627-.22-2.597-.563-.751-.438-2.253-1.252-.688.563-1.126 1.47.563 3.067.563 7.447 0 1.878-.845 2.16-.75-.47-.75-1.033-.72-.845-1.409-1.721-.939-1.158-1.596-1.596-1.345-.845-2.002-.845l-1.47.032q2.064 1.47 4.974 5.194 2.535 3.254 4.036 6.038-2.816 0-4.13-1.595-.156-.032-.344-.032-1.032 0-1.44 1.064-.187.438-.406 2.003.876-.125 2.065-.438 2.535.594 3.786.938 2.691.72 3.661 1.252-.188 1.126-1.126 2.44l-.438-.156-.501.156q-.782-.219-.908-.219-.125 0-.312.094l-2.629.125q.501.282 4.037 2.16 2.378 1.314 3.848 2.534l-.47.47v.343l.69-.062 1.188.281zm-.47-9.45q-.375-.094-.468-.813-.063-.564-.094-1.096l.187-.469-.281-1.533.219-.563q-.25-.094-.313-.5-.063-.376-.094-.69l.188-.844 3.473.282q1.377.125 2.41-.47-1.784 2.19-5.226 6.696zm-7.602-7.54l1.501-.595q.564.313 1.847.563 1.282.25 1.814.5-.313 1.065-.344 2.848-.031 1.783-.219 2.534-.939-.125-1.564-.876-.094-.125-1.002-1.595-.062-.157-1.157-1.627-.72-.908-.876-1.753zm1.877-1.91l.156-2.721q1.721.125 3.286.532 1.001.344 2.972 1.032h.908q.406 0 .782.188.125 1.502.125 1.658 0 .939-.657.939.375 0-1.909-.282-3.754-.532-5.663-1.345zm1.69-4.098l-.376.094q-1.001 0-1.22-.344v-.564q0 .157.125-.532-.063-.688.063-2.002.907.125 3.848.907 2.347.595 3.88.657v3.004l-.376.157q-2.628-.438-3.003-.532-2.003-.407-2.941-.845z"
         aria-label="香"
         font-weight="400"
         font-size="32.04"
         font-family="HakusyuKaisyo"
         id="path65" />
    </g>
  </g>
  <g
     id="g84">
    <path
       d="M16.247 50.101l1.74-11.31 3.704-1.073 3.58 1.022L27.134 50.1z"
       fill="#fd5"
       stroke="#deaa87"
       stroke-width=".353"
       stroke-linejoin="round"
       stroke-miterlimit="10"
       id="path66" />
    <path
       d="M21.218 47.611l.15-.952.321-.09.309.086.161.956z"
       fill="red"
       fill-rule="evenodd"
       id="path67" />
    <path
       d="M21.218 47.611l.15-.952.321-.09.309.086.161.956z"
       fill="none"
       id="path68" />
    <path
       d="M23.206 47.09a.417.417 0 1 1 .834 0 .417.417 0 0 1-.834 0z"
       fill="red"
       fill-rule="evenodd"
       id="path69" />
    <path
       d="M23.206 47.09a.417.417 0 1 1 .834 0 .417.417 0 0 1-.834 0z"
       fill="none"
       id="path70" />
    <path
       d="M19.37 47.09a.417.417 0 1 1 .835 0 .417.417 0 0 1-.834 0z"
       fill="red"
       fill-rule="evenodd"
       id="path71" />
    <path
       d="M19.37 47.09a.417.417 0 1 1 .835 0 .417.417 0 0 1-.834 0z"
       fill="none"
       id="path72" />
    <path
       d="M23.206 45.193a.417.417 0 1 1 .834 0 .417.417 0 0 1-.834 0z"
       fill="red"
       fill-rule="evenodd"
       id="path73" />
    <path
       d="M23.206 45.193a.417.417 0 1 1 .834 0 .417.417 0 0 1-.834 0z"
       fill="none"
       id="path74" />
    <path
       d="M19.37 45.193a.417.417 0 1 1 .835.001.417.417 0 0 1-.834 0z"
       fill="red"
       fill-rule="evenodd"
       id="path75" />
    <path
       d="M19.37 45.193a.417.417 0 1 1 .835.001.417.417 0 0 1-.834 0z"
       fill="none"
       id="path76" />
    <path
       d="M21.278 45.193a.417.417 0 1 1 .834.001.417.417 0 0 1-.834 0z"
       fill="red"
       fill-rule="evenodd"
       id="path77" />
    <path
       d="M21.278 45.193a.417.417 0 1 1 .834.001.417.417 0 0 1-.834 0z"
       fill="none"
       id="path78" />
    <path
       d="M21.278 49.056a.417.417 0 1 1 .834 0 .417.417 0 0 1-.834 0z"
       fill="red"
       fill-rule="evenodd"
       id="path79" />
    <path
       d="M21.278 49.056a.417.417 0 1 1 .834 0 .417.417 0 0 1-.834 0z"
       fill="none"
       id="path80" />
    <path
       d="M21.004 47.902l.224-1.42.478-.134.46.128.242 1.426z"
       fill="red"
       fill-rule="evenodd"
       id="path81" />
    <path
       d="M21.004 47.902l.224-1.42.478-.134.46.128.242 1.426z"
       fill="none"
       id="path82" />
    <g
       clip-path="url(#c)"
       transform="matrix(.19884 0 0 -.19884 -102.163 65.56)"
       stroke-width="1.774"
       id="g83">
      <path
         d="M634.872 125.026q0-.281-.188-.563-.625-.407-1.439-.626-.782-.219-1.533-.406-.532-.22-1.565-.626-1.22-.47-3.41-1.033l-.532.063 1.94 1.815q1.22 1.189 1.345 2.159-.406.406-2.597.406-4.036 0-7.165-1.658-2.753-1.44-5.663-4.725l-1.44-1.69q-.876-1-1.564-1.501-.907.626-.907 2.44 0 .94 1.376 2.785.126.188 3.098 3.567 2.378 2.691 3.004 3.442 1.783 2.19 2.597 3.723-.47.939-1.001 1.22.438.22.844.439.595.281.845.281 1.502 0 2.128-.938 0-1.471-1.252-3.098-.406-.563-2.503-2.785-1.564-1.658-2.002-2.722 3.003 1.909 5.319 2.628 2.472.783 5.85.783 1.159 0 2.003-.126 1.033-.156 2.66-1.22 1.752-1.157 1.752-2.034zm-5.538-16.677q0-1.126-1.345-1.126-.188 0-.439.031-2.19.407-4.005.407-2.66 0-6.195-1.596-1.251.376-1.314 2.253l2.315 1.846q-.093.094-1.97 1.064-1.534.782-1.534 1.408 0 .845 1.19 1.909.97.876 1.97 1.345 2.378 1.126 2.597 1.252 1.283.876 1.283 2.378 0 .312-.062.625-1.002-.5-2.41-.5-.782 0-1.533.187l-.47.376q1.002.375 2.066 1.564 1.314 1.44 1.815 1.784.313.219.938.219 2.284 0 3.473-.782v-.25q.032-.626-.344-1.127-.344-.47-.72-.939-.437-.813-.5-2.534.125-.188 1.158-.438 1.063-.22 1.439-.657.031-.157.031-.313 0-1.001-2.284-3.38-2.66-2.753-3.004-3.441 1.784.532 4.13.532 3.724 0 3.724-2.097zm-7.885 7.385q-3.63-.658-4.63-2.785.187-.595 2.283-.72 1.44.532 2.347 3.505z"
         aria-label="全"
         font-weight="400"
         font-size="32.04"
         font-family="HakusyuSousyo_kk"
         fill="red"
         id="path83" />
    </g>
  </g>
  <g
     stroke-width="1.774"
     id="g86">
    <g
       clip-path="url(#d)"
       transform="matrix(.19884 0 0 -.19884 -107.118 64.818)"
       id="g85">
      <path
         d="M729.677 120.538c-.334-.438-1.085-.918-2.253-1.44-1.147-.5-1.783-.834-1.909-1 .167-1.356.209-2.378.126-3.067.646-.563 1.032-1.147 1.157-1.752-.187-.667-.709-1.512-1.564-2.534-.855-1.002-1.387-1.794-1.596-2.378.376-.376 1.335-.751 2.879-1.127 1.376-.334 2.315-.918 2.816-1.752-.021-.334-.334-.605-.939-.813-.605-.23-2.19-.585-4.756-1.064-2.566-.5-4.099-.751-4.6-.751-.896 0-1.46.448-1.69 1.345.105.5.439 1.074 1.002 1.721.647.71 1.043 1.262 1.19 1.658-.21.167-.856.272-1.94.313-.981.021-1.471.48-1.471 1.377 0 .584.323 1.241.97 1.971.667.751 1.637 1.481 2.91 2.19 1.084.585 2.169 1.158 3.254 1.721.125.605.187 1.158.187 1.659 0 .208-.01.386-.031.532-.563-.167-1.898-.783-4.005-1.846-1.606-.814-2.993-1.21-4.161-1.19h-.22c-.375.188-.563.46-.563.814 0 .668.929 1.742 2.785 3.223v-.532l-.219-.688c.814.208 1.93.709 3.348 1.501 1.335.751 2.357 1.43 3.066 2.034.105.271.157.532.157.782 0 .23-.052.439-.157.626-1.543-1.001-2.962-1.658-4.255-1.971l4.068 4.005c-.835.125-1.586.5-2.253 1.126-.668.647-1.001 1.377-1.001 2.19 0 .355.187.991.563 1.91l.813 1.94c.5-.147 1.074-.418 1.721-.814.793-.48 1.19-.908 1.19-1.283 0-.146-.21-.47-.627-.97-.417-.5-.625-.907-.625-1.22 0-.105.01-.199.03-.282.189-.042.408-.063.658-.063.25 0 .636.021 1.158.063.521.042.917.063 1.189.063 1.585 0 2.346-.49 2.284-1.471v-.219c-.355-.25-1.054-.647-2.097-1.189-.897-.459-1.564-.887-2.002-1.283.542-.292 1.345-.553 2.41-.782a52.692 52.692 0 0 1 1.72-.157c.563-.104.99-.48 1.283-1.126zm-7.009-7.478v.063c-2.107-.584-3.63-1.398-4.568-2.441-.334-.375-.5-.688-.5-.939 0-.146.083-.25.25-.313a1.94 1.94 0 0 1 .469-.062c1.043 0 2.034.365 2.972 1.095.96.75 1.419 1.617 1.377 2.597zm.5-6.57c0 .291-.083.594-.25.907-.688-.751-1.251-1.325-1.69-1.721a.693.693 0 0 1 .22-.032c.396 0 .96.188 1.69.564.02.083.03.177.03.281z"
         aria-label="金"
         font-weight="400"
         font-size="32.04"
         font-family="HakusyuSousyo_kk"
         fill="red"
         id="path84" />
    </g>
  </g>
  <g
     stroke-width="1.774"
     id="g88">
    <g
       clip-path="url(#e)"
       transform="matrix(.19884 0 0 -.19884 -112.052 72.48)"
       id="g87">
      <path
         d="M824.265 249.16q.383 0 1.311-.356.928-.328 1.174-.573.027-.219.027-.41 0-.464-.19-.655l-.055-2.485q.792 0 3.222 1.038.273-.082 1.365-.082.41 0 .737-.273.328-.246.3-.628v-.055q-.436-.437-1.092-.519-.628-.082-1.228-.136-2.895-.355-3.25-.519-.273-.273-.273-1.474 0-.246-.355-1.284l.574-.027 5.515.874q.656.109 1.72-.328.929-.382 1.53-.928l.054-1.065q-.655-.437-1.147-.437-.355 0-1.638.355-1.256.355-1.939.355-3.959 0-5.843-.929.519-.109 1.038-.245.519-.11.628-.71-.3-1.147-.3-1.993l-.083-.983q.028.163.082-.492l.055-.983q.055-.573.328-.874l2.266 2.24-.382.545q.109.601 1.092.601.218-.191.819-.218l.874-.055-2.157 2.403q3.85-.628 5.488-2.321v-.11q.027-.354-.3-.682-.41-.382-.465-.546h-.136q-.246-.027-.737.219-.492.273-.683.273l-.273-.656q-.765-.19-1.638-1.01-.656-.683-1.338-1.365-.464-.3-1.365-1.038-.465-.519-1.393-1.447-.41-.382-1.529-1.174-.737-.628-2.239-1.72-.983-.601-1.666-.929-.546-.163-1.583-.6-.601-.328-1.174-.656-.792-.382-1.284-.382-.19 0-.6.11l-.765-.192-.519.137q4.232 1.966 9.53 6.58-.41.901-1.038 1.475l-1.201 1.201q.873.246 2.239.683.027.245.027.464 0 .218-.082.655-.055.464-.055.71 0 1.283-.19 1.693-.165.437-1.148 1.174-.163 0-2.512-.437-1.665-.328-2.43-.573-1.583-.464-2.184-1.147l-.792-.3q-.737.3-1.31 1.037-.547.737-.574 1.502l.847-.055q.655-.464.819-.464.054 0 5.324 1.365l.546.383q-.382.163-.382.6 0 .137.027.437.055.328.055.464 0 2.813-.874 3.25l.137.082.027.109-.11.19.765.083q.137-.164 1.147-.382.846-.164.983-.82-.11-1.146-.546-3.74 1.42 0 2.648.491l-.436 1.147.163 3.823q-.109.273-.136.983 0 .71-.11.9-.327.465-.9 1.311.054.52 1.146.52zm-5.98-12.807q.301 0 .41-.246.055-.109.273-1.037.219-.901.219-1.038 0-.9-.383-1.665-.436-.847-1.174-1.174-.846.491-.846 1.392 0 .655.764 1.83.765 1.174.738 1.938z"
         aria-label="歩"
         font-weight="400"
         font-size="27.96"
         font-family="HakusyuKaisyo"
         stroke-width="1.417"
         stroke-linejoin="round"
         stroke-miterlimit="10"
         id="path86" />
    </g>
  </g>
  <g
     id="g106">
    <path
       d="M47.025 49.748l1.535-10.53 3.27-.999 3.158.95 1.645 10.579z"
       fill="#fd5"
       stroke="#deaa87"
       stroke-width=".353"
       stroke-linejoin="round"
       stroke-miterlimit="10"
       id="path88" />
    <path
       d="M51.341 47.328l.15-.952.322-.09.308.085.162.957z"
       fill="red"
       fill-rule="evenodd"
       id="path89" />
    <path
       d="M51.341 47.328l.15-.952.322-.09.308.085.162.957z"
       fill="none"
       id="path90" />
    <path
       d="M53.33 46.807a.417.417 0 1 1 .834 0 .417.417 0 0 1-.834 0z"
       fill="red"
       fill-rule="evenodd"
       id="path91" />
    <path
       d="M53.33 46.807a.417.417 0 1 1 .834 0 .417.417 0 0 1-.834 0z"
       fill="none"
       id="path92" />
    <path
       d="M49.494 46.807a.417.417 0 1 1 .834 0 .417.417 0 0 1-.834 0z"
       fill="red"
       fill-rule="evenodd"
       id="path93" />
    <path
       d="M49.494 46.807a.417.417 0 1 1 .834 0 .417.417 0 0 1-.834 0z"
       fill="none"
       id="path94" />
    <path
       d="M53.33 44.91a.417.417 0 1 1 .834 0 .417.417 0 0 1-.834 0z"
       fill="red"
       fill-rule="evenodd"
       id="path95" />
    <path
       d="M53.33 44.91a.417.417 0 1 1 .834 0 .417.417 0 0 1-.834 0z"
       fill="none"
       id="path96" />
    <path
       d="M49.494 44.91a.417.417 0 1 1 .835 0 .417.417 0 0 1-.835 0z"
       fill="red"
       fill-rule="evenodd"
       id="path97" />
    <path
       d="M49.494 44.91a.417.417 0 1 1 .835 0 .417.417 0 0 1-.835 0z"
       fill="none"
       id="path98" />
    <path
       d="M51.401 44.91a.417.417 0 1 1 .835 0 .417.417 0 0 1-.835 0z"
       fill="red"
       fill-rule="evenodd"
       id="path99" />
    <path
       d="M51.401 44.91a.417.417 0 1 1 .835 0 .417.417 0 0 1-.835 0z"
       fill="none"
       id="path100" />
    <path
       d="M51.401 48.773a.417.417 0 1 1 .835 0 .417.417 0 0 1-.835 0z"
       fill="red"
       fill-rule="evenodd"
       id="path101" />
    <path
       d="M51.401 48.773a.417.417 0 1 1 .835 0 .417.417 0 0 1-.835 0z"
       fill="none"
       id="path102" />
    <path
       d="M51.147 47.618l.224-1.42.478-.134.462.128.24 1.426z"
       fill="red"
       fill-rule="evenodd"
       id="path103" />
    <path
       d="M51.147 47.618l.224-1.42.478-.134.462.128.24 1.426z"
       fill="none"
       id="path104" />
    <g
       clip-path="url(#f)"
       transform="matrix(.19884 0 0 -.19884 -112.053 65.024)"
       stroke-width="1.774"
       id="g105">
      <path
         d="M817.292 125.451q.6 0 1.638-.437 1.338-.6 2.075-1.91.383-.71.956-2.595.546-1.775 1.12-2.621.764 0 2.785 2.102 1.938 2.021 2.157 2.813l-.41.874q.11 0 .492.081.327.028.518.028.765 0 1.884-1.284 1.12-1.283 1.093-2.075v-.19q-.738-.383-2.076-1.257-1.365-1.229-4.123-3.44-.464-.273-1.31-.792-.328-.191-.82-.792-.436-.491-.928-.71-2.757-2.73-2.757-4.15 0-1.557 3.33-1.557 1.584 0 3.878.601 3.631 1.01 3.795 1.038.792-.3 1.557-.574.846-.355 1.146-1.065 0-.655-.546-1.01-.518-.355-2.239-.9-1.583-.574-2.32-.71-1.393-.274-3.496-.274-2.675 0-4.614.929-2.567 1.174-2.567 3.522 0 1.775 1.366 3.768l2.402 3.331q-.71 1.31-1.283 2.457-.764 1.857-1.556 3.687-1.092 2.348-2.403 2.812.082.3 1.256.3z"
         aria-label="と"
         font-weight="400"
         font-size="27.96"
         font-family="HakusyuKaisyo"
         fill="red"
         id="path105" />
    </g>
  </g>
</svg>
