<?xml version="1.0" encoding="UTF-8" standalone="no"?>
<svg
   xmlns:dc="http://purl.org/dc/elements/1.1/"
   xmlns:cc="http://creativecommons.org/ns#"
   xmlns:rdf="http://www.w3.org/1999/02/22-rdf-syntax-ns#"
   xmlns:svg="http://www.w3.org/2000/svg"
   xmlns="http://www.w3.org/2000/svg"
   xmlns:sodipodi="http://sodipodi.sourceforge.net/DTD/sodipodi-0.dtd"
   xmlns:inkscape="http://www.inkscape.org/namespaces/inkscape"
   width="52.174999"
   height="60"
   viewBox="0 0 13.804635 15.875"
   version="1.1"
   id="svg11805"
   inkscape:version="1.0.1 (3bc2e813f5, 2020-09-07)"
   sodipodi:docname="koma.svg">
  <defs
     id="defs11799">
    <clipPath
       clipPathUnits="userSpaceOnUse"
       id="clipPath2597">
      <path
         d="M -9.79e-7,612.12 H 936.12 V 0 H -2.948e-6"
         clip-rule="evenodd"
         id="path2595" />
    </clipPath>
    <clipPath
       clipPathUnits="userSpaceOnUse"
       id="clipPath2597-8">
      <path
         d="M -9.79e-7,612.12 H 936.12 V 0 H -2.948e-6"
         clip-rule="evenodd"
         id="path2595-4" />
    </clipPath>
    <clipPath
       clipPathUnits="userSpaceOnUse"
       id="clipPath2711">
      <path
         d="M 0,0 H 936.12 V 612.12 H 0 Z"
         clip-rule="evenodd"
         id="path2709" />
    </clipPath>
    <clipPath
       clipPathUnits="userSpaceOnUse"
       id="clipPath2691">
      <path
         d="M 0,0 H 936.12 V 612.12 H 0 Z"
         clip-rule="evenodd"
         id="path2689" />
    </clipPath>
    <clipPath
       clipPathUnits="userSpaceOnUse"
       id="clipPath2731">
      <path
         d="M 0,0 H 936.12 V 612.12 H 0 Z"
         clip-rule="evenodd"
         id="path2729" />
    </clipPath>
    <clipPath
       clipPathUnits="userSpaceOnUse"
       id="clipPath1869">
      <path
         d="M 0,0 H 936.12 V 612.12 H 0 Z"
         clip-rule="evenodd"
         id="path1867" />
    </clipPath>
    <clipPath
       clipPathUnits="userSpaceOnUse"
       id="clipPath1979">
      <path
         d="M 0,0 H 936.12 V 612.12 H 0 Z"
         clip-rule="evenodd"
         id="path1977" />
    </clipPath>
    <clipPath
       clipPathUnits="userSpaceOnUse"
       id="clipPath1891">
      <path
         d="M 0,0 H 936.12 V 612.12 H 0 Z"
         clip-rule="evenodd"
         id="path1889" />
    </clipPath>
    <clipPath
       clipPathUnits="userSpaceOnUse"
       id="clipPath1913">
      <path
         d="M 0,0 H 936.12 V 612.12 H 0 Z"
         clip-rule="evenodd"
         id="path1911" />
    </clipPath>
    <clipPath
       clipPathUnits="userSpaceOnUse"
       id="clipPath1935">
      <path
         d="M 0,0 H 936.12 V 612.12 H 0 Z"
         clip-rule="evenodd"
         id="path1933" />
    </clipPath>
    <clipPath
       clipPathUnits="userSpaceOnUse"
       id="clipPath2007">
      <path
         d="M 0,0 H 936.12 V 612.12 H 0 Z"
         clip-rule="evenodd"
         id="path2005" />
    </clipPath>
    <clipPath
       clipPathUnits="userSpaceOnUse"
       id="clipPath2029">
      <path
         d="M 0,0 H 936.12 V 612.12 H 0 Z"
         clip-rule="evenodd"
         id="path2027" />
    </clipPath>
    <clipPath
       clipPathUnits="userSpaceOnUse"
       id="clipPath1957">
      <path
         d="M 0,0 H 936.12 V 612.12 H 0 Z"
         clip-rule="evenodd"
         id="path1955" />
    </clipPath>
    <clipPath
       clipPathUnits="userSpaceOnUse"
       id="clipPath2051">
      <path
         d="M 0,0 H 936.12 V 612.12 H 0 Z"
         clip-rule="evenodd"
         id="path2049" />
    </clipPath>
    <clipPath
       clipPathUnits="userSpaceOnUse"
       id="clipPath2711-20">
      <path
         d="M 0,0 H 936.12 V 612.12 H 0 Z"
         clip-rule="evenodd"
         id="path2709-1" />
    </clipPath>
    <clipPath
       clipPathUnits="userSpaceOnUse"
       id="clipPath2691-2">
      <path
         d="M 0,0 H 936.12 V 612.12 H 0 Z"
         clip-rule="evenodd"
         id="path2689-4" />
    </clipPath>
    <clipPath
       clipPathUnits="userSpaceOnUse"
       id="clipPath2731-0">
      <path
         d="M 0,0 H 936.12 V 612.12 H 0 Z"
         clip-rule="evenodd"
         id="path2729-2" />
    </clipPath>
    <clipPath
       clipPathUnits="userSpaceOnUse"
       id="clipPath1869-0">
      <path
         d="M 0,0 H 936.12 V 612.12 H 0 Z"
         clip-rule="evenodd"
         id="path1867-1" />
    </clipPath>
    <clipPath
       clipPathUnits="userSpaceOnUse"
       id="clipPath1979-7">
      <path
         d="M 0,0 H 936.12 V 612.12 H 0 Z"
         clip-rule="evenodd"
         id="path1977-1" />
    </clipPath>
    <clipPath
       clipPathUnits="userSpaceOnUse"
       id="clipPath1891-5">
      <path
         d="M 0,0 H 936.12 V 612.12 H 0 Z"
         clip-rule="evenodd"
         id="path1889-9" />
    </clipPath>
    <clipPath
       clipPathUnits="userSpaceOnUse"
       id="clipPath1935-2">
      <path
         d="M 0,0 H 936.12 V 612.12 H 0 Z"
         clip-rule="evenodd"
         id="path1933-8" />
    </clipPath>
    <clipPath
       clipPathUnits="userSpaceOnUse"
       id="clipPath2007-9">
      <path
         d="M 0,0 H 936.12 V 612.12 H 0 Z"
         clip-rule="evenodd"
         id="path2005-5" />
    </clipPath>
    <clipPath
       clipPathUnits="userSpaceOnUse"
       id="clipPath2029-2">
      <path
         d="M 0,0 H 936.12 V 612.12 H 0 Z"
         clip-rule="evenodd"
         id="path2027-8" />
    </clipPath>
    <clipPath
       clipPathUnits="userSpaceOnUse"
       id="clipPath1957-0">
      <path
         d="M 0,0 H 936.12 V 612.12 H 0 Z"
         clip-rule="evenodd"
         id="path1955-0" />
    </clipPath>
    <clipPath
       clipPathUnits="userSpaceOnUse"
       id="clipPath2051-6">
      <path
         d="M 0,0 H 936.12 V 612.12 H 0 Z"
         clip-rule="evenodd"
         id="path2049-3" />
    </clipPath>
    <clipPath
       clipPathUnits="userSpaceOnUse"
       id="clipPath1913-7">
      <path
         d="M 0,0 H 936.12 V 612.12 H 0 Z"
         clip-rule="evenodd"
         id="path1911-7" />
    </clipPath>
  </defs>
  <sodipodi:namedview
     id="base"
     pagecolor="#ffffff"
     bordercolor="#666666"
     borderopacity="1.0"
     inkscape:pageopacity="0.0"
     inkscape:pageshadow="2"
     inkscape:zoom="1.0708333"
     inkscape:cx="157.67501"
     inkscape:cy="233.12067"
     inkscape:document-units="mm"
     inkscape:current-layer="layer1"
     inkscape:document-rotation="0"
     showgrid="false"
     units="px"
     inkscape:window-width="954"
     inkscape:window-height="730"
     inkscape:window-x="0"
     inkscape:window-y="0"
     inkscape:window-maximized="0" />
  <metadata
     id="metadata11802">
    <rdf:RDF>
      <cc:Work
         rdf:about="">
        <dc:format>image/svg+xml</dc:format>
        <dc:type
           rdf:resource="http://purl.org/dc/dcmitype/StillImage" />
        <dc:title></dc:title>
      </cc:Work>
    </rdf:RDF>
  </metadata>
  <g
     inkscape:label="Capa 1"
     inkscape:groupmode="layer"
     id="layer1">
    <g
       id="g14313"
       transform="rotate(180,21.757879,25.887105)">
      <path
         d="m 31.59575,49.814929 1.60428,-10.920063 3.41341,-1.036377 3.29893,0.986667 1.71876,10.969773 z"
         style="display:inline;fill:#ffdd55;stroke:#deaa87;stroke-width:0.352777;stroke-linecap:butt;stroke-linejoin:round;stroke-miterlimit:10;stroke-dasharray:none;stroke-opacity:1"
         id="path2021" />
      <path
         d="m 36.12538,47.394965 0.15064,-0.952169 0.32085,-0.09023 0.3088,0.08601 0.16119,0.956388 z"
         style="display:inline;fill:#ff0000;fill-opacity:1;fill-rule:evenodd;stroke:none;stroke-width:0.352777"
         id="path2423" />
      <path
         d="m 36.12538,47.394965 0.15064,-0.952169 0.32085,-0.09023 0.3088,0.08601 0.16119,0.956388 z"
         style="display:inline;fill:none;stroke:none;stroke-width:0.176388;stroke-linecap:butt;stroke-linejoin:round;stroke-miterlimit:10;stroke-dasharray:none;stroke-opacity:1"
         id="path2425" />
      <path
         d="m 38.11378,46.873764 c 0,-0.230323 0.18679,-0.416959 0.41726,-0.416959 0.23048,0 0.41726,0.186636 0.41726,0.416959 0,0.230324 -0.18678,0.41696 -0.41726,0.41696 -0.23047,0 -0.41726,-0.186636 -0.41726,-0.41696 z"
         style="display:inline;fill:#ff0000;fill-opacity:1;fill-rule:evenodd;stroke:none;stroke-width:0.352777"
         id="path2443" />
      <path
         d="m 38.11378,46.873764 c 0,-0.230323 0.18679,-0.416959 0.41726,-0.416959 0.23048,0 0.41726,0.186636 0.41726,0.416959 0,0.230324 -0.18678,0.41696 -0.41726,0.41696 -0.23047,0 -0.41726,-0.186636 -0.41726,-0.41696 z"
         style="display:inline;fill:none;stroke:none;stroke-width:0.176388;stroke-linecap:butt;stroke-linejoin:round;stroke-miterlimit:10;stroke-dasharray:none;stroke-opacity:1"
         id="path2445" />
      <path
         d="m 34.27858,46.873764 c 0,-0.230323 0.18679,-0.416959 0.41726,-0.416959 0.23047,0 0.41727,0.186636 0.41727,0.416959 0,0.230324 -0.1868,0.41696 -0.41727,0.41696 -0.23047,0 -0.41726,-0.186636 -0.41726,-0.41696 z"
         style="display:inline;fill:#ff0000;fill-opacity:1;fill-rule:evenodd;stroke:none;stroke-width:0.352777"
         id="path2447" />
      <path
         d="m 34.27858,46.873764 c 0,-0.230323 0.18679,-0.416959 0.41726,-0.416959 0.23047,0 0.41727,0.186636 0.41727,0.416959 0,0.230324 -0.1868,0.41696 -0.41727,0.41696 -0.23047,0 -0.41726,-0.186636 -0.41726,-0.41696 z"
         style="display:inline;fill:none;stroke:none;stroke-width:0.176388;stroke-linecap:butt;stroke-linejoin:round;stroke-miterlimit:10;stroke-dasharray:none;stroke-opacity:1"
         id="path2449" />
      <path
         d="m 38.11378,44.976806 c 0,-0.230024 0.18679,-0.416812 0.41726,-0.416812 0.23048,0 0.41726,0.186788 0.41726,0.416812 0,0.230321 -0.18678,0.417109 -0.41726,0.417109 -0.23047,0 -0.41726,-0.186788 -0.41726,-0.417109 z"
         style="display:inline;fill:#ff0000;fill-opacity:1;fill-rule:evenodd;stroke:none;stroke-width:0.352777"
         id="path2451" />
      <path
         d="m 38.11378,44.976806 c 0,-0.230024 0.18679,-0.416812 0.41726,-0.416812 0.23048,0 0.41726,0.186788 0.41726,0.416812 0,0.230321 -0.18678,0.417109 -0.41726,0.417109 -0.23047,0 -0.41726,-0.186788 -0.41726,-0.417109 z"
         style="display:inline;fill:none;stroke:none;stroke-width:0.176388;stroke-linecap:butt;stroke-linejoin:round;stroke-miterlimit:10;stroke-dasharray:none;stroke-opacity:1"
         id="path2453" />
      <path
         d="m 34.27858,44.976806 c 0,-0.230024 0.18679,-0.416812 0.41726,-0.416812 0.23047,0 0.41727,0.186788 0.41727,0.416812 0,0.230321 -0.1868,0.417109 -0.41727,0.417109 -0.23047,0 -0.41726,-0.186788 -0.41726,-0.417109 z"
         style="display:inline;fill:#ff0000;fill-opacity:1;fill-rule:evenodd;stroke:none;stroke-width:0.352777"
         id="path2455" />
      <path
         d="m 34.27858,44.976806 c 0,-0.230024 0.18679,-0.416812 0.41726,-0.416812 0.23047,0 0.41727,0.186788 0.41727,0.416812 0,0.230321 -0.1868,0.417109 -0.41727,0.417109 -0.23047,0 -0.41726,-0.186788 -0.41726,-0.417109 z"
         style="display:inline;fill:none;stroke:none;stroke-width:0.176388;stroke-linecap:butt;stroke-linejoin:round;stroke-miterlimit:10;stroke-dasharray:none;stroke-opacity:1"
         id="path2457" />
      <path
         d="m 36.18563,44.976806 c 0,-0.230024 0.18679,-0.416812 0.41727,-0.416812 0.23047,0 0.41726,0.186788 0.41726,0.416812 0,0.230321 -0.18679,0.417109 -0.41726,0.417109 -0.23048,0 -0.41727,-0.186788 -0.41727,-0.417109 z"
         style="display:inline;fill:#ff0000;fill-opacity:1;fill-rule:evenodd;stroke:none;stroke-width:0.352777"
         id="path2459" />
      <path
         d="m 36.18563,44.976806 c 0,-0.230024 0.18679,-0.416812 0.41727,-0.416812 0.23047,0 0.41726,0.186788 0.41726,0.416812 0,0.230321 -0.18679,0.417109 -0.41726,0.417109 -0.23048,0 -0.41727,-0.186788 -0.41727,-0.417109 z"
         style="display:inline;fill:none;stroke:none;stroke-width:0.176388;stroke-linecap:butt;stroke-linejoin:round;stroke-miterlimit:10;stroke-dasharray:none;stroke-opacity:1"
         id="path2461" />
      <path
         d="m 36.18563,48.839868 c 0,-0.230323 0.18679,-0.416961 0.41727,-0.416961 0.23047,0 0.41726,0.186638 0.41726,0.416961 0,0.230321 -0.18679,0.41696 -0.41726,0.41696 -0.23048,0 -0.41727,-0.186639 -0.41727,-0.41696 z"
         style="display:inline;fill:#ff0000;fill-opacity:1;fill-rule:evenodd;stroke:none;stroke-width:0.352777"
         id="path2463" />
      <path
         d="m 36.18563,48.839868 c 0,-0.230323 0.18679,-0.416961 0.41727,-0.416961 0.23047,0 0.41726,0.186638 0.41726,0.416961 0,0.230321 -0.18679,0.41696 -0.41726,0.41696 -0.23048,0 -0.41727,-0.186639 -0.41727,-0.41696 z"
         style="display:inline;fill:none;stroke:none;stroke-width:0.176388;stroke-linecap:butt;stroke-linejoin:round;stroke-miterlimit:10;stroke-dasharray:none;stroke-opacity:1"
         id="path2465" />
      <path
         d="m 35.93257,47.685544 0.22445,-1.419746 0.47751,-0.13467 0.46094,0.128191 0.23952,1.426225 z"
         style="display:inline;fill:#ff0000;fill-opacity:1;fill-rule:evenodd;stroke:none;stroke-width:0.352777"
         id="path3041" />
      <path
         d="m 35.93257,47.685544 0.22445,-1.419746 0.47751,-0.13467 0.46094,0.128191 0.23952,1.426225 z"
         style="display:inline;fill:none;stroke:none;stroke-width:0.176388;stroke-linecap:butt;stroke-linejoin:round;stroke-miterlimit:10;stroke-dasharray:none;stroke-opacity:1"
         id="path3043" />
      <g
         id="g2023"
         transform="matrix(0.19883967,0,0,-0.19883967,-107.11804,64.817953)"
         style="display:inline;stroke:none;stroke-width:1.77419">
        <g
           id="g2025"
           clip-path="url(#clipPath2029)"
           style="stroke:none;stroke-width:1.77419">
          <g
             aria-label="金"
             transform="matrix(1,0,0,-1,707.18,105.05)"
             id="text2033"
             style="font-variant:normal;font-weight:normal;font-size:32.04px;font-family:HakusyuSousyo_kk;-inkscape-font-specification:HakusyuSousyo_kk;writing-mode:lr-tb;fill:#ff0000;fill-opacity:1;fill-rule:nonzero;stroke:none;stroke-width:1.77419">
            <path
               d="m 22.496837,-15.488086 c -0.33375,0.438047 -1.084688,0.917812 -2.252813,1.439297 -1.147265,0.500625 -1.783476,0.834375 -1.908633,1.00125 0.166875,1.355859 0.208594,2.377969 0.125156,3.0663278 0.646641,0.5632031 1.032539,1.1472656 1.157696,1.7521875 -0.187735,0.6675001 -0.709219,1.5123048 -1.564453,2.5344142 -0.855235,1.00125 -1.387149,1.7939063 -1.595743,2.3779688 0.375469,0.3754687 1.335,0.7509375 2.878594,1.1264063 1.376719,0.33375 2.315391,0.9178125 2.816016,1.75218751 -0.02086,0.33375001 -0.333751,0.6049219 -0.938672,0.81351565 -0.604922,0.22945313 -2.190235,0.58406251 -4.755938,1.06382814 -2.565703,0.500625 -4.098867,0.7509375 -4.599492,0.7509375 -0.896953,0 -1.460156,-0.4484766 -1.689609,-1.34542969 0.104297,-0.50062501 0.438047,-1.07425784 1.00125,-1.72089849 0.646641,-0.70921872 1.042969,-1.26199222 1.188984,-1.65832032 -0.208594,-0.166875 -0.855235,-0.2711719 -1.939922,-0.3128907 -0.9803906,-0.020859 -1.4705859,-0.4797656 -1.4705859,-1.3767188 0,-0.5840625 0.3233203,-1.2411328 0.969961,-1.971211 0.6674999,-0.7509375 1.6374609,-1.4810156 2.9098829,-2.1902344 1.084687,-0.5840625 2.169375,-1.1576952 3.254063,-1.720898 0.125156,-0.604922 0.187734,-1.157696 0.187734,-1.658321 0,-0.208593 -0.01043,-0.385898 -0.03129,-0.531914 -0.563203,0.166875 -1.898203,0.782227 -4.005,1.846055 -1.606172,0.8135155 -2.9933206,1.2098436 -4.1614456,1.1889842 H 7.8535549 C 7.4780862,-9.4492971 7.2903518,-9.7204689 7.2903518,-10.075078 c 0,-0.6675 0.9282421,-1.741758 2.7847262,-3.222774 v 0.531914 l -0.219023,0.68836 c 0.813515,-0.208594 1.929492,-0.709219 3.34793,-1.501876 1.335,-0.750937 2.357109,-1.428867 3.066328,-2.033789 0.104297,-0.271171 0.156445,-0.531913 0.156445,-0.782226 0,-0.229453 -0.05215,-0.438047 -0.156445,-0.625781 -1.543594,1.00125 -2.962032,1.65832 -4.255313,1.971211 l 4.067579,-4.005001 c -0.834375,-0.125156 -1.585313,-0.500625 -2.252813,-1.126406 -0.6675,-0.646641 -1.00125,-1.376719 -1.00125,-2.190234 0,-0.354609 0.187734,-0.99082 0.563203,-1.908633 l 0.813516,-1.939922 c 0.500625,0.146015 1.074257,0.417187 1.720898,0.813516 0.792657,0.479765 1.188985,0.907382 1.188985,1.282851 0,0.146016 -0.208594,0.469336 -0.625782,0.969961 -0.417187,0.500625 -0.625781,0.907383 -0.625781,1.220274 0,0.104297 0.01043,0.198164 0.03129,0.281601 0.187735,0.04172 0.406758,0.06258 0.657071,0.06258 0.250312,0 0.63621,-0.02086 1.157695,-0.06258 0.521484,-0.04172 0.917812,-0.06258 1.188984,-0.06258 1.585313,0 2.34668,0.490195 2.284102,1.470586 v 0.219023 c -0.354609,0.250313 -1.053398,0.646641 -2.096367,1.188985 -0.896953,0.458906 -1.564453,0.886523 -2.0025,1.282851 0.542343,0.292031 1.345429,0.552774 2.409257,0.782227 0.584063,0.06258 1.157696,0.114728 1.720899,0.156445 0.563203,0.104297 0.990821,0.479766 1.282852,1.126407 z m -7.008751,7.4780858 v -0.062578 c -2.106797,0.5840625 -3.629531,1.3975782 -4.568203,2.440547 -0.33375,0.3754687 -0.500625,0.6883594 -0.500625,0.9386719 0,0.1460156 0.08344,0.2503125 0.250313,0.3128906 0.166875,0.041719 0.32332,0.062578 0.469336,0.062578 1.042969,0 2.033789,-0.3650391 2.972461,-1.0951173 0.959531,-0.7509375 1.418437,-1.6166015 1.376718,-2.5969922 z m 0.500625,6.5707033 c 0,-0.2920313 -0.08344,-0.5944922 -0.250312,-0.9073829 -0.688359,0.7509375 -1.251563,1.3245704 -1.68961,1.72089853 0.06258,0.0208594 0.135588,0.0312891 0.219024,0.0312891 0.396328,0 0.959531,-0.18773437 1.689609,-0.56320313 0.02086,-0.083437 0.03129,-0.1773047 0.03129,-0.2816016 z"
               style="stroke:none;stroke-width:1.77419"
               id="path5524"
               sodipodi:nodetypes="sccccccccccsccccscccsccccscccccsccccscccssscsssccccccsscccscsccsccscss" />
          </g>
        </g>
      </g>
    </g>
    <g
       id="g14191">
      <path
         d="m 47.02543,49.747761 1.53498,-10.529916 3.26881,-0.998717 3.15884,0.950513 1.64494,10.57812 z"
         style="display:inline;fill:#ffdd55;stroke:#deaa87;stroke-width:0.352777;stroke-linecap:butt;stroke-linejoin:round;stroke-miterlimit:10;stroke-dasharray:none;stroke-opacity:1"
         id="path2043" />
      <path
         d="m 51.34115,47.327798 0.15064,-0.952172 0.32085,-0.09023 0.30881,0.08601 0.16118,0.956391 z"
         style="display:inline;fill:#ff0000;fill-opacity:1;fill-rule:evenodd;stroke:none;stroke-width:0.352777"
         id="path2467" />
      <path
         d="m 51.34115,47.327798 0.15064,-0.952172 0.32085,-0.09023 0.30881,0.08601 0.16118,0.956391 z"
         style="display:inline;fill:none;stroke:none;stroke-width:0.176388;stroke-linecap:butt;stroke-linejoin:round;stroke-miterlimit:10;stroke-dasharray:none;stroke-opacity:1"
         id="path2469" />
      <path
         d="m 53.32955,46.806595 c 0,-0.230321 0.18679,-0.416959 0.41726,-0.416959 0.23048,0 0.41576,0.186638 0.41576,0.416959 0,0.230323 -0.18528,0.416962 -0.41576,0.416962 -0.23047,0 -0.41726,-0.186639 -0.41726,-0.416962 z"
         style="display:inline;fill:#ff0000;fill-opacity:1;fill-rule:evenodd;stroke:none;stroke-width:0.352777"
         id="path2487" />
      <path
         d="m 53.32955,46.806595 c 0,-0.230321 0.18679,-0.416959 0.41726,-0.416959 0.23048,0 0.41576,0.186638 0.41576,0.416959 0,0.230323 -0.18528,0.416962 -0.41576,0.416962 -0.23047,0 -0.41726,-0.186639 -0.41726,-0.416962 z"
         style="display:inline;fill:none;stroke:none;stroke-width:0.176388;stroke-linecap:butt;stroke-linejoin:round;stroke-miterlimit:10;stroke-dasharray:none;stroke-opacity:1"
         id="path2489" />
      <path
         d="m 49.49436,46.806595 c 0,-0.230321 0.18678,-0.416959 0.41726,-0.416959 0.23047,0 0.41726,0.186638 0.41726,0.416959 0,0.230323 -0.18679,0.416962 -0.41726,0.416962 -0.23048,0 -0.41726,-0.186639 -0.41726,-0.416962 z"
         style="display:inline;fill:#ff0000;fill-opacity:1;fill-rule:evenodd;stroke:none;stroke-width:0.352777"
         id="path2491" />
      <path
         d="m 49.49436,46.806595 c 0,-0.230321 0.18678,-0.416959 0.41726,-0.416959 0.23047,0 0.41726,0.186638 0.41726,0.416959 0,0.230323 -0.18679,0.416962 -0.41726,0.416962 -0.23048,0 -0.41726,-0.186639 -0.41726,-0.416962 z"
         style="display:inline;fill:none;stroke:none;stroke-width:0.176388;stroke-linecap:butt;stroke-linejoin:round;stroke-miterlimit:10;stroke-dasharray:none;stroke-opacity:1"
         id="path2493" />
      <path
         d="m 53.32955,44.909636 c 0,-0.230022 0.18679,-0.416812 0.41726,-0.416812 0.23048,0 0.41576,0.18679 0.41576,0.416812 0,0.230322 -0.18528,0.417112 -0.41576,0.417112 -0.23047,0 -0.41726,-0.18679 -0.41726,-0.417112 z"
         style="display:inline;fill:#ff0000;fill-opacity:1;fill-rule:evenodd;stroke:none;stroke-width:0.352777"
         id="path2495" />
      <path
         d="m 53.32955,44.909636 c 0,-0.230022 0.18679,-0.416812 0.41726,-0.416812 0.23048,0 0.41576,0.18679 0.41576,0.416812 0,0.230322 -0.18528,0.417112 -0.41576,0.417112 -0.23047,0 -0.41726,-0.18679 -0.41726,-0.417112 z"
         style="display:inline;fill:none;stroke:none;stroke-width:0.176388;stroke-linecap:butt;stroke-linejoin:round;stroke-miterlimit:10;stroke-dasharray:none;stroke-opacity:1"
         id="path2497" />
      <path
         d="m 49.49436,44.909636 c 0,-0.230022 0.18678,-0.416812 0.41726,-0.416812 0.23047,0 0.41726,0.18679 0.41726,0.416812 0,0.230322 -0.18679,0.417112 -0.41726,0.417112 -0.23048,0 -0.41726,-0.18679 -0.41726,-0.417112 z"
         style="display:inline;fill:#ff0000;fill-opacity:1;fill-rule:evenodd;stroke:none;stroke-width:0.352777"
         id="path2499" />
      <path
         d="m 49.49436,44.909636 c 0,-0.230022 0.18678,-0.416812 0.41726,-0.416812 0.23047,0 0.41726,0.18679 0.41726,0.416812 0,0.230322 -0.18679,0.417112 -0.41726,0.417112 -0.23048,0 -0.41726,-0.18679 -0.41726,-0.417112 z"
         style="display:inline;fill:none;stroke:none;stroke-width:0.176388;stroke-linecap:butt;stroke-linejoin:round;stroke-miterlimit:10;stroke-dasharray:none;stroke-opacity:1"
         id="path2501" />
      <path
         d="m 51.40141,44.909636 c 0,-0.230022 0.18679,-0.416812 0.41727,-0.416812 0.22895,0 0.41575,0.18679 0.41575,0.416812 0,0.230322 -0.1868,0.417112 -0.41575,0.417112 -0.23048,0 -0.41727,-0.18679 -0.41727,-0.417112 z"
         style="display:inline;fill:#ff0000;fill-opacity:1;fill-rule:evenodd;stroke:none;stroke-width:0.352777"
         id="path2503" />
      <path
         d="m 51.40141,44.909636 c 0,-0.230022 0.18679,-0.416812 0.41727,-0.416812 0.22895,0 0.41575,0.18679 0.41575,0.416812 0,0.230322 -0.1868,0.417112 -0.41575,0.417112 -0.23048,0 -0.41727,-0.18679 -0.41727,-0.417112 z"
         style="display:inline;fill:none;stroke:none;stroke-width:0.176388;stroke-linecap:butt;stroke-linejoin:round;stroke-miterlimit:10;stroke-dasharray:none;stroke-opacity:1"
         id="path2505" />
      <path
         d="m 51.40141,48.772699 c 0,-0.230324 0.18679,-0.416962 0.41727,-0.416962 0.22895,0 0.41575,0.186639 0.41575,0.416962 0,0.230321 -0.1868,0.416959 -0.41575,0.416959 -0.23048,0 -0.41727,-0.186638 -0.41727,-0.416959 z"
         style="display:inline;fill:#ff0000;fill-opacity:1;fill-rule:evenodd;stroke:none;stroke-width:0.352777"
         id="path2507" />
      <path
         d="m 51.40141,48.772699 c 0,-0.230324 0.18679,-0.416962 0.41727,-0.416962 0.22895,0 0.41575,0.186639 0.41575,0.416962 0,0.230321 -0.1868,0.416959 -0.41575,0.416959 -0.23048,0 -0.41727,-0.186638 -0.41727,-0.416959 z"
         style="display:inline;fill:none;stroke:none;stroke-width:0.176388;stroke-linecap:butt;stroke-linejoin:round;stroke-miterlimit:10;stroke-dasharray:none;stroke-opacity:1"
         id="path2509" />
      <path
         d="m 51.14684,47.618375 0.22445,-1.419746 0.4775,-0.134669 0.46247,0.128192 0.23951,1.426223 z"
         style="display:inline;fill:#ff0000;fill-opacity:1;fill-rule:evenodd;stroke:none;stroke-width:0.352777"
         id="path3081" />
      <path
         d="m 51.14684,47.618375 0.22445,-1.419746 0.4775,-0.134669 0.46247,0.128192 0.23951,1.426223 z"
         style="display:inline;fill:none;stroke:none;stroke-width:0.176388;stroke-linecap:butt;stroke-linejoin:round;stroke-miterlimit:10;stroke-dasharray:none;stroke-opacity:1"
         id="path3083" />
      <g
         id="g2045"
         transform="matrix(0.19883967,0,0,-0.19883967,-112.05271,65.023988)"
         style="display:inline;stroke:none;stroke-width:1.77419">
        <g
           id="g2047"
           clip-path="url(#clipPath2051)"
           style="stroke:none;stroke-width:1.77419">
          <g
             aria-label="と"
             transform="matrix(1,0,0,-1,810.22,106.42)"
             id="text2055"
             style="font-variant:normal;font-weight:normal;font-size:27.96px;font-family:HakusyuKaisyo;-inkscape-font-specification:HakusyuKaisyo;writing-mode:lr-tb;fill:#ff0000;fill-opacity:1;fill-rule:nonzero;stroke:none;stroke-width:1.77419">
            <path
               d="m 7.0719138,-19.031367 q 0.6007031,0 1.6382812,0.436875 1.33793,0.600704 2.075156,1.911328 0.382266,0.709922 0.955664,2.593946 0.546094,1.774804 1.119492,2.62125 0.764532,0 2.785078,-2.102461 1.938633,-2.020547 2.157071,-2.812383 l -0.409571,-0.87375 q 0.109219,0 0.491485,-0.08191 0.327656,-0.0273 0.518789,-0.0273 0.764531,0 1.884023,1.283321 1.119492,1.28332 1.092188,2.075156 v 0.191133 q -0.737227,0.382265 -2.075157,1.256015 -1.365234,1.228711 -4.123007,3.4403907 -0.46418,0.2730468 -1.310625,0.7918359 -0.327656,0.1911328 -0.819141,0.7918359 -0.436875,0.4914844 -0.928359,0.7099218 -2.7577735,2.7304687 -2.7577735,4.1503124 0,1.5563671 3.3311715,1.5563671 1.583672,0 3.877266,-0.6007031 3.631523,-1.0102734 3.795351,-1.037578 0.791836,0.3003515 1.556367,0.5733984 0.846446,0.3549609 1.146797,1.0648827 0,0.65531253 -0.546094,1.01027345 -0.518789,0.35496093 -2.238984,0.90105466 -1.583672,0.57339839 -2.320898,0.70992189 -1.392539,0.2730468 -3.495,0.2730468 -2.675859,0 -4.6144921,-0.92835932 -2.5666406,-1.17410152 -2.5666406,-3.52230458 0,-1.7748046 1.3652344,-3.7680467 1.2014062,-1.6655859 2.4028123,-3.3311718 -0.709922,-1.3106252 -1.2833202,-2.4574222 -0.7645312,-1.856718 -1.5563671,-3.686132 -1.0921875,-2.348203 -2.4028125,-2.812383 0.081914,-0.300352 1.2560156,-0.300352 z"
               style="stroke:none;stroke-width:1.77419"
               id="path5642" />
          </g>
        </g>
      </g>
    </g>
  </g>
</svg>
