<svg xmlns="http://www.w3.org/2000/svg" xmlns:xlink="http://www.w3.org/1999/xlink" width="52.175" height="60" viewBox="0 0 13.805 15.875"><defs><filter id="c" color-interpolation-filters="sRGB"><feFlood flood-opacity=".498" flood-color="#000" result="flood"/><feComposite in="flood" in2="SourceGraphic" operator="in" result="composite1"/><feGaussianBlur in="composite1" stdDeviation="1" result="blur"/><feOffset dx="5" dy="3" result="offset"/><feComposite in="SourceGraphic" in2="offset" result="composite2"/></filter><linearGradient xlink:href="#a" id="d" gradientUnits="userSpaceOnUse" x1="-29.351" y1="30.267" x2="-11.018" y2="30.267" spreadMethod="repeat"/><linearGradient id="a"><stop offset="0" stop-color="#dfb459"/><stop offset=".076" stop-color="#dead54"/><stop offset=".123" stop-color="#e1b85f"/><stop offset=".212" stop-color="#dba84d"/><stop offset=".305" stop-color="#dfb765"/><stop offset=".539" stop-color="#d8a94e"/><stop offset=".586" stop-color="#d5ab53"/><stop offset=".84" stop-color="#e0bf6e"/><stop offset=".924" stop-color="#daae52"/><stop offset=".962" stop-color="#d9af57"/><stop offset="1" stop-color="#e1b663"/></linearGradient><filter id="e" color-interpolation-filters="sRGB"><feFlood flood-opacity=".498" flood-color="#000" result="flood"/><feComposite in="flood" in2="SourceGraphic" operator="in" result="composite1"/><feGaussianBlur in="composite1" stdDeviation="1" result="blur"/><feOffset dx="5" dy="3" result="offset"/><feComposite in="SourceGraphic" in2="offset" result="composite2"/></filter><filter id="f" color-interpolation-filters="sRGB"><feFlood flood-opacity=".498" flood-color="#000" result="flood"/><feComposite in="flood" in2="SourceGraphic" operator="in" result="composite1"/><feGaussianBlur in="composite1" stdDeviation="1" result="blur"/><feOffset dx="5" dy="3" result="offset"/><feComposite in="SourceGraphic" in2="offset" result="composite2"/></filter><filter id="g" color-interpolation-filters="sRGB"><feFlood flood-opacity=".498" flood-color="#000" result="flood"/><feComposite in="flood" in2="SourceGraphic" operator="in" result="composite1"/><feGaussianBlur in="composite1" stdDeviation="1" result="blur"/><feOffset dx="5" dy="3" result="offset"/><feComposite in="SourceGraphic" in2="offset" result="composite2"/></filter><filter id="h" color-interpolation-filters="sRGB"><feFlood flood-opacity=".498" flood-color="#000" result="flood"/><feComposite in="flood" in2="SourceGraphic" operator="in" result="composite1"/><feGaussianBlur in="composite1" stdDeviation="1" result="blur"/><feOffset dx="5" dy="3" result="offset"/><feComposite in="SourceGraphic" in2="offset" result="composite2"/></filter><filter id="i" color-interpolation-filters="sRGB"><feFlood flood-opacity=".498" flood-color="#000" result="flood"/><feComposite in="flood" in2="SourceGraphic" operator="in" result="composite1"/><feGaussianBlur in="composite1" stdDeviation="1" result="blur"/><feOffset dx="5" dy="3" result="offset"/><feComposite in="SourceGraphic" in2="offset" result="composite2"/></filter><linearGradient xlink:href="#b" id="j" gradientUnits="userSpaceOnUse" x1="148.578" y1="49.826" x2="130.323" y2="49.826" spreadMethod="repeat"/><linearGradient id="b"><stop offset="0" stop-color="#e5c37b"/><stop offset=".042" stop-color="#e4bd76"/><stop offset=".093" stop-color="#e7c781"/><stop offset=".165" stop-color="#e2b86e"/><stop offset=".305" stop-color="#e6c686"/><stop offset=".539" stop-color="#dfb96f"/><stop offset=".586" stop-color="#ddbb73"/><stop offset=".84" stop-color="#e7ce8f"/><stop offset=".924" stop-color="#e1bd73"/><stop offset=".962" stop-color="#e0bf78"/><stop offset="1" stop-color="#e7c685"/></linearGradient><filter id="l" color-interpolation-filters="sRGB"><feFlood flood-opacity=".498" flood-color="#000" result="flood"/><feComposite in="flood" in2="SourceGraphic" operator="in" result="composite1"/><feGaussianBlur in="composite1" stdDeviation="1" result="blur"/><feOffset dx="5" dy="3" result="offset"/><feComposite in="SourceGraphic" in2="offset" result="composite2"/></filter><filter id="m" color-interpolation-filters="sRGB"><feFlood flood-opacity=".498" flood-color="#000" result="flood"/><feComposite in="flood" in2="SourceGraphic" operator="in" result="composite1"/><feGaussianBlur in="composite1" stdDeviation="1" result="blur"/><feOffset dx="5" dy="3" result="offset"/><feComposite in="SourceGraphic" in2="offset" result="composite2"/></filter><filter id="n" color-interpolation-filters="sRGB"><feFlood flood-opacity=".498" flood-color="#000" result="flood"/><feComposite in="flood" in2="SourceGraphic" operator="in" result="composite1"/><feGaussianBlur in="composite1" stdDeviation="1" result="blur"/><feOffset dx="5" dy="3" result="offset"/><feComposite in="SourceGraphic" in2="offset" result="composite2"/></filter><filter id="o" color-interpolation-filters="sRGB"><feFlood flood-opacity=".498" flood-color="#000" result="flood"/><feComposite in="flood" in2="SourceGraphic" operator="in" result="composite1"/><feGaussianBlur in="composite1" stdDeviation="1" result="blur"/><feOffset dx="5" dy="3" result="offset"/><feComposite in="SourceGraphic" in2="offset" result="composite2"/></filter><filter id="q" color-interpolation-filters="sRGB"><feFlood flood-opacity=".498" flood-color="#000" result="flood"/><feComposite in="flood" in2="SourceGraphic" operator="in" result="composite1"/><feGaussianBlur in="composite1" stdDeviation="1" result="blur"/><feOffset dx="5" dy="3" result="offset"/><feComposite in="SourceGraphic" in2="offset" result="composite2"/></filter><filter id="r" color-interpolation-filters="sRGB"><feFlood flood-opacity=".498" flood-color="#000" result="flood"/><feComposite in="flood" in2="SourceGraphic" operator="in" result="composite1"/><feGaussianBlur in="composite1" stdDeviation="1" result="blur"/><feOffset dx="5" dy="3" result="offset"/><feComposite in="SourceGraphic" in2="offset" result="composite2"/></filter><filter id="s" color-interpolation-filters="sRGB"><feFlood flood-opacity=".498" flood-color="#000" result="flood"/><feComposite in="flood" in2="SourceGraphic" operator="in" result="composite1"/><feGaussianBlur in="composite1" stdDeviation="1" result="blur"/><feOffset dx="5" dy="3" result="offset"/><feComposite in="SourceGraphic" in2="offset" result="composite2"/></filter><filter id="t" color-interpolation-filters="sRGB"><feFlood flood-opacity=".498" flood-color="#000" result="flood"/><feComposite in="flood" in2="SourceGraphic" operator="in" result="composite1"/><feGaussianBlur in="composite1" stdDeviation="1" result="blur"/><feOffset dx="5" dy="3" result="offset"/><feComposite in="SourceGraphic" in2="offset" result="composite2"/></filter><filter id="u" color-interpolation-filters="sRGB"><feFlood flood-opacity=".498" flood-color="#000" result="flood"/><feComposite in="flood" in2="SourceGraphic" operator="in" result="composite1"/><feGaussianBlur in="composite1" stdDeviation="1" result="blur"/><feOffset dx="5" dy="3" result="offset"/><feComposite in="SourceGraphic" in2="offset" result="composite2"/></filter><filter id="v" color-interpolation-filters="sRGB"><feFlood flood-opacity=".498" flood-color="#000" result="flood"/><feComposite in="flood" in2="SourceGraphic" operator="in" result="composite1"/><feGaussianBlur in="composite1" stdDeviation="1" result="blur"/><feOffset dx="5" dy="3" result="offset"/><feComposite in="SourceGraphic" in2="offset" result="composite2"/></filter><filter id="x" color-interpolation-filters="sRGB"><feFlood flood-opacity=".498" flood-color="#000" result="flood"/><feComposite in="flood" in2="SourceGraphic" operator="in" result="composite1"/><feGaussianBlur in="composite1" stdDeviation="1" result="blur"/><feOffset dx="5" dy="3" result="offset"/><feComposite in="SourceGraphic" in2="offset" result="composite2"/></filter><filter id="y" color-interpolation-filters="sRGB"><feFlood flood-opacity=".498" flood-color="#000" result="flood"/><feComposite in="flood" in2="SourceGraphic" operator="in" result="composite1"/><feGaussianBlur in="composite1" stdDeviation="1" result="blur"/><feOffset dx="5" dy="3" result="offset"/><feComposite in="SourceGraphic" in2="offset" result="composite2"/></filter><linearGradient xlink:href="#b" id="z" x1="104.094" y1="54.226" x2="152.758" y2="54.226" gradientUnits="userSpaceOnUse"/><filter id="A" color-interpolation-filters="sRGB"><feFlood flood-opacity=".498" flood-color="#000" result="flood"/><feComposite in="flood" in2="SourceGraphic" operator="in" result="composite1"/><feGaussianBlur in="composite1" stdDeviation="1" result="blur"/><feOffset dx="5" dy="3" result="offset"/><feComposite in="SourceGraphic" in2="offset" result="composite2"/></filter><filter id="C" color-interpolation-filters="sRGB"><feGaussianBlur stdDeviation="5" result="result8"/><feComposite result="result6" in="SourceGraphic" operator="in" in2="result8"/><feComposite operator="in" result="result11" in2="result6"/><feFlood result="result10" flood-opacity="1" flood-color="#FFF"/><feBlend mode="multiply" in="result10" in2="result11" result="result12"/><feComposite result="fbSourceGraphic" operator="in" in2="SourceGraphic" in="result12"/><feFlood result="result6" flood-color="#4B659A"/><feComposite k3=".3" k2=".3" k1=".5" operator="arithmetic" result="result2" in="fbSourceGraphic" in2="result6"/><feColorMatrix result="fbSourceGraphicAlpha" in="result2" values="1 0 0 -1 0 1 0 1 -1 0 1 0 0 -1 0 -0.8 -1 0 3.9 -2.7"/><feGaussianBlur result="result0" in="fbSourceGraphicAlpha" stdDeviation=".5"/><feDiffuseLighting lighting-color="#fff" diffuseConstant=".7" surfaceScale="50" result="result13" in="result0"><feDistantLight elevation="20" azimuth="225"/></feDiffuseLighting><feSpecularLighting specularExponent="20" specularConstant=".7" surfaceScale="10" lighting-color="#fff" result="result1" in="result0"><feDistantLight elevation="45" azimuth="225"/></feSpecularLighting><feBlend mode="screen" result="result5" in2="SourceGraphic" in="result13"/><feComposite in="result1" k3="1" k2="1" operator="arithmetic" in2="result5" result="result9"/><feComposite in2="SourceGraphic" operator="in" result="fbSourceGraphic"/><feColorMatrix result="fbSourceGraphicAlpha" in="fbSourceGraphic" values="0 0 0 -1 0 0 0 0 -1 0 0 0 0 -1 0 0 0 0 1 0"/><feComposite in2="fbSourceGraphic" operator="arithmetic" k2="1" result="composite1" in="fbSourceGraphic"/><feColorMatrix in="composite1" values="1" type="saturate" result="colormatrix1"/><feFlood flood-opacity=".627" flood-color="red" result="flood1"/><feBlend in2="colormatrix1" in="flood1" mode="multiply" result="blend1"/><feBlend in2="blend1" mode="screen" result="blend2"/><feColorMatrix in="blend2" values="1" type="saturate" result="colormatrix2"/><feComposite in2="fbSourceGraphic" in="colormatrix2" operator="in" result="composite2"/></filter><filter id="D" color-interpolation-filters="sRGB"><feFlood flood-opacity=".498" flood-color="#000" result="flood"/><feComposite in="flood" in2="SourceGraphic" operator="in" result="composite1"/><feGaussianBlur in="composite1" stdDeviation="1" result="blur"/><feOffset dx="5" dy="3" result="offset"/><feComposite in="SourceGraphic" in2="offset" result="composite2"/></filter><filter id="E" color-interpolation-filters="sRGB"><feGaussianBlur stdDeviation="5" result="result8"/><feComposite result="result6" in="SourceGraphic" operator="in" in2="result8"/><feComposite operator="in" result="result11" in2="result6"/><feFlood result="result10" flood-opacity="1" flood-color="#FFF"/><feBlend mode="multiply" in="result10" in2="result11" result="result12"/><feComposite result="fbSourceGraphic" operator="in" in2="SourceGraphic" in="result12"/><feFlood result="result6" flood-color="#4B659A"/><feComposite k3=".3" k2=".3" k1=".5" operator="arithmetic" result="result2" in="fbSourceGraphic" in2="result6"/><feColorMatrix result="fbSourceGraphicAlpha" in="result2" values="1 0 0 -1 0 1 0 1 -1 0 1 0 0 -1 0 -0.8 -1 0 3.9 -2.7"/><feGaussianBlur result="result0" in="fbSourceGraphicAlpha" stdDeviation=".5"/><feDiffuseLighting lighting-color="#fff" diffuseConstant=".7" surfaceScale="50" result="result13" in="result0"><feDistantLight elevation="20" azimuth="225"/></feDiffuseLighting><feSpecularLighting specularExponent="20" specularConstant=".7" surfaceScale="10" lighting-color="#fff" result="result1" in="result0"><feDistantLight elevation="45" azimuth="225"/></feSpecularLighting><feBlend mode="screen" result="result5" in2="SourceGraphic" in="result13"/><feComposite in="result1" k3="1" k2="1" operator="arithmetic" in2="result5" result="result9"/><feComposite in2="SourceGraphic" operator="in" result="fbSourceGraphic"/><feColorMatrix result="fbSourceGraphicAlpha" in="fbSourceGraphic" values="0 0 0 -1 0 0 0 0 -1 0 0 0 0 -1 0 0 0 0 1 0"/><feComposite in2="fbSourceGraphic" operator="arithmetic" k2="1" result="composite1" in="fbSourceGraphic"/><feColorMatrix in="composite1" values="1" type="saturate" result="colormatrix1"/><feFlood flood-opacity=".667" flood-color="#000" result="flood1"/><feBlend in2="colormatrix1" in="flood1" mode="multiply" result="blend1"/><feBlend in2="blend1" mode="screen" result="blend2"/><feColorMatrix in="blend2" values="1" type="saturate" result="colormatrix2"/><feComposite in2="fbSourceGraphic" in="colormatrix2" operator="in" result="composite2"/></filter><filter id="F" color-interpolation-filters="sRGB"><feFlood flood-opacity=".498" flood-color="#000" result="flood"/><feComposite in="flood" in2="SourceGraphic" operator="in" result="composite1"/><feGaussianBlur in="composite1" stdDeviation="1" result="blur"/><feOffset dx="5" dy="3" result="offset"/><feComposite in="SourceGraphic" in2="offset" result="composite2"/></filter><filter id="I" color-interpolation-filters="sRGB"><feFlood flood-opacity=".498" flood-color="#000" result="flood"/><feComposite in="flood" in2="SourceGraphic" operator="in" result="composite1"/><feGaussianBlur in="composite1" stdDeviation="1" result="blur"/><feOffset dx="5" dy="3" result="offset"/><feComposite in="SourceGraphic" in2="offset" result="composite2"/></filter><linearGradient xlink:href="#b" id="J" x1="148.368" y1="49.819" x2="129.504" y2="49.819" gradientUnits="userSpaceOnUse" spreadMethod="repeat"/><clipPath clipPathUnits="userSpaceOnUse" id="L"><path d="M0 612.12h936.12V0H0" clip-rule="evenodd"/></clipPath><clipPath clipPathUnits="userSpaceOnUse" id="M"><path d="M0 0h936.12v612.12H0z" clip-rule="evenodd"/></clipPath><clipPath clipPathUnits="userSpaceOnUse" id="N"><path d="M0 0h936.12v612.12H0z" clip-rule="evenodd"/></clipPath><clipPath clipPathUnits="userSpaceOnUse" id="O"><path d="M0 0h936.12v612.12H0z" clip-rule="evenodd"/></clipPath><clipPath clipPathUnits="userSpaceOnUse" id="P"><path d="M0 0h936.12v612.12H0z" clip-rule="evenodd"/></clipPath><clipPath clipPathUnits="userSpaceOnUse" id="Q"><path d="M0 0h936.12v612.12H0z" clip-rule="evenodd"/></clipPath><clipPath clipPathUnits="userSpaceOnUse" id="R"><path d="M0 0h936.12v612.12H0z" clip-rule="evenodd"/></clipPath><clipPath clipPathUnits="userSpaceOnUse" id="S"><path d="M0 0h936.12v612.12H0z" clip-rule="evenodd"/></clipPath><clipPath clipPathUnits="userSpaceOnUse" id="T"><path d="M0 0h936.12v612.12H0z" clip-rule="evenodd"/></clipPath><clipPath clipPathUnits="userSpaceOnUse" id="U"><path d="M0 0h936.12v612.12H0z" clip-rule="evenodd"/></clipPath><clipPath clipPathUnits="userSpaceOnUse" id="V"><path d="M0 0h936.12v612.12H0z" clip-rule="evenodd"/></clipPath><clipPath clipPathUnits="userSpaceOnUse" id="W"><path d="M0 0h936.12v612.12H0z" clip-rule="evenodd"/></clipPath><clipPath clipPathUnits="userSpaceOnUse" id="X"><path d="M0 0h936.12v612.12H0z" clip-rule="evenodd"/></clipPath><clipPath clipPathUnits="userSpaceOnUse" id="Y"><path d="M0 0h936.12v612.12H0z" clip-rule="evenodd"/></clipPath><clipPath clipPathUnits="userSpaceOnUse" id="Z"><path d="M0 0h936.12v612.12H0z" clip-rule="evenodd"/></clipPath><clipPath clipPathUnits="userSpaceOnUse" id="aa"><path d="M0 0h936.12v612.12H0z" clip-rule="evenodd"/></clipPath><clipPath clipPathUnits="userSpaceOnUse" id="ab"><path d="M0 0h936.12v612.12H0z" clip-rule="evenodd"/></clipPath><clipPath clipPathUnits="userSpaceOnUse" id="ac"><path d="M0 0h936.12v612.12H0z" clip-rule="evenodd"/></clipPath><clipPath clipPathUnits="userSpaceOnUse" id="ad"><path d="M0 0h936.12v612.12H0z" clip-rule="evenodd"/></clipPath><linearGradient xlink:href="#b" id="K" gradientUnits="userSpaceOnUse" x1="148.368" y1="49.819" x2="129.504" y2="49.819" spreadMethod="repeat"/><linearGradient xlink:href="#b" id="H" gradientUnits="userSpaceOnUse" x1="148.578" y1="49.826" x2="130.323" y2="49.826" spreadMethod="repeat"/><linearGradient xlink:href="#b" id="G" gradientUnits="userSpaceOnUse" x1="148.578" y1="49.826" x2="130.323" y2="49.826" spreadMethod="repeat"/><linearGradient xlink:href="#b" id="B" gradientUnits="userSpaceOnUse" x1="148.578" y1="49.826" x2="130.323" y2="49.826" spreadMethod="repeat"/><linearGradient xlink:href="#b" id="w" gradientUnits="userSpaceOnUse" x1="148.578" y1="49.826" x2="130.323" y2="49.826" spreadMethod="repeat"/><linearGradient xlink:href="#a" id="p" gradientUnits="userSpaceOnUse" x1="-29.351" y1="30.267" x2="-11.018" y2="30.267" spreadMethod="repeat"/><linearGradient xlink:href="#b" id="k" gradientUnits="userSpaceOnUse" x1="148.578" y1="49.826" x2="130.323" y2="49.826" spreadMethod="repeat"/></defs><g transform="matrix(.1852 0 0 .1852 18.73 -15.505)" opacity=".99" stroke-width=".621" filter="url(#c)"><path d="M607.424 100l-17.367 5.643-9.208 58.137 53.151-.001-9.208-58.136z" fill="#fee572"/><path d="M580.849 163.78v5.668H634v-5.67z" fill="#c3983c" fill-opacity=".992"/></g><g transform="matrix(.1852 0 0 .1852 18.545 1.316)" opacity=".99" stroke-width=".621" filter="url(#e)"><path d="M526.835 8l-17.83 5.92-9.336 60.222H554l-9.335-60.223z" fill="#fee572"/><path d="M499.67 74.142v5.668H554v-5.669z" fill="#c3983c" fill-opacity=".992"/></g><g transform="matrix(.1852 0 0 .1852 18.545 .91)" opacity=".99" stroke-width=".621" filter="url(#f)"><path d="M509.002 256.066v-3.78l17.834 5.934 17.826-5.904v3.78L526.836 262z" fill="#c3983c" fill-opacity=".992"/><path d="M526.836 260.22l17.826-5.904L554 194.079h-54.33l9.332 60.208z" fill="#feec99"/></g><g transform="matrix(.1852 0 0 .1852 18.73 1.062)" opacity=".99" stroke-width=".621" filter="url(#g)"><path d="M590.056 254.357v-3.78l17.368 5.643 17.344-5.635v3.78L607.424 260z" fill="#c3983c" fill-opacity=".992"/><path d="M624.768 252.585L634 194.441h-53.151l9.207 58.137 17.368 5.642z" fill="#feec99"/></g><g transform="matrix(.1852 0 0 .1852 -60.753 -17.191)" opacity=".99" stroke-width=".621" filter="url(#h)"><path d="M365.291 98l-20.033 6.137-10.675 63.55H396l-10.676-63.55z" fill="#fee572"/><path d="M334.583 167.687v5.668H396v-5.668z" fill="#c3983c" fill-opacity=".992"/></g><g transform="matrix(.1852 0 0 .1852 18.73 1.306)" opacity=".99" stroke-width=".621" filter="url(#i)"><path d="M16.264 256.374v-3.78l22.764 7.626 22.856-7.654v3.78L39.028 264z" fill="#c3983c" fill-opacity=".992"/><path d="M39.028 262.22l22.856-7.654 10.258-66.757H6l10.264 66.786z" fill="#feec99" stroke-width=".615"/></g><g transform="matrix(.1852 0 0 .1852 18.73 1.374)" opacity=".99" stroke-width=".621" filter="url(#l)"><path d="M345.268 255.189v-3.78l20.023 6.081 20.403-6.081v3.78l-20.403 6.08z" fill="#c3983c" fill-opacity=".992"/><path d="M365.291 259.49l20.403-6.081L396 189.803h-61.417l10.685 63.606z" fill="#feec99"/><path d="M363.944 259.87l1.242 1.66 18.681-5.935-.863-1.63z" fill="url(#linearGradient29775)" transform="matrix(1.10013 0 0 1.05073 -34.8 -13.593)"/></g><g transform="matrix(.1852 0 0 .1852 18.545 1.206)" opacity=".99" stroke-width=".621" filter="url(#m)"><path d="M446.474 8l-19.258 5.892-10.271 61.433H476l-10.259-61.359z" fill="#fee572"/><path d="M416.945 75.325v5.668H476v-5.669z" fill="#c3983c" fill-opacity=".992"/></g><g transform="matrix(.1852 0 0 .1852 18.545 1.02)" opacity=".99" stroke-width=".621" filter="url(#n)"><path d="M427.21 256.06v-3.78l19.26 5.94 19.26-5.911v3.78L446.47 262z" fill="#c3983c" fill-opacity=".992"/><path d="M446.47 260.22l19.26-5.911L476 192.896h-59.055l10.266 61.384z" fill="#feec99"/></g><g transform="matrix(.1852 0 0 .1852 18.73 1.164)" opacity=".99" stroke-width=".621" filter="url(#o)"><path d="M607.424 100l-17.367 5.643-9.208 58.137 53.151-.001-9.208-58.136z" fill="#fee572"/><path d="M580.849 163.78v5.668H634v-5.67z" fill="#c3983c" fill-opacity=".992"/></g><g transform="matrix(.1852 0 0 .1852 18.545 1.206)" opacity=".99" stroke-width=".621" filter="url(#q)"><path d="M446.472 98l-19.256 5.892-10.271 61.433H476l-10.259-61.359z" fill="#fee572"/><path d="M416.945 165.325v5.668H476v-5.669z" fill="#c3983c" fill-opacity=".992"/></g><g transform="matrix(.1852 0 0 .1852 18.73 .321)" opacity=".99" stroke-width=".621" filter="url(#r)"><path d="M589.491 348.833v-3.78l17.934 5.167 17.533-5.566v3.78L607.425 354z" fill="#c3983c" fill-opacity=".992"/><path d="M624.958 346.654L634 288.441h-53.151l8.642 58.613 17.934 5.166z" fill="#feec99"/></g><g transform="matrix(.1852 0 0 .1852 18.73 1.306)" opacity=".99" stroke-width=".621" filter="url(#s)"><path d="M16.264 346.374v-3.78l22.764 7.626 22.856-7.654v3.78L39.028 354z" fill="#c3983c" fill-opacity=".992"/><path d="M39.028 352.22l22.856-7.654 10.258-66.757H6l10.264 66.786z" fill="#feec99" stroke-width=".603"/></g><g transform="matrix(.1852 0 0 .1852 18.545 1.02)" opacity=".99" stroke-width=".621" filter="url(#t)"><path d="M427.21 346.06v-3.78l19.262 5.94 19.257-5.911v3.78L446.472 352z" fill="#c3983c" fill-opacity=".992"/><g stroke-width=".63"><path d="M446.472 350.22l19.257-5.911L476 282.896h-59.055l10.266 61.384z" fill="#feec99"/></g></g><g transform="matrix(.1852 0 0 .1852 18.73 1.238)" opacity=".99" stroke-width=".621" filter="url(#u)"><path d="M345.268 345.92v-3.78l20.025 6.08 20.4-6.08v3.779l-20.4 6.081z" fill="#c3983c" fill-opacity=".992"/><path d="M365.293 350.22l20.4-6.08L396 280.533h-61.417l10.685 63.606z" fill="#feec99"/></g><g transform="matrix(.1852 0 0 .1852 18.869 1.087)" opacity=".99" stroke-width=".621" filter="url(#v)"><path d="M178.822 347.44v-3.78l21.068 6.56 21.067-6.56v3.78L199.89 354z" fill="#c3983c" fill-opacity=".992"/><path d="M199.89 352.22l21.067-6.56 10.823-65.489H168l10.822 65.489z" fill="#feec99"/></g><g transform="matrix(.1852 0 0 .1852 18.545 1.316)" opacity=".99" stroke-width=".621" filter="url(#x)"><path d="M526.836 98l-17.831 5.92-9.336 60.222H554l-9.335-60.223z" fill="#fee572"/><path d="M499.67 164.142v5.668H554v-5.669z" fill="#c3983c" fill-opacity=".992"/></g><g transform="matrix(.1852 0 0 .1852 18.545 .959)" opacity=".99" stroke-width=".621" filter="url(#y)"><path d="M507.891 344.726v-3.78l18.944 7.012 18.943-7.01v3.779l-18.943 7.01z" fill="#c3983c" fill-opacity=".992"/><path d="M526.835 349.958l18.943-7.01L554 283.815h-54.33l8.221 59.13z" fill="#feec99"/></g><g opacity=".99" stroke-width=".621"><g filter="url(#A)" transform="matrix(.1852 0 0 .1852 18.73 1.087)"><path d="M98.188 346.882v-3.78l21.702 7.118 21.701-7.117v3.78L119.89 354z" fill="#c3983c" fill-opacity=".992"/><path d="M119.89 352.22l21.701-7.117 10.189-64.932H88l10.188 64.932z" fill="#feec99" stroke-width=".636"/></g></g><g opacity=".99" stroke-width=".621"><g filter="url(#D)" transform="matrix(.1852 0 0 .1852 18.73 1.087)"><path d="M98.176 256.766v-3.78l21.714 7.234 21.701-7.117v3.78L119.89 264z" fill="#c3983c" fill-opacity=".992"/><path d="M119.89 262.22l21.701-7.117 10.189-64.931H88l10.176 64.814z" fill="#feec99" stroke-width=".648"/></g></g><g transform="matrix(.1852 0 0 .1852 18.869 1.087)" opacity=".99" stroke-width=".621" filter="url(#F)"><path d="M178.81 257.202v-3.78l21.346 6.798 21.346-6.798v3.78L200.156 264z" fill="#c3983c" fill-opacity=".992"/><path d="M200.156 262.22l21.346-6.798 10.544-65.25h-63.78l10.544 65.25z" fill="#feec99"/></g><g transform="matrix(.1852 0 0 .1852 18.73 1.238)" opacity=".99" stroke-width=".621" filter="url(#I)"><path d="M262.623 255.819v-3.78l20.087 6.181 20.087-6.18v3.78L282.71 262z" fill="#c3983c" fill-opacity=".992"/><path d="M282.71 260.22l20.087-6.18 10.62-63.506H252l10.623 63.505z" fill="#feec99"/></g><g stroke-width="1.429"><path style="line-height:normal;font-variant-ligatures:normal;font-variant-position:normal;font-variant-caps:normal;font-variant-numeric:normal;font-variant-alternates:normal;font-variant-east-asian:normal;font-feature-settings:normal;font-variation-settings:normal;text-indent:0;text-align:start;text-decoration-line:none;text-decoration-style:solid;text-decoration-color:#000;text-transform:none;text-orientation:mixed;white-space:normal;shape-padding:0;shape-margin:0;inline-size:0;isolation:auto;mix-blend-mode:normal;solid-color:#000;solid-opacity:1" d="M101.361 11.238a.608.608 0 0 0-.605.605c0 .332.274.604.605.604a.607.607 0 0 0 .604-.604.608.608 0 0 0-.604-.605zm0 .37a.23.23 0 0 1 .234.235.23.23 0 0 1-.234.234.23.23 0 0 1-.235-.234c0-.132.104-.235.235-.235z" color="#000" font-weight="400" font-family="sans-serif" overflow="visible" enable-background="accumulate"/><path d="M102.881 9.935a.42.42 0 1 1 .839 0 .42.42 0 0 1-.839 0z" fill-rule="evenodd"/><path d="M102.881 9.935a.42.42 0 1 1 .839 0 .42.42 0 0 1-.839 0z" fill="none"/><path d="M99.024 9.935a.42.42 0 1 1 .838 0 .42.42 0 0 1-.838 0z" fill-rule="evenodd"/><path d="M99.024 9.935a.42.42 0 1 1 .838 0 .42.42 0 0 1-.838 0z" fill="none"/><path style="line-height:normal;font-variant-ligatures:normal;font-variant-position:normal;font-variant-caps:normal;font-variant-numeric:normal;font-variant-alternates:normal;font-variant-east-asian:normal;font-feature-settings:normal;font-variation-settings:normal;text-indent:0;text-align:start;text-decoration-line:none;text-decoration-style:solid;text-decoration-color:#000;text-transform:none;text-orientation:mixed;white-space:normal;shape-padding:0;shape-margin:0;inline-size:0;isolation:auto;mix-blend-mode:normal;solid-color:#000;solid-opacity:1" d="M101.361 9.33a.608.608 0 0 0-.605.605c0 .332.273.605.605.605a.608.608 0 0 0 .604-.605.607.607 0 0 0-.604-.604zm0 .371a.23.23 0 0 1 .234.234.23.23 0 0 1-.234.235.233.233 0 0 1-.235-.235.23.23 0 0 1 .235-.234z" color="#000" font-weight="400" font-family="sans-serif" overflow="visible" enable-background="accumulate"/><path d="M100.882 14.345l.151-.958.322-.09.312.086.161.962z" fill-rule="evenodd"/><path d="M100.882 14.345l.151-.958.322-.09.312.086.161.962z" fill="none"/><path d="M100.65 14.534l.225-1.421.477-.134.461.128.241 1.427z" fill-rule="evenodd"/><path d="M100.65 14.534l.225-1.421.477-.134.461.128.241 1.427z" fill="none"/></g><path d="M115.49 14.286l.192-1.212.407-.115.394.108.205 1.22z" fill-rule="evenodd"/><path d="M115.49 14.286l.192-1.212.407-.115.394.108.205 1.22z" fill="none"/><path style="line-height:normal;font-variant-ligatures:normal;font-variant-position:normal;font-variant-caps:normal;font-variant-numeric:normal;font-variant-alternates:normal;font-variant-east-asian:normal;font-feature-settings:normal;font-variation-settings:normal;text-indent:0;text-align:start;text-decoration-line:none;text-decoration-style:solid;text-decoration-color:#000;text-transform:none;text-orientation:mixed;white-space:normal;shape-padding:0;shape-margin:0;inline-size:0;isolation:auto;mix-blend-mode:normal;solid-color:#000;solid-opacity:1" d="M115.764 10.25v2.135h.649v-2.134z" color="#000" font-weight="400" font-family="sans-serif" overflow="visible" enable-background="accumulate"/><path d="M115.432 14.473l.224-1.42.478-.135.46.128.24 1.427z" fill-rule="evenodd"/><path d="M115.432 14.473l.224-1.42.478-.135.46.128.24 1.427z" fill="none"/><path d="M130.923 13.186l.136-.861.29-.082.28.079.145.864z" fill-rule="evenodd"/><path d="M130.923 13.186l.136-.861.29-.082.28.079.145.864z" fill="none"/><path d="M130.978 11a.377.377 0 1 1 .753 0 .377.377 0 0 1-.753 0z" fill-rule="evenodd"/><path d="M130.978 11a.377.377 0 1 1 .753 0 .377.377 0 0 1-.753 0z" fill="none"/><path d="M130.646 13.492l.225-1.42.477-.135.463.128.24 1.427z" fill-rule="evenodd"/><path d="M130.646 13.492l.225-1.42.477-.135.463.128.24 1.427z" fill="none"/><path d="M6.405 11.58l.151-.951.32-.09.31.085.16.957z" fill="red" fill-rule="evenodd"/><path d="M6.405 11.58l.151-.951.32-.09.31.085.16.957z" fill="none"/><path d="M8.394 11.06a.417.417 0 1 1 .834 0 .417.417 0 0 1-.834 0z" fill="red" fill-rule="evenodd"/><path d="M8.394 11.06a.417.417 0 1 1 .834 0 .417.417 0 0 1-.834 0z" fill="none"/><path d="M4.56 11.06a.416.416 0 1 1 .833 0 .417.417 0 0 1-.833 0z" fill="red" fill-rule="evenodd"/><path d="M4.56 11.06a.416.416 0 1 1 .833 0 .417.417 0 0 1-.833 0z" fill="none"/><path d="M8.394 9.163a.417.417 0 1 1 .834 0 .417.417 0 0 1-.834 0z" fill="red" fill-rule="evenodd"/><path d="M8.394 9.163a.417.417 0 1 1 .834 0 .417.417 0 0 1-.834 0z" fill="none"/><path d="M4.56 9.163a.416.416 0 1 1 .833 0 .417.417 0 0 1-.833 0z" fill="red" fill-rule="evenodd"/><path d="M4.56 9.163a.416.416 0 1 1 .833 0 .417.417 0 0 1-.833 0z" fill="none"/><path d="M6.466 9.163a.417.417 0 1 1 .834 0 .417.417 0 0 1-.834 0z" fill="red" fill-rule="evenodd"/><path d="M6.466 9.163a.417.417 0 1 1 .834 0 .417.417 0 0 1-.834 0z" fill="none"/><path d="M6.466 13.026a.417.417 0 1 1 .834 0 .417.417 0 0 1-.834 0z" fill="red" fill-rule="evenodd"/><path d="M6.466 13.026a.417.417 0 1 1 .834 0 .417.417 0 0 1-.834 0z" fill="none"/><path d="M6.184 11.857l.223-1.42.479-.134.46.128.24 1.426z" fill="red" fill-rule="evenodd"/><path d="M6.184 11.857l.223-1.42.479-.134.46.128.24 1.426z" fill="none"/><path d="M100.737 29.336l.15-.952.321-.09.309.086.161.956z" fill="red" fill-rule="evenodd"/><path d="M100.737 29.336l.15-.952.321-.09.309.086.161.956z" fill="none"/><path d="M102.725 28.815a.417.417 0 1 1 .834 0 .417.417 0 0 1-.834 0z" fill="red" fill-rule="evenodd"/><path d="M102.725 28.815a.417.417 0 1 1 .834 0 .417.417 0 0 1-.834 0z" fill="none"/><path d="M98.89 28.815a.417.417 0 1 1 .834 0 .417.417 0 0 1-.834 0z" fill="red" fill-rule="evenodd"/><path d="M98.89 28.815a.417.417 0 1 1 .834 0 .417.417 0 0 1-.834 0z" fill="none"/><path d="M102.725 26.918a.417.417 0 1 1 .834 0 .417.417 0 0 1-.834 0z" fill="red" fill-rule="evenodd"/><path d="M102.725 26.918a.417.417 0 1 1 .834 0 .417.417 0 0 1-.834 0z" fill="none"/><path d="M98.89 26.918a.417.417 0 1 1 .834 0 .417.417 0 0 1-.834 0z" fill="red" fill-rule="evenodd"/><path d="M98.89 26.918a.417.417 0 1 1 .834 0 .417.417 0 0 1-.834 0z" fill="none"/><path d="M100.797 26.918a.417.417 0 1 1 .834 0 .417.417 0 0 1-.834 0z" fill="red" fill-rule="evenodd"/><path d="M100.797 26.918a.417.417 0 1 1 .834 0 .417.417 0 0 1-.834 0z" fill="none"/><path d="M100.797 30.78a.417.417 0 1 1 .834.001.417.417 0 0 1-.834 0z" fill="red" fill-rule="evenodd"/><path d="M100.797 30.78a.417.417 0 1 1 .834.001.417.417 0 0 1-.834 0z" fill="none"/><path d="M100.523 29.627l.224-1.42.478-.135.46.128.242 1.427z" fill="red" fill-rule="evenodd"/><path d="M100.523 29.627l.224-1.42.478-.135.46.128.242 1.427z" fill="none"/><path d="M115.644 29.12l.15-.953.322-.09.309.086.16.957z" fill="red" fill-rule="evenodd"/><path d="M115.644 29.12l.15-.953.322-.09.309.086.16.957z" fill="none"/><path d="M117.633 28.598a.417.417 0 1 1 .834 0 .417.417 0 0 1-.834 0z" fill="red" fill-rule="evenodd"/><path d="M117.633 28.598a.417.417 0 1 1 .834 0 .417.417 0 0 1-.834 0z" fill="none"/><path d="M113.797 28.598a.417.417 0 1 1 .835 0 .417.417 0 0 1-.835 0z" fill="red" fill-rule="evenodd"/><path d="M113.797 28.598a.417.417 0 1 1 .835 0 .417.417 0 0 1-.835 0z" fill="none"/><path d="M117.633 26.701a.417.417 0 1 1 .834.001.417.417 0 0 1-.834 0z" fill="red" fill-rule="evenodd"/><path d="M117.633 26.701a.417.417 0 1 1 .834.001.417.417 0 0 1-.834 0z" fill="none"/><path d="M113.797 26.701a.417.417 0 1 1 .835.001.417.417 0 0 1-.835 0z" fill="red" fill-rule="evenodd"/><path d="M113.797 26.701a.417.417 0 1 1 .835.001.417.417 0 0 1-.835 0z" fill="none"/><path d="M115.705 26.701a.417.417 0 1 1 .834.001.417.417 0 0 1-.834 0z" fill="red" fill-rule="evenodd"/><path d="M115.705 26.701a.417.417 0 1 1 .834.001.417.417 0 0 1-.834 0z" fill="none"/><path d="M115.705 30.564a.417.417 0 1 1 .834 0 .417.417 0 0 1-.834 0z" fill="red" fill-rule="evenodd"/><path d="M115.705 30.564a.417.417 0 1 1 .834 0 .417.417 0 0 1-.834 0z" fill="none"/><path d="M115.451 29.41l.225-1.42.477-.134.461.128.24 1.426z" fill="red" fill-rule="evenodd"/><path d="M115.451 29.41l.225-1.42.477-.134.461.128.24 1.426z" fill="none"/><path d="M130.86 29.052l.15-.952.322-.09.308.086.162.956z" fill="red" fill-rule="evenodd"/><path d="M130.86 29.052l.15-.952.322-.09.308.086.162.956z" fill="none"/><path d="M132.848 28.531a.417.417 0 1 1 .835 0 .417.417 0 0 1-.835 0z" fill="red" fill-rule="evenodd"/><path d="M132.848 28.531a.417.417 0 1 1 .835 0 .417.417 0 0 1-.835 0z" fill="none"/><path d="M129.013 28.531a.417.417 0 1 1 .834 0 .417.417 0 0 1-.834 0z" fill="red" fill-rule="evenodd"/><path d="M129.013 28.531a.417.417 0 1 1 .834 0 .417.417 0 0 1-.834 0z" fill="none"/><path d="M132.848 26.634a.417.417 0 1 1 .835 0 .417.417 0 0 1-.835 0z" fill="red" fill-rule="evenodd"/><path d="M132.848 26.634a.417.417 0 1 1 .835 0 .417.417 0 0 1-.835 0z" fill="none"/><path d="M129.013 26.634a.417.417 0 1 1 .835 0 .417.417 0 0 1-.835 0z" fill="red" fill-rule="evenodd"/><path d="M129.013 26.634a.417.417 0 1 1 .835 0 .417.417 0 0 1-.835 0z" fill="none"/><path d="M130.92 26.634a.417.417 0 1 1 .835 0 .417.417 0 0 1-.835 0z" fill="red" fill-rule="evenodd"/><path d="M130.92 26.634a.417.417 0 1 1 .835 0 .417.417 0 0 1-.835 0z" fill="none"/><path d="M130.92 30.497a.417.417 0 1 1 .834 0 .417.417 0 0 1-.834 0z" fill="red" fill-rule="evenodd"/><path d="M130.92 30.497a.417.417 0 1 1 .834 0 .417.417 0 0 1-.834 0z" fill="none"/><path d="M130.666 29.343l.224-1.42.478-.134.462.128.24 1.426z" fill="red" fill-rule="evenodd"/><path d="M130.666 29.343l.224-1.42.478-.134.462.128.24 1.426z" fill="none"/><path d="M26.45 38.88l-.15.952-.319.09-.31-.086-.162-.956z" fill-rule="evenodd"/><path d="M26.45 38.88l-.15.952-.319.09-.31-.086-.162-.956z" fill="none"/><path d="M24.463 39.401a.416.416 0 1 1-.833 0 .417.417 0 0 1 .833 0z" fill-rule="evenodd"/><path d="M24.463 39.401a.416.416 0 1 1-.833 0 .417.417 0 0 1 .833 0z" fill="none"/><path d="M28.298 39.401a.417.417 0 1 1-.834 0 .417.417 0 0 1 .834 0z" fill-rule="evenodd"/><path d="M28.298 39.401a.417.417 0 1 1-.834 0 .417.417 0 0 1 .834 0z" fill="none"/><path d="M24.463 41.298a.416.416 0 1 1-.833 0 .417.417 0 0 1 .833 0z" fill-rule="evenodd"/><path d="M24.463 41.298a.416.416 0 1 1-.833 0 .417.417 0 0 1 .833 0z" fill="none"/><path d="M28.298 41.298a.417.417 0 1 1-.834 0 .417.417 0 0 1 .834 0z" fill-rule="evenodd"/><path d="M28.298 41.298a.417.417 0 1 1-.834 0 .417.417 0 0 1 .834 0z" fill="none"/><path d="M26.392 41.298a.417.417 0 1 1-.834 0 .417.417 0 0 1 .834 0z" fill-rule="evenodd"/><path d="M26.392 41.298a.417.417 0 1 1-.834 0 .417.417 0 0 1 .834 0z" fill="none"/><path d="M24.463 37.435a.416.416 0 1 1-.833 0 .417.417 0 0 1 .833 0z" fill-rule="evenodd"/><path d="M24.463 37.435a.416.416 0 1 1-.833 0 .417.417 0 0 1 .833 0z" fill="none"/><path d="M28.298 37.435a.417.417 0 1 1-.834 0 .417.417 0 0 1 .834 0z" fill-rule="evenodd"/><path d="M28.298 37.435a.417.417 0 1 1-.834 0 .417.417 0 0 1 .834 0z" fill="none"/><path d="M26.392 37.435a.417.417 0 1 1-.834 0 .417.417 0 0 1 .834 0z" fill-rule="evenodd"/><path d="M26.392 37.435a.417.417 0 1 1-.834 0 .417.417 0 0 1 .834 0z" fill="none"/><path d="M26.683 38.59l-.225 1.419-.477.135-.462-.129-.24-1.426z" fill-rule="evenodd"/><path d="M26.683 38.59l-.225 1.419-.477.135-.462-.129-.24-1.426z" fill="none"/><path d="M41.465 39.667l-.155.986-.332.093-.32-.089-.166-.99z" fill-rule="evenodd"/><path style="line-height:normal;font-variant-ligatures:normal;font-variant-position:normal;font-variant-caps:normal;font-variant-numeric:normal;font-variant-alternates:normal;font-variant-east-asian:normal;font-feature-settings:normal;font-variation-settings:normal;text-indent:0;text-align:start;text-decoration-line:none;text-decoration-style:solid;text-decoration-color:#000;text-transform:none;text-orientation:mixed;white-space:normal;shape-padding:0;shape-margin:0;inline-size:0;isolation:auto;mix-blend-mode:normal;solid-color:#000;solid-opacity:1" d="M40.98 40.808a.062.062 0 0 0 .015-.002l.331-.094a.062.062 0 0 0 .045-.05l.155-.985a.062.062 0 0 0-.061-.071h-.973a.062.062 0 0 0-.061.072l.166.99a.062.062 0 0 0 .044.049l.32.089a.062.062 0 0 0 .018.002zm-.002-.126l-.266-.074-.147-.879h.828l-.138.875zM41.302 42.947V41.21h-.648v1.736zM41.281 39.133l.015-1.734-.648-.006-.015 1.734zM39.934 40.522v-.648H38.2v.648zM43.683 40.53l.004-.647-1.736-.01-.003.649z" color="#000" font-weight="400" font-family="sans-serif" overflow="visible" enable-background="accumulate"/><path d="M41.644 39.393l-.224 1.42-.478.135-.46-.128-.242-1.427zM56.46 39.262l-.153.976-.328.092-.317-.087-.165-.98z" fill-rule="evenodd"/><path style="line-height:normal;font-variant-ligatures:normal;font-variant-position:normal;font-variant-caps:normal;font-variant-numeric:normal;font-variant-alternates:normal;font-variant-east-asian:normal;font-feature-settings:normal;font-variation-settings:normal;text-indent:0;text-align:start;text-decoration-line:none;text-decoration-style:solid;text-decoration-color:#000;text-transform:none;text-orientation:mixed;white-space:normal;shape-padding:0;shape-margin:0;inline-size:0;isolation:auto;mix-blend-mode:normal;solid-color:#000;solid-opacity:1" d="M55.98 40.392a.062.062 0 0 0 .015-.002l.329-.092a.062.062 0 0 0 .044-.05l.154-.976a.062.062 0 0 0-.061-.072h-.964a.062.062 0 0 0-.061.073l.165.98a.062.062 0 0 0 .045.05l.316.087a.062.062 0 0 0 .018.002zm-.001-.126l-.262-.072-.147-.87h.819l-.137.866zM53.843 42.322l1.286-1.287-.458-.458-1.287 1.287zM57.254 38.909l1.258-1.287-.463-.453-1.258 1.287zM58.05 42.32l.462-.454-1.264-1.287-.463.454zM54.671 38.911l.458-.458-1.286-1.286-.459.458z" color="#000" font-weight="400" font-family="sans-serif" overflow="visible" enable-background="accumulate"/><path d="M56.67 39.056l-.224 1.42-.478.134-.462-.128-.24-1.426zM86.773 39.268l-.151.952-.32.09-.31-.085-.16-.957z" fill-rule="evenodd"/><path d="M86.773 39.268l-.151.952-.32.09-.31-.085-.16-.957z" fill="none"/><path d="M84.786 41.686a.417.417 0 1 1-.835 0 .417.417 0 0 1 .835 0z" fill-rule="evenodd"/><path d="M84.786 41.686a.417.417 0 1 1-.835 0 .417.417 0 0 1 .835 0z" fill="none"/><path d="M88.62 41.686a.417.417 0 1 1-.835 0 .417.417 0 0 1 .834 0z" fill-rule="evenodd"/><path d="M88.62 41.686a.417.417 0 1 1-.835 0 .417.417 0 0 1 .834 0z" fill="none"/><path d="M86.714 41.686a.417.417 0 1 1-.835 0 .417.417 0 0 1 .835 0z" fill-rule="evenodd"/><path d="M86.714 41.686a.417.417 0 1 1-.835 0 .417.417 0 0 1 .835 0z" fill="none"/><path d="M84.786 37.824c0 .23-.187.416-.417.416a.416.416 0 1 1 0-.833c.23 0 .417.186.417.417z" fill-rule="evenodd"/><path d="M84.786 37.824c0 .23-.187.416-.417.416a.416.416 0 1 1 0-.833c.23 0 .417.186.417.417z" fill="none"/><path d="M88.62 37.824c0 .23-.187.416-.418.416a.416.416 0 1 1 0-.833c.23 0 .417.186.417.417z" fill-rule="evenodd"/><path d="M88.62 37.824c0 .23-.187.416-.418.416a.416.416 0 1 1 0-.833c.23 0 .417.186.417.417z" fill="none"/><path d="M86.987 39.067l-.223 1.42-.48.134-.46-.128-.24-1.426z" fill-rule="evenodd"/><path d="M86.987 39.067l-.223 1.42-.48.134-.46-.128-.24-1.426z" fill="none"/><path d="M71.606 39.332l-.151.952-.32.09-.31-.085-.16-.957z" fill-rule="evenodd"/><path d="M71.606 39.332l-.151.952-.32.09-.31-.085-.16-.957z" fill="none"/><path d="M69.617 39.854a.417.417 0 1 1-.834 0 .417.417 0 0 1 .834 0z" fill-rule="evenodd"/><path d="M69.617 39.854a.417.417 0 1 1-.834 0 .417.417 0 0 1 .834 0z" fill="none"/><path d="M73.452 39.854a.417.417 0 1 1-.834 0 .417.417 0 0 1 .834 0z" fill-rule="evenodd"/><path d="M73.452 39.854a.417.417 0 1 1-.834 0 .417.417 0 0 1 .834 0z" fill="none"/><path d="M69.617 41.75a.417.417 0 1 1-.834 0 .417.417 0 0 1 .834 0z" fill-rule="evenodd"/><path d="M69.617 41.75a.417.417 0 1 1-.834 0 .417.417 0 0 1 .834 0z" fill="none"/><path d="M73.452 41.75a.417.417 0 1 1-.834 0 .417.417 0 0 1 .834 0z" fill-rule="evenodd"/><path d="M73.452 41.75a.417.417 0 1 1-.834 0 .417.417 0 0 1 .834 0z" fill="none"/><path d="M71.547 41.75a.417.417 0 1 1-.835 0 .417.417 0 0 1 .835 0z" fill-rule="evenodd"/><path d="M71.547 41.75a.417.417 0 1 1-.835 0 .417.417 0 0 1 .835 0z" fill="none"/><path d="M71.547 37.888c0 .23-.187.416-.417.416a.416.416 0 1 1 0-.833c.23 0 .417.186.417.417z" fill-rule="evenodd"/><path d="M71.547 37.888c0 .23-.187.416-.417.416a.416.416 0 1 1 0-.833c.23 0 .417.186.417.417z" fill="none"/><path d="M71.82 39.13l-.225 1.421-.477.134-.461-.128-.241-1.426z" fill-rule="evenodd"/><path d="M71.82 39.13l-.225 1.421-.477.134-.461-.128-.241-1.426z" fill="none"/><path d="M116.776 37.987l-.192 1.212-.406.115-.395-.108-.205-1.22z" fill-rule="evenodd"/><path d="M116.776 37.987l-.192 1.212-.406.115-.395-.108-.205-1.22z" fill="none"/><path style="line-height:normal;font-variant-ligatures:normal;font-variant-position:normal;font-variant-caps:normal;font-variant-numeric:normal;font-variant-alternates:normal;font-variant-east-asian:normal;font-feature-settings:normal;font-variation-settings:normal;text-indent:0;text-align:start;text-decoration-line:none;text-decoration-style:solid;text-decoration-color:#000;text-transform:none;text-orientation:mixed;white-space:normal;shape-padding:0;shape-margin:0;inline-size:0;isolation:auto;mix-blend-mode:normal;solid-color:#000;solid-opacity:1" d="M116.502 42.022v-2.134h-.649v2.134z" color="#000" font-weight="400" font-family="sans-serif" overflow="visible" enable-background="accumulate"/><path d="M116.834 37.8l-.224 1.42-.478.135-.46-.128-.24-1.427z" fill-rule="evenodd"/><path d="M116.834 37.8l-.224 1.42-.478.135-.46-.128-.24-1.427z" fill="none"/><path d="M131.6 39.491l-.136.862-.29.081-.28-.078-.145-.865z" fill-rule="evenodd"/><path d="M131.6 39.491l-.136.862-.29.081-.28-.078-.145-.865z" fill="none"/><path d="M131.545 41.677a.377.377 0 1 1-.753 0 .377.377 0 0 1 .753 0z" fill-rule="evenodd"/><path d="M131.545 41.677a.377.377 0 1 1-.753 0 .377.377 0 0 1 .753 0z" fill="none"/><path d="M131.877 39.185l-.225 1.42-.477.135-.463-.128-.24-1.427z" fill-rule="evenodd"/><path d="M131.877 39.185l-.225 1.42-.477.135-.463-.128-.24-1.427z" fill="none"/><g stroke-width="1.429"><path style="line-height:normal;font-variant-ligatures:normal;font-variant-position:normal;font-variant-caps:normal;font-variant-numeric:normal;font-variant-alternates:normal;font-variant-east-asian:normal;font-feature-settings:normal;font-variation-settings:normal;text-indent:0;text-align:start;text-decoration-line:none;text-decoration-style:solid;text-decoration-color:#000;text-transform:none;text-orientation:mixed;white-space:normal;shape-padding:0;shape-margin:0;inline-size:0;isolation:auto;mix-blend-mode:normal;solid-color:#000;solid-opacity:1" d="M101.258 40.977a.608.608 0 0 0 .605-.606.608.608 0 0 0-.605-.604.607.607 0 0 0-.604.604c0 .331.272.606.604.606zm0-.37a.23.23 0 0 1-.234-.236.23.23 0 0 1 .234-.234.23.23 0 0 1 .235.234.233.233 0 0 1-.235.235z" color="#000" font-weight="400" font-family="sans-serif" overflow="visible" enable-background="accumulate"/><path d="M99.738 42.28a.42.42 0 1 1-.838-.001.42.42 0 0 1 .838 0z" fill-rule="evenodd"/><path d="M99.738 42.28a.42.42 0 1 1-.838-.001.42.42 0 0 1 .838 0z" fill="none"/><path d="M103.596 42.28a.42.42 0 1 1-.838-.001.42.42 0 0 1 .838 0z" fill-rule="evenodd"/><path d="M103.596 42.28a.42.42 0 1 1-.838-.001.42.42 0 0 1 .838 0z" fill="none"/><path style="line-height:normal;font-variant-ligatures:normal;font-variant-position:normal;font-variant-caps:normal;font-variant-numeric:normal;font-variant-alternates:normal;font-variant-east-asian:normal;font-feature-settings:normal;font-variation-settings:normal;text-indent:0;text-align:start;text-decoration-line:none;text-decoration-style:solid;text-decoration-color:#000;text-transform:none;text-orientation:mixed;white-space:normal;shape-padding:0;shape-margin:0;inline-size:0;isolation:auto;mix-blend-mode:normal;solid-color:#000;solid-opacity:1" d="M101.258 42.884a.608.608 0 0 0 .605-.604.608.608 0 0 0-.605-.606.608.608 0 0 0-.604.606c0 .331.273.604.604.604zm0-.37a.23.23 0 0 1-.234-.234.23.23 0 0 1 .234-.235c.132 0 .235.103.235.235a.23.23 0 0 1-.235.233z" color="#000" font-weight="400" font-family="sans-serif" overflow="visible" enable-background="accumulate"/><path d="M101.737 37.869l-.15.958-.323.09-.312-.085-.161-.963z" fill-rule="evenodd"/><path d="M101.737 37.869l-.15.958-.323.09-.312-.085-.161-.963z" fill="none"/><path d="M101.969 37.68l-.224 1.421-.478.134-.46-.128-.242-1.426z" fill-rule="evenodd"/><path d="M101.969 37.68l-.224 1.421-.478.134-.46-.128-.242-1.426z" fill="none"/></g><path d="M26.682 55.452l-.224 1.419-.478.135-.46-.128-.242-1.426z" fill-rule="evenodd"/><path d="M26.682 55.452l-.224 1.419-.478.135-.46-.128-.242-1.426z" fill="none"/><path d="M24.463 56.229a.417.417 0 1 1-.834 0 .417.417 0 0 1 .834 0z" fill-rule="evenodd"/><path d="M24.463 56.229a.417.417 0 1 1-.834 0 .417.417 0 0 1 .834 0z" fill="none"/><path d="M28.298 56.229a.417.417 0 1 1-.834 0 .417.417 0 0 1 .834 0z" fill-rule="evenodd"/><path d="M28.298 56.229a.417.417 0 1 1-.834 0 .417.417 0 0 1 .834 0z" fill="none"/><path d="M24.463 58.125a.417.417 0 1 1-.834 0 .417.417 0 0 1 .834 0z" fill-rule="evenodd"/><path d="M24.463 58.125a.417.417 0 1 1-.834 0 .417.417 0 0 1 .834 0z" fill="none"/><path d="M28.298 58.125a.417.417 0 1 1-.834 0 .417.417 0 0 1 .834 0z" fill-rule="evenodd"/><path d="M28.298 58.125a.417.417 0 1 1-.834 0 .417.417 0 0 1 .834 0z" fill="none"/><path d="M26.391 58.125a.417.417 0 1 1-.834 0 .417.417 0 0 1 .834 0z" fill-rule="evenodd"/><path d="M26.391 58.125a.417.417 0 1 1-.834 0 .417.417 0 0 1 .834 0z" fill="none"/><path d="M24.463 54.263c0 .23-.186.416-.417.416a.416.416 0 1 1 0-.833c.23 0 .417.187.417.417z" fill-rule="evenodd"/><path d="M24.463 54.263c0 .23-.186.416-.417.416a.416.416 0 1 1 0-.833c.23 0 .417.187.417.417z" fill="none"/><path d="M28.298 54.263c0 .23-.187.416-.417.416a.416.416 0 1 1 0-.833c.23 0 .417.187.417.417z" fill-rule="evenodd"/><path d="M28.298 54.263c0 .23-.187.416-.417.416a.416.416 0 1 1 0-.833c.23 0 .417.187.417.417z" fill="none"/><path d="M26.391 54.263a.416.416 0 1 1-.831 0 .416.416 0 0 1 .831 0z" fill-rule="evenodd"/><path d="M26.391 54.263a.416.416 0 1 1-.831 0 .416.416 0 0 1 .831 0z" fill="none"/><path d="M26.703 55.417l-.224 1.419-.478.136-.462-.128-.24-1.427z" fill-rule="evenodd"/><path d="M26.703 55.417l-.224 1.419-.478.136-.462-.128-.24-1.427z" fill="none"/><path d="M41.448 56.178l-.155.984-.332.094-.319-.09-.167-.988z" fill="red" fill-rule="evenodd"/><path style="line-height:normal;font-variant-ligatures:normal;font-variant-position:normal;font-variant-caps:normal;font-variant-numeric:normal;font-variant-alternates:normal;font-variant-east-asian:normal;font-feature-settings:normal;font-variation-settings:normal;text-indent:0;text-align:start;text-decoration-line:none;text-decoration-style:solid;text-decoration-color:#000;text-transform:none;text-orientation:mixed;white-space:normal;shape-padding:0;shape-margin:0;inline-size:0;isolation:auto;mix-blend-mode:normal;solid-color:#000;solid-opacity:1" d="M40.962 57.317a.062.062 0 0 0 .016-.002l.331-.093a.062.062 0 0 0 .045-.05l.155-.984a.062.062 0 0 0-.061-.072h-.973a.062.062 0 0 0-.061.072l.167.99a.062.062 0 0 0 .044.048l.32.09a.062.062 0 0 0 .017.001zm0-.126l-.266-.073-.148-.879h.828l-.138.875z" color="#000" font-weight="400" font-family="sans-serif" overflow="visible" fill="red" enable-background="accumulate"/><path d="M39.393 58.678a.431.431 0 1 1-.862.002.431.431 0 0 1 .862-.002zM43.358 58.678a.431.431 0 1 1-.862.002.431.431 0 0 1 .862-.002zM39.393 54.684a.43.43 0 1 1-.862 0 .43.43 0 0 1 .862 0zM43.358 54.684a.43.43 0 1 1-.862 0 .43.43 0 0 1 .862 0z" fill="red" fill-rule="evenodd"/><path style="line-height:normal;font-variant-ligatures:normal;font-variant-position:normal;font-variant-caps:normal;font-variant-numeric:normal;font-variant-alternates:normal;font-variant-east-asian:normal;font-feature-settings:normal;font-variation-settings:normal;text-indent:0;text-align:start;text-decoration-line:none;text-decoration-style:solid;text-decoration-color:#000;text-transform:none;text-orientation:mixed;white-space:normal;shape-padding:0;shape-margin:0;inline-size:0;isolation:auto;mix-blend-mode:normal;solid-color:#000;solid-opacity:1" d="M41.285 59.456v-1.734h-.648v1.734zM41.266 55.643l.013-1.735-.648-.005-.013 1.735zM39.919 57.032v-.648h-1.735v.648zM43.667 57.04l.003-.647-1.734-.01-.003.649z" color="#000" font-weight="400" font-family="sans-serif" overflow="visible" fill="red" enable-background="accumulate"/><path d="M41.608 55.904l-.225 1.42-.477.134-.461-.128-.241-1.426zM86.744 55.873l-.15.953-.321.09-.31-.086-.16-.956z" fill="red" fill-rule="evenodd"/><path d="M86.744 55.873l-.15.953-.321.09-.31-.086-.16-.956z" fill="none"/><path d="M84.756 56.395a.417.417 0 1 1-.834 0 .417.417 0 0 1 .834 0z" fill="red" fill-rule="evenodd"/><path d="M84.756 56.395a.417.417 0 1 1-.834 0 .417.417 0 0 1 .834 0z" fill="none"/><path d="M88.59 56.395a.416.416 0 1 1-.834 0 .417.417 0 0 1 .833 0z" fill="red" fill-rule="evenodd"/><path d="M88.59 56.395a.416.416 0 1 1-.834 0 .417.417 0 0 1 .833 0z" fill="none"/><path d="M84.756 58.292a.417.417 0 1 1-.835-.001.417.417 0 0 1 .835 0z" fill="red" fill-rule="evenodd"/><path d="M84.756 58.292a.417.417 0 1 1-.835-.001.417.417 0 0 1 .835 0z" fill="none"/><path d="M88.59 58.292a.416.416 0 1 1-.834 0 .417.417 0 0 1 .833 0z" fill="red" fill-rule="evenodd"/><path d="M88.59 58.292a.416.416 0 1 1-.834 0 .417.417 0 0 1 .833 0z" fill="none"/><path d="M86.684 58.292a.417.417 0 1 1-.834-.001.417.417 0 0 1 .834 0z" fill="red" fill-rule="evenodd"/><path d="M86.684 58.292a.417.417 0 1 1-.834-.001.417.417 0 0 1 .834 0z" fill="none"/><path d="M86.684 54.429a.417.417 0 1 1-.834 0 .417.417 0 0 1 .834 0z" fill="red" fill-rule="evenodd"/><path d="M86.684 54.429a.417.417 0 1 1-.834 0 .417.417 0 0 1 .834 0z" fill="none"/><path d="M86.966 55.597l-.223 1.42-.48.135-.46-.129-.24-1.426z" fill="red" fill-rule="evenodd"/><path d="M86.966 55.597l-.223 1.42-.48.135-.46-.129-.24-1.426z" fill="none"/><path d="M101.585 55.595l-.15.952-.321.09-.309-.086-.161-.956z" fill="red" fill-rule="evenodd"/><path d="M101.585 55.595l-.15.952-.321.09-.309-.086-.161-.956z" fill="none"/><path d="M99.597 56.116a.417.417 0 1 1-.834 0 .417.417 0 0 1 .834 0z" fill="red" fill-rule="evenodd"/><path d="M99.597 56.116a.417.417 0 1 1-.834 0 .417.417 0 0 1 .834 0z" fill="none"/><path d="M103.432 56.116a.417.417 0 1 1-.834 0 .417.417 0 0 1 .834 0z" fill="red" fill-rule="evenodd"/><path d="M103.432 56.116a.417.417 0 1 1-.834 0 .417.417 0 0 1 .834 0z" fill="none"/><path d="M99.597 58.013a.417.417 0 1 1-.834 0 .417.417 0 0 1 .834 0z" fill="red" fill-rule="evenodd"/><path d="M99.597 58.013a.417.417 0 1 1-.834 0 .417.417 0 0 1 .834 0z" fill="none"/><path d="M103.432 58.013a.417.417 0 1 1-.834 0 .417.417 0 0 1 .834 0z" fill="red" fill-rule="evenodd"/><path d="M103.432 58.013a.417.417 0 1 1-.834 0 .417.417 0 0 1 .834 0z" fill="none"/><path d="M101.525 58.013a.417.417 0 1 1-.834 0 .417.417 0 0 1 .834 0z" fill="red" fill-rule="evenodd"/><path d="M101.525 58.013a.417.417 0 1 1-.834 0 .417.417 0 0 1 .834 0z" fill="none"/><path d="M101.525 54.15a.417.417 0 1 1-.834 0 .417.417 0 0 1 .834 0z" fill="red" fill-rule="evenodd"/><path d="M101.525 54.15a.417.417 0 1 1-.834 0 .417.417 0 0 1 .834 0z" fill="none"/><path d="M101.8 55.304l-.225 1.42-.478.135-.46-.128-.242-1.427z" fill="red" fill-rule="evenodd"/><path d="M101.8 55.304l-.225 1.42-.478.135-.46-.128-.242-1.427z" fill="none"/><path d="M116.62 56.072l-.15.952-.321.09-.309-.086-.161-.956z" fill="red" fill-rule="evenodd"/><path d="M116.62 56.072l-.15.952-.321.09-.309-.086-.161-.956z" fill="none"/><path d="M114.632 56.593a.417.417 0 1 1-.834 0 .417.417 0 0 1 .834 0z" fill="red" fill-rule="evenodd"/><path d="M114.632 56.593a.417.417 0 1 1-.834 0 .417.417 0 0 1 .834 0z" fill="none"/><path d="M118.467 56.593a.417.417 0 1 1-.834 0 .417.417 0 0 1 .834 0z" fill="red" fill-rule="evenodd"/><path d="M118.467 56.593a.417.417 0 1 1-.834 0 .417.417 0 0 1 .834 0z" fill="none"/><path d="M114.632 58.49a.417.417 0 1 1-.834 0 .417.417 0 0 1 .834 0z" fill="red" fill-rule="evenodd"/><path d="M114.632 58.49a.417.417 0 1 1-.834 0 .417.417 0 0 1 .834 0z" fill="none"/><path d="M118.467 58.49a.417.417 0 1 1-.834 0 .417.417 0 0 1 .834 0z" fill="red" fill-rule="evenodd"/><path d="M118.467 58.49a.417.417 0 1 1-.834 0 .417.417 0 0 1 .834 0z" fill="none"/><path d="M116.56 58.49a.417.417 0 1 1-.834 0 .417.417 0 0 1 .834 0z" fill="red" fill-rule="evenodd"/><path d="M116.56 58.49a.417.417 0 1 1-.834 0 .417.417 0 0 1 .834 0z" fill="none"/><path d="M116.56 54.627a.417.417 0 1 1-.834 0 .417.417 0 0 1 .834 0z" fill="red" fill-rule="evenodd"/><path d="M116.56 54.627a.417.417 0 1 1-.834 0 .417.417 0 0 1 .834 0z" fill="none"/><path d="M116.813 55.781l-.224 1.42-.478.135-.46-.128-.24-1.427z" fill="red" fill-rule="evenodd"/><path d="M116.813 55.781l-.224 1.42-.478.135-.46-.128-.24-1.427z" fill="none"/><path d="M131.696 56.44l-.15.951-.321.09-.309-.085-.161-.957z" fill="red" fill-rule="evenodd"/><path d="M131.696 56.44l-.15.951-.321.09-.309-.085-.161-.957z" fill="none"/><path d="M129.708 56.96a.417.417 0 1 1-.834 0 .417.417 0 0 1 .834 0z" fill="red" fill-rule="evenodd"/><path d="M129.708 56.96a.417.417 0 1 1-.834 0 .417.417 0 0 1 .834 0z" fill="none"/><path d="M133.543 56.96a.417.417 0 1 1-.834 0 .417.417 0 0 1 .834 0z" fill="red" fill-rule="evenodd"/><path d="M133.543 56.96a.417.417 0 1 1-.834 0 .417.417 0 0 1 .834 0z" fill="none"/><path d="M129.708 58.857a.417.417 0 1 1-.834 0 .417.417 0 0 1 .834 0z" fill="red" fill-rule="evenodd"/><path d="M129.708 58.857a.417.417 0 1 1-.834 0 .417.417 0 0 1 .834 0z" fill="none"/><path d="M133.543 58.857a.417.417 0 1 1-.834 0 .417.417 0 0 1 .834 0z" fill="red" fill-rule="evenodd"/><path d="M133.543 58.857a.417.417 0 1 1-.834 0 .417.417 0 0 1 .834 0z" fill="none"/><path d="M131.636 58.857a.417.417 0 1 1-.834 0 .417.417 0 0 1 .834 0z" fill="red" fill-rule="evenodd"/><path d="M131.636 58.857a.417.417 0 1 1-.834 0 .417.417 0 0 1 .834 0z" fill="none"/><path d="M131.636 54.994a.417.417 0 1 1-.834 0 .417.417 0 0 1 .834 0z" fill="red" fill-rule="evenodd"/><path d="M131.636 54.994a.417.417 0 1 1-.834 0 .417.417 0 0 1 .834 0z" fill="none"/><path d="M131.89 56.149l-.224 1.42-.477.134-.463-.128-.24-1.426z" fill="red" fill-rule="evenodd"/><path d="M131.89 56.149l-.224 1.42-.477.134-.463-.128-.24-1.426z" fill="none"/><path d="M56.258 55.49l-.15.958-.323.09-.312-.086-.162-.962z" fill="red" fill-rule="evenodd"/><path style="line-height:normal;font-variant-ligatures:normal;font-variant-position:normal;font-variant-caps:normal;font-variant-numeric:normal;font-variant-alternates:normal;font-variant-east-asian:normal;font-feature-settings:normal;font-variation-settings:normal;text-indent:0;text-align:start;text-decoration-line:none;text-decoration-style:solid;text-decoration-color:#000;text-transform:none;text-orientation:mixed;white-space:normal;shape-padding:0;shape-margin:0;inline-size:0;isolation:auto;mix-blend-mode:normal;solid-color:#000;solid-opacity:1" d="M55.786 56.6a.062.062 0 0 0 .016-.002l.322-.09a.062.062 0 0 0 .045-.05l.15-.958a.062.062 0 0 0-.06-.072h-.948a.062.062 0 0 0-.061.072l.162.963a.062.062 0 0 0 .045.049l.312.086a.062.062 0 0 0 .017.003zm-.001-.125l-.257-.072-.144-.851h.802l-.133.847z" color="#000" font-weight="400" font-family="sans-serif" overflow="visible" fill="red" enable-background="accumulate"/><path d="M54.26 56.014a.42.42 0 1 1-.84 0 .42.42 0 0 1 .84 0zM58.117 56.014a.42.42 0 1 1-.84 0 .42.42 0 0 1 .84 0zM56.198 57.923a.419.419 0 1 1-.838 0 .419.419 0 0 1 .838 0zM56.198 54.036a.419.419 0 1 1-.837.002.419.419 0 0 1 .837-.002z" fill="red" fill-rule="evenodd"/><g clip-path="url(#L)" transform="matrix(-.15064 0 0 .15064 103.213 42.958)" stroke-width="6.148" stroke-miterlimit="10"><path style="line-height:normal;font-variant-ligatures:normal;font-variant-position:normal;font-variant-caps:normal;font-variant-numeric:normal;font-variant-alternates:normal;font-variant-east-asian:normal;font-feature-settings:normal;font-variation-settings:normal;text-indent:0;text-align:start;text-decoration-line:none;text-decoration-style:solid;text-decoration-color:#000;text-transform:none;text-orientation:mixed;white-space:normal;shape-padding:0;shape-margin:0;inline-size:0;isolation:auto;mix-blend-mode:normal;solid-color:#000;solid-opacity:1" d="M323.111 91.645l-3.043 3.044 8.15 8.143 3.044-3.045z" color="#000" font-weight="400" font-family="sans-serif" overflow="visible" fill="red" enable-background="accumulate"/></g><path style="line-height:normal;font-variant-ligatures:normal;font-variant-position:normal;font-variant-caps:normal;font-variant-numeric:normal;font-variant-alternates:normal;font-variant-east-asian:normal;font-feature-settings:normal;font-variation-settings:normal;text-indent:0;text-align:start;text-decoration-line:none;text-decoration-style:solid;text-decoration-color:#000;text-transform:none;text-orientation:mixed;white-space:normal;shape-padding:0;shape-margin:0;inline-size:0;isolation:auto;mix-blend-mode:normal;solid-color:#000;solid-opacity:1" d="M57.026 55.194l1.2-1.228-.464-.453-1.2 1.228zM57.762 58.446l.463-.454-1.205-1.227-.463.454zM54.54 55.196l.459-.458-1.228-1.227-.458.458z" color="#000" font-weight="400" font-family="sans-serif" overflow="visible" fill="red" enable-background="accumulate"/><path d="M56.47 55.203l-.224 1.42-.477.134-.463-.128-.24-1.426z" fill="red" fill-rule="evenodd"/><path d="M5.616 7.676l.345-.195.12.112zm0-.878q0-.098.645-.353l-.015.293q-.09.15-.247.277-.383-.112-.383-.217zm-2.522-.623q0 .067.172.067.406 0 1.096-.428.263-.187.833-.788.293.368.751.368.128 0 .405-.045-.037.195-.06.42-1.08.45-1.08.698 0 .36.525.789-.398.3-.713.428-.143.03-.353.045-.21.03-.21.202 0 .195.225.316.18.097.353.097.187 0 .998-.195.586-.113 1.013-.113.781 0 1.66.068.39 0 .39-.383 0-.21-.158-.353-.42-.3-.66-.3-.196 0-.503.338-.654.097-.976.127l.007-.69q.308-.308.646-.593.195-.098.195-.24 0-.293-.728-.473.052-.203.263-.398.6-.15.6-.413 0-.24-.188-.353-.292-.142-.495-.142-.135 0-.375.277-.758.33-1.359.346.608-.721 1.276-1.577.848.676 1.659 1.577.518.548.75.623.444.127 1.044.127.48 0 .48-.202 0-.368-.337-.744-.166-.187-.623-.337-.556-.15-.736-.233-.736-.503-1.914-1.224.368-.442.368-.57 0-.143-.24-.353-.21-.173-.383-.173-.466.023-.466.15 0 .136.165.27-1.681 2.8-3.19 3.837-.127.045-.127.15z" aria-label="" font-size="72.314" font-family="EPSON " letter-spacing="0" word-spacing="0" fill="red" stroke-width="2.489"/><g clip-path="url(#M)" transform="matrix(.19884 0 0 -.19884 -22.125 54.646)" stroke-width="1.774"><path d="M626.046 255.379q.376-.188 1.472-.282.94-.062 1.41-.532l-.157-.814q-.533-.188-.564-.627v-.814l-.313-.908.156-.438 1.222.22q.313-.095 1.158-.126.846 0 1.378-.564.063-.156.063-.313 0-.407-.72-1.158-.032 0-1.128-.345-.626-.188-1.033-.595l-1.19-.47-.157-2.191q.407-.094.877-.094 1.065 0 1.91.281 2.662-.313 3.946-1.283v-.877l-1.723-.22q-.219-.03-.97.283-.72.313-1.159.313-.188 0-.376-.063-.313.125-.595.125-1.315 0-3.882-.595-.094-.03-1.597-.595-1.503-.563-1.628-.626-.533-.282-.752-.689l-1.19.345q-.094.344-.47.563-.344.22-.344.439 0 .031.031.125l.533-.031q.939.438 2.724.97 1.941.595 2.755.94l-.094.5.22 1.316-2.85.751-.877.846q2.224.407 3.727 1.127 0 .313.093 1.033.094.752.094 1.096l-.156 2.16q-.783.345-1.253 1.003zm-10.301-1.002q.939-.376 1.878-.72.971-.47 1.159-1.535-.814-.156-.94-.97v-1.566q0-.156-.062-.438-.063-.282-.063-.439 0-.438.407-.72.094 0 .407.032.22.03.376.03.69 0 1.033-.625l-.156-.72q-.72-.408-1.44-.783-1.002-.533-.971-1.096.062-.846.062-.658l-.281-1.284.125-.783q1.221-.438 2.442-.908 1.253-.688 1.315-2.066l-.626-.783q-.407-.031-1.096.094-.031 0-.72.532-.658.564-.72.658-.125.25-.501.72l-.157-.407.032-1.221-.22-1.315.126-.533-.126-.657.188-1.065-.125-.657.188-1.19q0-.126-.063-.376-.062-.22-.062-.345l.125-.72-.188-.689.282-.751-.564-1.284-.689.031q-.47.47-.689 1.316-.313 1.158-.438 1.44l.407 5.699-.062 1.096q-.69-.094-1.347-1.034-.47-.72-.94-1.471-.75-.97-2.41-1.879-2.067-1.065-2.63-1.566l-.439.126-1.472-.157-.626.188q1.347 1.033 3.977 3.225 1.315 1.127 2.943 3.601 1.66 2.505 2.098 4.133-2.067-.375-2.724-1.44-.564 0-1.221.595-.877.751-1.065.845l-.564 1.378q.22.094.47.094.564 0 1.315-.501 1.034.22 2.411.97 1.754 1.003 2.286 1.222l.282 3.851-.125 1.503q-.658.22-1.347 1.378l-.031.157q.72-.032.532-.032.564 0 1.034.47zm10.301-11.93l2.161-.814q.125-.439.125-.532 0-.251-.219-.658-.188-.376-.188-.595 0-.188.157-.438l.626.03q2.442.126 2.943-.75l-.03-.595q-.408-.345-1.441-.564-1.19-.22-1.566-.407-.72-.376-.72-1.253 0-.188.063-.563.093-.376.093-.564l-.156-.97.47-.188 1.315.25q.219.47 1.002.47l1.033-.25q.94-.22 1.941-.44 1.096-.312 1.754-.876l.188-.814-.345-.814-.595-.188q-.657.094-2.661.658-1.66.47-2.63.47-1.347 0-3.476-.345-2.38-.345-3.35-.783-.971-.407-1.504-1.221-.47.188-.845.814-.344.595-.595.657v.69l.438-.157q.971.376 2.662.845 1.941.501 2.693.752v2.661q-.282.094-1.816.157-1.127.062-1.722.657 2.692.846 4.008 1.566.062.908.062 1.816 0 .22-.031.407l-1.096.846q.094.156.25.47l-.03.093z" aria-label="" font-weight="400" font-size="32.064" font-family="HakusyuKaisyo" stroke-width="1.625" stroke-linejoin="round" stroke-miterlimit="10"/></g><g clip-path="url(#N)" transform="matrix(.19884 0 0 -.19884 -27.688 55.045)" stroke-width="1.774"><path d="M723.744 256.58l1.127-.22.594.22q.72-.126 1.252-.658t.532-1.251q0-1.002-.751-1.283-.626-.125-1.815-.407-.595-.188-1.877-.845-1.502-.75-1.69-1.126l1.596-.595q.219-.532 1.032-1.439 2.973.939 6.414.939 1.096 0 1.846-.72.783-.72.783-1.815l-.094-.438-1.346-.375-1.877.375q-1.22.22-1.94.22-.813 0-1.44-.22 3.411-3.66 7.229-5.413 1.314-.625 2.66-1.22 1.501-.688 2.502-1.47l.376-.72q-.5-.5-1.001-.72l-.689.157-1.283-.282-1.72.156-.626-.281q-2.16.25-3.88 2.002v-.469q-.25-.25-.5-.532-.251-.25-.251-.657 0-.219.125-.5 0-.752.031-2.097.032-1.47.032-2.065 0-3.473-1.659-4.13l-.563.125-.5.97q-.22.094-2.128.438-.188-.031-2.597-.344-1.627-.22-2.597-.563-.751-.438-2.253-1.252-.688.563-1.126 1.47.563 3.067.563 7.447 0 1.878-.845 2.16-.75-.47-.75-1.033-.72-.845-1.409-1.721-.939-1.158-1.596-1.596-1.345-.845-2.002-.845l-1.47.032q2.064 1.47 4.974 5.194 2.535 3.254 4.036 6.038-2.816 0-4.13-1.595-.156-.032-.344-.032-1.032 0-1.44 1.064-.187.438-.406 2.003.876-.125 2.065-.438 2.535.594 3.786.938 2.691.72 3.661 1.252-.188 1.126-1.126 2.44l-.438-.156-.501.156q-.782-.219-.908-.219-.125 0-.312.094l-2.629.125q.501.282 4.037 2.16 2.378 1.314 3.848 2.534l-.47.47v.343l.69-.062 1.188.281zm-.47-9.45q-.375-.094-.468-.813-.063-.564-.094-1.096l.187-.469-.281-1.533.219-.563q-.25-.094-.313-.5-.063-.376-.094-.69l.188-.844 3.473.282q1.377.125 2.41-.47-1.784 2.19-5.226 6.696zm-7.602-7.54l1.501-.595q.564.313 1.847.563 1.282.25 1.814.5-.313 1.065-.344 2.848-.031 1.783-.219 2.534-.939-.125-1.564-.876-.094-.125-1.002-1.595-.062-.157-1.157-1.627-.72-.908-.876-1.753zm1.877-1.91l.156-2.721q1.721.125 3.286.532 1.001.344 2.972 1.032h.908q.406 0 .782.188.125 1.502.125 1.658 0 .939-.657.939.375 0-1.909-.282-3.754-.532-5.663-1.345zm1.69-4.098l-.376.094q-1.001 0-1.22-.344v-.564q0 .157.125-.532-.063-.688.063-2.002.907.125 3.848.907 2.347.595 3.88.657v3.004l-.376.157q-2.628-.438-3.003-.532-2.003-.407-2.941-.845z" aria-label="" font-weight="400" font-size="32.04" font-family="HakusyuKaisyo"/></g><g clip-path="url(#O)" transform="matrix(.19884 0 0 -.19884 -22.644 47.285)" stroke-width="1.774"><path d="M634.872 125.026q0-.281-.188-.563-.625-.407-1.439-.626-.782-.219-1.533-.406-.532-.22-1.565-.626-1.22-.47-3.41-1.033l-.532.063 1.94 1.815q1.22 1.189 1.345 2.159-.406.406-2.597.406-4.036 0-7.165-1.658-2.753-1.44-5.663-4.725l-1.44-1.69q-.876-1-1.564-1.501-.907.626-.907 2.44 0 .94 1.376 2.785.126.188 3.098 3.567 2.378 2.691 3.004 3.442 1.783 2.19 2.597 3.723-.47.939-1.001 1.22.438.22.844.439.595.281.845.281 1.502 0 2.128-.938 0-1.471-1.252-3.098-.406-.563-2.503-2.785-1.564-1.658-2.002-2.722 3.003 1.909 5.319 2.628 2.472.783 5.85.783 1.159 0 2.003-.126 1.033-.156 2.66-1.22 1.752-1.157 1.752-2.034zm-5.538-16.677q0-1.126-1.345-1.126-.188 0-.439.031-2.19.407-4.005.407-2.66 0-6.195-1.596-1.251.376-1.314 2.253l2.315 1.846q-.093.094-1.97 1.064-1.534.782-1.534 1.408 0 .845 1.19 1.909.97.876 1.97 1.345 2.378 1.126 2.597 1.252 1.283.876 1.283 2.378 0 .312-.062.625-1.002-.5-2.41-.5-.782 0-1.533.187l-.47.376q1.002.375 2.066 1.564 1.314 1.44 1.815 1.784.313.219.938.219 2.284 0 3.473-.782v-.25q.032-.626-.344-1.127-.344-.47-.72-.939-.437-.813-.5-2.534.125-.188 1.158-.438 1.063-.22 1.439-.657.031-.157.031-.313 0-1.001-2.284-3.38-2.66-2.753-3.004-3.441 1.784.532 4.13.532 3.724 0 3.724-2.097zm-7.885 7.385q-3.63-.658-4.63-2.785.187-.595 2.283-.72 1.44.532 2.347 3.505z" aria-label="" font-weight="400" font-size="32.04" font-family="HakusyuSousyo_kk" fill="red"/></g><g clip-path="url(#P)" transform="matrix(.19884 0 0 -.19884 -27.6 46.543)" stroke-width="1.774"><path d="M729.677 120.538c-.334-.438-1.085-.918-2.253-1.44-1.147-.5-1.783-.834-1.909-1 .167-1.356.209-2.378.126-3.067.646-.563 1.032-1.147 1.157-1.752-.187-.667-.709-1.512-1.564-2.534-.855-1.002-1.387-1.794-1.596-2.378.376-.376 1.335-.751 2.879-1.127 1.376-.334 2.315-.918 2.816-1.752-.021-.334-.334-.605-.939-.813-.605-.23-2.19-.585-4.756-1.064-2.566-.5-4.099-.751-4.6-.751-.896 0-1.46.448-1.69 1.345.105.5.439 1.074 1.002 1.721.647.71 1.043 1.262 1.19 1.658-.21.167-.856.272-1.94.313-.981.021-1.471.48-1.471 1.377 0 .584.323 1.241.97 1.971.667.751 1.637 1.481 2.91 2.19 1.084.585 2.169 1.158 3.254 1.721.125.605.187 1.158.187 1.659 0 .208-.01.386-.031.532-.563-.167-1.898-.783-4.005-1.846-1.606-.814-2.993-1.21-4.161-1.19h-.22c-.375.188-.563.46-.563.814 0 .668.929 1.742 2.785 3.223v-.532l-.219-.688c.814.208 1.93.709 3.348 1.501 1.335.751 2.357 1.43 3.066 2.034.105.271.157.532.157.782 0 .23-.052.439-.157.626-1.543-1.001-2.962-1.658-4.255-1.971l4.068 4.005c-.835.125-1.586.5-2.253 1.126-.668.647-1.001 1.377-1.001 2.19 0 .355.187.991.563 1.91l.813 1.94c.5-.147 1.074-.418 1.721-.814.793-.48 1.19-.908 1.19-1.283 0-.146-.21-.47-.627-.97-.417-.5-.625-.907-.625-1.22 0-.105.01-.199.03-.282.189-.042.408-.063.658-.063.25 0 .636.021 1.158.063.521.042.917.063 1.189.063 1.585 0 2.346-.49 2.284-1.471v-.219c-.355-.25-1.054-.647-2.097-1.189-.897-.459-1.564-.887-2.002-1.283.542-.292 1.345-.553 2.41-.782a52.692 52.692 0 0 1 1.72-.157c.563-.104.99-.48 1.283-1.126zm-7.009-7.478v.063c-2.107-.584-3.63-1.398-4.568-2.441-.334-.375-.5-.688-.5-.939 0-.146.083-.25.25-.313a1.94 1.94 0 0 1 .469-.062c1.043 0 2.034.365 2.972 1.095.96.75 1.419 1.617 1.377 2.597zm.5-6.57c0 .291-.083.594-.25.907-.688-.751-1.251-1.325-1.69-1.721a.693.693 0 0 1 .22-.032c.396 0 .96.188 1.69.564.02.083.03.177.03.281z" aria-label="" font-weight="400" font-size="32.04" font-family="HakusyuSousyo_kk" fill="red"/></g><g clip-path="url(#Q)" transform="matrix(.19884 0 0 -.19884 -32.533 54.204)" stroke-width="1.774"><path d="M824.265 249.16q.383 0 1.311-.356.928-.328 1.174-.573.027-.219.027-.41 0-.464-.19-.655l-.055-2.485q.792 0 3.222 1.038.273-.082 1.365-.082.41 0 .737-.273.328-.246.3-.628v-.055q-.436-.437-1.092-.519-.628-.082-1.228-.136-2.895-.355-3.25-.519-.273-.273-.273-1.474 0-.246-.355-1.284l.574-.027 5.515.874q.656.109 1.72-.328.929-.382 1.53-.928l.054-1.065q-.655-.437-1.147-.437-.355 0-1.638.355-1.256.355-1.939.355-3.959 0-5.843-.929.519-.109 1.038-.245.519-.11.628-.71-.3-1.147-.3-1.993l-.083-.983q.028.163.082-.492l.055-.983q.055-.573.328-.874l2.266 2.24-.382.545q.109.601 1.092.601.218-.191.819-.218l.874-.055-2.157 2.403q3.85-.628 5.488-2.321v-.11q.027-.354-.3-.682-.41-.382-.465-.546h-.136q-.246-.027-.737.219-.492.273-.683.273l-.273-.656q-.765-.19-1.638-1.01-.656-.683-1.338-1.365-.464-.3-1.365-1.038-.465-.519-1.393-1.447-.41-.382-1.529-1.174-.737-.628-2.239-1.72-.983-.601-1.666-.929-.546-.163-1.583-.6-.601-.328-1.174-.656-.792-.382-1.284-.382-.19 0-.6.11l-.765-.192-.519.137q4.232 1.966 9.53 6.58-.41.901-1.038 1.475l-1.201 1.201q.873.246 2.239.683.027.245.027.464 0 .218-.082.655-.055.464-.055.71 0 1.283-.19 1.693-.165.437-1.148 1.174-.163 0-2.512-.437-1.665-.328-2.43-.573-1.583-.464-2.184-1.147l-.792-.3q-.737.3-1.31 1.037-.547.737-.574 1.502l.847-.055q.655-.464.819-.464.054 0 5.324 1.365l.546.383q-.382.163-.382.6 0 .137.027.437.055.328.055.464 0 2.813-.874 3.25l.137.082.027.109-.11.19.765.083q.137-.164 1.147-.382.846-.164.983-.82-.11-1.146-.546-3.74 1.42 0 2.648.491l-.436 1.147.163 3.823q-.109.273-.136.983 0 .71-.11.9-.327.465-.9 1.311.054.52 1.146.52zm-5.98-12.807q.301 0 .41-.246.055-.109.273-1.037.219-.901.219-1.038 0-.9-.383-1.665-.436-.847-1.174-1.174-.846.491-.846 1.392 0 .655.764 1.83.765 1.174.738 1.938z" aria-label="" font-weight="400" font-size="27.96" font-family="HakusyuKaisyo" stroke-width="1.417" stroke-linejoin="round" stroke-miterlimit="10"/></g><g clip-path="url(#R)" transform="matrix(.19884 0 0 -.19884 -32.534 46.749)" stroke-width="1.774"><path d="M817.292 125.451q.6 0 1.638-.437 1.338-.6 2.075-1.91.383-.71.956-2.595.546-1.775 1.12-2.621.764 0 2.785 2.102 1.938 2.021 2.157 2.813l-.41.874q.11 0 .492.081.327.028.518.028.765 0 1.884-1.284 1.12-1.283 1.093-2.075v-.19q-.738-.383-2.076-1.257-1.365-1.229-4.123-3.44-.464-.273-1.31-.792-.328-.191-.82-.792-.436-.491-.928-.71-2.757-2.73-2.757-4.15 0-1.557 3.33-1.557 1.584 0 3.878.601 3.631 1.01 3.795 1.038.792-.3 1.557-.574.846-.355 1.146-1.065 0-.655-.546-1.01-.518-.355-2.239-.9-1.583-.574-2.32-.71-1.393-.274-3.496-.274-2.675 0-4.614.929-2.567 1.174-2.567 3.522 0 1.775 1.366 3.768l2.402 3.331q-.71 1.31-1.283 2.457-.764 1.857-1.556 3.687-1.092 2.348-2.403 2.812.082.3 1.256.3z" aria-label="" font-weight="400" font-size="27.96" font-family="HakusyuKaisyo" fill="red"/></g><g clip-path="url(#S)" transform="matrix(-.18076 0 0 .18076 46.223 22.952)" stroke-width="1.952"><path d="M120.496 143.505q2.753 0 3.828-.602l.731-1.72q-.387-1.033-1.118-1.29-.99-.388-3.183-.775l-3.268-.602q-3.269-.946-9.849-2.28-1.204-.344-3.613-.86-3.698 1.764-4.902 4l3.87-.731q1.936 0 8.129 1.85 3.14.902 7.096 2.236 1.118.387 2.28.774zm-11.827-7.656l.86-.473 1.936.473q1.591-.258 2.021-.387 1.161-.344 1.677-1.16v-.861q-1.118-.731-1.118-2.537-.387-.474-.387-.86 0-.302.215-.646 2.667.56 3.14.56 3.14 0 4.129-2.71-.173-1.72-1.85-1.72-.473 0-1.462.172-.99.172-1.462.172l-2.538-.516q-.172-1.807-.172-4.344 0-2.624.172-5.978 1.979.344 4 .688 2.494.387 3.957.387 3.87 0 8-2.667.773-.989 1.031-2.623-.473-.043-.946-.602-.645-.688-.86-.817-1.247.215-5.118 1.419-3.14.989-5.075.989-4.688 0-9.849-.99-6.666-1.29-8.902-3.526h-.344q-1.119-.086-2.28 1.29-1.161 1.334-1.763 1.377l-.043.602.559.774.602-.13 12.644 3.054q.086 3.355.086 6.323l-.215 3.225q-2.623-.215-2.838-.215-1.85 0-4.473 1.893l7.311 2.107.215 3.527-.172 2.322q-1.16.817-1.247 2.107zm16.343-13.633q1.42 0 3.785-1.247l1.591-1.807v-1.075l-.688-1.032q-.258-.043-.516-.043-1.806 0-3.742 1.935-2.752 2.925-3.096 3.14 2.537.129 2.666.129z" aria-label="" font-weight="400" font-size="44.04" font-family="HakusyuKaisyo"/></g><g clip-path="url(#T)" transform="matrix(-.18076 0 0 .18076 46.224 17.886)" stroke-width="1.952"><path d="M117.553 264.689l4.777-.775q.086-.215.817-.818.732-.559.86-1.29-.602-1.076-2.366-1.507-.602-.129-2.926-.3-.688-.044-3.012-.56-2.28-.474-2.926-.689-1.205-.387-2.066-.99 1.291-.602 2.54-1.161 1.376-.689 1.72-2.152l-.172-.817q-.86-.043-1.119-.775-.129-.344-.129-1.463-.043-.172-.086-.56-.043-.344-.043-.516l.13-1.033q.387 0 1.678.13 1.032.086 1.678.086 2.84 0 4.303-2.066v-1.248l-.947-.602-1.807.387q-.517.13-2.453-.387-1.893-.517-2.453-.99l-.258-1.033.258-1.033-.774-7.66q8.864.345 9.165.345 1.377 0 3.27-.56 1.937-.559 2.755-1.247.086-.086 1.205-1.248.903-1.033.903-1.55 0-.472-.645-.989-.646-.56-1.033-.43-4.432 1.549-5.164 1.764-3.098.904-5.422.904-4.518 0-10.886-1.377-.56-.086-1.55-.646-.946-.56-1.463-.688-1.463-.344-1.72-.474-.862-.387-1.077-1.247l-1.592-.603q-1.076.215-2.151 1.463-1.033 1.248-1.679 1.463l-.56 1.291.302.215q.172-.043.603-.172.473-.129.688-.129.13 0 3.443 1.033 3.657 1.119 4.82 1.42 2.796.731 4.948.904-.86 1.72-.86 5.378v.56q0 2.237-.216 3.442l-2.023-.172q-1.979.474-5.508 1.98l.947-.086q.86 0 6.971 2.022.258 7.96.258 7.315 0 1.55-1.42 2.109-.56-.13-2.151-.172-1.334 0-1.85-.215-2.281.99-5.423 3.614l1.937-.215q1.592 0 8.821 2.023 4.303 1.204 8.133 2.797z" aria-label="" font-weight="400" font-size="44.064" font-family="HakusyuKaisyo"/></g><path d="M39.958 65.029l-.045.292q-.133-.07-.222-.159.133-.133.267-.133zm-.077.35q-.025.069-.025.113 0 .16.311.33.204.115.293.115.406-.076.406-.241 0-.127-.292-.324 0-.636.019-1.271.165-.083.165-.146 0-.153-.368-.191l-.68.07q.095-.14.292-.337.216-.102.432-.178l.076.05q.096.198.191.198.108 0 .108-.197 0-.108-.102-.42.147-1.614.147-1.696 0-.674-.426-.954-.407-.273-1.494-.273-1.124 0-1.124.54 0 .204.228.324.426 1.043 1.093 1.481-.267-.387-.35-1.512.535-.127 1.024-.127.597 0 .597.21-.006.31-.254 1.505l-.311.09q.159-.42.159-.496 0-.108-.191-.197.248-.375.248-.496 0-.178-.515-.299.095-.114.223-.222-.248.025-.572.083-.242 0-.242.19 0 .102.102.216.14.14.26.14.197 0 .407.032l-.172.178q-.286.089-.286.28 0 .196.363.317l-.299.305q-.203.096-.203.229.025.21.324.248.101 0 .216-.076.229-.134.445-.236 0 .166.07.286-.216.108-.744.172-.35.05-.35.203 0 .096.09.178-.178.127-.33.286-.192.09-.192.185 0 .114.115.228.229.23.4.23.134 0 .273-.147l.738-.242q-.108.267-.166.534-.165-.07-.305-.07-.877.077-.877.407 0 .362.477.362.044 0 .108-.019.229 0 .47.051zm2.676-2.981q-.121.28-.623.464-.025-.375-.025-.827.26-.222.552-.324-.12.185-.305.394-.228.121-.228.223.019.146.235.171.07 0 .394-.101zm.171-.788q-.019.235-.07.457-.07-.013-.14-.013-.063 0-.158.007.12-.19.267-.381zm1.055 1.55q.096.057.14.057.12 0 .12-.095 0-.133-.133-.229-.28-.14-.425-.14-.242 0-.897.4.54-.755.719-2.134.114-.236.114-.312-.07-.654-.369-.654-.146 0-.203.108-.083.432-.095 1.15-.077-.114-.172-.114-.133 0-.673.508 0-.42.057-.934.4.063.756.317-.222-.45-.655-.857-.089-.274-.292-.274-.299 0-.47.661.082 1.424.082 1.614 0 .058-.044.382-.083.165-.083.254 0 .133.216.292.185.115.3.115.094 0 .507-.248-.127.286-.648.457l-.572.127q-.076.026-.076.191 0 .222.432.248.064 0 .299-.178l.565-.172q-.286.197-.603.369-.439.114-.439.254 0 .216.318.254.108 0 .267-.095l.229-.064q-.178.147-.687.344-.197.063-.197.178 0 .184.299.305 0 .317.172.483.152.152.362.152.604 0 .604-.197 0-.089-.274-.229l-.101-.076.52-.305-.667.083-.171-.013.146-.153 1.1-.355.31-.026q.064-.013.064-.102 0-.063-.12-.114-.26-.089-.363-.089-.095 0-.514.09.171-.16.317-.274.108-.102.108-.242 0-.216-.114-.216-.108 0-.496.362-.197.096-.394.16.572-.522 1.144-.776z" aria-label="" font-size="67.344" font-family="EPSON " letter-spacing="0" word-spacing="0" fill="red" stroke-width="2.738"/><g clip-path="url(#U)" transform="matrix(-.18076 0 0 .18076 79.383 1.402)" stroke-width="1.952"><path d="M224.17 257.953q0-1.617-2.954-1.617-.843 0-1.582.703-1.23 1.16-1.265 1.196l.035.21q2.285.704 3.762.704 2.004 0 2.004-1.196zm-.88-4.043q0-.175-.035-.351-.703-.492-1.722-.492-2.18 0-3.27 1.582V255q1.934.317 3.094.317 1.934 0 1.934-1.407zm6.012-20.425q0-.95-.632-1.477-.633-.563-1.618-.563-.879 0-2.707.668-1.617.598-2.601 1.16-2.813 1.653-4.324 4.887-1.336 2.953-1.336 6.504 0 .809.07 1.582-.984-.351-2.25-.914v-2.46q.035-4.395-.176-6.364-.457-4.465-2.11-5.52-.984 3.48-.984 10.301 0 2.145-.07 2.848-1.547-.668-2.953-1.442-.387-4.464-2.918-7.418-2.742-3.164-7.066-3.375l-.317.176q2.11 1.301 4.29 4.008 2.425 3.024 2.6 5.168-3.163-1.3-3.55-2.355-.105-.036-.176-.036-.668 0-1.09 1.407-.351 1.054-.351 1.933 0 .317.281 1.301l.246.246.95-.808q2.003.878 3.937 1.652v.316q.07 1.477-1.3 2.707-1.618-1.054-3.376-1.125 3.621 3.34 5.379 6.434l-1.125.703.035.316 2.426.633q2.46-.246 3.094-1.793-.492-.879-2.145-2.144-1.23-.985-2.496-1.934 2.215-.422 2.637-2.953 1.476.703 3.199 1.266l.035 1.968q.035 4.22-.351 5.204-.176.351-.563.843-.562.668-.633.809l-.035.492 2.11.563q2.18-.317 3.48-2.215-.281-.528-.668-1.617-.352-1.09-.281-3.938v-.738q.808.281 2.39.844.387.21.809.421.457.211.879.176-2.285 1.688-2.285 6.328l.105 2.918q-.773-.21-5.027-1.863-4.078-1.582-4.149-1.582-1.054 0-2.847 3.234l.351.282q.844-.211 1.582-.211.422 0 11.11 3.832.984-.07 2.918-.844.21-.738.21-1.09 0-.633-.562-.95-.808-.421-1.055-.737-.562-.774-.562-2.496 0-2.461 1.195-4.079 1.301-1.757 3.692-1.863 1.265.422 1.336 4.254.457-.492.914-1.547.632-1.547.738-1.652.492-.668 1.406-2.004.317-.527.317-1.055 0-.21-.07-.457-1.055-.668-2.778-.668-2.215 0-4.465.844-.21-.633-.21-1.266-.915-.316-.915-1.968 0-.95.176-1.899l2.004 2.074-.738.598-.141.246h.14q1.126-.035 2.602.633 1.688-.387 1.688-1.828 0-.387-.282-.598-.07-.07-1.441-.387-1.336-.316-2.918-1.37 2.25-.176 3.129-.493 1.863-.633 1.863-2.18 0-.914-.95-1.23-.878.07-2.284 1.02-1.055.808-2.11 1.582 1.618-3.551 5.766-5.028 1.09 1.336 1.547 7.313.808-1.266 1.125-3.305l.562-3.445q.668-2.989.668-3.41z" aria-label="" font-weight="400" font-size="36" font-family="HakusyuKaisyoExtraBold_kk"/></g><g clip-path="url(#V)" transform="matrix(-.18076 0 0 .18076 112.888 1.532)" stroke-width="1.952"><path d="M327.64 246.959q-.105-.352-.879-1.02-.738-.634-.95-.985-.105-.915-.105-2.111 0-1.794.246-5.383.282-3.553.282-5.347 0-1.126-.141-2.463-.14-.176-1.02-2.216-.634-1.442-1.513-1.759-1.09.246-2.04 1.196-.563.774-1.76 2.216-.844.81-1.688 1.654-1.09 1.09-1.126 1.935 2.005-.88 3.624-.88.633 0 1.196.141.035 1.126.035 2.216 0 1.09-.035 2.217-2.392 1.125-4.68 1.125-5.065 0-10.06-2.533l-.599.176q-.246-4.784-.985-6.508-.316-.739-1.16-1.477-1.584.14-1.584 3.201 0 .739.74 5.488.738 4.784.703 7.81v.915l-1.126 1.829.14.317 1.408-.247q4.151.88 6.438 2.252 2.427 1.442 4.995 4.679-.492.422-1.09 1.23-6.403-5.24-8.83-5.487-1.09-.106-2.604-.106-1.442 0-2.075.528 6.156 2.427 10.8 8.091.07.247.07.493 0 .387-.14.774l.246.316q.633.212 1.196.212.915 0 2.287-.704 1.407-.704 1.759-1.478l-.774-1.055q.527-.352 2.497-.352.95 0 2.639-1.794-.07-1.266-.669-1.618-.633-.211-1.794-.633-1.9-.81-2.638-2.182 1.231.317 2.427.634 1.513.351 2.463.351.633 0 2.357-.844 1.477-.703 2.286-1.266.845-.563 1.232-1.548zm-5.804-1.83v1.865q-.281.668-1.442.668-1.583 0-4.68-.774.916-.633.775-1.301 1.477.316 1.935.316 1.512 0 3.412-.774zm-.176-5.206q-.035 2.11 0 3.764-.492-.668-1.618-.81h-2.674q-.985 0-1.548-.527l-.105-2.146q1.477.387 3.201.387 1.618 0 2.744-.668zm-8.97 4.503q0 .316-.423.809-.387.492-.457.774-3.026-1.231-4.925-1.724l.07-1.477h.176q1.302-.07 5.523 1.336.035.176.035.282zm.14-4.609v1.83q-.88-.247-1.759-.458-1.126-.352-1.653-.738-1.232.668-2.568 1.688 0-2.04-.211-4.186 3.236.88 6.191 1.864z" aria-label="" font-weight="400" font-size="36.024" font-family="HakusyuKaisyoExtraBold_kk"/></g><path d="M87.534 59.778l-.346.195-.12-.112zm0 .878q0 .098-.646.353l.015-.293q.09-.15.248-.277.383.112.383.217zm2.522.623q0-.067-.173-.067-.405 0-1.096.428-.262.187-.833.788-.293-.368-.75-.368-.128 0-.406.045.038-.195.06-.42 1.081-.45 1.081-.698 0-.36-.525-.788.397-.3.713-.428.142-.03.353-.045.21-.03.21-.203 0-.195-.225-.315-.18-.098-.353-.098-.188 0-.999.195-.585.113-1.013.113-.78 0-1.659-.068-.39 0-.39.383 0 .21.157.353.42.3.66.3.196 0 .504-.338.653-.097.976-.127l-.008.69q-.308.308-.645.593-.196.098-.196.24 0 .293.729.473-.053.203-.263.398-.6.15-.6.413 0 .24.187.353.293.143.495.143.136 0 .376-.278.758-.33 1.358-.345-.608.72-1.276 1.576-.848-.676-1.659-1.576-.518-.548-.75-.623-.443-.128-1.044-.128-.48 0-.48.203 0 .367.338.743.165.187.623.338.555.15.735.232.736.503 1.915 1.224-.368.443-.368.57 0 .143.24.353.21.173.383.173.465-.023.465-.15 0-.136-.165-.27 1.681-2.8 3.19-3.836.128-.045.128-.15z" aria-label="" font-size="72.314" font-family="EPSON " letter-spacing="0" word-spacing="0" fill="red" stroke-width="2.489"/><g clip-path="url(#W)" transform="matrix(-.19884 0 0 .19884 189.649 -2.767)" stroke-width="1.774"><path d="M513.587 254.698q.313.094 1.126-.25.689-.25 1.096-.532-.032-.094-.032-.125.032-.094.22-.5.187-.376.187-.595l-.031-.188q-1.596-.657-2.284-2.847 2.753-.063 4.224-1.19l.281-1.313-.156-.532h-.188q-1.189-.031-2.503.782-1.126.72-2.222 1.44-1.282-1.19-2.565-4.193h.156q.876-.032 2.316.813 1.439.876 2.221.876.188 0 .376-.031l.625-.688v-.564q-.813-.187-1.846-.72-.845-.469-1.72-.97l1.439-.813.281-.657q.939.282 2.253.282.188 0 .438-.063.188-.281.344-.563.25-.375.25-.595 0-.093-.03-.25-.564-.25-1.847-.407-1.283-.156-1.846-.469v-4.255q1.408 1.314 1.721 2.284l-.281.688 2.94-.156.407-1.627-3.222-1.408q-.22.094-.438.094-.657 0-1.19-.657v-1.596q1.503.75 2.848.75.188 0 .438-.03.313-.188.72-.877-.72-.72-2.16-1.282l-2.315-.908q-.813-.438-2.44-1.22-.689-.188-2.034-.72-.907-.438-1.189-1.251l-.782.344q-.5.72-.5 1.752 0 .47.093.939l.688-.157q1.095.22 2.66.939 1.909.845 2.597 1.064l-.22 2.159q0 .563.095 1.72.125 1.158.125 1.721l-.25 1.033q-2.691-.657-3.41-1.47-.658.25-1.94 1.188 1.094.22 2.721 1.002 1.972.97 2.66 1.189.062.156.062.313 0 .375-.594 1-.563.627-.563.752 0 .094.094.219l-1.346.626-1.69-1.815q-.312-.532-1.063-1.502-.626-.688-1.408-.97-.188-.47-.782-.876-.564-.407-1.064-.376h-.032q6.32 7.885 8.605 14.8l-1.064.97.063.188h.062q.094 0 .282-.094.188-.063.25-.063zm16.677-2.002q.313-.72.313-1.377 0-.188-.031-.407l-.689-.438q-.125-1.063-.219-2.096-.187-1.189-.438-2.002-.281-.595-.688-2.097.939-.313 2.753-1.095l.345-.626q-.47-.75-1.972-1.032-.438-.282-1.22-.845-.313-.25-.782-.907-.438-.658-.782-.94 1.063-2.44 3.66-4.536 1.659-1.314 4.913-3.16l.188-.72q-.376-.375-1.033-.563-.876-.22-1.095-.313l-.657.125-1.064-.375-1.408.125q-2.19 1.783-3.63 4.161-1.063-.563-3.035-2.628-.594-.5-1.69-1.564-.656-.689-.656-1.784l-.876-.313-1.22 1.22-.126 1.346.845 6.633q-.031.313-.063.97.094 1.252.438 9.168 0 .125-.03.407-.032.281-.032.406 0 1.408-.47 2.284-.156.345-.844 1.096-.47.5-.47 1.063l1.408-.5q1.283.281 3.849.876.72.188 1.502.47.47.218 1.47.656.282.125.908.125.688 0 2.628-.813zm-9.042-2.503q.344-.25.469-.939.156-.688.375-.939.939.188 2.566.751 1.721.595 2.534.783l-.062 1.69q-3.88-.282-5.882-1.346zm4.067-2.566q-.375 0-1.126-.094-.72-.062-1.127-.062-.657 0-1.189-.438l-.344-2.19q0-.251.094-.689.125-.094.25-.156 2.316.782 5.007 2.158l.03 1.471zm-1.502-4.161v-.501l2.003-2.847q.031.031 1.001 1.095.751.782.657 1.251l-.188 1.002h.689l.438.594-.939.282zm-2.284-.657q-.281-2.879-.688-4.631l.125-.563-.125-2.034.375-.313q1.565.939 3.13 2.847-.501.908-.908 2.44-.376 1.284-.72 2.566zm-10.607-8.605l-.594-2.128q-.376.094-.908.47v.187q.032.25-.219.751.22 2.441.22 2.16 0 .625-.658 1.345 1.095-.22 1.47-.689.282-.312.376-.97.094-.782.313-1.126zm14.174 2.378q-.563-.282-1.596-.939-1.095-.75-1.627-1-.469.218-.594.218-.157 0-.22-.031-.25-.25-.25-1.721l.157-1.47q2.284.938 5.32 2.94-.251.532-.502 1.096-.375.72-.688.907z" aria-label="" font-weight="400" font-size="32.04" font-family="HakusyuKaisyo" stroke-width="1.624" stroke-linejoin="round" stroke-miterlimit="10"/></g><g clip-path="url(#X)" transform="matrix(-.19884 0 0 .19884 154.292 -2.728)" stroke-width="1.774"><path d="M417.247 255.98c-.208 0-.428-.077-.693-.21a.217.217 0 0 1-.006-.004 3.04 3.04 0 0 0-.41-.195 8.178 8.178 0 0 1-.69-.03c-.35-.023-.641-.139-.795-.384a.217.217 0 0 1-.002-.228l1.067-1.747c-1.057-2.456-2.741-5.234-5.06-8.334-2.537-3.368-4.8-5.7-6.767-6.99a.217.217 0 0 1 .014-.37c.212-.118.425-.184.637-.184.381 0 .815.246 1.453.687.636.44 1.448 1.093 2.44 1.959l.005.004c.261.11.55.326.942.684.425.387.95.925 1.578 1.617a.217.217 0 0 1 .002.002c1.346 1.525 2.173 2.383 2.562 2.713.36-.442.84-.803 1.461-1.065.104-.297.333-.684.737-1.28a.217.217 0 0 1 .004-.005c.361-.502.521-.91.521-1.188 0-.128-.033-.272-.068-.418l-5.618-1.359-.718.262a.217.217 0 0 1-.117.008l-.157-.032a.217.217 0 0 1-.174-.213v-.158a.217.217 0 0 1 .01-.068c.17-.51.328-.876.498-1.12a.217.217 0 0 1 .006-.009l.688-.877a.217.217 0 0 1 .136-.08l.94-.156a.217.217 0 0 1 .238.136c.125.321.337.529.682.657.531.143.942.244 1.224.304a.217.217 0 0 1 .043.014c.331.145.672.289 1.024.434l.004.002c.352.136.668.2.945.2l.12-.011c.106-.752.157-1.878.138-3.428-.02-1.545.059-2.702.226-3.558l-7.177-1.666-.547.117a.217.217 0 0 1-.088 0l-.418-.086-.824.238a.217.217 0 0 1-.276-.236c.11-.88.51-1.874 1.188-2.996a.217.217 0 0 1 .136-.1l.688-.156a.217.217 0 0 1 .129.012c.504.201.853.505 1.047.888 1.632.55 2.855.897 3.636 1.037a.217.217 0 0 1 .028.008c.954.311 1.56.498 1.795.557.802.123 1.412.195 1.812.215a.217.217 0 0 1 .053.01c.807.248 1.359.367 1.562.367.288 0 .695-.05 1.206-.153.669-.146 1.088-.231 1.304-.255a.217.217 0 0 1 .01 0l1.461-.094c.289-.037.928-.22 1.86-.551a.217.217 0 0 1 .001 0c.749-.257 1.451-.387 2.106-.387a.217.217 0 0 1 .011 0l.625.032a.217.217 0 0 1 .127.05c.412.343.643.777.643 1.26 0 .38-.182.743-.502 1.063-.319.319-.777.609-1.373.886-1 .49-1.876.722-2.639.678h-.004l-5.177-.248-.207.078c.021.021.019.047.05.068.104.07.272.132.502.17a.217.217 0 0 1 .004 0c.299.054.54.112.733.174.141.046.233.107.328.172h.004c.655.114 1.548.5 2.724 1.15a.217.217 0 0 1 .004.002c.54.311.974.544 1.303.696.329.152.57.215.621.215.125 0 .252-.019.379-.055a.217.217 0 0 1 .275.174 2.3 2.3 0 0 1 .034.379c0 .421-.201.82-.559 1.166-.358.346-.873.653-1.545.941a.217.217 0 0 1-.078.018l-2.377.093a.217.217 0 0 1-.201-.316l.449-.871c-.404-.955-1.29-1.958-2.648-2.986l-.112.562c.001.042.009.119.028.23.021.131.033.23.033.317 0 .12-.025.254-.069.43-.04.158-.056.275-.056.322 0 .075.018.224.058.426.044.215.067.38.067.513 0 .426.005.763.015 1.008.01.245.034.415.04.434a.217.217 0 0 1 .003.107l-.109.486.477.924 2.386.295 2.16-.37a.217.217 0 0 1 .112.01l.937.345a.217.217 0 0 1 .14.171c.023.155.034.3.034.438 0 .45-.19.85-.543 1.135l-.002.002c-.347.3-.76.457-1.205.457a.217.217 0 0 1-.06-.01.217.217 0 0 1-.002 0 6.075 6.075 0 0 0-.16-.023c-.154-.021-.4-.05-.735-.092-.65-.08-1.674-.207-3.004-.366l-.225.208.29.703a.217.217 0 0 1 .015.082c0 .537-.219 1.03-.627 1.437a.217.217 0 0 1-.08.051c-.096.035-.16.032-.242.055.346.108.695.22 1.566.437a.217.217 0 0 1 .002 0c.812.213 1.47.457 2.012.729.862-.983 1.725-1.985 2.586-3.006a.217.217 0 0 1 .01-.01c1.118-1.16 2.21-2 3.285-2.516a.217.217 0 0 1 .137-.017c.279.056.643.058 1.086-.002.607-.084.969-.127 1.156-.127.149 0 .34.022.596.064.266.041.459.06.56.06.755 0 1.266.019 1.567.065a.217.217 0 0 1 .107.05l.658.562a.217.217 0 0 1 .074.203l-.187 1.064a.217.217 0 0 1-.076.13c-.654.544-1.589 1.052-2.81 1.536h-.003c-1.413.582-2.36 1.033-2.808 1.326a.217.217 0 0 1-.008.006c-.752.448-1.541 1.072-2.365 1.875l-.002.002c-.115.115-.821.85-2.092 2.184a.217.217 0 0 1-.008.008c-1.875 1.777-3.244 3.016-4.283 3.902.329.096.62.214.83.389.293.244.453.585.453.965a.217.217 0 0 1-.004.04l-.094.5a.217.217 0 0 1-.088.137c-.65.462-1.192.81-1.632 1.047-.44.237-.769.37-1.057.37zm.037-5.02a113.323 113.323 0 0 0 2.399-3.47c-.02 0-.04.009-.059.009-.452 0-1.08-.212-1.967-.613a.217.217 0 0 1-.002 0c-.584-.271-1.034-.48-1.351-.625a30.39 30.39 0 0 0-.532-.24h-.002a35.594 35.594 0 0 0-1.488-.442l-.336.23zm-6.223-14.192a.217.217 0 0 1-.207-.308c.115-.245.306-1.066.514-2.354.151-1.031.503-1.791 1.086-2.234a.217.217 0 0 1 .229-.022c.342.172.653.222.959.168a.217.217 0 0 1 .228.112c.311.578.454 1.253.434 2.011V234.485a.217.217 0 0 1-.018.088c-.27.609-.741 1.088-1.383 1.42a.217.217 0 0 1-.013.006l-1.752.752a.217.217 0 0 1-.077.017z" aria-label="" font-weight="400" font-size="32.04" font-family="HakusyuKaisyo" stroke-width="1.624" stroke-linejoin="round" stroke-miterlimit="10"/></g><g clip-path="url(#Y)" transform="matrix(-.19884 0 0 .19884 259.954 -2.772)" stroke-width="1.774"><path d="M723.744 256.58l1.127-.22.594.22q.72-.126 1.252-.658t.532-1.251q0-1.002-.751-1.283-.626-.125-1.815-.407-.595-.188-1.877-.845-1.502-.75-1.69-1.126l1.596-.595q.219-.532 1.032-1.439 2.973.939 6.414.939 1.096 0 1.846-.72.783-.72.783-1.815l-.094-.438-1.346-.375-1.877.375q-1.22.22-1.94.22-.813 0-1.44-.22 3.411-3.66 7.229-5.413 1.314-.625 2.66-1.22 1.501-.688 2.502-1.47l.376-.72q-.5-.5-1.001-.72l-.689.157-1.283-.282-1.72.156-.626-.281q-2.16.25-3.88 2.002v-.469q-.25-.25-.5-.532-.251-.25-.251-.657 0-.219.125-.5 0-.752.031-2.097.032-1.47.032-2.065 0-3.473-1.659-4.13l-.563.125-.5.97q-.22.094-2.128.438-.188-.031-2.597-.344-1.627-.22-2.597-.563-.751-.438-2.253-1.252-.688.563-1.126 1.47.563 3.067.563 7.447 0 1.878-.845 2.16-.75-.47-.75-1.033-.72-.845-1.409-1.721-.939-1.158-1.596-1.596-1.345-.845-2.002-.845l-1.47.032q2.064 1.47 4.974 5.194 2.535 3.254 4.036 6.038-2.816 0-4.13-1.595-.156-.032-.344-.032-1.032 0-1.44 1.064-.187.438-.406 2.003.876-.125 2.065-.438 2.535.594 3.786.938 2.691.72 3.661 1.252-.188 1.126-1.126 2.44l-.438-.156-.501.156q-.782-.219-.908-.219-.125 0-.312.094l-2.629.125q.501.282 4.037 2.16 2.378 1.314 3.848 2.534l-.47.47v.343l.69-.062 1.188.281zm-.47-9.45q-.375-.094-.468-.813-.063-.564-.094-1.096l.187-.469-.281-1.533.219-.563q-.25-.094-.313-.5-.063-.376-.094-.69l.188-.844 3.473.282q1.377.125 2.41-.47-1.784 2.19-5.226 6.696zm-7.602-7.54l1.501-.595q.564.313 1.847.563 1.282.25 1.814.5-.313 1.065-.344 2.848-.031 1.783-.219 2.534-.939-.125-1.564-.876-.094-.125-1.002-1.595-.062-.157-1.157-1.627-.72-.908-.876-1.753zm1.877-1.91l.156-2.721q1.721.125 3.286.532 1.001.344 2.972 1.032h.908q.406 0 .782.188.125 1.502.125 1.658 0 .939-.657.939.375 0-1.909-.282-3.754-.532-5.663-1.345zm1.69-4.098l-.376.094q-1.001 0-1.22-.344v-.564q0 .157.125-.532-.063-.688.063-2.002.907.125 3.848.907 2.347.595 3.88.657v3.004l-.376.157q-2.628-.438-3.003-.532-2.003-.407-2.941-.845z" aria-label="" font-weight="400" font-size="32.04" font-family="HakusyuKaisyo"/></g><g clip-path="url(#Z)" transform="matrix(-.19884 0 0 .19884 224.966 37.646)" stroke-width="1.774"><path d="M634.872 125.026q0-.281-.188-.563-.625-.407-1.439-.626-.782-.219-1.533-.406-.532-.22-1.565-.626-1.22-.47-3.41-1.033l-.532.063 1.94 1.815q1.22 1.189 1.345 2.159-.406.406-2.597.406-4.036 0-7.165-1.658-2.753-1.44-5.663-4.725l-1.44-1.69q-.876-1-1.564-1.501-.907.626-.907 2.44 0 .94 1.376 2.785.126.188 3.098 3.567 2.378 2.691 3.004 3.442 1.783 2.19 2.597 3.723-.47.939-1.001 1.22.438.22.844.439.595.281.845.281 1.502 0 2.128-.938 0-1.471-1.252-3.098-.406-.563-2.503-2.785-1.564-1.658-2.002-2.722 3.003 1.909 5.319 2.628 2.472.783 5.85.783 1.159 0 2.003-.126 1.033-.156 2.66-1.22 1.752-1.157 1.752-2.034zm-5.538-16.677q0-1.126-1.345-1.126-.188 0-.439.031-2.19.407-4.005.407-2.66 0-6.195-1.596-1.251.376-1.314 2.253l2.315 1.846q-.093.094-1.97 1.064-1.534.782-1.534 1.408 0 .845 1.19 1.909.97.876 1.97 1.345 2.378 1.126 2.597 1.252 1.283.876 1.283 2.378 0 .312-.062.625-1.002-.5-2.41-.5-.782 0-1.533.187l-.47.376q1.002.375 2.066 1.564 1.314 1.44 1.815 1.784.313.219.938.219 2.284 0 3.473-.782v-.25q.032-.626-.344-1.127-.344-.47-.72-.939-.437-.813-.5-2.534.125-.188 1.158-.438 1.063-.22 1.439-.657.031-.157.031-.313 0-1.001-2.284-3.38-2.66-2.753-3.004-3.441 1.784.532 4.13.532 3.724 0 3.724-2.097zm-7.885 7.385q-3.63-.658-4.63-2.785.187-.595 2.283-.72 1.44.532 2.347 3.505z" aria-label="" font-weight="400" font-size="32.04" font-family="HakusyuSousyo_kk" fill="red"/></g><g clip-path="url(#aa)" transform="matrix(-.19884 0 0 .19884 259.864 38.649)" stroke-width="1.774"><path d="M729.677 120.538c-.334-.438-1.085-.918-2.253-1.44-1.147-.5-1.783-.834-1.909-1 .167-1.356.209-2.378.126-3.067.646-.563 1.032-1.147 1.157-1.752-.187-.667-.709-1.512-1.564-2.534-.855-1.002-1.387-1.794-1.596-2.378.376-.376 1.335-.751 2.879-1.127 1.376-.334 2.315-.918 2.816-1.752-.021-.334-.334-.605-.939-.813-.605-.23-2.19-.585-4.756-1.064-2.566-.5-4.099-.751-4.6-.751-.896 0-1.46.448-1.69 1.345.105.5.439 1.074 1.002 1.721.647.71 1.043 1.262 1.19 1.658-.21.167-.856.272-1.94.313-.981.021-1.471.48-1.471 1.377 0 .584.323 1.241.97 1.971.667.751 1.637 1.481 2.91 2.19 1.084.585 2.169 1.158 3.254 1.721.125.605.187 1.158.187 1.659 0 .208-.01.386-.031.532-.563-.167-1.898-.783-4.005-1.846-1.606-.814-2.993-1.21-4.161-1.19h-.22c-.375.188-.563.46-.563.814 0 .668.929 1.742 2.785 3.223v-.532l-.219-.688c.814.208 1.93.709 3.348 1.501 1.335.751 2.357 1.43 3.066 2.034.105.271.157.532.157.782 0 .23-.052.439-.157.626-1.543-1.001-2.962-1.658-4.255-1.971l4.068 4.005c-.835.125-1.586.5-2.253 1.126-.668.647-1.001 1.377-1.001 2.19 0 .355.187.991.563 1.91l.813 1.94c.5-.147 1.074-.418 1.721-.814.793-.48 1.19-.908 1.19-1.283 0-.146-.21-.47-.627-.97-.417-.5-.625-.907-.625-1.22 0-.105.01-.199.03-.282.189-.042.408-.063.658-.063.25 0 .636.021 1.158.063.521.042.917.063 1.189.063 1.585 0 2.346-.49 2.284-1.471v-.219c-.355-.25-1.054-.647-2.097-1.189-.897-.459-1.564-.887-2.002-1.283.542-.292 1.345-.553 2.41-.782a52.692 52.692 0 0 1 1.72-.157c.563-.104.99-.48 1.283-1.126zm-7.009-7.478v.063c-2.107-.584-3.63-1.398-4.568-2.441-.334-.375-.5-.688-.5-.939 0-.146.083-.25.25-.313a1.94 1.94 0 0 1 .469-.062c1.043 0 2.034.365 2.972 1.095.96.75 1.419 1.617 1.377 2.597zm.5-6.57c0 .291-.083.594-.25.907-.688-.751-1.251-1.325-1.69-1.721a.693.693 0 0 1 .22-.032c.396 0 .96.188 1.69.564.02.083.03.177.03.281z" aria-label="" font-weight="400" font-size="32.04" font-family="HakusyuSousyo_kk" fill="red"/></g><g clip-path="url(#ab)" transform="matrix(-.19884 0 0 .19884 295.056 -1.527)" stroke-width="1.774"><path d="M824.265 249.16q.383 0 1.311-.356.928-.328 1.174-.573.027-.219.027-.41 0-.464-.19-.655l-.055-2.485q.792 0 3.222 1.038.273-.082 1.365-.082.41 0 .737-.273.328-.246.3-.628v-.055q-.436-.437-1.092-.519-.628-.082-1.228-.136-2.895-.355-3.25-.519-.273-.273-.273-1.474 0-.246-.355-1.284l.574-.027 5.515.874q.656.109 1.72-.328.929-.382 1.53-.928l.054-1.065q-.655-.437-1.147-.437-.355 0-1.638.355-1.256.355-1.939.355-3.959 0-5.843-.929.519-.109 1.038-.245.519-.11.628-.71-.3-1.147-.3-1.993l-.083-.983q.028.163.082-.492l.055-.983q.055-.573.328-.874l2.266 2.24-.382.545q.109.601 1.092.601.218-.191.819-.218l.874-.055-2.157 2.403q3.85-.628 5.488-2.321v-.11q.027-.354-.3-.682-.41-.382-.465-.546h-.136q-.246-.027-.737.219-.492.273-.683.273l-.273-.656q-.765-.19-1.638-1.01-.656-.683-1.338-1.365-.464-.3-1.365-1.038-.465-.519-1.393-1.447-.41-.382-1.529-1.174-.737-.628-2.239-1.72-.983-.601-1.666-.929-.546-.163-1.583-.6-.601-.328-1.174-.656-.792-.382-1.284-.382-.19 0-.6.11l-.765-.192-.519.137q4.232 1.966 9.53 6.58-.41.901-1.038 1.475l-1.201 1.201q.873.246 2.239.683.027.245.027.464 0 .218-.082.655-.055.464-.055.71 0 1.283-.19 1.693-.165.437-1.148 1.174-.163 0-2.512-.437-1.665-.328-2.43-.573-1.583-.464-2.184-1.147l-.792-.3q-.737.3-1.31 1.037-.547.737-.574 1.502l.847-.055q.655-.464.819-.464.054 0 5.324 1.365l.546.383q-.382.163-.382.6 0 .137.027.437.055.328.055.464 0 2.813-.874 3.25l.137.082.027.109-.11.19.765.083q.137-.164 1.147-.382.846-.164.983-.82-.11-1.146-.546-3.74 1.42 0 2.648.491l-.436 1.147.163 3.823q-.109.273-.136.983 0 .71-.11.9-.327.465-.9 1.311.054.52 1.146.52zm-5.98-12.807q.301 0 .41-.246.055-.109.273-1.037.219-.901.219-1.038 0-.9-.383-1.665-.436-.847-1.174-1.174-.846.491-.846 1.392 0 .655.764 1.83.765 1.174.738 1.938z" aria-label="" font-weight="400" font-size="27.96" font-family="HakusyuKaisyo" stroke-width="1.417" stroke-linejoin="round" stroke-miterlimit="10"/></g><g clip-path="url(#ac)" transform="matrix(-.19884 0 0 .19884 295.09 38.743)" stroke-width="1.774"><path d="M817.292 125.451q.6 0 1.638-.437 1.338-.6 2.075-1.91.383-.71.956-2.595.546-1.775 1.12-2.621.764 0 2.785 2.102 1.938 2.021 2.157 2.813l-.41.874q.11 0 .492.081.327.028.518.028.765 0 1.884-1.284 1.12-1.283 1.093-2.075v-.19q-.738-.383-2.076-1.257-1.365-1.229-4.123-3.44-.464-.273-1.31-.792-.328-.191-.82-.792-.436-.491-.928-.71-2.757-2.73-2.757-4.15 0-1.557 3.33-1.557 1.584 0 3.878.601 3.631 1.01 3.795 1.038.792-.3 1.557-.574.846-.355 1.146-1.065 0-.655-.546-1.01-.518-.355-2.239-.9-1.583-.574-2.32-.71-1.393-.274-3.496-.274-2.675 0-4.614.929-2.567 1.174-2.567 3.522 0 1.775 1.366 3.768l2.402 3.331q-.71 1.31-1.283 2.457-.764 1.857-1.556 3.687-1.092 2.348-2.403 2.812.082.3 1.256.3z" aria-label="" font-weight="400" font-size="27.96" font-family="HakusyuKaisyo" fill="red"/></g><path d="M56.163 60.08q-.043.102-.043.22-.395.46-.673.46-.139 0-.497-.205-.534-.336-.797-.336.117-.175.322-.387.263-.059.402-.059.855 0 1.286.307zm.52.84q-.227.052-.666.242-.278.154-.446.468-.826.212-1.923.212.059-.724.344-1.316.037.314.241.497.256.19.63.19.657 0 .942-.3.351-.19.614-.27.154.205.264.278zm.24 2.085q-.007.35-.058.709-.416-.154-.57-.154-.139 0-.241.015l.54-.388-.65.205v-.227q.497-.102.98-.16zm.037 1.476q-.263-.065-.387-.065-.14 0-.49.05.03-.087.03-.123 0-.074-.169-.132v-.154q.49-.139.892-.139.015.33.124.563zm.015-2.573q0 .153-.03.811-.46-.16-.57-.16-.117 0-.263.022.27-.205.68-.454-.329.037-.848.256l.03-.292q.818-.176 1.001-.183zm1.236-1.477q.087.38.175.38.19 0 .27-.19.14-.314.14-.519 0-.344-.183-.526-.3-.234-.556-.234-.278 0-.387.497-.117.263-.25.548-.101.117-.196.117-.125 0-.278-.285-.227-.314-.475-.314-.125 0-.22.087-.482-.636-1.294-1.052-.117-.249-.336-.249-.439 0-.936.512-.446.497-.79 2.062-.153.197-.153.329 0 .204.248.467.27.286.44.286.13 0 .32-.022.725-.03 1.69-.14l-.037.44q-.387.168-.724.233-.3.066-.3.22 0 .256.49.35.103 0 .512-.124l-.036.3q-.293.102-.615.19-.285.08-.285.22 0 .226.417.263.095 0 .446-.051 0 .212.066.336-.622.073-.965.146-.293.088-.293.256 0 .22.212.365.234.169.52.169.116 0 .35-.198 1.112-.307 1.82-.358.242.08.3.08.103 0 .103-.08 0-.044-.03-.117.293 0 .293-.124 0-.103-.183-.263 0-.395.11-1.221.095-.673.102-1.207 0-.292-.117-.57-.197-.307-.424-.307-.204 0-.307.292-.16-.058-.555-.058.219-.22.519-.388.102.015.16.015.118 0 .388-.314.373-.27.702-.41z" aria-label="" font-size="77.476" font-family="EPSON " letter-spacing="0" word-spacing="0" fill="red" stroke-width="2.738"/><g clip-path="url(#ad)" transform="matrix(-.19884 0 0 .19884 224.744 -2.432)" stroke-width="1.774"><path d="M626.046 255.379q.376-.188 1.472-.282.94-.062 1.41-.532l-.157-.814q-.533-.188-.564-.627v-.814l-.313-.908.156-.438 1.222.22q.313-.095 1.158-.126.846 0 1.378-.564.063-.156.063-.313 0-.407-.72-1.158-.032 0-1.128-.345-.626-.188-1.033-.595l-1.19-.47-.157-2.191q.407-.094.877-.094 1.065 0 1.91.281 2.662-.313 3.946-1.283v-.877l-1.723-.22q-.219-.03-.97.283-.72.313-1.159.313-.188 0-.376-.063-.313.125-.595.125-1.315 0-3.882-.595-.094-.03-1.597-.595-1.503-.563-1.628-.626-.533-.282-.752-.689l-1.19.345q-.094.344-.47.563-.344.22-.344.439 0 .031.031.125l.533-.031q.939.438 2.724.97 1.941.595 2.755.94l-.094.5.22 1.316-2.85.751-.877.846q2.224.407 3.727 1.127 0 .313.093 1.033.094.752.094 1.096l-.156 2.16q-.783.345-1.253 1.003zm-10.301-1.002q.939-.376 1.878-.72.971-.47 1.159-1.535-.814-.156-.94-.97v-1.566q0-.156-.062-.438-.063-.282-.063-.439 0-.438.407-.72.094 0 .407.032.22.03.376.03.69 0 1.033-.625l-.156-.72q-.72-.408-1.44-.783-1.002-.533-.971-1.096.062-.846.062-.658l-.281-1.284.125-.783q1.221-.438 2.442-.908 1.253-.688 1.315-2.066l-.626-.783q-.407-.031-1.096.094-.031 0-.72.532-.658.564-.72.658-.125.25-.501.72l-.157-.407.032-1.221-.22-1.315.126-.533-.126-.657.188-1.065-.125-.657.188-1.19q0-.126-.063-.376-.062-.22-.062-.345l.125-.72-.188-.689.282-.751-.564-1.284-.689.031q-.47.47-.689 1.316-.313 1.158-.438 1.44l.407 5.699-.062 1.096q-.69-.094-1.347-1.034-.47-.72-.94-1.471-.75-.97-2.41-1.879-2.067-1.065-2.63-1.566l-.439.126-1.472-.157-.626.188q1.347 1.033 3.977 3.225 1.315 1.127 2.943 3.601 1.66 2.505 2.098 4.133-2.067-.375-2.724-1.44-.564 0-1.221.595-.877.751-1.065.845l-.564 1.378q.22.094.47.094.564 0 1.315-.501 1.034.22 2.411.97 1.754 1.003 2.286 1.222l.282 3.851-.125 1.503q-.658.22-1.347 1.378l-.031.157q.72-.032.532-.032.564 0 1.034.47zm10.301-11.93l2.161-.814q.125-.439.125-.532 0-.251-.219-.658-.188-.376-.188-.595 0-.188.157-.438l.626.03q2.442.126 2.943-.75l-.03-.595q-.408-.345-1.441-.564-1.19-.22-1.566-.407-.72-.376-.72-1.253 0-.188.063-.563.093-.376.093-.564l-.156-.97.47-.188 1.315.25q.219.47 1.002.47l1.033-.25q.94-.22 1.941-.44 1.096-.312 1.754-.876l.188-.814-.345-.814-.595-.188q-.657.094-2.661.658-1.66.47-2.63.47-1.347 0-3.476-.345-2.38-.345-3.35-.783-.971-.407-1.504-1.221-.47.188-.845.814-.344.595-.595.657v.69l.438-.157q.971.376 2.662.845 1.941.501 2.693.752v2.661q-.282.094-1.816.157-1.127.062-1.722.657 2.692.846 4.008 1.566.062.908.062 1.816 0 .22-.031.407l-1.096.846q.094.156.25.47l-.03.093z" aria-label="" font-weight="400" font-size="32.064" font-family="HakusyuKaisyo" stroke-width="1.625" stroke-linejoin="round" stroke-miterlimit="10"/></g></svg>