<svg xmlns="http://www.w3.org/2000/svg" xmlns:xlink="http://www.w3.org/1999/xlink" width="52.175" height="60" viewBox="0 0 13.805 15.875"><defs><filter id="b" color-interpolation-filters="sRGB"><feFlood flood-opacity=".498" flood-color="#000" result="flood"/><feComposite in="flood" in2="SourceGraphic" operator="in" result="composite1"/><feGaussianBlur in="composite1" stdDeviation="1" result="blur"/><feOffset dx="5" dy="3" result="offset"/><feComposite in="SourceGraphic" in2="offset" result="composite2"/></filter><filter id="c" color-interpolation-filters="sRGB"><feFlood flood-opacity=".498" flood-color="#000" result="flood"/><feComposite in="flood" in2="SourceGraphic" operator="in" result="composite1"/><feGaussianBlur in="composite1" stdDeviation="1" result="blur"/><feOffset dx="5" dy="3" result="offset"/><feComposite in="SourceGraphic" in2="offset" result="composite2"/></filter><linearGradient id="a"><stop offset="0" stop-color="#e5c37b"/><stop offset=".042" stop-color="#e4bd76"/><stop offset=".093" stop-color="#e7c781"/><stop offset=".165" stop-color="#e2b86e"/><stop offset=".305" stop-color="#e6c686"/><stop offset=".539" stop-color="#dfb96f"/><stop offset=".586" stop-color="#ddbb73"/><stop offset=".84" stop-color="#e7ce8f"/><stop offset=".924" stop-color="#e1bd73"/><stop offset=".962" stop-color="#e0bf78"/><stop offset="1" stop-color="#e7c685"/></linearGradient><filter id="d" color-interpolation-filters="sRGB"><feFlood flood-opacity=".498" flood-color="#000" result="flood"/><feComposite in="flood" in2="SourceGraphic" operator="in" result="composite1"/><feGaussianBlur in="composite1" stdDeviation="1" result="blur"/><feOffset dx="5" dy="3" result="offset"/><feComposite in="SourceGraphic" in2="offset" result="composite2"/></filter><filter id="e" color-interpolation-filters="sRGB"><feFlood flood-opacity=".498" flood-color="#000" result="flood"/><feComposite in="flood" in2="SourceGraphic" operator="in" result="composite1"/><feGaussianBlur in="composite1" stdDeviation="1" result="blur"/><feOffset dx="5" dy="3" result="offset"/><feComposite in="SourceGraphic" in2="offset" result="composite2"/></filter><filter id="f" color-interpolation-filters="sRGB"><feFlood flood-opacity=".498" flood-color="#000" result="flood"/><feComposite in="flood" in2="SourceGraphic" operator="in" result="composite1"/><feGaussianBlur in="composite1" stdDeviation="1" result="blur"/><feOffset dx="5" dy="3" result="offset"/><feComposite in="SourceGraphic" in2="offset" result="composite2"/></filter><filter id="g" color-interpolation-filters="sRGB"><feFlood flood-opacity=".498" flood-color="#000" result="flood"/><feComposite in="flood" in2="SourceGraphic" operator="in" result="composite1"/><feGaussianBlur in="composite1" stdDeviation="1" result="blur"/><feOffset dx="5" dy="3" result="offset"/><feComposite in="SourceGraphic" in2="offset" result="composite2"/></filter><filter id="h" color-interpolation-filters="sRGB"><feFlood flood-opacity=".498" flood-color="#000" result="flood"/><feComposite in="flood" in2="SourceGraphic" operator="in" result="composite1"/><feGaussianBlur in="composite1" stdDeviation="1" result="blur"/><feOffset dx="5" dy="3" result="offset"/><feComposite in="SourceGraphic" in2="offset" result="composite2"/></filter><linearGradient xlink:href="#a" id="i" x1="104.094" y1="54.226" x2="152.758" y2="54.226" gradientUnits="userSpaceOnUse"/><clipPath clipPathUnits="userSpaceOnUse" id="j"><path d="M0 0h936.12v612.12H0z" clip-rule="evenodd"/></clipPath><clipPath clipPathUnits="userSpaceOnUse" id="k"><path d="M0 0h936.12v612.12H0z" clip-rule="evenodd"/></clipPath><clipPath clipPathUnits="userSpaceOnUse" id="l"><path d="M0 0h936.12v612.12H0z" clip-rule="evenodd"/></clipPath><clipPath clipPathUnits="userSpaceOnUse" id="m"><path d="M0 0h936.12v612.12H0z" clip-rule="evenodd"/></clipPath><clipPath clipPathUnits="userSpaceOnUse" id="n"><path d="M0 0h936.12v612.12H0z" clip-rule="evenodd"/></clipPath><clipPath clipPathUnits="userSpaceOnUse" id="o"><path d="M0 0h936.12v612.12H0z" clip-rule="evenodd"/></clipPath></defs><g transform="matrix(.1852 0 0 .1852 -57.606 -11.972)" opacity=".99" stroke-width=".621" filter="url(#b)"><path d="M509.002 256.066v-3.78l17.834 5.934 17.826-5.904v3.78L526.836 262z" fill="#c3983c" fill-opacity=".992"/><path d="M526.836 260.22l17.826-5.904L554 194.079h-54.33l9.332 60.208z" fill="#feec99"/></g><g transform="matrix(.1852 0 0 .1852 -57.42 -11.82)" opacity=".99" stroke-width=".621" filter="url(#c)"><path d="M590.056 254.357v-3.78l17.368 5.643 17.344-5.635v3.78L607.424 260z" fill="#c3983c" fill-opacity=".992"/><path d="M624.768 252.585L634 194.441h-53.151l9.207 58.137 17.368 5.642z" fill="#feec99"/></g><g transform="matrix(.1852 0 0 .1852 -75.788 -34.188)" opacity=".99" stroke-width=".621" filter="url(#d)"><path d="M427.21 256.06v-3.78l19.26 5.94 19.26-5.911v3.78L446.47 262z" fill="#c3983c" fill-opacity=".992"/><path d="M446.47 260.22l19.26-5.911L476 192.896h-59.055l10.266 61.384z" fill="#feec99"/></g><g transform="matrix(.1852 0 0 .1852 -57.42 -12.562)" opacity=".99" stroke-width=".621" filter="url(#e)"><path d="M589.491 348.833v-3.78l17.934 5.167 17.533-5.566v3.78L607.425 354z" fill="#c3983c" fill-opacity=".992"/><path d="M624.958 346.654L634 288.441h-53.151l8.642 58.613 17.934 5.166z" fill="#feec99"/></g><g transform="matrix(.1852 0 0 .1852 -57.606 -11.863)" opacity=".99" stroke-width=".621" filter="url(#f)"><path d="M427.21 346.06v-3.78l19.262 5.94 19.257-5.911v3.78L446.472 352z" fill="#c3983c" fill-opacity=".992"/><g stroke-width=".63"><path d="M446.472 350.22l19.257-5.911L476 282.896h-59.055l10.266 61.384z" fill="#feec99"/></g></g><g transform="matrix(.1852 0 0 .1852 -57.42 -11.644)" opacity=".99" stroke-width=".621" filter="url(#g)"><path d="M345.268 345.92v-3.78l20.025 6.08 20.4-6.08v3.779l-20.4 6.081z" fill="#c3983c" fill-opacity=".992"/><path d="M365.293 350.22l20.4-6.08L396 280.533h-61.417l10.685 63.606z" fill="#feec99"/></g><g transform="matrix(.1852 0 0 .1852 -57.606 -11.924)" opacity=".99" stroke-width=".621" filter="url(#h)"><path d="M507.891 344.726v-3.78l18.944 7.012 18.943-7.01v3.779l-18.943 7.01z" fill="#c3983c" fill-opacity=".992"/><path d="M526.835 349.958l18.943-7.01L554 283.815h-54.33l8.221 59.13z" fill="#feec99"/></g><path d="M40.625 25.104l-.191 1.213-.407.114-.395-.108-.205-1.219z" fill-rule="evenodd"/><path d="M40.625 25.104l-.191 1.213-.407.114-.395-.108-.205-1.219z" fill="none"/><path style="line-height:normal;font-variant-ligatures:normal;font-variant-position:normal;font-variant-caps:normal;font-variant-numeric:normal;font-variant-alternates:normal;font-variant-east-asian:normal;font-feature-settings:normal;font-variation-settings:normal;text-indent:0;text-align:start;text-decoration-line:none;text-decoration-style:solid;text-decoration-color:#000;text-transform:none;text-orientation:mixed;white-space:normal;shape-padding:0;shape-margin:0;inline-size:0;isolation:auto;mix-blend-mode:normal;solid-color:#000;solid-opacity:1" d="M40.351 29.14v-2.135h-.648v2.135z" color="#000" font-weight="400" font-family="sans-serif" overflow="visible" enable-background="accumulate"/><path d="M40.684 24.917l-.225 1.42-.477.135-.461-.128-.24-1.427z" fill-rule="evenodd"/><path d="M40.684 24.917l-.225 1.42-.477.135-.461-.128-.24-1.427z" fill="none"/><path d="M55.449 26.608l-.136.862-.289.081-.28-.078-.146-.865z" fill-rule="evenodd"/><path d="M55.449 26.608l-.136.862-.289.081-.28-.078-.146-.865z" fill="none"/><path d="M55.395 28.794a.377.377 0 1 1-.754 0 .377.377 0 0 1 .754 0z" fill-rule="evenodd"/><path d="M55.395 28.794a.377.377 0 1 1-.754 0 .377.377 0 0 1 .754 0z" fill="none"/><path d="M55.726 26.303l-.224 1.42-.478.134-.462-.128-.24-1.426z" fill-rule="evenodd"/><path d="M55.726 26.303l-.224 1.42-.478.134-.462-.128-.24-1.426z" fill="none"/><g stroke-width="1.429"><path style="line-height:normal;font-variant-ligatures:normal;font-variant-position:normal;font-variant-caps:normal;font-variant-numeric:normal;font-variant-alternates:normal;font-variant-east-asian:normal;font-feature-settings:normal;font-variation-settings:normal;text-indent:0;text-align:start;text-decoration-line:none;text-decoration-style:solid;text-decoration-color:#000;text-transform:none;text-orientation:mixed;white-space:normal;shape-padding:0;shape-margin:0;inline-size:0;isolation:auto;mix-blend-mode:normal;solid-color:#000;solid-opacity:1" d="M6.925 5.769a.608.608 0 0 0 .606-.605.608.608 0 0 0-.606-.604.607.607 0 0 0-.604.604c0 .33.272.605.604.605zm0-.37a.23.23 0 0 1-.233-.235.23.23 0 0 1 .233-.234.23.23 0 0 1 .235.234.233.233 0 0 1-.235.235z" color="#000" font-weight="400" font-family="sans-serif" overflow="visible" enable-background="accumulate"/><path d="M5.405 7.072a.42.42 0 1 1-.838 0 .42.42 0 0 1 .838 0z" fill-rule="evenodd"/><path d="M5.405 7.072a.42.42 0 1 1-.838 0 .42.42 0 0 1 .838 0z" fill="none"/><path d="M9.263 7.072a.42.42 0 1 1-.838 0 .42.42 0 0 1 .838 0z" fill-rule="evenodd"/><path d="M9.263 7.072a.42.42 0 1 1-.838 0 .42.42 0 0 1 .838 0z" fill="none"/><path style="line-height:normal;font-variant-ligatures:normal;font-variant-position:normal;font-variant-caps:normal;font-variant-numeric:normal;font-variant-alternates:normal;font-variant-east-asian:normal;font-feature-settings:normal;font-variation-settings:normal;text-indent:0;text-align:start;text-decoration-line:none;text-decoration-style:solid;text-decoration-color:#000;text-transform:none;text-orientation:mixed;white-space:normal;shape-padding:0;shape-margin:0;inline-size:0;isolation:auto;mix-blend-mode:normal;solid-color:#000;solid-opacity:1" d="M6.925 7.676a.608.608 0 0 0 .606-.604.608.608 0 0 0-.606-.605.608.608 0 0 0-.604.605c0 .332.273.604.604.604zm0-.37a.23.23 0 0 1-.233-.234.23.23 0 0 1 .233-.235c.132 0 .235.103.235.235a.23.23 0 0 1-.235.234z" color="#000" font-weight="400" font-family="sans-serif" overflow="visible" enable-background="accumulate"/><path d="M7.404 2.662l-.15.958-.323.09-.311-.086-.162-.962z" fill-rule="evenodd"/><path d="M7.404 2.662l-.15.958-.323.09-.311-.086-.162-.962z" fill="none"/><path d="M7.636 2.473l-.224 1.42-.478.135-.46-.128-.242-1.427z" fill-rule="evenodd"/><path d="M7.636 2.473l-.224 1.42-.478.135-.46-.128-.242-1.427z" fill="none"/></g><path d="M10.593 42.99l-.15.953-.321.09-.309-.086-.161-.956z" fill="red" fill-rule="evenodd"/><path d="M10.593 42.99l-.15.953-.321.09-.309-.086-.161-.956z" fill="none"/><path d="M8.605 43.512a.417.417 0 1 1-.834 0 .417.417 0 0 1 .834 0z" fill="red" fill-rule="evenodd"/><path d="M8.605 43.512a.417.417 0 1 1-.834 0 .417.417 0 0 1 .834 0z" fill="none"/><path d="M12.439 43.512a.416.416 0 1 1-.833 0 .417.417 0 0 1 .833 0z" fill="red" fill-rule="evenodd"/><path d="M12.439 43.512a.416.416 0 1 1-.833 0 .417.417 0 0 1 .833 0z" fill="none"/><path d="M8.605 45.409a.417.417 0 1 1-.834 0 .417.417 0 0 1 .834 0z" fill="red" fill-rule="evenodd"/><path d="M8.605 45.409a.417.417 0 1 1-.834 0 .417.417 0 0 1 .834 0z" fill="none"/><path d="M12.439 45.409a.416.416 0 1 1-.833 0 .417.417 0 0 1 .833 0z" fill="red" fill-rule="evenodd"/><path d="M12.439 45.409a.416.416 0 1 1-.833 0 .417.417 0 0 1 .833 0z" fill="none"/><path d="M10.533 45.409a.417.417 0 1 1-.834 0 .417.417 0 0 1 .834 0z" fill="red" fill-rule="evenodd"/><path d="M10.533 45.409a.417.417 0 1 1-.834 0 .417.417 0 0 1 .834 0z" fill="none"/><path d="M10.533 41.546a.417.417 0 1 1-.834 0 .417.417 0 0 1 .834 0z" fill="red" fill-rule="evenodd"/><path d="M10.533 41.546a.417.417 0 1 1-.834 0 .417.417 0 0 1 .834 0z" fill="none"/><path d="M10.815 42.715l-.223 1.42-.48.134-.46-.128-.24-1.426z" fill="red" fill-rule="evenodd"/><path d="M10.815 42.715l-.223 1.42-.48.134-.46-.128-.24-1.426z" fill="none"/><path d="M25.435 42.712l-.15.953-.322.09-.309-.086-.16-.957z" fill="red" fill-rule="evenodd"/><path d="M25.435 42.712l-.15.953-.322.09-.309-.086-.16-.957z" fill="none"/><path d="M23.446 43.234a.417.417 0 1 1-.834 0 .417.417 0 0 1 .834 0z" fill="red" fill-rule="evenodd"/><path d="M23.446 43.234a.417.417 0 1 1-.834 0 .417.417 0 0 1 .834 0z" fill="none"/><path d="M27.282 43.234a.417.417 0 1 1-.835 0 .417.417 0 0 1 .835 0z" fill="red" fill-rule="evenodd"/><path d="M27.282 43.234a.417.417 0 1 1-.835 0 .417.417 0 0 1 .835 0z" fill="none"/><path d="M23.446 45.13a.417.417 0 1 1-.834 0 .417.417 0 0 1 .834 0z" fill="red" fill-rule="evenodd"/><path d="M23.446 45.13a.417.417 0 1 1-.834 0 .417.417 0 0 1 .834 0z" fill="none"/><path d="M27.282 45.13a.417.417 0 1 1-.835 0 .417.417 0 0 1 .835 0z" fill="red" fill-rule="evenodd"/><path d="M27.282 45.13a.417.417 0 1 1-.835 0 .417.417 0 0 1 .835 0z" fill="none"/><path d="M25.375 45.13a.417.417 0 1 1-.835 0 .417.417 0 0 1 .835 0z" fill="red" fill-rule="evenodd"/><path d="M25.375 45.13a.417.417 0 1 1-.835 0 .417.417 0 0 1 .835 0z" fill="none"/><path d="M25.375 41.267a.417.417 0 1 1-.835 0 .417.417 0 0 1 .835 0z" fill="red" fill-rule="evenodd"/><path d="M25.375 41.267a.417.417 0 1 1-.835 0 .417.417 0 0 1 .835 0z" fill="none"/><path d="M25.649 42.422l-.225 1.42-.477.134-.461-.128-.241-1.426z" fill="red" fill-rule="evenodd"/><path d="M25.649 42.422l-.225 1.42-.477.134-.461-.128-.241-1.426z" fill="none"/><path d="M40.47 43.19l-.15.951-.322.09-.309-.085-.16-.957z" fill="red" fill-rule="evenodd"/><path d="M40.47 43.19l-.15.951-.322.09-.309-.085-.16-.957z" fill="none"/><path d="M38.481 43.71a.417.417 0 1 1-.834 0 .417.417 0 0 1 .834 0z" fill="red" fill-rule="evenodd"/><path d="M38.481 43.71a.417.417 0 1 1-.834 0 .417.417 0 0 1 .834 0z" fill="none"/><path d="M42.317 43.71a.417.417 0 1 1-.835 0 .417.417 0 0 1 .835 0z" fill="red" fill-rule="evenodd"/><path d="M42.317 43.71a.417.417 0 1 1-.835 0 .417.417 0 0 1 .835 0z" fill="none"/><path d="M38.481 45.607a.417.417 0 1 1-.834 0 .417.417 0 0 1 .834 0z" fill="red" fill-rule="evenodd"/><path d="M38.481 45.607a.417.417 0 1 1-.834 0 .417.417 0 0 1 .834 0z" fill="none"/><path d="M42.317 45.607a.417.417 0 1 1-.835 0 .417.417 0 0 1 .835 0z" fill="red" fill-rule="evenodd"/><path d="M42.317 45.607a.417.417 0 1 1-.835 0 .417.417 0 0 1 .835 0z" fill="none"/><path d="M40.41 45.607a.417.417 0 1 1-.835 0 .417.417 0 0 1 .834 0z" fill="red" fill-rule="evenodd"/><path d="M40.41 45.607a.417.417 0 1 1-.835 0 .417.417 0 0 1 .834 0z" fill="none"/><path d="M40.41 41.744a.417.417 0 1 1-.835 0 .417.417 0 0 1 .834 0z" fill="red" fill-rule="evenodd"/><path d="M40.41 41.744a.417.417 0 1 1-.835 0 .417.417 0 0 1 .834 0z" fill="none"/><path d="M40.663 42.899l-.225 1.42-.477.134-.461-.128-.24-1.426z" fill="red" fill-rule="evenodd"/><path d="M40.663 42.899l-.225 1.42-.477.134-.461-.128-.24-1.426z" fill="none"/><path d="M55.546 43.557l-.15.952-.322.09-.308-.086-.162-.956z" fill="red" fill-rule="evenodd"/><path d="M55.546 43.557l-.15.952-.322.09-.308-.086-.162-.956z" fill="none"/><path d="M53.557 44.078a.417.417 0 1 1-.834 0 .417.417 0 0 1 .834 0z" fill="red" fill-rule="evenodd"/><path d="M53.557 44.078a.417.417 0 1 1-.834 0 .417.417 0 0 1 .834 0z" fill="none"/><path d="M57.393 44.078a.417.417 0 1 1-.835 0 .417.417 0 0 1 .835 0z" fill="red" fill-rule="evenodd"/><path d="M57.393 44.078a.417.417 0 1 1-.835 0 .417.417 0 0 1 .835 0z" fill="none"/><path d="M53.557 45.975a.417.417 0 1 1-.834 0 .417.417 0 0 1 .834 0z" fill="red" fill-rule="evenodd"/><path d="M53.557 45.975a.417.417 0 1 1-.834 0 .417.417 0 0 1 .834 0z" fill="none"/><path d="M57.393 45.975a.417.417 0 1 1-.835 0 .417.417 0 0 1 .835 0z" fill="red" fill-rule="evenodd"/><path d="M57.393 45.975a.417.417 0 1 1-.835 0 .417.417 0 0 1 .835 0z" fill="none"/><path d="M55.486 45.975a.417.417 0 1 1-.835 0 .417.417 0 0 1 .835 0z" fill="red" fill-rule="evenodd"/><path d="M55.486 45.975a.417.417 0 1 1-.835 0 .417.417 0 0 1 .835 0z" fill="none"/><path d="M55.486 42.112a.417.417 0 1 1-.835 0 .417.417 0 0 1 .835 0z" fill="red" fill-rule="evenodd"/><path d="M55.486 42.112a.417.417 0 1 1-.835 0 .417.417 0 0 1 .835 0z" fill="none"/><path d="M55.74 43.266l-.224 1.42-.478.135-.462-.129-.24-1.426z" fill="red" fill-rule="evenodd"/><path d="M55.74 43.266l-.224 1.42-.478.135-.462-.129-.24-1.426z" fill="none"/><path d="M11.383 46.896l-.345.195-.12-.113zm0 .878q0 .097-.646.353l.015-.293q.09-.15.248-.278.383.113.383.218zm2.522.623q0-.068-.172-.068-.406 0-1.096.428-.263.188-.834.788-.292-.368-.75-.368-.128 0-.406.046.038-.196.06-.42 1.081-.451 1.081-.699 0-.36-.525-.788.398-.3.713-.428.143-.03.353-.045.21-.03.21-.203 0-.195-.225-.315-.18-.098-.353-.098-.188 0-.998.196-.586.112-1.014.112-.78 0-1.659-.067-.39 0-.39.383 0 .21.158.352.42.3.66.3.195 0 .503-.337.653-.098.976-.128l-.007.69q-.308.309-.646.594-.195.097-.195.24 0 .293.728.473-.053.203-.263.398-.6.15-.6.413 0 .24.187.352.293.143.496.143.135 0 .375-.278.758-.33 1.359-.345-.608.72-1.276 1.576-.849-.675-1.66-1.576-.517-.548-.75-.623-.443-.128-1.043-.128-.48 0-.48.203 0 .368.337.743.165.188.623.338.556.15.736.233.735.503 1.914 1.223-.368.443-.368.57 0 .143.24.353.21.173.383.173.465-.022.465-.15 0-.135-.165-.27 1.682-2.8 3.19-3.836.128-.045.128-.15z" aria-label="全" font-size="72.314" font-family="EPSON 太行書体Ｂ" letter-spacing="0" word-spacing="0" fill="red" stroke-width="2.489"/><g clip-path="url(#j)" transform="matrix(-.19884 0 0 .19884 183.803 -15.654)" stroke-width="1.774"><path d="M723.744 256.58l1.127-.22.594.22q.72-.126 1.252-.658t.532-1.251q0-1.002-.751-1.283-.626-.125-1.815-.407-.595-.188-1.877-.845-1.502-.75-1.69-1.126l1.596-.595q.219-.532 1.032-1.439 2.973.939 6.414.939 1.096 0 1.846-.72.783-.72.783-1.815l-.094-.438-1.346-.375-1.877.375q-1.22.22-1.94.22-.813 0-1.44-.22 3.411-3.66 7.229-5.413 1.314-.625 2.66-1.22 1.501-.688 2.502-1.47l.376-.72q-.5-.5-1.001-.72l-.689.157-1.283-.282-1.72.156-.626-.281q-2.16.25-3.88 2.002v-.469q-.25-.25-.5-.532-.251-.25-.251-.657 0-.219.125-.5 0-.752.031-2.097.032-1.47.032-2.065 0-3.473-1.659-4.13l-.563.125-.5.97q-.22.094-2.128.438-.188-.031-2.597-.344-1.627-.22-2.597-.563-.751-.438-2.253-1.252-.688.563-1.126 1.47.563 3.067.563 7.447 0 1.878-.845 2.16-.75-.47-.75-1.033-.72-.845-1.409-1.721-.939-1.158-1.596-1.596-1.345-.845-2.002-.845l-1.47.032q2.064 1.47 4.974 5.194 2.535 3.254 4.036 6.038-2.816 0-4.13-1.595-.156-.032-.344-.032-1.032 0-1.44 1.064-.187.438-.406 2.003.876-.125 2.065-.438 2.535.594 3.786.938 2.691.72 3.661 1.252-.188 1.126-1.126 2.44l-.438-.156-.501.156q-.782-.219-.908-.219-.125 0-.312.094l-2.629.125q.501.282 4.037 2.16 2.378 1.314 3.848 2.534l-.47.47v.343l.69-.062 1.188.281zm-.47-9.45q-.375-.094-.468-.813-.063-.564-.094-1.096l.187-.469-.281-1.533.219-.563q-.25-.094-.313-.5-.063-.376-.094-.69l.188-.844 3.473.282q1.377.125 2.41-.47-1.784 2.19-5.226 6.696zm-7.602-7.54l1.501-.595q.564.313 1.847.563 1.282.25 1.814.5-.313 1.065-.344 2.848-.031 1.783-.219 2.534-.939-.125-1.564-.876-.094-.125-1.002-1.595-.062-.157-1.157-1.627-.72-.908-.876-1.753zm1.877-1.91l.156-2.721q1.721.125 3.286.532 1.001.344 2.972 1.032h.908q.406 0 .782.188.125 1.502.125 1.658 0 .939-.657.939.375 0-1.909-.282-3.754-.532-5.663-1.345zm1.69-4.098l-.376.094q-1.001 0-1.22-.344v-.564q0 .157.125-.532-.063-.688.063-2.002.907.125 3.848.907 2.347.595 3.88.657v3.004l-.376.157q-2.628-.438-3.003-.532-2.003-.407-2.941-.845z" aria-label="香" font-weight="400" font-size="32.04" font-family="HakusyuKaisyo"/></g><g clip-path="url(#k)" transform="matrix(-.19884 0 0 .19884 148.815 24.763)" stroke-width="1.774"><path d="M634.872 125.026q0-.281-.188-.563-.625-.407-1.439-.626-.782-.219-1.533-.406-.532-.22-1.565-.626-1.22-.47-3.41-1.033l-.532.063 1.94 1.815q1.22 1.189 1.345 2.159-.406.406-2.597.406-4.036 0-7.165-1.658-2.753-1.44-5.663-4.725l-1.44-1.69q-.876-1-1.564-1.501-.907.626-.907 2.44 0 .94 1.376 2.785.126.188 3.098 3.567 2.378 2.691 3.004 3.442 1.783 2.19 2.597 3.723-.47.939-1.001 1.22.438.22.844.439.595.281.845.281 1.502 0 2.128-.938 0-1.471-1.252-3.098-.406-.563-2.503-2.785-1.564-1.658-2.002-2.722 3.003 1.909 5.319 2.628 2.472.783 5.85.783 1.159 0 2.003-.126 1.033-.156 2.66-1.22 1.752-1.157 1.752-2.034zm-5.538-16.677q0-1.126-1.345-1.126-.188 0-.439.031-2.19.407-4.005.407-2.66 0-6.195-1.596-1.251.376-1.314 2.253l2.315 1.846q-.093.094-1.97 1.064-1.534.782-1.534 1.408 0 .845 1.19 1.909.97.876 1.97 1.345 2.378 1.126 2.597 1.252 1.283.876 1.283 2.378 0 .312-.062.625-1.002-.5-2.41-.5-.782 0-1.533.187l-.47.376q1.002.375 2.066 1.564 1.314 1.44 1.815 1.784.313.219.938.219 2.284 0 3.473-.782v-.25q.032-.626-.344-1.127-.344-.47-.72-.939-.437-.813-.5-2.534.125-.188 1.158-.438 1.063-.22 1.439-.657.031-.157.031-.313 0-1.001-2.284-3.38-2.66-2.753-3.004-3.441 1.784.532 4.13.532 3.724 0 3.724-2.097zm-7.885 7.385q-3.63-.658-4.63-2.785.187-.595 2.283-.72 1.44.532 2.347 3.505z" aria-label="全" font-weight="400" font-size="32.04" font-family="HakusyuSousyo_kk" fill="red"/></g><g clip-path="url(#l)" transform="matrix(-.19884 0 0 .19884 183.713 25.766)" stroke-width="1.774"><path d="M729.677 120.538c-.334-.438-1.085-.918-2.253-1.44-1.147-.5-1.783-.834-1.909-1 .167-1.356.209-2.378.126-3.067.646-.563 1.032-1.147 1.157-1.752-.187-.667-.709-1.512-1.564-2.534-.855-1.002-1.387-1.794-1.596-2.378.376-.376 1.335-.751 2.879-1.127 1.376-.334 2.315-.918 2.816-1.752-.021-.334-.334-.605-.939-.813-.605-.23-2.19-.585-4.756-1.064-2.566-.5-4.099-.751-4.6-.751-.896 0-1.46.448-1.69 1.345.105.5.439 1.074 1.002 1.721.647.71 1.043 1.262 1.19 1.658-.21.167-.856.272-1.94.313-.981.021-1.471.48-1.471 1.377 0 .584.323 1.241.97 1.971.667.751 1.637 1.481 2.91 2.19 1.084.585 2.169 1.158 3.254 1.721.125.605.187 1.158.187 1.659 0 .208-.01.386-.031.532-.563-.167-1.898-.783-4.005-1.846-1.606-.814-2.993-1.21-4.161-1.19h-.22c-.375.188-.563.46-.563.814 0 .668.929 1.742 2.785 3.223v-.532l-.219-.688c.814.208 1.93.709 3.348 1.501 1.335.751 2.357 1.43 3.066 2.034.105.271.157.532.157.782 0 .23-.052.439-.157.626-1.543-1.001-2.962-1.658-4.255-1.971l4.068 4.005c-.835.125-1.586.5-2.253 1.126-.668.647-1.001 1.377-1.001 2.19 0 .355.187.991.563 1.91l.813 1.94c.5-.147 1.074-.418 1.721-.814.793-.48 1.19-.908 1.19-1.283 0-.146-.21-.47-.627-.97-.417-.5-.625-.907-.625-1.22 0-.105.01-.199.03-.282.189-.042.408-.063.658-.063.25 0 .636.021 1.158.063.521.042.917.063 1.189.063 1.585 0 2.346-.49 2.284-1.471v-.219c-.355-.25-1.054-.647-2.097-1.189-.897-.459-1.564-.887-2.002-1.283.542-.292 1.345-.553 2.41-.782a52.692 52.692 0 0 1 1.72-.157c.563-.104.99-.48 1.283-1.126zm-7.009-7.478v.063c-2.107-.584-3.63-1.398-4.568-2.441-.334-.375-.5-.688-.5-.939 0-.146.083-.25.25-.313a1.94 1.94 0 0 1 .469-.062c1.043 0 2.034.365 2.972 1.095.96.75 1.419 1.617 1.377 2.597zm.5-6.57c0 .291-.083.594-.25.907-.688-.751-1.251-1.325-1.69-1.721a.693.693 0 0 1 .22-.032c.396 0 .96.188 1.69.564.02.083.03.177.03.281z" aria-label="金" font-weight="400" font-size="32.04" font-family="HakusyuSousyo_kk" fill="red"/></g><g clip-path="url(#m)" transform="matrix(-.19884 0 0 .19884 218.905 -14.41)" stroke-width="1.774"><path d="M824.265 249.16q.383 0 1.311-.356.928-.328 1.174-.573.027-.219.027-.41 0-.464-.19-.655l-.055-2.485q.792 0 3.222 1.038.273-.082 1.365-.082.41 0 .737-.273.328-.246.3-.628v-.055q-.436-.437-1.092-.519-.628-.082-1.228-.136-2.895-.355-3.25-.519-.273-.273-.273-1.474 0-.246-.355-1.284l.574-.027 5.515.874q.656.109 1.72-.328.929-.382 1.53-.928l.054-1.065q-.655-.437-1.147-.437-.355 0-1.638.355-1.256.355-1.939.355-3.959 0-5.843-.929.519-.109 1.038-.245.519-.11.628-.71-.3-1.147-.3-1.993l-.083-.983q.028.163.082-.492l.055-.983q.055-.573.328-.874l2.266 2.24-.382.545q.109.601 1.092.601.218-.191.819-.218l.874-.055-2.157 2.403q3.85-.628 5.488-2.321v-.11q.027-.354-.3-.682-.41-.382-.465-.546h-.136q-.246-.027-.737.219-.492.273-.683.273l-.273-.656q-.765-.19-1.638-1.01-.656-.683-1.338-1.365-.464-.3-1.365-1.038-.465-.519-1.393-1.447-.41-.382-1.529-1.174-.737-.628-2.239-1.72-.983-.601-1.666-.929-.546-.163-1.583-.6-.601-.328-1.174-.656-.792-.382-1.284-.382-.19 0-.6.11l-.765-.192-.519.137q4.232 1.966 9.53 6.58-.41.901-1.038 1.475l-1.201 1.201q.873.246 2.239.683.027.245.027.464 0 .218-.082.655-.055.464-.055.71 0 1.283-.19 1.693-.165.437-1.148 1.174-.163 0-2.512-.437-1.665-.328-2.43-.573-1.583-.464-2.184-1.147l-.792-.3q-.737.3-1.31 1.037-.547.737-.574 1.502l.847-.055q.655-.464.819-.464.054 0 5.324 1.365l.546.383q-.382.163-.382.6 0 .137.027.437.055.328.055.464 0 2.813-.874 3.25l.137.082.027.109-.11.19.765.083q.137-.164 1.147-.382.846-.164.983-.82-.11-1.146-.546-3.74 1.42 0 2.648.491l-.436 1.147.163 3.823q-.109.273-.136.983 0 .71-.11.9-.327.465-.9 1.311.054.52 1.146.52zm-5.98-12.807q.301 0 .41-.246.055-.109.273-1.037.219-.901.219-1.038 0-.9-.383-1.665-.436-.847-1.174-1.174-.846.491-.846 1.392 0 .655.764 1.83.765 1.174.738 1.938z" aria-label="歩" font-weight="400" font-size="27.96" font-family="HakusyuKaisyo" stroke-width="1.417" stroke-linejoin="round" stroke-miterlimit="10"/></g><g clip-path="url(#n)" transform="matrix(-.19884 0 0 .19884 218.94 25.86)" stroke-width="1.774"><path d="M817.292 125.451q.6 0 1.638-.437 1.338-.6 2.075-1.91.383-.71.956-2.595.546-1.775 1.12-2.621.764 0 2.785 2.102 1.938 2.021 2.157 2.813l-.41.874q.11 0 .492.081.327.028.518.028.765 0 1.884-1.284 1.12-1.283 1.093-2.075v-.19q-.738-.383-2.076-1.257-1.365-1.229-4.123-3.44-.464-.273-1.31-.792-.328-.191-.82-.792-.436-.491-.928-.71-2.757-2.73-2.757-4.15 0-1.557 3.33-1.557 1.584 0 3.878.601 3.631 1.01 3.795 1.038.792-.3 1.557-.574.846-.355 1.146-1.065 0-.655-.546-1.01-.518-.355-2.239-.9-1.583-.574-2.32-.71-1.393-.274-3.496-.274-2.675 0-4.614.929-2.567 1.174-2.567 3.522 0 1.775 1.366 3.768l2.402 3.331q-.71 1.31-1.283 2.457-.764 1.857-1.556 3.687-1.092 2.348-2.403 2.812.082.3 1.256.3z" aria-label="と" font-weight="400" font-size="27.96" font-family="HakusyuKaisyo" fill="red"/></g><g clip-path="url(#o)" transform="matrix(-.19884 0 0 .19884 130.412 -37.64)" stroke-width="1.774"><path d="M626.046 255.379q.376-.188 1.472-.282.94-.062 1.41-.532l-.157-.814q-.533-.188-.564-.627v-.814l-.313-.908.156-.438 1.222.22q.313-.095 1.158-.126.846 0 1.378-.564.063-.156.063-.313 0-.407-.72-1.158-.032 0-1.128-.345-.626-.188-1.033-.595l-1.19-.47-.157-2.191q.407-.094.877-.094 1.065 0 1.91.281 2.662-.313 3.946-1.283v-.877l-1.723-.22q-.219-.03-.97.283-.72.313-1.159.313-.188 0-.376-.063-.313.125-.595.125-1.315 0-3.882-.595-.094-.03-1.597-.595-1.503-.563-1.628-.626-.533-.282-.752-.689l-1.19.345q-.094.344-.47.563-.344.22-.344.439 0 .031.031.125l.533-.031q.939.438 2.724.97 1.941.595 2.755.94l-.094.5.22 1.316-2.85.751-.877.846q2.224.407 3.727 1.127 0 .313.093 1.033.094.752.094 1.096l-.156 2.16q-.783.345-1.253 1.003zm-10.301-1.002q.939-.376 1.878-.72.971-.47 1.159-1.535-.814-.156-.94-.97v-1.566q0-.156-.062-.438-.063-.282-.063-.439 0-.438.407-.72.094 0 .407.032.22.03.376.03.69 0 1.033-.625l-.156-.72q-.72-.408-1.44-.783-1.002-.533-.971-1.096.062-.846.062-.658l-.281-1.284.125-.783q1.221-.438 2.442-.908 1.253-.688 1.315-2.066l-.626-.783q-.407-.031-1.096.094-.031 0-.72.532-.658.564-.72.658-.125.25-.501.72l-.157-.407.032-1.221-.22-1.315.126-.533-.126-.657.188-1.065-.125-.657.188-1.19q0-.126-.063-.376-.062-.22-.062-.345l.125-.72-.188-.689.282-.751-.564-1.284-.689.031q-.47.47-.689 1.316-.313 1.158-.438 1.44l.407 5.699-.062 1.096q-.69-.094-1.347-1.034-.47-.72-.94-1.471-.75-.97-2.41-1.879-2.067-1.065-2.63-1.566l-.439.126-1.472-.157-.626.188q1.347 1.033 3.977 3.225 1.315 1.127 2.943 3.601 1.66 2.505 2.098 4.133-2.067-.375-2.724-1.44-.564 0-1.221.595-.877.751-1.065.845l-.564 1.378q.22.094.47.094.564 0 1.315-.501 1.034.22 2.411.97 1.754 1.003 2.286 1.222l.282 3.851-.125 1.503q-.658.22-1.347 1.378l-.031.157q.72-.032.532-.032.564 0 1.034.47zm10.301-11.93l2.161-.814q.125-.439.125-.532 0-.251-.219-.658-.188-.376-.188-.595 0-.188.157-.438l.626.03q2.442.126 2.943-.75l-.03-.595q-.408-.345-1.441-.564-1.19-.22-1.566-.407-.72-.376-.72-1.253 0-.188.063-.563.093-.376.093-.564l-.156-.97.47-.188 1.315.25q.219.47 1.002.47l1.033-.25q.94-.22 1.941-.44 1.096-.312 1.754-.876l.188-.814-.345-.814-.595-.188q-.657.094-2.661.658-1.66.47-2.63.47-1.347 0-3.476-.345-2.38-.345-3.35-.783-.971-.407-1.504-1.221-.47.188-.845.814-.344.595-.595.657v.69l.438-.157q.971.376 2.662.845 1.941.501 2.693.752v2.661q-.282.094-1.816.157-1.127.062-1.722.657 2.692.846 4.008 1.566.062.908.062 1.816 0 .22-.031.407l-1.096.846q.094.156.25.47l-.03.093z" aria-label="桂" font-weight="400" font-size="32.064" font-family="HakusyuKaisyo" stroke-width="1.625" stroke-linejoin="round" stroke-miterlimit="10"/></g></svg>