<?xml version="1.0" encoding="UTF-8" standalone="no"?>
<svg
   width="52.175"
   height="60"
   viewBox="0 0 13.805 15.875"
   version="1.1"
   id="svg96"
   sodipodi:docname="1NG.svg"
   inkscape:version="1.4.2 (f4327f4, 2025-05-13)"
   xmlns:inkscape="http://www.inkscape.org/namespaces/inkscape"
   xmlns:sodipodi="http://sodipodi.sourceforge.net/DTD/sodipodi-0.dtd"
   xmlns:xlink="http://www.w3.org/1999/xlink"
   xmlns="http://www.w3.org/2000/svg"
   xmlns:svg="http://www.w3.org/2000/svg">
  <sodipodi:namedview
     id="namedview96"
     pagecolor="#ffffff"
     bordercolor="#000000"
     borderopacity="0.25"
     inkscape:showpageshadow="2"
     inkscape:pageopacity="0.0"
     inkscape:pagecheckerboard="0"
     inkscape:deskcolor="#d1d1d1"
     inkscape:zoom="1.5998291"
     inkscape:cx="55.005876"
     inkscape:cy="115.32482"
     inkscape:window-width="1366"
     inkscape:window-height="745"
     inkscape:window-x="-8"
     inkscape:window-y="-8"
     inkscape:window-maximized="1"
     inkscape:current-layer="svg96" />
  <defs
     id="defs20">
    <linearGradient
       id="a">
      <stop
         offset="0"
         stop-color="#e5c37b"
         id="stop1" />
      <stop
         offset=".042"
         stop-color="#e4bd76"
         id="stop2" />
      <stop
         offset=".093"
         stop-color="#e7c781"
         id="stop3" />
      <stop
         offset=".165"
         stop-color="#e2b86e"
         id="stop4" />
      <stop
         offset=".305"
         stop-color="#e6c686"
         id="stop5" />
      <stop
         offset=".539"
         stop-color="#dfb96f"
         id="stop6" />
      <stop
         offset=".586"
         stop-color="#ddbb73"
         id="stop7" />
      <stop
         offset=".84"
         stop-color="#e7ce8f"
         id="stop8" />
      <stop
         offset=".924"
         stop-color="#e1bd73"
         id="stop9" />
      <stop
         offset=".962"
         stop-color="#e0bf78"
         id="stop10" />
      <stop
         offset="1"
         stop-color="#e7c685"
         id="stop11" />
    </linearGradient>
    <filter
       id="b"
       color-interpolation-filters="sRGB"
       x="-0.045154372"
       y="-0.036608246"
       width="1.1843804"
       height="1.1189768">
      <feFlood
         flood-opacity=".498"
         flood-color="#000"
         result="flood"
         id="feFlood11" />
      <feComposite
         in="flood"
         in2="SourceGraphic"
         operator="in"
         result="composite1"
         id="feComposite11" />
      <feGaussianBlur
         in="composite1"
         stdDeviation="1"
         result="blur"
         id="feGaussianBlur11" />
      <feOffset
         dx="5"
         dy="3"
         result="offset"
         id="feOffset11" />
      <feComposite
         in="SourceGraphic"
         in2="offset"
         result="composite2"
         id="feComposite12" />
    </filter>
    <filter
       id="c"
       color-interpolation-filters="sRGB"
       x="-0.040640081"
       y="-0.034730262"
       width="1.165947"
       height="1.1128734">
      <feFlood
         flood-opacity=".498"
         flood-color="#000"
         result="flood"
         id="feFlood12" />
      <feComposite
         in="flood"
         in2="SourceGraphic"
         operator="in"
         result="composite1"
         id="feComposite13" />
      <feGaussianBlur
         in="composite1"
         stdDeviation="1"
         result="blur"
         id="feGaussianBlur13" />
      <feOffset
         dx="5"
         dy="3"
         result="offset"
         id="feOffset13" />
      <feComposite
         in="SourceGraphic"
         in2="offset"
         result="composite2"
         id="feComposite14" />
    </filter>
    <filter
       id="d"
       color-interpolation-filters="sRGB"
       x="-0.039077128"
       y="-0.033581933"
       width="1.1595649"
       height="1.1091413">
      <feFlood
         flood-opacity=".498"
         flood-color="#000"
         result="flood"
         id="feFlood14" />
      <feComposite
         in="flood"
         in2="SourceGraphic"
         operator="in"
         result="composite1"
         id="feComposite15" />
      <feGaussianBlur
         in="composite1"
         stdDeviation="1"
         result="blur"
         id="feGaussianBlur15" />
      <feOffset
         dx="5"
         dy="3"
         result="offset"
         id="feOffset15" />
      <feComposite
         in="SourceGraphic"
         in2="offset"
         result="composite2"
         id="feComposite16" />
    </filter>
    <filter
       id="e"
       color-interpolation-filters="sRGB"
       x="-0.044174489"
       y="-0.035334649"
       width="1.1803792"
       height="1.1148376">
      <feFlood
         flood-opacity=".498"
         flood-color="#000"
         result="flood"
         id="feFlood16" />
      <feComposite
         in="flood"
         in2="SourceGraphic"
         operator="in"
         result="composite1"
         id="feComposite17" />
      <feGaussianBlur
         in="composite1"
         stdDeviation="1"
         result="blur"
         id="feGaussianBlur17" />
      <feOffset
         dx="5"
         dy="3"
         result="offset"
         id="feOffset17" />
      <feComposite
         in="SourceGraphic"
         in2="offset"
         result="composite2"
         id="feComposite18" />
    </filter>
    <linearGradient
       xlink:href="#a"
       id="f"
       x1="104.094"
       y1="54.226"
       x2="152.758"
       y2="54.226"
       gradientUnits="userSpaceOnUse" />
    <clipPath
       clipPathUnits="userSpaceOnUse"
       id="g">
      <path
         d="M0 0h936.12v612.12H0z"
         clip-rule="evenodd"
         id="path18" />
    </clipPath>
    <clipPath
       clipPathUnits="userSpaceOnUse"
       id="h">
      <path
         d="M0 0h936.12v612.12H0z"
         clip-rule="evenodd"
         id="path19" />
    </clipPath>
    <clipPath
       clipPathUnits="userSpaceOnUse"
       id="i">
      <path
         d="M0 0h936.12v612.12H0z"
         clip-rule="evenodd"
         id="path20" />
    </clipPath>
  </defs>
  <g
     transform="matrix(.1852 0 0 .1852 -60.753 -50.638)"
     opacity=".99"
     stroke-width=".621"
     filter="url(#d)"
     id="g26">
    <path
       d="M345.268 345.92v-3.78l20.025 6.08 20.4-6.08v3.779l-20.4 6.081z"
       fill="#c3983c"
       fill-opacity=".992"
       id="path25" />
    <path
       d="M365.293 350.22l20.4-6.08L396 280.533h-61.417l10.685 63.606z"
       fill="#feec99"
       id="path26" />
  </g>
  <path
     d="M7.262 3.997l-.151.952-.32.09-.31-.085-.16-.957z"
     fill="red"
     fill-rule="evenodd"
     id="path29" />
  <path
     d="M7.262 3.997l-.151.952-.32.09-.31-.085-.16-.957z"
     fill="none"
     id="path30" />
  <path
     d="M5.273 4.518a.417.417 0 1 1-.834 0 .417.417 0 0 1 .834 0z"
     fill="red"
     fill-rule="evenodd"
     id="path31" />
  <path
     d="M5.273 4.518a.417.417 0 1 1-.834 0 .417.417 0 0 1 .834 0z"
     fill="none"
     id="path32" />
  <path
     d="M9.107 4.518a.416.416 0 1 1-.833 0 .417.417 0 0 1 .833 0z"
     fill="red"
     fill-rule="evenodd"
     id="path33" />
  <path
     d="M9.107 4.518a.416.416 0 1 1-.833 0 .417.417 0 0 1 .833 0z"
     fill="none"
     id="path34" />
  <path
     d="M5.273 6.415a.417.417 0 1 1-.834 0 .417.417 0 0 1 .834 0z"
     fill="red"
     fill-rule="evenodd"
     id="path35" />
  <path
     d="M5.273 6.415a.417.417 0 1 1-.834 0 .417.417 0 0 1 .834 0z"
     fill="none"
     id="path36" />
  <path
     d="M9.107 6.415a.416.416 0 1 1-.833 0 .417.417 0 0 1 .833 0z"
     fill="red"
     fill-rule="evenodd"
     id="path37" />
  <path
     d="M9.107 6.415a.416.416 0 1 1-.833 0 .417.417 0 0 1 .833 0z"
     fill="none"
     id="path38" />
  <path
     d="M7.201 6.415a.417.417 0 1 1-.834 0 .417.417 0 0 1 .834 0z"
     fill="red"
     fill-rule="evenodd"
     id="path39" />
  <path
     d="M7.201 6.415a.417.417 0 1 1-.834 0 .417.417 0 0 1 .834 0z"
     fill="none"
     id="path40" />
  <path
     d="M7.201 2.552a.417.417 0 1 1-.834 0 .417.417 0 0 1 .834 0z"
     fill="red"
     fill-rule="evenodd"
     id="path41" />
  <path
     d="M7.201 2.552a.417.417 0 1 1-.834 0 .417.417 0 0 1 .834 0z"
     fill="none"
     id="path42" />
  <path
     d="M7.483 3.721l-.223 1.42-.479.134-.46-.128-.24-1.426z"
     fill="red"
     fill-rule="evenodd"
     id="path43" />
  <path
     d="M7.483 3.721l-.223 1.42-.479.134-.46-.128-.24-1.426z"
     fill="none"
     id="path44" />
  <path
     id="path396-7"
     d="m 6.971324,13.80743 c 0.310667,-0.01533 0.466134,-0.0652 0.466134,-0.149866 0,-0.09067 -0.05537,-0.180941 -0.165369,-0.270274 1.120667,-1.866667 2.184071,-3.145744 3.190071,-3.8370765 0.08467,-0.03 0.127127,-0.07987 0.127127,-0.149866 0,-0.04467 -0.05742,-0.06666 -0.172087,-0.06666 -0.270667,0 -0.636086,0.142559 -1.096086,0.427893 C 9.145781,9.8862465 8.868068,10.148999 8.488068,10.549666 8.292735,10.304333 8.042523,10.181203 7.73719,10.181203 c -0.08533,0 -0.220488,0.01548 -0.405155,0.04548 0.0062,-0.0325 0.01599,-0.154223 0.02739,-0.2325495 0.223363,-0.09295 0.762932,-0.13553 0.775684,-0.229966 0.0064,-0.04722 0.164098,-0.191325 -0.01447,-0.231517 -0.178567,-0.04019 -0.62757,0.0056 -0.743055,0.03462 0.01023,-0.08083 0.04386,-0.264449 0.04769,-0.301949 0.65798,-0.155287 1.024845,-0.247435 1.024845,-0.412769 0,-0.24 -0.152602,-0.2473 -0.502602,-0.5333 0.265333,-0.2 0.502637,-0.342559 0.712637,-0.427893 0.09533,-0.02 0.212959,-0.03496 0.352959,-0.04496 0.14,-0.02 0.210329,-0.08739 0.210329,-0.20206 0,-0.13 -0.07531,-0.235084 -0.225316,-0.315751 -0.12,-0.06467 -0.237626,-0.09715 -0.352959,-0.09715 -0.124667,0 -0.457232,0.06482 -0.997898,0.194825 -0.390667,0.07533 -0.728219,0.113175 -1.012885,0.113175 -0.520667,0 -1.073891,-0.02288 -1.659891,-0.06822 -0.26,0 -0.390168,0.128116 -0.390168,0.383449 0,0.14 0.0528,0.257626 0.158134,0.352959 0.28,0.2 0.499926,0.299732 0.659926,0.299732 0.130667,0 0.298158,-0.11264 0.502825,-0.337973 0.436,-0.06467 0.761527,-0.107128 0.976193,-0.127128 l -0.0072,0.359161 c -0.205333,0.205333 -0.44131,0.155208 -0.666643,0.345208 -0.13,0.06533 -0.194825,0.269145 -0.194825,0.363811 0,0.195334 0.307332,0.385347 0.748811,0.234909 -0.0087,0.03383 -0.02088,0.179373 -0.03617,0.271017 -0.0024,6.3e-4 -0.0137,0.0054 -0.01654,0.0062 -0.130162,0.03629 -0.66845,0.234813 -0.689899,0.34314 -0.01096,0.05535 -0.137611,0.2188195 0.0124,0.2625235 0.143268,0.04174 0.332706,-0.07788 0.55347,-0.125577 0.01039,-0.0023 0.02047,-0.0053 0.03101,-0.0072 -0.02467,0.0921 -0.08214,0.308573 -0.117308,0.341073 -0.4,0.1 -0.599979,0.237573 -0.599979,0.412906 0,0.16 0.06226,0.277626 0.18759,0.352959 0.194667,0.09467 0.35974,0.142114 0.495073,0.142114 0.09,0 0.215181,-0.09233 0.375181,-0.276993 0.505334,-0.22 0.95846,-0.335574 1.359127,-0.346241 -0.405334,0.480667 -0.830592,1.00654 -1.275926,1.577206 C 6.474242,11.847808 5.920868,11.321935 5.380201,10.721268 5.034868,10.355935 4.785023,10.14855 4.630356,10.09855 4.334356,10.01388 3.986465,9.9714235 3.586465,9.9714235 c -0.32,0 -0.480087,0.067389 -0.480087,0.2020595 0,0.245334 0.112273,0.493494 0.336939,0.744161 0.11063,0.12463 0.318531,0.236903 0.623198,0.336903 0.370667,0.1 0.615892,0.177733 0.735892,0.233067 0.490667,0.335333 1.128296,0.743063 1.913629,1.22373 -0.245333,0.294667 -0.367946,0.484673 -0.367946,0.570006 0,0.09533 0.0803,0.212959 0.240302,0.352959 0.14,0.115334 0.267599,0.173121 0.382932,0.173121 z M 7.460273,8.8628935 c 0.02346,-0.19753 0.07672,-0.185346 0.224205,-0.30231 0.291879,0.0016 0.456024,0.05934 0.456024,0.129337 0,0.06533 -0.250228,0.141845 -0.680229,0.172973 z m 0.26193,-0.768443 -0.119892,-0.112141 0.4651,-0.08268 z"
     style="fill:#ff0000"
     sodipodi:nodetypes="csccssccscccsccscccscscscscsccccscccsssccscscccccssccccsccccsccccc" />
</svg>
