<svg xmlns="http://www.w3.org/2000/svg" xmlns:xlink="http://www.w3.org/1999/xlink" width="52.175" height="60" viewBox="0 0 13.805 15.875"><defs><linearGradient id="a"><stop offset="0" stop-color="#e5c37b"/><stop offset=".042" stop-color="#e4bd76"/><stop offset=".093" stop-color="#e7c781"/><stop offset=".165" stop-color="#e2b86e"/><stop offset=".305" stop-color="#e6c686"/><stop offset=".539" stop-color="#dfb96f"/><stop offset=".586" stop-color="#ddbb73"/><stop offset=".84" stop-color="#e7ce8f"/><stop offset=".924" stop-color="#e1bd73"/><stop offset=".962" stop-color="#e0bf78"/><stop offset="1" stop-color="#e7c685"/></linearGradient><filter id="b" color-interpolation-filters="sRGB"><feFlood flood-opacity=".498" flood-color="#000" result="flood"/><feComposite in="flood" in2="SourceGraphic" operator="in" result="composite1"/><feGaussianBlur in="composite1" stdDeviation="1" result="blur"/><feOffset dx="5" dy="3" result="offset"/><feComposite in="SourceGraphic" in2="offset" result="composite2"/></filter><filter id="c" color-interpolation-filters="sRGB"><feFlood flood-opacity=".498" flood-color="#000" result="flood"/><feComposite in="flood" in2="SourceGraphic" operator="in" result="composite1"/><feGaussianBlur in="composite1" stdDeviation="1" result="blur"/><feOffset dx="5" dy="3" result="offset"/><feComposite in="SourceGraphic" in2="offset" result="composite2"/></filter><filter id="d" color-interpolation-filters="sRGB"><feFlood flood-opacity=".498" flood-color="#000" result="flood"/><feComposite in="flood" in2="SourceGraphic" operator="in" result="composite1"/><feGaussianBlur in="composite1" stdDeviation="1" result="blur"/><feOffset dx="5" dy="3" result="offset"/><feComposite in="SourceGraphic" in2="offset" result="composite2"/></filter><linearGradient xlink:href="#a" id="e" x1="104.094" y1="54.226" x2="152.758" y2="54.226" gradientUnits="userSpaceOnUse"/><clipPath clipPathUnits="userSpaceOnUse" id="f"><path d="M0 0h936.12v612.12H0z" clip-rule="evenodd"/></clipPath><clipPath clipPathUnits="userSpaceOnUse" id="g"><path d="M0 0h936.12v612.12H0z" clip-rule="evenodd"/></clipPath><clipPath clipPathUnits="userSpaceOnUse" id="h"><path d="M0 0h936.12v612.12H0z" clip-rule="evenodd"/></clipPath></defs><g transform="matrix(.1852 0 0 .1852 -57.42 -12.562)" opacity=".99" stroke-width=".621" filter="url(#b)"><path d="M589.491 348.833v-3.78l17.934 5.167 17.533-5.566v3.78L607.425 354z" fill="#c3983c" fill-opacity=".992"/><path d="M624.958 346.654L634 288.441h-53.151l8.642 58.613 17.934 5.166z" fill="#feec99"/></g><g transform="matrix(.1852 0 0 .1852 -75.788 -50.856)" opacity=".99" stroke-width=".621" filter="url(#c)"><path d="M427.21 346.06v-3.78l19.262 5.94 19.257-5.911v3.78L446.472 352z" fill="#c3983c" fill-opacity=".992"/><g stroke-width=".63"><path d="M446.472 350.22l19.257-5.911L476 282.896h-59.055l10.266 61.384z" fill="#feec99"/></g></g><g transform="matrix(.1852 0 0 .1852 -57.606 -11.924)" opacity=".99" stroke-width=".621" filter="url(#d)"><path d="M507.891 344.726v-3.78l18.944 7.012 18.943-7.01v3.779l-18.943 7.01z" fill="#c3983c" fill-opacity=".992"/><path d="M526.835 349.958l18.943-7.01L554 283.815h-54.33l8.221 59.13z" fill="#feec99"/></g><path d="M7.253 3.719l-.15.952-.322.09-.309-.086-.16-.956z" fill="red" fill-rule="evenodd"/><path d="M7.253 3.719l-.15.952-.322.09-.309-.086-.16-.956z" fill="none"/><path d="M5.264 4.24a.417.417 0 1 1-.834 0 .417.417 0 0 1 .834 0z" fill="red" fill-rule="evenodd"/><path d="M5.264 4.24a.417.417 0 1 1-.834 0 .417.417 0 0 1 .834 0z" fill="none"/><path d="M9.1 4.24a.417.417 0 1 1-.835 0 .417.417 0 0 1 .835 0z" fill="red" fill-rule="evenodd"/><path d="M9.1 4.24a.417.417 0 1 1-.835 0 .417.417 0 0 1 .835 0z" fill="none"/><path d="M5.264 6.137a.417.417 0 1 1-.834 0 .417.417 0 0 1 .834 0z" fill="red" fill-rule="evenodd"/><path d="M5.264 6.137a.417.417 0 1 1-.834 0 .417.417 0 0 1 .834 0z" fill="none"/><path d="M9.1 6.137a.417.417 0 1 1-.835 0 .417.417 0 0 1 .835 0z" fill="red" fill-rule="evenodd"/><path d="M9.1 6.137a.417.417 0 1 1-.835 0 .417.417 0 0 1 .835 0z" fill="none"/><path d="M7.192 6.137a.417.417 0 1 1-.834 0 .417.417 0 0 1 .834 0z" fill="red" fill-rule="evenodd"/><path d="M7.192 6.137a.417.417 0 1 1-.834 0 .417.417 0 0 1 .834 0z" fill="none"/><path d="M7.192 2.274a.417.417 0 1 1-.834 0 .417.417 0 0 1 .834 0z" fill="red" fill-rule="evenodd"/><path d="M7.192 2.274a.417.417 0 1 1-.834 0 .417.417 0 0 1 .834 0z" fill="none"/><path d="M7.467 3.428l-.225 1.42-.477.135-.461-.129-.241-1.426z" fill="red" fill-rule="evenodd"/><path d="M7.467 3.428l-.225 1.42-.477.135-.461-.129-.241-1.426z" fill="none"/><path d="M40.47 43.19l-.15.951-.322.09-.309-.085-.16-.957z" fill="red" fill-rule="evenodd"/><path d="M40.47 43.19l-.15.951-.322.09-.309-.085-.16-.957z" fill="none"/><path d="M38.481 43.71a.417.417 0 1 1-.834 0 .417.417 0 0 1 .834 0z" fill="red" fill-rule="evenodd"/><path d="M38.481 43.71a.417.417 0 1 1-.834 0 .417.417 0 0 1 .834 0z" fill="none"/><path d="M42.317 43.71a.417.417 0 1 1-.835 0 .417.417 0 0 1 .835 0z" fill="red" fill-rule="evenodd"/><path d="M42.317 43.71a.417.417 0 1 1-.835 0 .417.417 0 0 1 .835 0z" fill="none"/><path d="M38.481 45.607a.417.417 0 1 1-.834 0 .417.417 0 0 1 .834 0z" fill="red" fill-rule="evenodd"/><path d="M38.481 45.607a.417.417 0 1 1-.834 0 .417.417 0 0 1 .834 0z" fill="none"/><path d="M42.317 45.607a.417.417 0 1 1-.835 0 .417.417 0 0 1 .835 0z" fill="red" fill-rule="evenodd"/><path d="M42.317 45.607a.417.417 0 1 1-.835 0 .417.417 0 0 1 .835 0z" fill="none"/><path d="M40.41 45.607a.417.417 0 1 1-.835 0 .417.417 0 0 1 .834 0z" fill="red" fill-rule="evenodd"/><path d="M40.41 45.607a.417.417 0 1 1-.835 0 .417.417 0 0 1 .834 0z" fill="none"/><path d="M40.41 41.744a.417.417 0 1 1-.835 0 .417.417 0 0 1 .834 0z" fill="red" fill-rule="evenodd"/><path d="M40.41 41.744a.417.417 0 1 1-.835 0 .417.417 0 0 1 .834 0z" fill="none"/><path d="M40.663 42.899l-.225 1.42-.477.134-.461-.128-.24-1.426z" fill="red" fill-rule="evenodd"/><path d="M40.663 42.899l-.225 1.42-.477.134-.461-.128-.24-1.426z" fill="none"/><path d="M55.546 43.557l-.15.952-.322.09-.308-.086-.162-.956z" fill="red" fill-rule="evenodd"/><path d="M55.546 43.557l-.15.952-.322.09-.308-.086-.162-.956z" fill="none"/><path d="M53.557 44.078a.417.417 0 1 1-.834 0 .417.417 0 0 1 .834 0z" fill="red" fill-rule="evenodd"/><path d="M53.557 44.078a.417.417 0 1 1-.834 0 .417.417 0 0 1 .834 0z" fill="none"/><path d="M57.393 44.078a.417.417 0 1 1-.835 0 .417.417 0 0 1 .835 0z" fill="red" fill-rule="evenodd"/><path d="M57.393 44.078a.417.417 0 1 1-.835 0 .417.417 0 0 1 .835 0z" fill="none"/><path d="M53.557 45.975a.417.417 0 1 1-.834 0 .417.417 0 0 1 .834 0z" fill="red" fill-rule="evenodd"/><path d="M53.557 45.975a.417.417 0 1 1-.834 0 .417.417 0 0 1 .834 0z" fill="none"/><path d="M57.393 45.975a.417.417 0 1 1-.835 0 .417.417 0 0 1 .835 0z" fill="red" fill-rule="evenodd"/><path d="M57.393 45.975a.417.417 0 1 1-.835 0 .417.417 0 0 1 .835 0z" fill="none"/><path d="M55.486 45.975a.417.417 0 1 1-.835 0 .417.417 0 0 1 .835 0z" fill="red" fill-rule="evenodd"/><path d="M55.486 45.975a.417.417 0 1 1-.835 0 .417.417 0 0 1 .835 0z" fill="none"/><path d="M55.486 42.112a.417.417 0 1 1-.835 0 .417.417 0 0 1 .835 0z" fill="red" fill-rule="evenodd"/><path d="M55.486 42.112a.417.417 0 1 1-.835 0 .417.417 0 0 1 .835 0z" fill="none"/><path d="M55.74 43.266l-.224 1.42-.478.135-.462-.129-.24-1.426z" fill="red" fill-rule="evenodd"/><path d="M55.74 43.266l-.224 1.42-.478.135-.462-.129-.24-1.426z" fill="none"/><g clip-path="url(#f)" transform="matrix(-.19884 0 0 .19884 130.633 -14.23)" stroke-width="1.774"><path d="M634.872 125.026q0-.281-.188-.563-.625-.407-1.439-.626-.782-.219-1.533-.406-.532-.22-1.565-.626-1.22-.47-3.41-1.033l-.532.063 1.94 1.815q1.22 1.189 1.345 2.159-.406.406-2.597.406-4.036 0-7.165-1.658-2.753-1.44-5.663-4.725l-1.44-1.69q-.876-1-1.564-1.501-.907.626-.907 2.44 0 .94 1.376 2.785.126.188 3.098 3.567 2.378 2.691 3.004 3.442 1.783 2.19 2.597 3.723-.47.939-1.001 1.22.438.22.844.439.595.281.845.281 1.502 0 2.128-.938 0-1.471-1.252-3.098-.406-.563-2.503-2.785-1.564-1.658-2.002-2.722 3.003 1.909 5.319 2.628 2.472.783 5.85.783 1.159 0 2.003-.126 1.033-.156 2.66-1.22 1.752-1.157 1.752-2.034zm-5.538-16.677q0-1.126-1.345-1.126-.188 0-.439.031-2.19.407-4.005.407-2.66 0-6.195-1.596-1.251.376-1.314 2.253l2.315 1.846q-.093.094-1.97 1.064-1.534.782-1.534 1.408 0 .845 1.19 1.909.97.876 1.97 1.345 2.378 1.126 2.597 1.252 1.283.876 1.283 2.378 0 .312-.062.625-1.002-.5-2.41-.5-.782 0-1.533.187l-.47.376q1.002.375 2.066 1.564 1.314 1.44 1.815 1.784.313.219.938.219 2.284 0 3.473-.782v-.25q.032-.626-.344-1.127-.344-.47-.72-.939-.437-.813-.5-2.534.125-.188 1.158-.438 1.063-.22 1.439-.657.031-.157.031-.313 0-1.001-2.284-3.38-2.66-2.753-3.004-3.441 1.784.532 4.13.532 3.724 0 3.724-2.097zm-7.885 7.385q-3.63-.658-4.63-2.785.187-.595 2.283-.72 1.44.532 2.347 3.505z" aria-label="全" font-weight="400" font-size="32.04" font-family="HakusyuSousyo_kk" fill="red"/></g><g clip-path="url(#g)" transform="matrix(-.19884 0 0 .19884 183.713 25.766)" stroke-width="1.774"><path d="M729.677 120.538c-.334-.438-1.085-.918-2.253-1.44-1.147-.5-1.783-.834-1.909-1 .167-1.356.209-2.378.126-3.067.646-.563 1.032-1.147 1.157-1.752-.187-.667-.709-1.512-1.564-2.534-.855-1.002-1.387-1.794-1.596-2.378.376-.376 1.335-.751 2.879-1.127 1.376-.334 2.315-.918 2.816-1.752-.021-.334-.334-.605-.939-.813-.605-.23-2.19-.585-4.756-1.064-2.566-.5-4.099-.751-4.6-.751-.896 0-1.46.448-1.69 1.345.105.5.439 1.074 1.002 1.721.647.71 1.043 1.262 1.19 1.658-.21.167-.856.272-1.94.313-.981.021-1.471.48-1.471 1.377 0 .584.323 1.241.97 1.971.667.751 1.637 1.481 2.91 2.19 1.084.585 2.169 1.158 3.254 1.721.125.605.187 1.158.187 1.659 0 .208-.01.386-.031.532-.563-.167-1.898-.783-4.005-1.846-1.606-.814-2.993-1.21-4.161-1.19h-.22c-.375.188-.563.46-.563.814 0 .668.929 1.742 2.785 3.223v-.532l-.219-.688c.814.208 1.93.709 3.348 1.501 1.335.751 2.357 1.43 3.066 2.034.105.271.157.532.157.782 0 .23-.052.439-.157.626-1.543-1.001-2.962-1.658-4.255-1.971l4.068 4.005c-.835.125-1.586.5-2.253 1.126-.668.647-1.001 1.377-1.001 2.19 0 .355.187.991.563 1.91l.813 1.94c.5-.147 1.074-.418 1.721-.814.793-.48 1.19-.908 1.19-1.283 0-.146-.21-.47-.627-.97-.417-.5-.625-.907-.625-1.22 0-.105.01-.199.03-.282.189-.042.408-.063.658-.063.25 0 .636.021 1.158.063.521.042.917.063 1.189.063 1.585 0 2.346-.49 2.284-1.471v-.219c-.355-.25-1.054-.647-2.097-1.189-.897-.459-1.564-.887-2.002-1.283.542-.292 1.345-.553 2.41-.782a52.692 52.692 0 0 1 1.72-.157c.563-.104.99-.48 1.283-1.126zm-7.009-7.478v.063c-2.107-.584-3.63-1.398-4.568-2.441-.334-.375-.5-.688-.5-.939 0-.146.083-.25.25-.313a1.94 1.94 0 0 1 .469-.062c1.043 0 2.034.365 2.972 1.095.96.75 1.419 1.617 1.377 2.597zm.5-6.57c0 .291-.083.594-.25.907-.688-.751-1.251-1.325-1.69-1.721a.693.693 0 0 1 .22-.032c.396 0 .96.188 1.69.564.02.083.03.177.03.281z" aria-label="金" font-weight="400" font-size="32.04" font-family="HakusyuSousyo_kk" fill="red"/></g><g clip-path="url(#h)" transform="matrix(-.19884 0 0 .19884 218.94 25.86)" stroke-width="1.774"><path d="M817.292 125.451q.6 0 1.638-.437 1.338-.6 2.075-1.91.383-.71.956-2.595.546-1.775 1.12-2.621.764 0 2.785 2.102 1.938 2.021 2.157 2.813l-.41.874q.11 0 .492.081.327.028.518.028.765 0 1.884-1.284 1.12-1.283 1.093-2.075v-.19q-.738-.383-2.076-1.257-1.365-1.229-4.123-3.44-.464-.273-1.31-.792-.328-.191-.82-.792-.436-.491-.928-.71-2.757-2.73-2.757-4.15 0-1.557 3.33-1.557 1.584 0 3.878.601 3.631 1.01 3.795 1.038.792-.3 1.557-.574.846-.355 1.146-1.065 0-.655-.546-1.01-.518-.355-2.239-.9-1.583-.574-2.32-.71-1.393-.274-3.496-.274-2.675 0-4.614.929-2.567 1.174-2.567 3.522 0 1.775 1.366 3.768l2.402 3.331q-.71 1.31-1.283 2.457-.764 1.857-1.556 3.687-1.092 2.348-2.403 2.812.082.3 1.256.3z" aria-label="と" font-weight="400" font-size="27.96" font-family="HakusyuKaisyo" fill="red"/></g></svg>