<svg xmlns="http://www.w3.org/2000/svg" xmlns:xlink="http://www.w3.org/1999/xlink" width="52.175" height="60" viewBox="0 0 13.805 15.875"><defs><linearGradient id="a"><stop offset="0" stop-color="#e5c37b"/><stop offset=".042" stop-color="#e4bd76"/><stop offset=".093" stop-color="#e7c781"/><stop offset=".165" stop-color="#e2b86e"/><stop offset=".305" stop-color="#e6c686"/><stop offset=".539" stop-color="#dfb96f"/><stop offset=".586" stop-color="#ddbb73"/><stop offset=".84" stop-color="#e7ce8f"/><stop offset=".924" stop-color="#e1bd73"/><stop offset=".962" stop-color="#e0bf78"/><stop offset="1" stop-color="#e7c685"/></linearGradient><filter id="b" color-interpolation-filters="sRGB"><feFlood flood-opacity=".498" flood-color="#000" result="flood"/><feComposite in="flood" in2="SourceGraphic" operator="in" result="composite1"/><feGaussianBlur in="composite1" stdDeviation="1" result="blur"/><feOffset dx="5" dy="3" result="offset"/><feComposite in="SourceGraphic" in2="offset" result="composite2"/></filter><filter id="c" color-interpolation-filters="sRGB"><feFlood flood-opacity=".498" flood-color="#000" result="flood"/><feComposite in="flood" in2="SourceGraphic" operator="in" result="composite1"/><feGaussianBlur in="composite1" stdDeviation="1" result="blur"/><feOffset dx="5" dy="3" result="offset"/><feComposite in="SourceGraphic" in2="offset" result="composite2"/></filter><linearGradient xlink:href="#a" id="d" x1="104.094" y1="54.226" x2="152.758" y2="54.226" gradientUnits="userSpaceOnUse"/><clipPath clipPathUnits="userSpaceOnUse" id="e"><path d="M0 0h936.12v612.12H0z" clip-rule="evenodd"/></clipPath><clipPath clipPathUnits="userSpaceOnUse" id="f"><path d="M0 0h936.12v612.12H0z" clip-rule="evenodd"/></clipPath></defs><g transform="matrix(.1852 0 0 .1852 -57.42 -12.562)" opacity=".99" stroke-width=".621" filter="url(#b)"><path d="M589.491 348.833v-3.78l17.934 5.167 17.533-5.566v3.78L607.425 354z" fill="#c3983c" fill-opacity=".992"/><path d="M624.958 346.654L634 288.441h-53.151l8.642 58.613 17.934 5.166z" fill="#feec99"/></g><g transform="matrix(.1852 0 0 .1852 -90.672 -50.917)" opacity=".99" stroke-width=".621" filter="url(#c)"><path d="M507.891 344.726v-3.78l18.944 7.012 18.943-7.01v3.779l-18.943 7.01z" fill="#c3983c" fill-opacity=".992"/><path d="M526.835 349.958l18.943-7.01L554 283.815h-54.33l8.221 59.13z" fill="#feec99"/></g><path d="M7.404 4.196l-.15.952-.322.09-.308-.086-.162-.956z" fill="red" fill-rule="evenodd"/><path d="M7.404 4.196l-.15.952-.322.09-.308-.086-.162-.956z" fill="none"/><path d="M5.416 4.717a.417.417 0 1 1-.835 0 .417.417 0 0 1 .835 0z" fill="red" fill-rule="evenodd"/><path d="M5.416 4.717a.417.417 0 1 1-.835 0 .417.417 0 0 1 .835 0z" fill="none"/><path d="M9.25 4.717a.417.417 0 1 1-.833 0 .417.417 0 0 1 .834 0z" fill="red" fill-rule="evenodd"/><path d="M9.25 4.717a.417.417 0 1 1-.833 0 .417.417 0 0 1 .834 0z" fill="none"/><path d="M5.416 6.614a.417.417 0 1 1-.835 0 .417.417 0 0 1 .835 0z" fill="red" fill-rule="evenodd"/><path d="M5.416 6.614a.417.417 0 1 1-.835 0 .417.417 0 0 1 .835 0z" fill="none"/><path d="M9.25 6.614a.417.417 0 1 1-.834 0 .417.417 0 0 1 .835 0z" fill="red" fill-rule="evenodd"/><path d="M9.25 6.614a.417.417 0 1 1-.834 0 .417.417 0 0 1 .835 0z" fill="none"/><path d="M7.344 6.614a.417.417 0 1 1-.835 0 .417.417 0 0 1 .835 0z" fill="red" fill-rule="evenodd"/><path d="M7.344 6.614a.417.417 0 1 1-.835 0 .417.417 0 0 1 .835 0z" fill="none"/><path d="M7.344 2.75a.417.417 0 1 1-.834 0 .417.417 0 0 1 .834 0z" fill="red" fill-rule="evenodd"/><path d="M7.344 2.75a.417.417 0 1 1-.834 0 .417.417 0 0 1 .834 0z" fill="none"/><path d="M7.597 3.905l-.225 1.42-.477.135-.461-.129-.24-1.426z" fill="red" fill-rule="evenodd"/><path d="M7.597 3.905l-.225 1.42-.477.135-.461-.129-.24-1.426z" fill="none"/><path d="M55.546 43.557l-.15.952-.322.09-.308-.086-.162-.956z" fill="red" fill-rule="evenodd"/><path d="M55.546 43.557l-.15.952-.322.09-.308-.086-.162-.956z" fill="none"/><path d="M53.557 44.078a.417.417 0 1 1-.834 0 .417.417 0 0 1 .834 0z" fill="red" fill-rule="evenodd"/><path d="M53.557 44.078a.417.417 0 1 1-.834 0 .417.417 0 0 1 .834 0z" fill="none"/><path d="M57.393 44.078a.417.417 0 1 1-.835 0 .417.417 0 0 1 .835 0z" fill="red" fill-rule="evenodd"/><path d="M57.393 44.078a.417.417 0 1 1-.835 0 .417.417 0 0 1 .835 0z" fill="none"/><path d="M53.557 45.975a.417.417 0 1 1-.834 0 .417.417 0 0 1 .834 0z" fill="red" fill-rule="evenodd"/><path d="M53.557 45.975a.417.417 0 1 1-.834 0 .417.417 0 0 1 .834 0z" fill="none"/><path d="M57.393 45.975a.417.417 0 1 1-.835 0 .417.417 0 0 1 .835 0z" fill="red" fill-rule="evenodd"/><path d="M57.393 45.975a.417.417 0 1 1-.835 0 .417.417 0 0 1 .835 0z" fill="none"/><path d="M55.486 45.975a.417.417 0 1 1-.835 0 .417.417 0 0 1 .835 0z" fill="red" fill-rule="evenodd"/><path d="M55.486 45.975a.417.417 0 1 1-.835 0 .417.417 0 0 1 .835 0z" fill="none"/><path d="M55.486 42.112a.417.417 0 1 1-.835 0 .417.417 0 0 1 .835 0z" fill="red" fill-rule="evenodd"/><path d="M55.486 42.112a.417.417 0 1 1-.835 0 .417.417 0 0 1 .835 0z" fill="none"/><path d="M55.74 43.266l-.224 1.42-.478.135-.462-.129-.24-1.426z" fill="red" fill-rule="evenodd"/><path d="M55.74 43.266l-.224 1.42-.478.135-.462-.129-.24-1.426z" fill="none"/><g clip-path="url(#e)" transform="matrix(-.19884 0 0 .19884 150.647 -13.227)" stroke-width="1.774"><path d="M729.677 120.538c-.334-.438-1.085-.918-2.253-1.44-1.147-.5-1.783-.834-1.909-1 .167-1.356.209-2.378.126-3.067.646-.563 1.032-1.147 1.157-1.752-.187-.667-.709-1.512-1.564-2.534-.855-1.002-1.387-1.794-1.596-2.378.376-.376 1.335-.751 2.879-1.127 1.376-.334 2.315-.918 2.816-1.752-.021-.334-.334-.605-.939-.813-.605-.23-2.19-.585-4.756-1.064-2.566-.5-4.099-.751-4.6-.751-.896 0-1.46.448-1.69 1.345.105.5.439 1.074 1.002 1.721.647.71 1.043 1.262 1.19 1.658-.21.167-.856.272-1.94.313-.981.021-1.471.48-1.471 1.377 0 .584.323 1.241.97 1.971.667.751 1.637 1.481 2.91 2.19 1.084.585 2.169 1.158 3.254 1.721.125.605.187 1.158.187 1.659 0 .208-.01.386-.031.532-.563-.167-1.898-.783-4.005-1.846-1.606-.814-2.993-1.21-4.161-1.19h-.22c-.375.188-.563.46-.563.814 0 .668.929 1.742 2.785 3.223v-.532l-.219-.688c.814.208 1.93.709 3.348 1.501 1.335.751 2.357 1.43 3.066 2.034.105.271.157.532.157.782 0 .23-.052.439-.157.626-1.543-1.001-2.962-1.658-4.255-1.971l4.068 4.005c-.835.125-1.586.5-2.253 1.126-.668.647-1.001 1.377-1.001 2.19 0 .355.187.991.563 1.91l.813 1.94c.5-.147 1.074-.418 1.721-.814.793-.48 1.19-.908 1.19-1.283 0-.146-.21-.47-.627-.97-.417-.5-.625-.907-.625-1.22 0-.105.01-.199.03-.282.189-.042.408-.063.658-.063.25 0 .636.021 1.158.063.521.042.917.063 1.189.063 1.585 0 2.346-.49 2.284-1.471v-.219c-.355-.25-1.054-.647-2.097-1.189-.897-.459-1.564-.887-2.002-1.283.542-.292 1.345-.553 2.41-.782a52.692 52.692 0 0 1 1.72-.157c.563-.104.99-.48 1.283-1.126zm-7.009-7.478v.063c-2.107-.584-3.63-1.398-4.568-2.441-.334-.375-.5-.688-.5-.939 0-.146.083-.25.25-.313a1.94 1.94 0 0 1 .469-.062c1.043 0 2.034.365 2.972 1.095.96.75 1.419 1.617 1.377 2.597zm.5-6.57c0 .291-.083.594-.25.907-.688-.751-1.251-1.325-1.69-1.721a.693.693 0 0 1 .22-.032c.396 0 .96.188 1.69.564.02.083.03.177.03.281z" aria-label="金" font-weight="400" font-size="32.04" font-family="HakusyuSousyo_kk" fill="red"/></g><g clip-path="url(#f)" transform="matrix(-.19884 0 0 .19884 218.94 25.86)" stroke-width="1.774"><path d="M817.292 125.451q.6 0 1.638-.437 1.338-.6 2.075-1.91.383-.71.956-2.595.546-1.775 1.12-2.621.764 0 2.785 2.102 1.938 2.021 2.157 2.813l-.41.874q.11 0 .492.081.327.028.518.028.765 0 1.884-1.284 1.12-1.283 1.093-2.075v-.19q-.738-.383-2.076-1.257-1.365-1.229-4.123-3.44-.464-.273-1.31-.792-.328-.191-.82-.792-.436-.491-.928-.71-2.757-2.73-2.757-4.15 0-1.557 3.33-1.557 1.584 0 3.878.601 3.631 1.01 3.795 1.038.792-.3 1.557-.574.846-.355 1.146-1.065 0-.655-.546-1.01-.518-.355-2.239-.9-1.583-.574-2.32-.71-1.393-.274-3.496-.274-2.675 0-4.614.929-2.567 1.174-2.567 3.522 0 1.775 1.366 3.768l2.402 3.331q-.71 1.31-1.283 2.457-.764 1.857-1.556 3.687-1.092 2.348-2.403 2.812.082.3 1.256.3z" aria-label="と" font-weight="400" font-size="27.96" font-family="HakusyuKaisyo" fill="red"/></g></svg>