<svg xmlns="http://www.w3.org/2000/svg" width="52.175" height="60" viewBox="0 0 13.805 15.875"><defs><filter id="a" color-interpolation-filters="sRGB"><feFlood flood-opacity=".498" flood-color="#000" result="flood"/><feComposite in="flood" in2="SourceGraphic" operator="in" result="composite1"/><feGaussianBlur in="composite1" stdDeviation="1" result="blur"/><feOffset dx="5" dy="3" result="offset"/><feComposite in="SourceGraphic" in2="offset" result="composite2"/></filter><clipPath clipPathUnits="userSpaceOnUse" id="b"><path d="M0 0h936.12v612.12H0z" clip-rule="evenodd"/></clipPath></defs><g transform="matrix(.1852 0 0 .1852 -105.598 -51.555)" opacity=".99" stroke-width=".621" filter="url(#a)"><path d="M589.491 348.833v-3.78l17.934 5.167 17.533-5.566v3.78L607.425 354z" fill="#c3983c" fill-opacity=".992"/><path d="M624.958 346.654L634 288.441h-53.151l8.642 58.613 17.934 5.166z" fill="#feec99"/></g><path d="M7.369 4.563l-.15.952-.322.09-.308-.086-.161-.956z" fill="red" fill-rule="evenodd"/><path d="M7.369 4.563l-.15.952-.322.09-.308-.086-.161-.956z" fill="none"/><path d="M5.38 5.084a.417.417 0 1 1-.834 0 .417.417 0 0 1 .835 0z" fill="red" fill-rule="evenodd"/><path d="M5.38 5.084a.417.417 0 1 1-.834 0 .417.417 0 0 1 .835 0z" fill="none"/><path d="M9.216 5.084a.417.417 0 1 1-.834 0 .417.417 0 0 1 .834 0z" fill="red" fill-rule="evenodd"/><path d="M9.216 5.084a.417.417 0 1 1-.834 0 .417.417 0 0 1 .834 0z" fill="none"/><path d="M5.38 6.981a.417.417 0 1 1-.834 0 .417.417 0 0 1 .835 0z" fill="red" fill-rule="evenodd"/><path d="M5.38 6.981a.417.417 0 1 1-.834 0 .417.417 0 0 1 .835 0z" fill="none"/><path d="M9.216 6.981a.417.417 0 1 1-.835 0 .417.417 0 0 1 .835 0z" fill="red" fill-rule="evenodd"/><path d="M9.216 6.981a.417.417 0 1 1-.835 0 .417.417 0 0 1 .835 0z" fill="none"/><path d="M7.309 6.981a.417.417 0 1 1-.835 0 .417.417 0 0 1 .835 0z" fill="red" fill-rule="evenodd"/><path d="M7.309 6.981a.417.417 0 1 1-.835 0 .417.417 0 0 1 .835 0z" fill="none"/><path d="M7.309 3.118a.417.417 0 1 1-.834 0 .417.417 0 0 1 .834 0z" fill="red" fill-rule="evenodd"/><path d="M7.309 3.118a.417.417 0 1 1-.834 0 .417.417 0 0 1 .834 0z" fill="none"/><path d="M7.563 4.273l-.224 1.42-.478.134-.462-.128-.24-1.426z" fill="red" fill-rule="evenodd"/><path d="M7.563 4.273l-.224 1.42-.478.134-.462-.128-.24-1.426z" fill="none"/><g clip-path="url(#b)" transform="matrix(-.19884 0 0 .19884 170.763 -13.133)" stroke-width="1.774"><path d="M817.292 125.451q.6 0 1.638-.437 1.338-.6 2.075-1.91.383-.71.956-2.595.546-1.775 1.12-2.621.764 0 2.785 2.102 1.938 2.021 2.157 2.813l-.41.874q.11 0 .492.081.327.028.518.028.765 0 1.884-1.284 1.12-1.283 1.093-2.075v-.19q-.738-.383-2.076-1.257-1.365-1.229-4.123-3.44-.464-.273-1.31-.792-.328-.191-.82-.792-.436-.491-.928-.71-2.757-2.73-2.757-4.15 0-1.557 3.33-1.557 1.584 0 3.878.601 3.631 1.01 3.795 1.038.792-.3 1.557-.574.846-.355 1.146-1.065 0-.655-.546-1.01-.518-.355-2.239-.9-1.583-.574-2.32-.71-1.393-.274-3.496-.274-2.675 0-4.614.929-2.567 1.174-2.567 3.522 0 1.775 1.366 3.768l2.402 3.331q-.71 1.31-1.283 2.457-.764 1.857-1.556 3.687-1.092 2.348-2.403 2.812.082.3 1.256.3z" aria-label="と" font-weight="400" font-size="27.96" font-family="HakusyuKaisyo" fill="red"/></g></svg>