<svg xmlns="http://www.w3.org/2000/svg" width="52.157" height="60"><defs><path id="d" d="M9.938 254.738h58.585v166.861H9.938z"/><path id="c" d="M70.615 17.785h39.231v51.261H70.615z"/><path id="b" d="M20.923 18.308h37.138v53.877H20.923z"/><path id="a" d="M21.969 11.508h43.415v69.046H21.969z"/></defs><g fill="#fd5" stroke="#deaa87" stroke-width="1.333" stroke-linejoin="round" stroke-miterlimit="10"><path d="M161.815 195.736l-7.146 45.7-15.206 4.333-14.695-4.128-7.658-45.905zM49.237 4.177l-7.403 47.171-15.759 4.475-15.224-4.264-7.93-47.382zM49.973 194.93l-7.402 47.175-15.756 4.47-15.23-4.259-7.93-47.386zM105.72 195.738l-7.145 45.696-15.207 4.333-14.7-4.128-7.652-45.9zM105.778 132.757l-7.145 45.7-15.207 4.333-14.694-4.128-7.658-45.905zM162.49 132.757l-7.145 45.7-15.207 4.333-14.695-4.128-7.657-45.905zM276.77 196.584l-6.884 44.222-14.66 4.196-14.165-3.997-7.379-44.421zM276.349 134.198l-6.89 44.225-14.66 4.19-14.165-3.99-7.378-44.425zM219.025 134.44l-6.89 44.225-14.66 4.19-14.165-3.99-7.378-44.425zM386.574 135.492l-6.058 41.271-12.906 3.917-12.469-3.729-6.49-41.459zM331.88 197.737l-6.576 42.747-14 4.054-13.527-3.86-7.048-42.94zM386.523 198.934l-6.063 41.273-12.901 3.917-12.469-3.73-6.496-41.46zM443.274 135.651l-5.807 40.762-12.349 3.865-11.939-3.679-6.217-40.947zM442.746 199.697l-5.801 39.798-12.355 3.775-11.939-3.593-6.217-39.98zM331.93 134.694l-6.581 42.751-14 4.048-13.527-3.86-7.049-42.94z"/></g><g font-family="Noto Sans JP" letter-spacing="0" word-spacing="0" stroke="#000"><text style="line-height:125%;-inkscape-font-specification:'Noto Sans JP, Normal';white-space:pre;shape-inside:url(#a)" transform="rotate(180 32.928 36.078)" font-size="48"><tspan x="21.969" y="59.748"><tspan>K</tspan></tspan></text><text style="line-height:125%;-inkscape-font-specification:'Noto Sans JP, Normal'" x="-98.69" y="-141.498" transform="scale(-1)" font-size="43.2"><tspan x="-98.69" y="-141.498">R</tspan></text><text style="line-height:125%;-inkscape-font-specification:'Noto Sans JP, Normal'" x="-155.459" y="-141.899" transform="scale(-1)" font-size="43.2"><tspan x="-155.459" y="-141.899">B</tspan></text><text style="line-height:125%;-inkscape-font-specification:'Noto Sans JP, Normal'" x="-212.546" y="-142.673" transform="scale(-1)" font-size="41.04"><tspan x="-212.546" y="-142.673">K</tspan></text><text style="line-height:125%;-inkscape-font-specification:'Noto Sans JP, Normal'" x="-268.938" y="-142.2" transform="scale(-1)" font-size="41.04"><tspan x="-268.938" y="-142.2">S</tspan></text><text style="line-height:125%;-inkscape-font-specification:'Noto Sans JP, Normal'" x="-325.897" y="-142.901" transform="scale(-1)" font-size="38.988"><tspan x="-325.897" y="-142.901">N</tspan></text><text style="line-height:125%;-inkscape-font-specification:'Noto Sans JP, Normal'" x="-380.983" y="-143.845" transform="scale(-1)" font-size="37.039"><tspan x="-380.983" y="-143.845">L</tspan></text><text style="line-height:125%;-inkscape-font-specification:'Noto Sans JP, Normal'" x="-436.923" y="-144.459" transform="scale(-1)" font-size="35.187"><tspan x="-436.923" y="-144.459">P</tspan></text><text style="line-height:125%;-inkscape-font-specification:'Noto Sans JP, Normal';white-space:pre;shape-inside:url(#b)" font-size="48"/><text style="line-height:125%;-inkscape-font-specification:'Noto Sans JP, Normal'" x="-155.028" y="-204.92" transform="scale(-1)" font-size="43.2" fill="#d40000"><tspan x="-155.028" y="-204.92">H</tspan></text><text style="line-height:125%;-inkscape-font-specification:'Noto Sans JP, Normal'" x="-99.181" y="-204.92" transform="scale(-1)" font-size="43.2" fill="#d40000"><tspan x="-99.181" y="-204.92">D</tspan></text><text style="line-height:125%;-inkscape-font-specification:'Noto Sans JP, Normal'" x="-44.623" y="-203.161" transform="scale(-1)" font-size="48"><tspan x="-44.623" y="-203.161">K</tspan></text><g fill="#d40000"><text style="line-height:125%;-inkscape-font-specification:'Noto Sans JP, Normal'" x="300.199" y="292.93" font-size="38.988" transform="rotate(180 311.43 249.58)"><tspan x="300.199" y="292.93">N</tspan></text><text style="line-height:125%;-inkscape-font-specification:'Noto Sans JP, Normal'" x="297.607" y="271.343" font-size="21.115" transform="rotate(180 311.43 249.58)"><tspan x="297.607" y="271.343">+</tspan></text></g><g fill="#d40000"><text style="line-height:125%;-inkscape-font-specification:'Noto Sans JP, Normal'" x="240.899" y="269.46" font-size="21.115" transform="rotate(180 255.13 248.943)"><tspan x="240.899" y="269.46">+</tspan></text><text style="line-height:125%;-inkscape-font-specification:'Noto Sans JP, Normal'" x="243.321" y="293.004" font-size="41.04" transform="rotate(180 255.13 248.943)"><tspan x="243.321" y="293.004">S</tspan></text></g><g fill="#d40000"><text style="line-height:125%;-inkscape-font-specification:'Noto Sans JP, Normal'" x="362.239" y="291.223" font-size="37.039" transform="rotate(180 370.167 248.419)"><tspan x="362.239" y="291.223">L</tspan></text><text style="line-height:125%;-inkscape-font-specification:'Noto Sans JP, Normal'" x="358.291" y="270.728" font-size="21.115" transform="rotate(180 370.167 248.419)"><tspan x="358.291" y="270.728">+</tspan></text></g><g fill="#d40000"><text style="line-height:125%;-inkscape-font-specification:'Noto Sans JP, Normal'" x="417.084" y="291.099" font-size="35.187" transform="rotate(180 425.675 249.044)"><tspan x="417.084" y="291.099">P</tspan></text><text style="line-height:125%;-inkscape-font-specification:'Noto Sans JP, Normal'" x="412.914" y="272.102" font-size="21.115" transform="rotate(180 425.675 249.044)"><tspan x="412.914" y="272.102">+</tspan></text></g></g></svg>