<svg xmlns="http://www.w3.org/2000/svg" width="52.157" height="60"><defs><path id="c" d="M9.938 254.738h58.585v166.861H9.938z"/><path id="b" d="M70.615 17.785h39.231v51.261H70.615z"/><path id="a" d="M20.923 18.308h37.138v53.877H20.923z"/></defs><g fill="#fd5" stroke="#deaa87" stroke-width="1.333" stroke-linejoin="round" stroke-miterlimit="10"><path d="M44.772 137.683l-7.145 45.7-15.207 4.333-14.694-4.128-7.658-45.905zM-11.323 137.685l-7.145 45.696-15.207 4.333-14.7-4.128-7.652-45.901zM48.43 4.984l-7.145 45.7-15.207 4.332-14.694-4.127L3.726 4.984zM45.447 74.704l-7.145 45.7-15.207 4.333-14.694-4.128L.743 74.704zM159.727 138.53l-6.884 44.223-14.66 4.196-14.165-3.997-7.378-44.421zM159.306 76.145l-6.889 44.225-14.66 4.19-14.165-3.99-7.379-44.425zM101.982 76.387l-6.889 44.225-14.66 4.19-14.165-3.99-7.379-44.425zM269.532 77.44l-6.058 41.27-12.907 3.917-12.468-3.729-6.49-41.459zM214.838 139.684l-6.576 42.747-14 4.054-13.527-3.86-7.049-42.941zM269.48 140.881l-6.062 41.273-12.902 3.917-12.468-3.73-6.496-41.46zM326.232 77.598l-5.808 40.762-12.348 3.865-11.94-3.679-6.216-40.948zM325.704 141.644l-5.802 39.798-12.354 3.775-11.94-3.593-6.216-39.98zM214.888 76.64l-6.581 42.752-14 4.048-13.528-3.86-7.048-42.94z"/></g><g font-family="Noto Sans JP" letter-spacing="0" word-spacing="0" stroke="#000"><text style="line-height:125%;-inkscape-font-specification:'Noto Sans JP, Normal'" x="-41.371" y="-14.167" transform="scale(-1)" font-size="43.2"><tspan x="-41.371" y="-14.167">R</tspan></text><text style="line-height:125%;-inkscape-font-specification:'Noto Sans JP, Normal'" x="-38.416" y="-83.846" transform="scale(-1)" font-size="43.2"><tspan x="-38.416" y="-83.846">B</tspan></text><text style="line-height:125%;-inkscape-font-specification:'Noto Sans JP, Normal'" x="-95.503" y="-84.62" transform="scale(-1)" font-size="41.04"><tspan x="-95.503" y="-84.62">K</tspan></text><text style="line-height:125%;-inkscape-font-specification:'Noto Sans JP, Normal'" x="-151.895" y="-84.147" transform="scale(-1)" font-size="41.04"><tspan x="-151.895" y="-84.147">S</tspan></text><text style="line-height:125%;-inkscape-font-specification:'Noto Sans JP, Normal'" x="-208.855" y="-84.848" transform="scale(-1)" font-size="38.988"><tspan x="-208.855" y="-84.848">N</tspan></text><text style="line-height:125%;-inkscape-font-specification:'Noto Sans JP, Normal'" x="-263.941" y="-85.792" transform="scale(-1)" font-size="37.039"><tspan x="-263.941" y="-85.792">L</tspan></text><text style="line-height:125%;-inkscape-font-specification:'Noto Sans JP, Normal'" x="-319.881" y="-86.406" transform="scale(-1)" font-size="35.187"><tspan x="-319.881" y="-86.406">P</tspan></text><text style="line-height:125%;-inkscape-font-specification:'Noto Sans JP, Normal';white-space:pre;shape-inside:url(#a)" font-size="48"/><text style="line-height:125%;-inkscape-font-specification:'Noto Sans JP, Normal'" x="-37.986" y="-146.867" transform="scale(-1)" font-size="43.2" fill="#d40000"><tspan x="-37.986" y="-146.867">H</tspan></text><text style="line-height:125%;-inkscape-font-specification:'Noto Sans JP, Normal'" x="17.862" y="-146.867" transform="scale(-1)" font-size="43.2" fill="#d40000"><tspan x="17.862" y="-146.867">D</tspan></text><g fill="#d40000"><text style="line-height:125%;-inkscape-font-specification:'Noto Sans JP, Normal'" x="300.199" y="292.93" font-size="38.988" transform="rotate(180 252.908 220.554)"><tspan x="300.199" y="292.93">N</tspan></text><text style="line-height:125%;-inkscape-font-specification:'Noto Sans JP, Normal'" x="297.607" y="271.343" font-size="21.115" transform="rotate(180 252.908 220.554)"><tspan x="297.607" y="271.343">+</tspan></text></g><g fill="#d40000"><text style="line-height:125%;-inkscape-font-specification:'Noto Sans JP, Normal'" x="240.899" y="269.46" font-size="21.115" transform="rotate(180 196.61 219.916)"><tspan x="240.899" y="269.46">+</tspan></text><text style="line-height:125%;-inkscape-font-specification:'Noto Sans JP, Normal'" x="243.321" y="293.004" font-size="41.04" transform="rotate(180 196.61 219.916)"><tspan x="243.321" y="293.004">S</tspan></text></g><g fill="#d40000"><text style="line-height:125%;-inkscape-font-specification:'Noto Sans JP, Normal'" x="362.239" y="291.223" font-size="37.039" transform="rotate(180 311.645 219.393)"><tspan x="362.239" y="291.223">L</tspan></text><text style="line-height:125%;-inkscape-font-specification:'Noto Sans JP, Normal'" x="358.291" y="270.728" font-size="21.115" transform="rotate(180 311.645 219.393)"><tspan x="358.291" y="270.728">+</tspan></text></g><g fill="#d40000"><text style="line-height:125%;-inkscape-font-specification:'Noto Sans JP, Normal'" x="417.084" y="291.099" font-size="35.187" transform="rotate(180 367.154 220.018)"><tspan x="417.084" y="291.099">P</tspan></text><text style="line-height:125%;-inkscape-font-specification:'Noto Sans JP, Normal'" x="412.914" y="272.102" font-size="21.115" transform="rotate(180 367.154 220.018)"><tspan x="412.914" y="272.102">+</tspan></text></g></g></svg>