<svg xmlns="http://www.w3.org/2000/svg" width="52.157" height="60"><defs><path id="c" d="M9.938 254.738h58.585v166.861H9.938z"/><path id="b" d="M70.615 17.785h39.231v51.261H70.615z"/><path id="a" d="M20.923 18.308h37.138v53.877H20.923z"/></defs><g fill="#fd5" stroke="#deaa87" stroke-width="1.333" stroke-linejoin="round" stroke-miterlimit="10"><path d="M45.04 7.406l-6.058 41.271-12.906 3.917-12.469-3.73-6.49-41.458zM269.48 140.881l-6.062 41.273-12.902 3.917-12.468-3.73-6.496-41.46zM326.232 77.598l-5.808 40.762-12.348 3.865-11.94-3.679-6.216-40.948zM325.704 141.644l-5.802 39.798-12.354 3.775-11.94-3.593-6.216-39.98z"/></g><g font-family="Noto Sans JP" letter-spacing="0" word-spacing="0" stroke="#000"><text style="line-height:125%;-inkscape-font-specification:'Noto Sans JP, Normal'" x="-37.431" y="-16.425" transform="scale(-1)" font-size="37.039"><tspan x="-37.431" y="-16.425">L</tspan></text><text style="line-height:125%;-inkscape-font-specification:'Noto Sans JP, Normal'" x="-319.881" y="-86.406" transform="scale(-1)" font-size="35.187"><tspan x="-319.881" y="-86.406">P</tspan></text><text style="line-height:125%;-inkscape-font-specification:'Noto Sans JP, Normal';white-space:pre;shape-inside:url(#a)" font-size="48"/><g fill="#d40000"><text style="line-height:125%;-inkscape-font-specification:'Noto Sans JP, Normal'" x="362.239" y="291.223" font-size="37.039" transform="rotate(180 311.645 219.393)"><tspan x="362.239" y="291.223">L</tspan></text><text style="line-height:125%;-inkscape-font-specification:'Noto Sans JP, Normal'" x="358.291" y="270.728" font-size="21.115" transform="rotate(180 311.645 219.393)"><tspan x="358.291" y="270.728">+</tspan></text></g><g fill="#d40000"><text style="line-height:125%;-inkscape-font-specification:'Noto Sans JP, Normal'" x="417.084" y="291.099" font-size="35.187" transform="rotate(180 367.154 220.018)"><tspan x="417.084" y="291.099">P</tspan></text><text style="line-height:125%;-inkscape-font-specification:'Noto Sans JP, Normal'" x="412.914" y="272.102" font-size="21.115" transform="rotate(180 367.154 220.018)"><tspan x="412.914" y="272.102">+</tspan></text></g></g></svg>