<svg xmlns="http://www.w3.org/2000/svg" width="52.175" height="60" viewBox="0 0 13.805 15.875"><g font-weight="300" font-family="Noto Sans JP" letter-spacing="0" word-spacing="0" stroke="#000" stroke-width=".2" stroke-linecap="round" stroke-linejoin="round"><g style="line-height:125%;-inkscape-font-specification:'Noto Sans JP, weight=250';font-variant-ligatures:normal;font-variant-caps:normal;font-variant-numeric:normal;font-variant-east-asian:normal"><path d="M8.077 10.28V8.173h3.442v2.109zm-.584-2.108v2.109H4.102c.152-.737.19-1.46.19-2.109zm1.55-4.686a8.966 8.966 0 0 1-1.055 1.575h-3.67c.482-.52.914-1.054 1.295-1.575zM4.292 5.62h3.2v2.006h-3.2zm7.226 2.006H8.077V5.62h3.442zm.597-2.565H8.66a9.942 9.942 0 0 0 1.245-1.892l-.407-.267-.114.038H5.982c.14-.229.279-.457.406-.673l-.673-.114c-.673 1.27-1.943 2.908-3.696 4.102.153.089.343.28.445.419.444-.318.85-.648 1.232-1.003v2.476c0 1.651-.216 3.67-2.007 5.13.127.09.343.306.432.445.99-.825 1.55-1.841 1.841-2.883h7.557v1.918c0 .241-.09.318-.369.33-.266.013-1.231.026-2.336-.012.089.177.203.444.241.61 1.295 0 2.095 0 2.515-.102.406-.102.546-.33.546-.826z" style="-inkscape-font-specification:'Noto Sans JP, weight=250';font-variant-ligatures:normal;font-variant-caps:normal;font-variant-numeric:normal;font-variant-east-asian:normal" aria-label="角" font-size="12.7"/></g><g style="line-height:125%;-inkscape-font-specification:'Noto Sans JP, weight=250';font-variant-ligatures:normal;font-variant-caps:normal;font-variant-numeric:normal;font-variant-east-asian:normal"><path d="M52.964 12.337h4.635v-.559h-4.635V9.822h2.908v-.571h-6.324v.571h2.794v1.956H47.82v.56h4.522v3.517h-5.068v.559h10.859v-.559h-5.17zm-3.937.737c.546.749 1.054 1.765 1.219 2.425l.52-.228c-.164-.66-.698-1.651-1.231-2.388zm5.753 2.438c.483-.635 1.092-1.613 1.562-2.438l-.571-.229c-.343.724-.978 1.79-1.461 2.438zm-2.464-10.16c-1.029 1.626-3.162 3.48-5.36 4.597.14.14.293.343.382.483 2.159-1.143 4.254-2.972 5.308-4.47 1.22 1.613 3.48 3.352 5.436 4.368.102-.165.267-.393.419-.533-1.981-.902-4.254-2.68-5.6-4.445z" style="-inkscape-font-specification:'Noto Sans JP, weight=250';font-variant-ligatures:normal;font-variant-caps:normal;font-variant-numeric:normal;font-variant-east-asian:normal" aria-label="金" font-size="12.7"/></g><g style="line-height:125%;-inkscape-font-specification:'Noto Sans JP, weight=250';font-variant-ligatures:normal;font-variant-caps:normal;font-variant-numeric:normal;font-variant-east-asian:normal"><path d="M24.31 27.52h-2.375v-1.207h-.597v1.206H19v.546h5.309zm-1.448 2.59c.216-.47.482-1.156.711-1.778l-.559-.178c-.127.521-.419 1.296-.647 1.778zm-1.943-.178c-.076-.47-.318-1.193-.559-1.74l-.52.127c.24.56.482 1.283.545 1.753zm-.826 4.953v-1.117h3.188v1.117zm3.188-2.68v1.067h-3.188v-1.066zm.597-.507h-4.369v6.096h.584v-2.426h3.188v1.69c0 .126-.038.164-.203.177-.153.013-.648.013-1.258-.013.09.178.191.42.23.584.71 0 1.193 0 1.485-.101.267-.102.343-.305.343-.648zm-5.118-.966h5.791v-.558H18.76zm7.886 6.465c-.673 0-.787-.102-.787-.483v-.775h3.797v-.482H25.86v-.978h3.67v-.483h-3.67v-.94h3.747v-.47h-3.747v-.952h3.76V29.17h-3.76v-1.232h4.28v-.546h-4.28v-1.08h-.584v3.38h3.76V31.1h-3.76v5.613c0 .851.292 1.016 1.359 1.016h2.565c.864 0 1.054-.292 1.143-1.371-.178-.039-.432-.127-.559-.229-.038.902-.127 1.067-.61 1.067z" style="-inkscape-font-specification:'Noto Sans JP, weight=250';font-variant-ligatures:normal;font-variant-caps:normal;font-variant-numeric:normal;font-variant-east-asian:normal" aria-label="龍" font-size="12.7"/></g><g style="line-height:125%;-inkscape-font-specification:'Noto Sans JP, weight=250';font-variant-ligatures:normal;font-variant-caps:normal;font-variant-numeric:normal;font-variant-east-asian:normal"><path d="M35.132 37.61c.864-.724 1.27-1.968 1.524-3.137l-.533-.14c-.216 1.105-.66 2.274-1.486 2.947zm2.82-2.92c.203.8.343 1.803.355 2.476l.572-.09c-.026-.672-.19-1.676-.407-2.463zm2.171-.102c.356.71.673 1.663.788 2.235l.52-.165c-.101-.56-.444-1.486-.8-2.172zM36.86 31.59h3.353v1.524H36.86zm3.353-4.114V29H36.86v-1.524zm0 3.58H36.86v-1.51h3.353zm.597 2.058V31.59h3.81v-.533h-3.81v-1.511h3.81V29h-3.81v-1.524h4.242v-.56h-8.788v6.757h8.864c-.165 2.26-.343 3.137-.622 3.391-.09.114-.216.127-.457.127-.229 0-.902 0-1.6-.076.101.178.152.419.165.571.673.051 1.333.064 1.663.038.33 0 .546-.076.75-.266.342-.369.533-1.36.723-4.039.013-.101.026-.305.026-.305zm3.048 2.756c-.203-.457-.724-1.168-1.22-1.676l-.456.216c.482.52 1.003 1.257 1.206 1.727z" style="-inkscape-font-specification:'Noto Sans JP, weight=250';font-variant-ligatures:normal;font-variant-caps:normal;font-variant-numeric:normal;font-variant-east-asian:normal" aria-label="馬" font-size="12.7"/></g><g style="line-height:125%;-inkscape-font-specification:'Noto Sans JP, weight=250';font-variant-ligatures:normal;font-variant-caps:normal;font-variant-numeric:normal;font-variant-east-asian:normal"><path d="M70.732 7.562c-.508-.673-1.536-1.702-2.387-2.439h-.623c-.457 1.03-1.333 2.388-2.552 3.379.114.076.305.254.406.38 1.194-1.003 2.02-2.26 2.553-3.212.813.71 1.689 1.714 2.159 2.35zm-.203 7.01c-.724.153-1.448.305-2.133.445V10.94h2.032v-.546h-2.032V8.806h1.676v-.558h-3.797v.558h1.562v1.588h-2.248v.546h2.248v4.191c-.927.19-1.753.356-2.388.483l.165.558c1.321-.279 3.2-.685 4.966-1.066zm-4.585-2.641c.293.787.521 1.79.56 2.45l.52-.126a10.297 10.297 0 0 0-.597-2.439zm3.43 2.324c.253-.623.57-1.613.825-2.413l-.546-.19c-.14.71-.47 1.79-.699 2.438zm2.374-5.703h3.912v1.83h-3.912zm3.912-2.298v1.74h-3.912v-1.74zm.66 5.334c-.444.495-1.206 1.13-1.828 1.6a11.003 11.003 0 0 1-.75-2.235h2.502V5.695h-5.08v9.957c-.419.089-.8.178-1.13.254l.19.597c1.194-.305 2.782-.712 4.318-1.118l-.063-.571c-.94.24-1.88.482-2.73.685v-4.546h1.447c.584 2.578 1.74 4.686 3.543 5.69.102-.153.28-.382.42-.509-1.016-.482-1.817-1.359-2.426-2.476.66-.457 1.46-1.08 2.032-1.664z" style="-inkscape-font-specification:'Noto Sans JP, weight=250';font-variant-ligatures:normal;font-variant-caps:normal;font-variant-numeric:normal;font-variant-east-asian:normal" aria-label="銀" font-size="12.7"/></g><g style="line-height:125%;-inkscape-font-specification:'Noto Sans JP, weight=250';font-variant-ligatures:normal;font-variant-caps:normal;font-variant-numeric:normal;font-variant-east-asian:normal"><path d="M89.042 9.759h-3.264v.584h7.29V9.76h-3.416V7.575h2.756v-.572h-2.756V5.2h-.61v1.803h-2.756v.572h2.756zm-3.289 1.308c-.229-.368-1.156-1.79-1.499-2.26V8.21h1.626v-.585h-1.626V5.136h-.571v2.49h-1.74v.584h1.651c-.419 1.866-1.295 4.025-2.12 5.118.113.14.291.38.367.546.674-.953 1.36-2.591 1.842-4.191v6.947h.571V9.58c.381.648.902 1.55 1.093 1.956zm3.899 4.47V13.1h2.946v-.571h-2.946v-1.639h-.61v1.639h-2.997v.571h2.997v2.438H85.17v.585h8.014v-.585z" style="-inkscape-font-specification:'Noto Sans JP, weight=250';font-variant-ligatures:normal;font-variant-caps:normal;font-variant-numeric:normal;font-variant-east-asian:normal" aria-label="桂" font-size="12.7"/></g><g style="line-height:125%;-inkscape-font-specification:'Noto Sans JP, weight=250';font-variant-ligatures:normal;font-variant-caps:normal;font-variant-numeric:normal;font-variant-east-asian:normal"><path d="M108.721 12.147v1.422h-6.312v-1.422zm-6.312 3.403v-1.486h6.312v1.486zm-.596 1.016h.596v-.495h6.312v.47h.61v-4.915h-7.518zm9.258-7.988v-.572h-5.296V6.343c1.473-.178 2.857-.394 3.899-.66l-.508-.483c-1.816.495-5.347.838-8.255.99.063.153.14.381.165.534a94.448 94.448 0 0 0 4.09-.318v1.6H99.92v.572h4.42c-1.143 1.333-2.997 2.59-4.61 3.2.152.115.33.33.419.483 1.689-.711 3.696-2.16 4.877-3.683h.14v2.667h.609V8.578h.152c1.207 1.422 3.239 2.82 4.915 3.505.09-.165.267-.38.42-.495-1.588-.572-3.468-1.778-4.636-3.01z" style="-inkscape-font-specification:'Noto Sans JP, weight=250';font-variant-ligatures:normal;font-variant-caps:normal;font-variant-numeric:normal;font-variant-east-asian:normal" aria-label="香" font-size="12.7"/></g><g style="line-height:125%;-inkscape-font-specification:'Noto Sans JP, weight=250';font-variant-ligatures:normal;font-variant-caps:normal;font-variant-numeric:normal;font-variant-east-asian:normal"><path d="M119.781 10.381c-.622.99-1.625 1.969-2.59 2.642.152.076.419.28.533.368.927-.686 1.981-1.752 2.667-2.82zm5.652 1.778c-.94 2.413-3.264 3.556-7.328 3.937.14.165.254.394.318.584 4.152-.482 6.629-1.727 7.607-4.305zm-.394-1.448c.965.775 2.07 1.893 2.54 2.667l.508-.368c-.495-.762-1.6-1.854-2.578-2.616zm-2.146-1.473v-1.93h4.09v-.572h-4.09v-1.65h-.622v4.152h-2.693v-3.06h-.61v3.06h-1.955v.584h5.27v3.264c0 .165-.05.204-.241.216-.216.013-.876.013-1.714-.012.088.165.177.393.215.558 1.004 0 1.613 0 1.918-.101.343-.09.432-.28.432-.66V9.821h5.296v-.584z" style="-inkscape-font-specification:'Noto Sans JP, weight=250';font-variant-ligatures:normal;font-variant-caps:normal;font-variant-numeric:normal;font-variant-east-asian:normal" aria-label="歩" font-size="12.7"/></g><g style="line-height:125%;-inkscape-font-specification:'Noto Sans JP, weight=250';font-variant-ligatures:normal;font-variant-caps:normal;font-variant-numeric:normal;font-variant-east-asian:normal"><path d="M124.974 26.964c-.216.19-.444.317-.737.495-.736.419-2.273 1.156-3.543 1.918-.546-.991-1.22-2.452-1.74-3.861l-.66.28c.597 1.383 1.295 2.933 1.867 3.936-1.46.965-2.223 2.02-2.223 3.239 0 1.714 1.613 2.425 3.874 2.425 1.536 0 3.073-.14 3.937-.304l.012-.737c-.901.241-2.565.406-3.987.406-2.121 0-3.175-.736-3.175-1.867 0-.99.698-1.88 1.943-2.692 1.27-.838 3.124-1.727 4.013-2.197.305-.165.559-.305.787-.445z" style="-inkscape-font-specification:'Noto Sans JP, weight=250';font-variant-ligatures:normal;font-variant-caps:normal;font-variant-numeric:normal;font-variant-east-asian:normal" aria-label="と" font-size="12.7"/></g><g style="line-height:125%;-inkscape-font-specification:'Noto Sans JP, weight=250';font-variant-ligatures:normal;font-variant-caps:normal;font-variant-numeric:normal;font-variant-east-asian:normal"><path d="M50 195.4c-.293-.257-.87-.606-1.348-.842l-.2.221c.478.235 1.056.606 1.348.863zm-.421 1.36a7.654 7.654 0 0 1-1.062 2.118c-.228-.742-.378-1.682-.464-2.78h2.324v-.335h-2.345a24.774 24.774 0 0 1-.036-1.283h-.349c.007.435.022.862.043 1.283h-3.036v1.946c0 .926-.072 2.138-.685 3.022.086.043.214.157.278.221.649-.92.756-2.267.756-3.236v-.264h1.518c-.036 1.433-.071 1.946-.178 2.06-.043.057-.121.071-.228.071-.121 0-.47 0-.841-.035a.854.854 0 0 1 .107.32c.356.022.684.03.87.015.184-.007.291-.05.384-.157.143-.178.185-.763.221-2.423 0-.05.007-.171.007-.171h-1.86v-1.034h2.708c.093 1.205.271 2.274.542 3.1a5.873 5.873 0 0 1-1.76 1.412c.078.064.199.2.249.27a6.737 6.737 0 0 0 1.646-1.318c.335.82.785 1.312 1.355 1.312.477 0 .613-.371.691-1.519a.926.926 0 0 1-.3-.178c-.05.97-.142 1.347-.37 1.347-.442 0-.827-.463-1.126-1.261a7.658 7.658 0 0 0 1.283-2.417z" style="-inkscape-font-specification:'Noto Sans JP, weight=250';font-variant-ligatures:normal;font-variant-caps:normal;font-variant-numeric:normal;font-variant-east-asian:normal" transform="matrix(1.60357 0 0 .62361 -4.746 -94.08)" aria-label="成" font-size="7.128"/></g><g style="line-height:125%;-inkscape-font-specification:'Noto Sans JP, weight=250';font-variant-ligatures:normal;font-variant-caps:normal;font-variant-numeric:normal;font-variant-east-asian:normal"><path d="M60.676 157.772c-.41-.543-1.239-1.372-1.925-1.966h-.502c-.368.83-1.075 1.925-2.058 2.724.092.061.246.204.328.307.962-.81 1.628-1.823 2.058-2.59a13.586 13.586 0 0 1 1.74 1.893zm-.164 5.652c-.583.123-1.167.246-1.72.358v-3.287h1.638v-.44h-1.638v-1.28h1.352v-.45h-3.062v.45h1.26v1.28h-1.813v.44h1.812v3.38c-.747.153-1.413.286-1.924.388l.133.451c1.065-.225 2.58-.553 4.003-.86zm-3.696-2.13c.235.635.42 1.444.45 1.976l.42-.102a8.301 8.301 0 0 0-.481-1.966zm2.764 1.874c.205-.502.461-1.3.666-1.946l-.44-.153c-.113.573-.38 1.444-.563 1.966zm1.915-4.597h3.154v1.474h-3.154zm3.154-1.854v1.403h-3.154v-1.403zm.532 4.3c-.358.4-.973.912-1.474 1.29a8.87 8.87 0 0 1-.604-1.801h2.017v-4.24h-4.096v8.028c-.338.072-.645.144-.911.205l.153.481c.963-.246 2.243-.573 3.482-.9l-.051-.462c-.758.195-1.516.39-2.202.553v-3.665h1.167c.471 2.078 1.403 3.778 2.857 4.587.082-.123.225-.307.338-.41-.82-.389-1.464-1.095-1.956-1.996.533-.369 1.178-.87 1.639-1.342z" style="-inkscape-font-specification:'Noto Sans JP, weight=250';font-variant-ligatures:normal;font-variant-caps:normal;font-variant-numeric:normal;font-variant-east-asian:normal" transform="matrix(1.24035 0 0 .80623 -4.746 -94.08)" aria-label="銀" font-size="10.239"/></g><g style="line-height:125%;-inkscape-font-specification:'Noto Sans JP, weight=250';font-variant-ligatures:normal;font-variant-caps:normal;font-variant-numeric:normal;font-variant-east-asian:normal"><path d="M75.869 158.88h-2.631v.471h5.877v-.47H76.36v-1.762h2.222v-.46H76.36v-1.455h-.491v1.454h-2.222v.461h2.222zm-2.652 1.055a50.433 50.433 0 0 0-1.208-1.823v-.48h1.31v-.472h-1.31v-2.007h-.46v2.007h-1.404v.471h1.331c-.337 1.505-1.044 3.246-1.71 4.126.093.113.236.308.297.44.543-.767 1.096-2.088 1.485-3.378v5.6h.46v-5.682c.308.522.728 1.249.881 1.577zm3.143 3.604v-1.966h2.376v-.46H76.36v-1.321h-.491v1.32h-2.416v.461h2.416v1.966h-3.123v.471h6.461v-.471z" style="-inkscape-font-specification:'Noto Sans JP, weight=250';font-variant-ligatures:normal;font-variant-caps:normal;font-variant-numeric:normal;font-variant-east-asian:normal" transform="matrix(1.24035 0 0 .80623 -4.746 -94.08)" aria-label="桂" font-size="10.239"/></g><g style="line-height:125%;-inkscape-font-specification:'Noto Sans JP, weight=250';font-variant-ligatures:normal;font-variant-caps:normal;font-variant-numeric:normal;font-variant-east-asian:normal"><path d="M60.413 194.248c-.293-.256-.87-.606-1.348-.84l-.2.22c.478.235 1.056.606 1.348.863zm-.42 1.362a7.654 7.654 0 0 1-1.063 2.117c-.228-.742-.378-1.683-.463-2.78h2.323v-.335h-2.345a24.774 24.774 0 0 1-.035-1.283h-.35c.008.435.022.862.043 1.283h-3.036v1.946c0 .926-.072 2.138-.685 3.022.086.043.214.157.278.22.65-.919.756-2.266.756-3.235v-.264h1.518c-.035 1.433-.071 1.946-.178 2.06-.043.057-.121.071-.228.071-.121 0-.47 0-.841-.035a.854.854 0 0 1 .107.32c.356.022.684.029.87.015.185-.007.292-.05.384-.157.143-.178.186-.763.221-2.424 0-.05.007-.17.007-.17h-1.86v-1.034h2.709c.092 1.204.27 2.274.541 3.1a5.873 5.873 0 0 1-1.76 1.412c.078.064.2.2.25.27a6.737 6.737 0 0 0 1.646-1.318c.335.82.784 1.312 1.354 1.312.478 0 .613-.371.691-1.519a.926.926 0 0 1-.299-.178c-.05.97-.143 1.347-.37 1.347-.443 0-.827-.463-1.127-1.261a7.659 7.659 0 0 0 1.283-2.417z" style="-inkscape-font-specification:'Noto Sans JP, weight=250';font-variant-ligatures:normal;font-variant-caps:normal;font-variant-numeric:normal;font-variant-east-asian:normal" transform="matrix(1.60357 0 0 .62361 -4.746 -94.08)" aria-label="成" font-size="7.128"/></g><g><g style="line-height:125%;-inkscape-font-specification:'Noto Sans JP, weight=250';font-variant-ligatures:normal;font-variant-caps:normal;font-variant-numeric:normal;font-variant-east-asian:normal"><path d="M91.95 159.48v1.146h-5.089v-1.147zm-5.089 2.743v-1.198h5.09v1.198zm-.48.82h.48v-.4h5.09v.379h.49v-3.963h-6.06zm7.463-6.441v-.46h-4.27V154.8c1.188-.143 2.305-.318 3.144-.533l-.41-.389c-1.464.4-4.31.676-6.655.799.051.123.113.307.133.43a76.092 76.092 0 0 0 3.297-.256v1.29h-4.229v.461h3.564c-.922 1.075-2.417 2.089-3.717 2.58.123.092.266.266.338.39 1.362-.574 2.98-1.741 3.932-2.97h.112v2.15h.492v-2.15h.123c.972 1.147 2.61 2.273 3.962 2.826.072-.133.215-.307.338-.4-1.28-.46-2.795-1.433-3.737-2.426z" style="-inkscape-font-specification:'Noto Sans JP, weight=250';font-variant-ligatures:normal;font-variant-caps:normal;font-variant-numeric:normal;font-variant-east-asian:normal" transform="matrix(1.24035 0 0 .80623 -4.746 -94.08)" aria-label="香" font-size="10.239"/></g><g style="line-height:125%;-inkscape-font-specification:'Noto Sans JP, weight=250';font-variant-ligatures:normal;font-variant-caps:normal;font-variant-numeric:normal;font-variant-east-asian:normal"><path d="M71.909 192.534c-.292-.257-.87-.606-1.347-.841l-.2.22c.478.236 1.055.607 1.347.863zm-.42 1.361a7.654 7.654 0 0 1-1.063 2.117c-.228-.741-.378-1.682-.463-2.78h2.324v-.335h-2.345a24.774 24.774 0 0 1-.036-1.283h-.35c.008.435.022.863.043 1.283h-3.036v1.946c0 .927-.071 2.139-.684 3.023.085.042.213.156.278.22.648-.919.755-2.266.755-3.236v-.263h1.518c-.035 1.432-.07 1.946-.178 2.06-.043.057-.121.071-.228.071-.121 0-.47 0-.841-.036a.854.854 0 0 1 .107.321c.356.022.684.029.87.014.185-.007.292-.05.384-.156.143-.179.186-.763.221-2.424 0-.05.008-.17.008-.17h-1.86v-1.034h2.708c.092 1.204.27 2.273.541 3.1a5.873 5.873 0 0 1-1.76 1.411c.078.065.2.2.25.271a6.737 6.737 0 0 0 1.646-1.318c.335.82.784 1.311 1.354 1.311.478 0 .613-.37.692-1.518a.926.926 0 0 1-.3-.178c-.05.97-.142 1.347-.37 1.347-.442 0-.827-.463-1.127-1.262a7.659 7.659 0 0 0 1.283-2.416z" style="-inkscape-font-specification:'Noto Sans JP, weight=250';font-variant-ligatures:normal;font-variant-caps:normal;font-variant-numeric:normal;font-variant-east-asian:normal" transform="matrix(1.60357 0 0 .62361 -4.746 -94.08)" aria-label="成" font-size="7.128"/></g></g></g></svg>