<svg xmlns="http://www.w3.org/2000/svg" width="52.175" height="60" viewBox="0 0 13.805 15.875"><g font-weight="300" font-family="Noto Sans JP" letter-spacing="0" word-spacing="0" fill="#d40000" stroke="#d40000" stroke-width=".2" stroke-linecap="round" stroke-linejoin="round"><g style="line-height:125%;-inkscape-font-specification:'Noto Sans JP, weight=250';font-variant-ligatures:normal;font-variant-caps:normal;font-variant-numeric:normal;font-variant-east-asian:normal"><path d="M124.974 4.445c-.216.19-.444.317-.737.495-.736.42-2.273 1.156-3.543 1.918-.546-.99-1.22-2.451-1.74-3.86l-.66.279c.597 1.384 1.295 2.933 1.867 3.937-1.46.965-2.223 2.019-2.223 3.238 0 1.715 1.613 2.426 3.874 2.426 1.536 0 3.073-.14 3.937-.305l.012-.737c-.901.242-2.565.407-3.987.407-2.121 0-3.175-.737-3.175-1.867 0-.99.698-1.88 1.943-2.693 1.27-.838 3.124-1.727 4.013-2.197.305-.165.559-.304.787-.444z" style="-inkscape-font-specification:'Noto Sans JP, weight=250';font-variant-ligatures:normal;font-variant-caps:normal;font-variant-numeric:normal;font-variant-east-asian:normal" aria-label="と" font-size="12.7"/></g><g style="line-height:125%;-inkscape-font-specification:'Noto Sans JP, weight=250';font-variant-ligatures:normal;font-variant-caps:normal;font-variant-numeric:normal;font-variant-east-asian:normal"><path d="M75.869 158.88h-2.631v.471h5.877v-.47H76.36v-1.762h2.222v-.46H76.36v-1.455h-.491v1.454h-2.222v.461h2.222zm-2.652 1.055a50.433 50.433 0 0 0-1.208-1.823v-.48h1.31v-.472h-1.31v-2.007h-.46v2.007h-1.404v.471h1.331c-.337 1.505-1.044 3.246-1.71 4.126.093.113.236.308.297.44.543-.767 1.096-2.088 1.485-3.378v5.6h.46v-5.682c.308.522.728 1.249.881 1.577zm3.143 3.604v-1.966h2.376v-.46H76.36v-1.321h-.491v1.32h-2.416v.461h2.416v1.966h-3.123v.471h6.461v-.471z" style="-inkscape-font-specification:'Noto Sans JP, weight=250';font-variant-ligatures:normal;font-variant-caps:normal;font-variant-numeric:normal;font-variant-east-asian:normal" transform="matrix(1.24035 0 0 .80623 -85.487 -118.623)" aria-label="桂" font-size="10.239"/></g><g style="line-height:125%;-inkscape-font-specification:'Noto Sans JP, weight=250';font-variant-ligatures:normal;font-variant-caps:normal;font-variant-numeric:normal;font-variant-east-asian:normal"><path d="M60.413 194.248c-.293-.256-.87-.606-1.348-.84l-.2.22c.478.235 1.056.606 1.348.863zm-.42 1.362a7.654 7.654 0 0 1-1.063 2.117c-.228-.742-.378-1.683-.463-2.78h2.323v-.335h-2.345a24.774 24.774 0 0 1-.035-1.283h-.35c.008.435.022.862.043 1.283h-3.036v1.946c0 .926-.072 2.138-.685 3.022.086.043.214.157.278.22.65-.919.756-2.266.756-3.235v-.264h1.518c-.035 1.433-.071 1.946-.178 2.06-.043.057-.121.071-.228.071-.121 0-.47 0-.841-.035a.854.854 0 0 1 .107.32c.356.022.684.029.87.015.185-.007.292-.05.384-.157.143-.178.186-.763.221-2.424 0-.05.007-.17.007-.17h-1.86v-1.034h2.709c.092 1.204.27 2.274.541 3.1a5.873 5.873 0 0 1-1.76 1.412c.078.064.2.2.25.27a6.737 6.737 0 0 0 1.646-1.318c.335.82.784 1.312 1.354 1.312.478 0 .613-.371.691-1.519a.926.926 0 0 1-.299-.178c-.05.97-.143 1.347-.37 1.347-.443 0-.827-.463-1.127-1.261a7.659 7.659 0 0 0 1.283-2.417z" style="-inkscape-font-specification:'Noto Sans JP, weight=250';font-variant-ligatures:normal;font-variant-caps:normal;font-variant-numeric:normal;font-variant-east-asian:normal" transform="matrix(1.60357 0 0 .62361 -85.487 -118.623)" aria-label="成" font-size="7.128"/></g><g><g style="line-height:125%;-inkscape-font-specification:'Noto Sans JP, weight=250';font-variant-ligatures:normal;font-variant-caps:normal;font-variant-numeric:normal;font-variant-east-asian:normal"><path d="M91.95 159.48v1.146h-5.089v-1.147zm-5.089 2.743v-1.198h5.09v1.198zm-.48.82h.48v-.4h5.09v.379h.49v-3.963h-6.06zm7.463-6.441v-.46h-4.27V154.8c1.188-.143 2.305-.318 3.144-.533l-.41-.389c-1.464.4-4.31.676-6.655.799.051.123.113.307.133.43a76.092 76.092 0 0 0 3.297-.256v1.29h-4.229v.461h3.564c-.922 1.075-2.417 2.089-3.717 2.58.123.092.266.266.338.39 1.362-.574 2.98-1.741 3.932-2.97h.112v2.15h.492v-2.15h.123c.972 1.147 2.61 2.273 3.962 2.826.072-.133.215-.307.338-.4-1.28-.46-2.795-1.433-3.737-2.426z" style="-inkscape-font-specification:'Noto Sans JP, weight=250';font-variant-ligatures:normal;font-variant-caps:normal;font-variant-numeric:normal;font-variant-east-asian:normal" transform="matrix(1.24035 0 0 .80623 -4.746 -117.533)" aria-label="香" font-size="10.239"/></g><g style="line-height:125%;-inkscape-font-specification:'Noto Sans JP, weight=250';font-variant-ligatures:normal;font-variant-caps:normal;font-variant-numeric:normal;font-variant-east-asian:normal"><path d="M71.909 192.534c-.292-.257-.87-.606-1.347-.841l-.2.22c.478.236 1.055.607 1.347.863zm-.42 1.361a7.654 7.654 0 0 1-1.063 2.117c-.228-.741-.378-1.682-.463-2.78h2.324v-.335h-2.345a24.774 24.774 0 0 1-.036-1.283h-.35c.008.435.022.863.043 1.283h-3.036v1.946c0 .927-.071 2.139-.684 3.023.085.042.213.156.278.22.648-.919.755-2.266.755-3.236v-.263h1.518c-.035 1.432-.07 1.946-.178 2.06-.043.057-.121.071-.228.071-.121 0-.47 0-.841-.036a.854.854 0 0 1 .107.321c.356.022.684.029.87.014.185-.007.292-.05.384-.156.143-.179.186-.763.221-2.424 0-.05.008-.17.008-.17h-1.86v-1.034h2.708c.092 1.204.27 2.273.541 3.1a5.873 5.873 0 0 1-1.76 1.411c.078.065.2.2.25.271a6.737 6.737 0 0 0 1.646-1.318c.335.82.784 1.311 1.354 1.311.478 0 .613-.37.692-1.518a.926.926 0 0 1-.3-.178c-.05.97-.142 1.347-.37 1.347-.442 0-.827-.463-1.127-1.262a7.659 7.659 0 0 0 1.283-2.416z" style="-inkscape-font-specification:'Noto Sans JP, weight=250';font-variant-ligatures:normal;font-variant-caps:normal;font-variant-numeric:normal;font-variant-east-asian:normal" transform="matrix(1.60357 0 0 .62361 -4.746 -117.533)" aria-label="成" font-size="7.128"/></g></g></g></svg>