<svg xmlns="http://www.w3.org/2000/svg" width="52.175" height="60" viewBox="0 0 13.805 15.875"><g font-weight="300" font-family="Noto Sans JP" letter-spacing="0" word-spacing="0" fill="#d40000" stroke="#d40000" stroke-width=".2" stroke-linecap="round" stroke-linejoin="round"><g style="line-height:125%;-inkscape-font-specification:'Noto Sans JP, weight=250';font-variant-ligatures:normal;font-variant-caps:normal;font-variant-numeric:normal;font-variant-east-asian:normal"><path d="M1.829 13.22c.863-.723 1.27-1.968 1.524-3.136l-.534-.14c-.216 1.105-.66 2.273-1.486 2.946zm2.82-2.92c.202.8.342 1.803.355 2.476l.571-.089c-.025-.673-.19-1.676-.406-2.464zm2.17-.102c.356.711.674 1.664.788 2.235l.52-.165c-.1-.559-.444-1.486-.8-2.172zM3.557 7.201h3.353v1.524H3.556zm3.353-4.115V4.61H3.556V3.086zm0 3.581H3.556v-1.51h3.353zm.597 2.058V7.2h3.81v-.534h-3.81v-1.51h3.81V4.61h-3.81V3.086h4.241v-.559H2.96v6.757h8.865c-.166 2.26-.343 3.137-.623 3.39-.089.115-.216.128-.457.128-.229 0-.902 0-1.6-.077.101.178.152.42.165.572.673.05 1.333.063 1.664.038.33 0 .546-.076.749-.267.343-.368.533-1.359.724-4.038.013-.102.025-.305.025-.305zm3.048 2.756c-.204-.457-.724-1.169-1.22-1.677l-.457.216c.483.521 1.003 1.258 1.207 1.727z" style="-inkscape-font-specification:'Noto Sans JP, weight=250';font-variant-ligatures:normal;font-variant-caps:normal;font-variant-numeric:normal;font-variant-east-asian:normal" aria-label="馬" font-size="12.7"/></g><g style="line-height:125%;-inkscape-font-specification:'Noto Sans JP, weight=250';font-variant-ligatures:normal;font-variant-caps:normal;font-variant-numeric:normal;font-variant-east-asian:normal"><path d="M124.974 4.445c-.216.19-.444.317-.737.495-.736.42-2.273 1.156-3.543 1.918-.546-.99-1.22-2.451-1.74-3.86l-.66.279c.597 1.384 1.295 2.933 1.867 3.937-1.46.965-2.223 2.019-2.223 3.238 0 1.715 1.613 2.426 3.874 2.426 1.536 0 3.073-.14 3.937-.305l.012-.737c-.901.242-2.565.407-3.987.407-2.121 0-3.175-.737-3.175-1.867 0-.99.698-1.88 1.943-2.693 1.27-.838 3.124-1.727 4.013-2.197.305-.165.559-.304.787-.444z" style="-inkscape-font-specification:'Noto Sans JP, weight=250';font-variant-ligatures:normal;font-variant-caps:normal;font-variant-numeric:normal;font-variant-east-asian:normal" aria-label="と" font-size="12.7"/></g><g style="line-height:125%;-inkscape-font-specification:'Noto Sans JP, weight=250';font-variant-ligatures:normal;font-variant-caps:normal;font-variant-numeric:normal;font-variant-east-asian:normal"><path d="M50 195.4c-.293-.257-.87-.606-1.348-.842l-.2.221c.478.235 1.056.606 1.348.863zm-.421 1.36a7.654 7.654 0 0 1-1.062 2.118c-.228-.742-.378-1.682-.464-2.78h2.324v-.335h-2.345a24.774 24.774 0 0 1-.036-1.283h-.349c.007.435.022.862.043 1.283h-3.036v1.946c0 .926-.072 2.138-.685 3.022.086.043.214.157.278.221.649-.92.756-2.267.756-3.236v-.264h1.518c-.036 1.433-.071 1.946-.178 2.06-.043.057-.121.071-.228.071-.121 0-.47 0-.841-.035a.854.854 0 0 1 .107.32c.356.022.684.03.87.015.184-.007.291-.05.384-.157.143-.178.185-.763.221-2.423 0-.05.007-.171.007-.171h-1.86v-1.034h2.708c.093 1.205.271 2.274.542 3.1a5.873 5.873 0 0 1-1.76 1.412c.078.064.199.2.249.27a6.737 6.737 0 0 0 1.646-1.318c.335.82.785 1.312 1.355 1.312.477 0 .613-.371.691-1.519a.926.926 0 0 1-.3-.178c-.05.97-.142 1.347-.37 1.347-.442 0-.827-.463-1.126-1.261a7.658 7.658 0 0 0 1.283-2.417z" style="-inkscape-font-specification:'Noto Sans JP, weight=250';font-variant-ligatures:normal;font-variant-caps:normal;font-variant-numeric:normal;font-variant-east-asian:normal" transform="matrix(1.60357 0 0 .62361 -4.746 -119.253)" aria-label="成" font-size="7.128"/></g><g style="line-height:125%;-inkscape-font-specification:'Noto Sans JP, weight=250';font-variant-ligatures:normal;font-variant-caps:normal;font-variant-numeric:normal;font-variant-east-asian:normal"><path d="M60.676 157.772c-.41-.543-1.239-1.372-1.925-1.966h-.502c-.368.83-1.075 1.925-2.058 2.724.092.061.246.204.328.307.962-.81 1.628-1.823 2.058-2.59a13.586 13.586 0 0 1 1.74 1.893zm-.164 5.652c-.583.123-1.167.246-1.72.358v-3.287h1.638v-.44h-1.638v-1.28h1.352v-.45h-3.062v.45h1.26v1.28h-1.813v.44h1.812v3.38c-.747.153-1.413.286-1.924.388l.133.451c1.065-.225 2.58-.553 4.003-.86zm-3.696-2.13c.235.635.42 1.444.45 1.976l.42-.102a8.301 8.301 0 0 0-.481-1.966zm2.764 1.874c.205-.502.461-1.3.666-1.946l-.44-.153c-.113.573-.38 1.444-.563 1.966zm1.915-4.597h3.154v1.474h-3.154zm3.154-1.854v1.403h-3.154v-1.403zm.532 4.3c-.358.4-.973.912-1.474 1.29a8.87 8.87 0 0 1-.604-1.801h2.017v-4.24h-4.096v8.028c-.338.072-.645.144-.911.205l.153.481c.963-.246 2.243-.573 3.482-.9l-.051-.462c-.758.195-1.516.39-2.202.553v-3.665h1.167c.471 2.078 1.403 3.778 2.857 4.587.082-.123.225-.307.338-.41-.82-.389-1.464-1.095-1.956-1.996.533-.369 1.178-.87 1.639-1.342z" style="-inkscape-font-specification:'Noto Sans JP, weight=250';font-variant-ligatures:normal;font-variant-caps:normal;font-variant-numeric:normal;font-variant-east-asian:normal" transform="matrix(1.24035 0 0 .80623 -4.746 -119.253)" aria-label="銀" font-size="10.239"/></g><g style="line-height:125%;-inkscape-font-specification:'Noto Sans JP, weight=250';font-variant-ligatures:normal;font-variant-caps:normal;font-variant-numeric:normal;font-variant-east-asian:normal"><path d="M75.869 158.88h-2.631v.471h5.877v-.47H76.36v-1.762h2.222v-.46H76.36v-1.455h-.491v1.454h-2.222v.461h2.222zm-2.652 1.055a50.433 50.433 0 0 0-1.208-1.823v-.48h1.31v-.472h-1.31v-2.007h-.46v2.007h-1.404v.471h1.331c-.337 1.505-1.044 3.246-1.71 4.126.093.113.236.308.297.44.543-.767 1.096-2.088 1.485-3.378v5.6h.46v-5.682c.308.522.728 1.249.881 1.577zm3.143 3.604v-1.966h2.376v-.46H76.36v-1.321h-.491v1.32h-2.416v.461h2.416v1.966h-3.123v.471h6.461v-.471z" style="-inkscape-font-specification:'Noto Sans JP, weight=250';font-variant-ligatures:normal;font-variant-caps:normal;font-variant-numeric:normal;font-variant-east-asian:normal" transform="matrix(1.24035 0 0 .80623 -4.746 -118.623)" aria-label="桂" font-size="10.239"/></g><g style="line-height:125%;-inkscape-font-specification:'Noto Sans JP, weight=250';font-variant-ligatures:normal;font-variant-caps:normal;font-variant-numeric:normal;font-variant-east-asian:normal"><path d="M60.413 194.248c-.293-.256-.87-.606-1.348-.84l-.2.22c.478.235 1.056.606 1.348.863zm-.42 1.362a7.654 7.654 0 0 1-1.063 2.117c-.228-.742-.378-1.683-.463-2.78h2.323v-.335h-2.345a24.774 24.774 0 0 1-.035-1.283h-.35c.008.435.022.862.043 1.283h-3.036v1.946c0 .926-.072 2.138-.685 3.022.086.043.214.157.278.22.65-.919.756-2.266.756-3.235v-.264h1.518c-.035 1.433-.071 1.946-.178 2.06-.043.057-.121.071-.228.071-.121 0-.47 0-.841-.035a.854.854 0 0 1 .107.32c.356.022.684.029.87.015.185-.007.292-.05.384-.157.143-.178.186-.763.221-2.424 0-.05.007-.17.007-.17h-1.86v-1.034h2.709c.092 1.204.27 2.274.541 3.1a5.873 5.873 0 0 1-1.76 1.412c.078.064.2.2.25.27a6.737 6.737 0 0 0 1.646-1.318c.335.82.784 1.312 1.354 1.312.478 0 .613-.371.691-1.519a.926.926 0 0 1-.299-.178c-.05.97-.143 1.347-.37 1.347-.443 0-.827-.463-1.127-1.261a7.659 7.659 0 0 0 1.283-2.417z" style="-inkscape-font-specification:'Noto Sans JP, weight=250';font-variant-ligatures:normal;font-variant-caps:normal;font-variant-numeric:normal;font-variant-east-asian:normal" transform="matrix(1.60357 0 0 .62361 -4.746 -118.623)" aria-label="成" font-size="7.128"/></g><g><g style="line-height:125%;-inkscape-font-specification:'Noto Sans JP, weight=250';font-variant-ligatures:normal;font-variant-caps:normal;font-variant-numeric:normal;font-variant-east-asian:normal"><path d="M91.95 159.48v1.146h-5.089v-1.147zm-5.089 2.743v-1.198h5.09v1.198zm-.48.82h.48v-.4h5.09v.379h.49v-3.963h-6.06zm7.463-6.441v-.46h-4.27V154.8c1.188-.143 2.305-.318 3.144-.533l-.41-.389c-1.464.4-4.31.676-6.655.799.051.123.113.307.133.43a76.092 76.092 0 0 0 3.297-.256v1.29h-4.229v.461h3.564c-.922 1.075-2.417 2.089-3.717 2.58.123.092.266.266.338.39 1.362-.574 2.98-1.741 3.932-2.97h.112v2.15h.492v-2.15h.123c.972 1.147 2.61 2.273 3.962 2.826.072-.133.215-.307.338-.4-1.28-.46-2.795-1.433-3.737-2.426z" style="-inkscape-font-specification:'Noto Sans JP, weight=250';font-variant-ligatures:normal;font-variant-caps:normal;font-variant-numeric:normal;font-variant-east-asian:normal" transform="matrix(1.24035 0 0 .80623 -4.746 -117.533)" aria-label="香" font-size="10.239"/></g><g style="line-height:125%;-inkscape-font-specification:'Noto Sans JP, weight=250';font-variant-ligatures:normal;font-variant-caps:normal;font-variant-numeric:normal;font-variant-east-asian:normal"><path d="M71.909 192.534c-.292-.257-.87-.606-1.347-.841l-.2.22c.478.236 1.055.607 1.347.863zm-.42 1.361a7.654 7.654 0 0 1-1.063 2.117c-.228-.741-.378-1.682-.463-2.78h2.324v-.335h-2.345a24.774 24.774 0 0 1-.036-1.283h-.35c.008.435.022.863.043 1.283h-3.036v1.946c0 .927-.071 2.139-.684 3.023.085.042.213.156.278.22.648-.919.755-2.266.755-3.236v-.263h1.518c-.035 1.432-.07 1.946-.178 2.06-.043.057-.121.071-.228.071-.121 0-.47 0-.841-.036a.854.854 0 0 1 .107.321c.356.022.684.029.87.014.185-.007.292-.05.384-.156.143-.179.186-.763.221-2.424 0-.05.008-.17.008-.17h-1.86v-1.034h2.708c.092 1.204.27 2.273.541 3.1a5.873 5.873 0 0 1-1.76 1.411c.078.065.2.2.25.271a6.737 6.737 0 0 0 1.646-1.318c.335.82.784 1.311 1.354 1.311.478 0 .613-.37.692-1.518a.926.926 0 0 1-.3-.178c-.05.97-.142 1.347-.37 1.347-.442 0-.827-.463-1.127-1.262a7.659 7.659 0 0 0 1.283-2.416z" style="-inkscape-font-specification:'Noto Sans JP, weight=250';font-variant-ligatures:normal;font-variant-caps:normal;font-variant-numeric:normal;font-variant-east-asian:normal" transform="matrix(1.60357 0 0 .62361 -4.746 -117.533)" aria-label="成" font-size="7.128"/></g></g></g></svg>