<svg xmlns="http://www.w3.org/2000/svg" width="52.175" height="60" viewBox="0 0 13.805 15.875"><g style="line-height:125%;-inkscape-font-specification:'Noto Sans JP, weight=250';font-variant-ligatures:normal;font-variant-caps:normal;font-variant-numeric:normal;font-variant-east-asian:normal"><path d="M3.778 11.43c.216-.19.445-.318.737-.495.736-.42 2.273-1.156 3.543-1.918.546.99 1.22 2.451 1.74 3.86l.66-.279c-.597-1.384-1.295-2.933-1.867-3.937 1.46-.965 2.223-2.019 2.223-3.238 0-1.715-1.613-2.426-3.874-2.426-1.536 0-3.073.14-3.937.305l-.012.737c.901-.242 2.565-.407 3.988-.407 2.12 0 3.175.737 3.175 1.867 0 .99-.699 1.88-1.944 2.692-1.27.839-3.124 1.728-4.013 2.198-.305.165-.559.304-.787.444z" style="-inkscape-font-specification:'Noto Sans JP, weight=250';font-variant-ligatures:normal;font-variant-caps:normal;font-variant-numeric:normal;font-variant-east-asian:normal" aria-label="と" font-weight="300" font-size="12.7" font-family="Noto Sans JP" letter-spacing="0" word-spacing="0" fill="#d40000" stroke="#d40000" stroke-width=".2" stroke-linecap="round" stroke-linejoin="round"/></g></svg>