<?xml version="1.0" encoding="UTF-8"?>
<svg width="50" height="50" version="1.1" viewBox="0 0 13.229 13.229" xmlns="http://www.w3.org/2000/svg" xmlns:cc="http://creativecommons.org/ns#" xmlns:dc="http://purl.org/dc/elements/1.1/" xmlns:rdf="http://www.w3.org/1999/02/22-rdf-syntax-ns#">
 <metadata>
  <rdf:RDF>
   <cc:Work rdf:about="">
    <dc:format>image/svg+xml</dc:format>
    <dc:type rdf:resource="http://purl.org/dc/dcmitype/StillImage"/>
    <dc:title/>
   </cc:Work>
  </rdf:RDF>
 </metadata>
 <g transform="rotate(180 6.6143 6.6143)" stroke="#000" stroke-linecap="round" stroke-linejoin="round" stroke-width=".265" style="font-variant-caps:normal;font-variant-east-asian:normal;font-variant-ligatures:normal;font-variant-numeric:normal" aria-label="玉">
  <g>
   <g transform="translate(-38.338 -119.79)" fill="#f00" stroke="#f00" stroke-linecap="round" stroke-linejoin="round" stroke-width=".2" style="font-variant-caps:normal;font-variant-east-asian:normal;font-variant-ligatures:normal;font-variant-numeric:normal" aria-label="馬">
    <path d="m39.878 131.69c0.8636-0.7239 1.27-1.9685 1.524-3.1369l-0.5334-0.1397c-0.2159 1.1049-0.6604 2.2733-1.4859 2.9464zm2.8194-2.921c0.2032 0.8001 0.3429 1.8034 0.3556 2.4765l0.5715-0.0889c-0.0254-0.6731-0.1905-1.6764-0.4064-2.4638zm2.1717-0.1016c0.3556 0.7112 0.6731 1.6637 0.7874 2.2352l0.5207-0.1651c-0.1016-0.5588-0.4445-1.4859-0.8001-2.1717zm-3.2639-2.9972h3.3528v1.524h-3.3528zm3.3528-4.1148v1.524h-3.3528v-1.524zm0 3.5814h-3.3528v-1.5113h3.3528zm0.5969 2.0574v-1.524h3.81v-0.5334h-3.81v-1.5113h3.81v-0.5461h-3.81v-1.524h4.2418v-0.5588h-8.7884v6.7564h8.8646c-0.1651 2.2606-0.3429 3.1369-0.6223 3.3909-0.0889 0.1143-0.2159 0.127-0.4572 0.127-0.2286 0-0.9017 0-1.6002-0.0762 0.1016 0.1778 0.1524 0.4191 0.1651 0.5715 0.6731 0.0508 1.3335 0.0635 1.6637 0.0381 0.3302 0 0.5461-0.0762 0.7493-0.2667 0.3429-0.3683 0.5334-1.3589 0.7239-4.0386 0.0127-0.1016 0.0254-0.3048 0.0254-0.3048zm3.048 2.7559c-0.2032-0.4572-0.7239-1.1684-1.2192-1.6764l-0.4572 0.2159c0.4826 0.5207 1.0033 1.2573 1.2065 1.7272z" fill="#f00" stroke="#f00" stroke-linecap="round" stroke-linejoin="round" stroke-width=".2" style="font-variant-caps:normal;font-variant-east-asian:normal;font-variant-ligatures:normal;font-variant-numeric:normal"/>
   </g>
  </g>
 </g>
</svg>
