<svg xmlns="http://www.w3.org/2000/svg" width="52.157" height="60"><defs><filter id="a" color-interpolation-filters="sRGB"><feFlood flood-opacity=".498" flood-color="#000" result="flood"/><feComposite in="flood" in2="SourceGraphic" operator="in" result="composite1"/><feGaussianBlur in="composite1" stdDeviation="2.5" result="blur"/><feOffset dx="2" dy="2" result="offset"/><feComposite in="SourceGraphic" in2="offset" result="composite2"/></filter></defs><path d="M49.04 30c0 12.68-10.28 22.96-22.962 22.96-12.68 0-22.96-10.28-22.96-22.96 0-12.681 10.28-22.96 22.96-22.96C38.76 7.04 49.04 17.318 49.04 30z" fill="#fff" stroke="#000" stroke-width=".546" filter="url(#a)"/><g stroke-width="2.222"><path d="M290.219 30.597c0 12.68-10.28 22.96-22.96 22.96-12.682 0-22.961-10.28-22.961-22.96 0-12.681 10.28-22.96 22.96-22.96 12.681 0 22.96 10.279 22.96 22.96z" fill="none" stroke="#2c2c2b" stroke-width=".34619999999999995"/><path d="M278.314 41.652c0 6.105-4.95 11.055-11.056 11.055-6.105 0-11.055-4.95-11.055-11.055 0-6.106 4.95-11.055 11.055-11.055 6.106 0 11.056 4.95 11.056 11.055z" fill="#86cfd0"/><g><path d="M270.829 25.33l-3.406-6.976-3.397 6.974" fill="#273567"/><path d="M260.62 30.686a6.638 6.638 0 1 1 13.276.001 6.638 6.638 0 0 1-13.275 0z" fill="#fff" stroke="#273567" stroke-width="1.3332"/><path d="M263.005 30.686a4.252 4.252 0 1 1 8.505.001 4.252 4.252 0 0 1-8.505 0z" fill="#273567"/><path d="M265.105 32.076V29.5h1.744v.304h-1.401v.797h1.214v.305h-1.214v1.171zM268.983 29.499h.342v1.488c0 .26-.03.464-.088.617a.752.752 0 0 1-.318.372c-.153.096-.354.143-.603.143-.242 0-.44-.042-.593-.125a.714.714 0 0 1-.33-.36c-.065-.159-.098-.374-.098-.647V29.5h.342v1.485c0 .224.02.389.063.494a.472.472 0 0 0 .214.246.747.747 0 0 0 .372.085c.251 0 .43-.057.537-.17.106-.113.16-.332.16-.655z" fill="#fff"/></g></g><g stroke-width="2.222"><path d="M289.341 97.298c0 12.21-9.899 22.11-22.11 22.11-12.21 0-22.11-9.9-22.11-22.11 0-12.21 9.9-22.11 22.11-22.11 12.211 0 22.11 9.9 22.11 22.11z" fill="#86cfd0"/><path d="M278.287 108.354c0 6.105-4.95 11.054-11.056 11.054-6.105 0-11.055-4.95-11.055-11.054 0-6.106 4.95-11.056 11.055-11.056 6.106 0 11.056 4.95 11.056 11.056z" fill="#fff"/><g><path d="M273.538 99.929l5.34-2.621-5.33-2.601 1.933-5.623-5.621 1.92-2.62-5.366-2.614 5.364L259 89.06l1.94 5.631-5.353 2.611 5.351 2.61M264.625 103.608l2.616 5.34 2.598-5.334" fill="#fff" stroke="#273567" stroke-width="1.3332"/><path d="M274.06 97.305a6.819 6.819 0 1 1-13.639 0 6.819 6.819 0 1 1 13.639 0z" fill="#fff" stroke="#2c2c2b" stroke-width=".6666"/><path d="M270.803 91.933l-3.405-6.976L264 91.931" fill="#273567"/><path d="M260.594 97.289a6.637 6.637 0 1 1 13.274 0 6.637 6.637 0 0 1-13.274 0z" fill="#fff" stroke="#273567" stroke-width="1.3332"/><path d="M262.98 97.289a4.251 4.251 0 0 1 4.251-4.253 4.252 4.252 0 1 1-4.252 4.252z" fill="#273567"/><path d="M265.599 98.81v-2.274h-.849v-.304h2.04v.304h-.849v2.274zM267.586 96.729a.87.87 0 0 1 .621-.249.85.85 0 0 1 .46.129c.135.087.239.207.31.365.07.156.106.339.106.549 0 .331-.083.587-.249.768a.82.82 0 0 1-.632.27.819.819 0 0 1-.627-.268c-.167-.178-.25-.423-.25-.734 0-.387.087-.664.26-.83zm-.465 1.467c.098.203.243.363.434.48.19.117.406.176.649.176.223 0 .432-.053.624-.16.194-.105.343-.26.448-.467a1.52 1.52 0 0 0 .158-.702c0-.258-.05-.489-.15-.692a1.112 1.112 0 0 0-.436-.475 1.227 1.227 0 0 0-.642-.171c-.363 0-.66.121-.889.363-.229.242-.344.577-.344 1.005 0 .226.05.44.148.643z" fill="#fff"/></g><path d="M290.219 97.508c0 12.68-10.28 22.961-22.96 22.961-12.682 0-22.961-10.28-22.961-22.961 0-12.68 10.28-22.96 22.96-22.96 12.681 0 22.96 10.28 22.96 22.96z" fill="none" stroke="#2c2c2b" stroke-width=".34619999999999995"/></g><g stroke-width="2.222"><path d="M49.04 30c0 12.68-10.281 22.96-22.961 22.96C13.398 52.96 3.118 42.68 3.118 30c0-12.681 10.28-22.96 22.96-22.96C38.759 7.04 49.04 17.318 49.04 30z" fill="none" stroke="#2c2c2b" stroke-width=".34619999999999995"/><path d="M37.134 41.055c0 6.106-4.95 11.055-11.055 11.055-6.106 0-11.056-4.95-11.056-11.055 0-6.106 4.95-11.055 11.056-11.055 6.105 0 11.055 4.949 11.055 11.055z" fill="#86cfd0"/><g><path d="M18.277 15.43l5.363 3.288v-6.58z" fill="#273567"/><path d="M23.92 12.438v11.878h4.317V12.438z" fill="none" stroke="#273567" stroke-width="1.3332"/><path d="M33.9 15.43l-5.364 3.288v-6.58z" fill="#273567"/><path d="M34.944 30.295a8.866 8.866 0 1 1-17.732-.002 8.866 8.866 0 0 1 17.732.002z" fill="#fff" stroke="#273567" stroke-width="1.3332"/><path d="M32.882 30.295a6.802 6.802 0 0 1-6.803 6.804 6.801 6.801 0 0 1-6.803-6.804 6.8 6.8 0 0 1 6.803-6.803 6.801 6.801 0 0 1 6.803 6.803z" fill="#273567"/><path d="M22.567 32.136v-3.44h.46V30.4l1.7-1.705h.615l-1.441 1.4 1.506 2.04h-.6l-1.223-1.733-.558.543v1.19zM25.797 32.136v-3.44h2.475v.403h-2.016v1.059h1.884v.403h-1.884v1.172h2.1v.403zM29.064 32.136v-3.44h.46v3.44z" fill="#fff"/></g></g><g stroke-width="2.222"><path d="M228.293 30.597c0 12.68-10.28 22.96-22.962 22.96-12.68 0-22.96-10.28-22.96-22.96 0-12.681 10.28-22.96 22.96-22.96 12.681 0 22.962 10.279 22.962 22.96z" fill="none" stroke="#2c2c2b" stroke-width=".34619999999999995"/><path d="M216.387 41.652c0 6.105-4.95 11.055-11.056 11.055-6.105 0-11.055-4.95-11.055-11.055 0-6.106 4.95-11.055 11.055-11.055 6.106 0 11.056 4.949 11.056 11.055z" fill="#86cfd0"/><g><path d="M203.173 25.72v-7.952h-2.538l4.696-5.076 4.697 5.076h-2.538v7.953z" fill="#273567"/><path d="M214.197 31.404a8.866 8.866 0 0 1-17.73 0 8.863 8.863 0 0 1 8.864-8.864c4.895 0 8.866 3.968 8.866 8.864z" fill="#fff" stroke="#273567" stroke-width="1.3332"/><path d="M212.135 31.404a6.802 6.802 0 0 1-6.804 6.804 6.801 6.801 0 0 1-6.803-6.804 6.801 6.801 0 0 1 6.803-6.803 6.802 6.802 0 0 1 6.804 6.803z" fill="#273567"/><path d="M200.995 33.245v-3.44h.459v1.704l1.7-1.705h.616l-1.442 1.4 1.507 2.041h-.6l-1.223-1.733-.558.542v1.191zM205.18 33.245v-1.457l-1.322-1.984h.55l.671 1.045c.13.192.248.386.357.582.108-.18.234-.382.38-.609l.663-1.018h.53l-1.37 1.984v1.457zM208.09 30.473c.231-.221.507-.33.826-.33.225 0 .429.057.61.17.18.115.318.276.412.484.094.208.14.452.14.73 0 .44-.11.781-.329 1.021-.22.24-.5.36-.84.36a1.09 1.09 0 0 1-.833-.357c-.221-.237-.331-.562-.331-.975 0-.515.115-.883.345-1.103zm-.618 1.954c.13.271.322.484.576.64.254.157.541.234.864.234a1.7 1.7 0 0 0 .83-.212c.257-.14.455-.349.596-.624.139-.275.21-.586.21-.935 0-.343-.067-.65-.2-.921a1.485 1.485 0 0 0-.58-.633 1.633 1.633 0 0 0-.854-.228c-.482 0-.876.161-1.181.483-.305.323-.457.77-.457 1.34 0 .301.065.586.196.856z" fill="#fff"/></g></g><g stroke-width="2.222"><path d="M164.61 97.508c0 12.21-9.899 22.11-22.11 22.11-12.21 0-22.11-9.9-22.11-22.11 0-12.21 9.9-22.11 22.11-22.11 12.211 0 22.11 9.9 22.11 22.11z" fill="#86cfd0"/><path d="M153.556 108.563c0 6.106-4.95 11.055-11.055 11.055-6.106 0-11.056-4.95-11.056-11.055 0-6.106 4.95-11.055 11.056-11.055 6.105 0 11.055 4.95 11.055 11.055z" fill="#fff"/><g><path d="M134.692 82.373l5.364 3.287v-6.58z" fill="#877ea6"/><path d="M140.34 79.38v11.877h4.318V79.38z" fill="none" stroke="#877ea6" stroke-width="1.3332"/><path d="M135.862 97.344a6.637 6.637 0 1 1 13.274 0 6.637 6.637 0 0 1-13.274 0z" fill="#fff" stroke="#2c2c2b" stroke-width=".6666"/><path d="M150.312 82.373l-5.364 3.287v-6.58z" fill="#877ea6"/><path d="M151.366 97.238a8.865 8.865 0 0 1-8.865 8.864 8.865 8.865 0 0 1 0-17.73 8.866 8.866 0 0 1 8.865 8.866z" fill="#fff" stroke="#877ea6" stroke-width="1.3332"/><path d="M149.305 97.236a6.802 6.802 0 0 1-6.804 6.804 6.8 6.8 0 0 1-6.802-6.804 6.8 6.8 0 0 1 6.802-6.801 6.801 6.801 0 0 1 6.804 6.801z" fill="#2c2c2b"/><path d="M148.807 99.903l5.34-2.62-5.33-2.602 1.933-5.623-5.621 1.922-2.62-5.367-2.614 5.364-5.627-1.943 1.94 5.63-5.353 2.612 5.351 2.61M139.894 103.583l2.616 5.34 2.598-5.334" fill="#273567"/><path d="M149.329 97.28a6.819 6.819 0 0 1-6.82 6.819 6.819 6.819 0 1 1 0-13.639 6.819 6.819 0 0 1 6.82 6.82z" fill="#fff" stroke="#273567" stroke-width="1.3332"/><path d="M146.76 97.28a4.249 4.249 0 0 1-4.25 4.251 4.25 4.25 0 1 1 0-8.502 4.249 4.249 0 0 1 4.25 4.25z" fill="#273567"/><path d="M140.122 98.76v-.895l.422-.407.919 1.302h.45l-1.13-1.533 1.083-1.045h-.463l-1.28 1.275v-1.275h-.343v2.578zM142.21 98.76v-2.578h1.856v.304h-1.514v.788h1.415v.305h-1.415v.876h1.575v.305zM144.658 98.76v-2.578H145v2.578z" fill="#fff"/></g><path d="M165.551 97.508c0 12.68-10.28 22.961-22.961 22.961-12.68 0-22.96-10.28-22.96-22.961 0-12.68 10.28-22.96 22.96-22.96 12.68 0 22.961 10.28 22.961 22.96z" fill="none" stroke="#2c2c2b" stroke-width=".34619999999999995"/></g><g stroke-width="2.222"><path d="M227.442 97.508c0 12.21-9.9 22.11-22.11 22.11-12.211 0-22.11-9.9-22.11-22.11 0-12.21 9.899-22.11 22.11-22.11 12.21 0 22.11 9.9 22.11 22.11z" fill="#86cfd0"/><path d="M216.387 108.563c0 6.106-4.95 11.055-11.056 11.055-6.105 0-11.055-4.95-11.055-11.055 0-6.106 4.95-11.055 11.055-11.055 6.106 0 11.056 4.95 11.056 11.055z" fill="#fff"/><path d="M228.293 97.508c0 12.68-10.28 22.961-22.962 22.961-12.68 0-22.96-10.28-22.96-22.961 0-12.68 10.28-22.96 22.96-22.96 12.681 0 22.962 10.28 22.962 22.96z" fill="none" stroke="#2c2c2b" stroke-width=".34619999999999995"/><g><path d="M214.197 97.662a8.865 8.865 0 1 1-17.73 0 8.863 8.863 0 0 1 8.865-8.863 8.865 8.865 0 0 1 8.865 8.863z" fill="#fff" stroke="#877ea6" stroke-width="1.3332"/><path d="M202.724 103.976l2.616 5.338 2.598-5.333" fill="#273567"/><path d="M203.173 91.98v-7.953h-2.538l4.697-5.077 4.697 5.077h-2.538v7.952z" fill="#877ea6"/><path d="M198.61 97.565a6.637 6.637 0 0 1 6.637-6.637 6.638 6.638 0 1 1-6.637 6.637z" fill="#fff" stroke="#2c2c2b" stroke-width=".6666"/><path d="M212.136 97.662a6.802 6.802 0 0 1-6.804 6.804 6.8 6.8 0 0 1-6.803-6.804 6.8 6.8 0 0 1 6.803-6.802 6.802 6.802 0 0 1 6.804 6.802z" fill="#2c2c2b"/><path d="M211.638 100.296l5.34-2.62-5.33-2.602 1.933-5.623-5.622 1.921-2.619-5.366-2.614 5.364-5.628-1.943 1.94 5.63-5.352 2.611 5.35 2.612" fill="#273567"/><path d="M212.16 97.672a6.819 6.819 0 0 1-6.82 6.82 6.819 6.819 0 1 1 0-13.639 6.818 6.818 0 0 1 6.82 6.82z" fill="#fff" stroke="#273567" stroke-width="1.3332"/><path d="M209.592 97.67a4.252 4.252 0 1 1-8.504.002 4.252 4.252 0 0 1 8.504-.001z" fill="#273567"/><path d="M201.83 99.152v-2.578h.342v1.276l1.281-1.276h.464l-1.083 1.045 1.13 1.533h-.45l-.92-1.302-.422.406v.896zM204.972 99.152V98.06l-.994-1.486h.411l.508.78c.096.145.184.29.265.434.08-.134.174-.286.283-.456l.499-.758h.397l-1.026 1.486v1.092zM207.156 97.07a.87.87 0 0 1 .622-.248.819.819 0 0 1 .77.493c.07.157.105.34.105.55 0 .331-.082.588-.248.768a.82.82 0 0 1-.633.27.818.818 0 0 1-.626-.268c-.168-.178-.251-.423-.251-.733 0-.388.087-.665.261-.831zm-.464 1.468c.097.203.242.363.433.48.19.117.407.176.649.176.223 0 .432-.053.625-.16.193-.104.343-.26.447-.467.106-.207.159-.44.159-.702 0-.258-.05-.488-.15-.692a1.112 1.112 0 0 0-.437-.475 1.228 1.228 0 0 0-.642-.17c-.363 0-.659.12-.888.362-.23.242-.344.577-.344 1.005 0 .226.05.44.148.643z" fill="#fff"/></g></g></svg>