<svg xmlns="http://www.w3.org/2000/svg" width="52.157" height="60"><defs><filter id="a" color-interpolation-filters="sRGB"><feFlood flood-opacity=".498" flood-color="#000" result="flood"/><feComposite in="flood" in2="SourceGraphic" operator="in" result="composite1"/><feGaussianBlur in="composite1" stdDeviation="2.5" result="blur"/><feOffset dx="2" dy="2" result="offset"/><feComposite in="SourceGraphic" in2="offset" result="composite2"/></filter></defs><path d="M49.04 30c0 12.68-10.28 22.96-22.962 22.96-12.68 0-22.96-10.28-22.96-22.96 0-12.681 10.28-22.96 22.96-22.96C38.76 7.04 49.04 17.318 49.04 30z" fill="#fff" stroke="#000" stroke-width=".546" filter="url(#a)"/><g stroke-width="2.222"><path d="M184.969 36.414c0 12.21-9.9 22.11-22.11 22.11-12.211 0-22.11-9.9-22.11-22.11 0-12.21 9.899-22.11 22.11-22.11 12.21 0 22.11 9.9 22.11 22.11z" fill="#86cfd0"/><path d="M173.914 47.47c0 6.105-4.95 11.054-11.055 11.054-6.106 0-11.056-4.95-11.056-11.054 0-6.106 4.95-11.056 11.056-11.056 6.105 0 11.055 4.95 11.055 11.056z" fill="#fff"/><g><path d="M169.166 39.045l5.34-2.621-5.33-2.601 1.933-5.623-5.622 1.92-2.619-5.365-2.614 5.364-5.628-1.944 1.94 5.631-5.352 2.611 5.35 2.61M160.252 42.724l2.616 5.34 2.598-5.334" fill="#fff" stroke="#273567" stroke-width="1.3332"/><path d="M169.687 36.42a6.819 6.819 0 1 1-13.638 0 6.819 6.819 0 1 1 13.638 0z" fill="#fff" stroke="#2c2c2b" stroke-width=".6666"/><path d="M166.43 31.05l-3.405-6.976-3.397 6.973" fill="#273567"/><path d="M156.221 36.405a6.637 6.637 0 1 1 13.275 0 6.637 6.637 0 0 1-13.275 0z" fill="#fff" stroke="#273567" stroke-width="1.3332"/><path d="M158.607 36.405a4.251 4.251 0 0 1 4.252-4.252 4.252 4.252 0 1 1-4.252 4.252z" fill="#273567"/><path d="M161.226 37.926v-2.274h-.848v-.304h2.039v.304h-.848v2.274zM163.213 35.845a.87.87 0 0 1 .622-.248.85.85 0 0 1 .459.128c.136.087.24.208.31.365.071.156.106.339.106.549 0 .332-.082.587-.248.768a.82.82 0 0 1-.632.27.819.819 0 0 1-.627-.268c-.167-.178-.25-.423-.25-.734 0-.387.086-.664.26-.83zm-.464 1.468c.097.202.242.362.433.48.19.117.407.175.65.175.223 0 .431-.052.624-.16.193-.105.343-.26.448-.467a1.52 1.52 0 0 0 .158-.702c0-.258-.05-.489-.15-.691a1.112 1.112 0 0 0-.437-.476 1.227 1.227 0 0 0-.642-.171c-.363 0-.659.122-.888.363-.23.242-.344.577-.344 1.005 0 .227.05.44.148.644z" fill="#fff"/></g><path d="M185.846 36.624c0 12.68-10.28 22.961-22.96 22.961-12.681 0-22.96-10.28-22.96-22.961 0-12.68 10.279-22.96 22.96-22.96 12.68 0 22.96 10.28 22.96 22.96z" fill="none" stroke="#2c2c2b" stroke-width=".34619999999999995"/></g><g stroke-width="2.222"><path d="M48.189 30c0 12.21-9.9 22.11-22.111 22.11-12.21 0-22.11-9.9-22.11-22.11 0-12.211 9.9-22.11 22.11-22.11 12.211 0 22.11 9.899 22.11 22.11z" fill="#86cfd0"/><path d="M37.134 41.055c0 6.106-4.95 11.055-11.056 11.055-6.106 0-11.056-4.95-11.056-11.055 0-6.106 4.95-11.056 11.056-11.056 6.106 0 11.056 4.95 11.056 11.056z" fill="#fff"/><path d="M49.04 30c0 12.68-10.281 22.96-22.962 22.96S3.118 42.68 3.118 30c0-12.681 10.279-22.96 22.96-22.96 12.68 0 22.961 10.279 22.961 22.96z" fill="none" stroke="#2c2c2b" stroke-width=".34619999999999995"/><g><path d="M34.944 30.154a8.865 8.865 0 1 1-17.73 0 8.863 8.863 0 0 1 8.865-8.864 8.865 8.865 0 0 1 8.865 8.864z" fill="#fff" stroke="#877ea6" stroke-width="1.3332"/><path d="M23.47 36.467l2.617 5.34 2.598-5.334" fill="#273567"/><path d="M23.92 24.471v-7.952h-2.538l4.697-5.077 4.696 5.077h-2.538v7.952z" fill="#877ea6"/><path d="M19.357 30.057a6.637 6.637 0 0 1 6.637-6.637 6.638 6.638 0 1 1-6.637 6.637z" fill="#fff" stroke="#2c2c2b" stroke-width=".6666"/><path d="M32.883 30.154a6.802 6.802 0 0 1-6.804 6.804 6.8 6.8 0 0 1-6.803-6.804 6.8 6.8 0 0 1 6.803-6.803 6.802 6.802 0 0 1 6.804 6.803z" fill="#2c2c2b"/><path d="M32.385 32.788l5.34-2.62-5.33-2.602 1.932-5.623-5.621 1.92-2.62-5.366-2.614 5.364-5.627-1.942 1.94 5.63-5.352 2.611 5.35 2.611" fill="#273567"/><path d="M32.906 30.164a6.819 6.819 0 0 1-6.82 6.819 6.819 6.819 0 1 1 0-13.638 6.818 6.818 0 0 1 6.82 6.819z" fill="#fff" stroke="#273567" stroke-width="1.3332"/><path d="M30.339 30.163a4.252 4.252 0 1 1-8.504.002 4.252 4.252 0 0 1 8.504-.002z" fill="#273567"/><path d="M22.577 31.644v-2.578h.342v1.275l1.28-1.275h.464L23.58 30.11l1.13 1.533h-.45l-.92-1.302-.421.406v.896zM25.719 31.644v-1.093l-.994-1.485h.41l.509.78c.096.145.184.29.265.434.079-.134.173-.286.282-.456l.5-.758h.397L26.06 30.55v1.093zM27.903 29.563a.87.87 0 0 1 .621-.249.819.819 0 0 1 .77.493c.07.156.106.34.106.55 0 .331-.083.587-.249.767a.82.82 0 0 1-.632.272.818.818 0 0 1-.627-.27c-.167-.177-.25-.422-.25-.732 0-.389.087-.665.26-.831zm-.465 1.467c.098.203.243.363.433.48.191.117.407.176.65.176.223 0 .432-.053.624-.16.194-.105.343-.261.448-.468.105-.206.158-.44.158-.701 0-.258-.05-.488-.15-.692a1.112 1.112 0 0 0-.436-.476 1.228 1.228 0 0 0-.643-.17c-.362 0-.658.121-.888.363-.229.242-.343.577-.343 1.005 0 .226.049.44.147.643z" fill="#fff"/></g></g></svg>