<svg xmlns="http://www.w3.org/2000/svg" width="52.157" height="60"><defs><filter id="a" color-interpolation-filters="sRGB"><feFlood flood-opacity=".498" flood-color="#000" result="flood"/><feComposite in="flood" in2="SourceGraphic" operator="in" result="composite1"/><feGaussianBlur in="composite1" stdDeviation="2.5" result="blur"/><feOffset dx="2" dy="2" result="offset"/><feComposite in="SourceGraphic" in2="offset" result="composite2"/></filter></defs><path d="M49.04 30c0 12.68-10.28 22.96-22.962 22.96-12.68 0-22.96-10.28-22.96-22.96 0-12.681 10.28-22.96 22.96-22.96C38.76 7.04 49.04 17.318 49.04 30z" fill="#fff" stroke="#000" stroke-width=".546" filter="url(#a)"/><g stroke-width="2.222"><path d="M48.161 29.79c0 12.21-9.899 22.11-22.11 22.11-12.21 0-22.11-9.9-22.11-22.11 0-12.211 9.9-22.11 22.11-22.11 12.211 0 22.11 9.899 22.11 22.11z" fill="#86cfd0"/><path d="M37.107 40.846c0 6.105-4.95 11.054-11.055 11.054-6.106 0-11.056-4.95-11.056-11.054 0-6.107 4.95-11.056 11.056-11.056 6.105 0 11.055 4.95 11.055 11.056z" fill="#fff"/><g><path d="M32.359 32.42l5.34-2.62-5.33-2.601 1.933-5.624-5.622 1.922-2.62-5.367-2.614 5.364-5.627-1.943 1.94 5.63-5.352 2.612 5.35 2.61M23.445 36.1l2.616 5.339 2.598-5.333" fill="#fff" stroke="#273567" stroke-width="1.3332"/><path d="M32.88 29.797a6.819 6.819 0 1 1-13.638 0 6.819 6.819 0 1 1 13.638 0z" fill="#fff" stroke="#2c2c2b" stroke-width=".6666"/><path d="M29.623 24.425l-3.405-6.976-3.397 6.973" fill="#273567"/><path d="M19.414 29.78a6.637 6.637 0 1 1 13.274 0 6.637 6.637 0 0 1-13.274 0z" fill="#fff" stroke="#273567" stroke-width="1.3332"/><path d="M21.8 29.78a4.251 4.251 0 0 1 4.252-4.252A4.252 4.252 0 1 1 21.8 29.78z" fill="#273567"/><path d="M24.42 31.301v-2.273h-.85v-.304h2.04v.304h-.849v2.273zM26.406 29.22a.87.87 0 0 1 .622-.248.85.85 0 0 1 .459.129c.135.087.24.207.31.364.07.156.106.34.106.55 0 .331-.083.587-.248.767a.82.82 0 0 1-.633.271.819.819 0 0 1-.627-.268c-.166-.178-.25-.423-.25-.734 0-.388.087-.664.261-.83zm-.465 1.468c.098.203.243.363.434.48.19.117.407.176.65.176.222 0 .431-.053.624-.16.193-.105.343-.261.447-.468a1.52 1.52 0 0 0 .159-.701c0-.258-.05-.489-.15-.692a1.112 1.112 0 0 0-.437-.476 1.227 1.227 0 0 0-.642-.17c-.363 0-.66.121-.888.363-.23.242-.344.577-.344 1.005 0 .226.049.44.147.643z" fill="#fff"/></g><path d="M49.04 30c0 12.68-10.28 22.96-22.961 22.96S3.118 42.68 3.118 30c0-12.681 10.28-22.96 22.96-22.96C38.76 7.04 49.04 17.318 49.04 30z" fill="none" stroke="#2c2c2b" stroke-width=".34619999999999995"/></g></svg>