<svg xmlns="http://www.w3.org/2000/svg" width="52.157" height="60"><defs><filter id="a" color-interpolation-filters="sRGB"><feFlood flood-opacity=".498" flood-color="#000" result="flood"/><feComposite in="flood" in2="SourceGraphic" operator="in" result="composite1"/><feGaussianBlur in="composite1" stdDeviation="2.5" result="blur"/><feOffset dx="2" dy="2" result="offset"/><feComposite in="SourceGraphic" in2="offset" result="composite2"/></filter></defs><path d="M49.04 30c0 12.68-10.28 22.96-22.962 22.96-12.68 0-22.96-10.28-22.96-22.96 0-12.681 10.28-22.96 22.96-22.96C38.76 7.04 49.04 17.318 49.04 30z" fill="#fff" stroke="#000" stroke-width=".546" filter="url(#a)"/><g stroke-width="2.222"><path d="M518.366 31.935c0 12.68-10.28 22.96-22.96 22.96-12.681 0-22.96-10.28-22.96-22.96 0-12.681 10.279-22.96 22.96-22.96 12.68 0 22.96 10.279 22.96 22.96z" fill="none" stroke="#2c2c2b" stroke-width=".34619999999999995"/><path d="M506.461 42.99c0 6.106-4.95 11.055-11.055 11.055-6.106 0-11.056-4.95-11.056-11.055 0-6.106 4.95-11.055 11.056-11.055 6.105 0 11.055 4.95 11.055 11.055z" fill="#86cfd0"/><g><path d="M498.976 26.669l-3.405-6.976-3.397 6.973" fill="#273567"/><path d="M488.768 32.024a6.638 6.638 0 1 1 13.275.001 6.638 6.638 0 0 1-13.275 0z" fill="#fff" stroke="#273567" stroke-width="1.3332"/><path d="M491.153 32.024a4.252 4.252 0 1 1 8.504.001 4.252 4.252 0 0 1-8.504 0z" fill="#273567"/><path d="M493.253 33.415v-2.578h1.744v.304h-1.402v.797h1.214v.305h-1.214v1.172zM497.13 30.837h.342v1.489c0 .259-.029.463-.088.616a.752.752 0 0 1-.318.372c-.153.096-.354.143-.602.143-.242 0-.44-.042-.594-.125a.714.714 0 0 1-.329-.36c-.066-.159-.098-.373-.098-.646v-1.489h.342v1.485c0 .224.02.389.062.494a.472.472 0 0 0 .215.246.747.747 0 0 0 .371.086c.252 0 .43-.057.537-.17.107-.114.16-.333.16-.656z" fill="#fff"/></g></g><g stroke-width="2.222"><path d="M517.489 98.636c0 12.211-9.9 22.11-22.11 22.11-12.211 0-22.11-9.899-22.11-22.11 0-12.21 9.899-22.11 22.11-22.11 12.21 0 22.11 9.9 22.11 22.11z" fill="#86cfd0"/><path d="M506.434 109.692c0 6.105-4.95 11.054-11.055 11.054-6.106 0-11.056-4.949-11.056-11.054 0-6.106 4.95-11.056 11.056-11.056 6.105 0 11.055 4.95 11.055 11.056z" fill="#fff"/><g><path d="M501.686 101.267l5.34-2.621-5.33-2.601 1.933-5.623-5.622 1.921-2.619-5.366-2.614 5.364-5.628-1.944 1.94 5.631-5.352 2.611 5.35 2.611M492.772 104.946l2.616 5.34 2.598-5.334" fill="#fff" stroke="#273567" stroke-width="1.3332"/><path d="M502.207 98.643a6.819 6.819 0 1 1-13.638 0 6.819 6.819 0 1 1 13.638 0z" fill="#fff" stroke="#2c2c2b" stroke-width=".6666"/><path d="M498.95 93.271l-3.405-6.975-3.397 6.973" fill="#273567"/><path d="M488.741 98.627a6.637 6.637 0 1 1 13.275 0 6.637 6.637 0 0 1-13.275 0z" fill="#fff" stroke="#273567" stroke-width="1.3332"/><path d="M491.127 98.627a4.251 4.251 0 0 1 4.252-4.252 4.252 4.252 0 1 1-4.252 4.252z" fill="#273567"/><path d="M493.746 100.148v-2.274h-.848v-.304h2.039v.304h-.849v2.274zM495.733 98.067a.87.87 0 0 1 .622-.248.85.85 0 0 1 .459.128c.136.087.24.208.31.365.071.156.106.339.106.549 0 .332-.082.587-.248.768a.82.82 0 0 1-.632.27.819.819 0 0 1-.627-.268c-.167-.178-.25-.423-.25-.734 0-.387.086-.664.26-.83zm-.464 1.468c.097.202.242.362.433.48.19.117.407.175.65.175.223 0 .431-.052.624-.16.193-.105.343-.26.448-.467a1.52 1.52 0 0 0 .158-.702c0-.258-.05-.489-.15-.691a1.112 1.112 0 0 0-.437-.476 1.227 1.227 0 0 0-.642-.171c-.363 0-.659.122-.888.363-.23.242-.344.577-.344 1.005 0 .227.05.44.148.644z" fill="#fff"/></g><path d="M518.366 98.846c0 12.68-10.28 22.961-22.96 22.961-12.681 0-22.96-10.28-22.96-22.961 0-12.68 10.279-22.96 22.96-22.96 12.68 0 22.96 10.28 22.96 22.96z" fill="none" stroke="#2c2c2b" stroke-width=".34619999999999995"/></g><g stroke-width="2.222"><path d="M339.075 31.935c0 12.68-10.281 22.96-22.962 22.96-12.68 0-22.96-10.28-22.96-22.96 0-12.681 10.28-22.96 22.96-22.96 12.681 0 22.962 10.279 22.962 22.96z" fill="none" stroke="#2c2c2b" stroke-width=".34619999999999995"/><path d="M327.169 42.99c0 6.106-4.95 11.055-11.056 11.055-6.105 0-11.055-4.95-11.055-11.055 0-6.106 4.95-11.055 11.055-11.055 6.106 0 11.056 4.949 11.056 11.055z" fill="#86cfd0"/><g><g fill="#273567"><path d="M324.315 29.55l2.513-7.31-7.31 2.499-3.405-6.977-3.397 6.974-7.317-2.526 2.522 7.32M319.49 41.13l7.306 2.516-2.495-7.307M307.92 36.319l-2.51 7.308 7.304-2.505"/></g><path d="M324.979 32.929a8.866 8.866 0 1 1-17.732-.002 8.866 8.866 0 0 1 17.732.002z" fill="#fff" stroke="#273567" stroke-width="1.3332"/><path d="M322.917 32.929a6.802 6.802 0 0 1-6.804 6.804 6.8 6.8 0 0 1-6.802-6.804 6.8 6.8 0 0 1 6.802-6.803 6.801 6.801 0 0 1 6.804 6.803z" fill="#273567"/><path d="M313.644 33.333v-.403h1.453v1.273a2.573 2.573 0 0 1-.691.401 2.061 2.061 0 0 1-1.651-.082 1.43 1.43 0 0 1-.625-.627 1.97 1.97 0 0 1-.211-.916c0-.335.07-.646.21-.937.14-.29.34-.504.603-.645.262-.14.565-.21.907-.21.248 0 .472.04.673.12.201.081.358.194.472.338.114.144.201.332.26.564l-.422.112a1.291 1.291 0 0 0-.19-.411.79.79 0 0 0-.327-.24 1.191 1.191 0 0 0-.47-.09c-.207 0-.386.032-.536.095a1 1 0 0 0-.365.25 1.183 1.183 0 0 0-.216.34c-.087.212-.13.443-.13.692 0 .306.052.563.157.769.105.206.257.36.458.46.2.1.412.15.638.15.196 0 .387-.038.574-.114a1.49 1.49 0 0 0 .423-.245v-.644zM315.85 34.683v-3.441h.46v3.441zM317.099 34.683v-3.441h.47l1.808 2.702v-2.702h.44v3.441h-.47l-1.808-2.702v2.702z" fill="#fff"/></g></g><g stroke-width="2.222"><path d="M3.118 30c0-12.68 10.28-22.96 22.961-22.96 12.68 0 22.96 10.28 22.96 22.96 0 12.681-10.28 22.96-22.96 22.96-12.68 0-22.961-10.279-22.961-22.96z" fill="none" stroke="#2c2c2b" stroke-width=".34619999999999995"/><path d="M15.023 18.945c0-6.106 4.95-11.055 11.056-11.055 6.105 0 11.055 4.95 11.055 11.055C37.134 25.051 32.184 30 26.08 30c-6.106 0-11.056-4.949-11.056-11.055z" fill="#86cfd0"/><g><path d="M23.666 35.831l-5.628 5.629 1.794 1.794-6.916.264.269-6.91 1.795 1.794 5.627-5.628zM28.573 24.809L34.2 19.18l-1.794-1.794 6.91-.269-.263 6.916-1.794-1.795-5.629 5.629zM31.649 32.423l5.622 5.623 1.796-1.795.268 6.912-6.91-.27 1.794-1.794-5.623-5.623zM20.509 27.39l-5.623-5.624-1.795 1.795-.268-6.911 6.911.269-1.795 1.794 5.623 5.624z" fill="#273567"/><path d="M20.038 36.402a8.865 8.865 0 0 1 0-12.536 8.864 8.864 0 0 1 12.537-.002 8.863 8.863 0 0 1 0 12.537 8.865 8.865 0 0 1-12.537.001z" fill="#fff" stroke="#273567" stroke-width="1.3332"/><path d="M20.779 35.662V24.606h11.055v11.056z" fill="#273567"/><path d="M31 28.796v2.577h-.341v-1.275l-1.281 1.275h-.463l1.083-1.045-1.13-1.532h.45l.92 1.301.42-.406v-.895zM28.867 28.796l-.986 2.577h-.374l-1.055-2.577h.389l.296.782h1.085l.283-.782zm-.74 1.059h-.882l.27.714c.081.216.143.396.186.537.035-.167.082-.333.143-.495zM26.198 28.796v2.577h-.342v-1.275l-1.28 1.275h-.463l1.082-1.045-1.13-1.532h.45l.92 1.301.421-.406v-.895zM22.091 29.888c0-.323.053-.542.16-.655.107-.113.285-.17.536-.17.147 0 .27.029.372.086.102.057.173.139.215.245.041.106.062.27.062.494v1.485h.343v-1.488c0-.273-.033-.489-.099-.646a.714.714 0 0 0-.33-.361 1.245 1.245 0 0 0-.592-.125c-.25 0-.45.048-.604.143a.757.757 0 0 0-.317.373c-.059.151-.088.357-.088.616v1.488h.342z" fill="#fff"/></g></g><g stroke-width="2.222"><path d="M284.407 31.935c0 12.68-10.28 22.96-22.961 22.96s-22.961-10.28-22.961-22.96c0-12.681 10.28-22.96 22.96-22.96 12.682 0 22.962 10.279 22.962 22.96z" fill="none" stroke="#2c2c2b" stroke-width=".34619999999999995"/><path d="M272.501 42.99c0 6.106-4.95 11.055-11.055 11.055-6.106 0-11.056-4.95-11.056-11.055 0-6.106 4.95-11.055 11.056-11.055 6.105 0 11.055 4.949 11.055 11.055z" fill="#86cfd0"/><g><g fill="#273567"><path d="M269.643 36.06l6.943-3.406-6.928-3.383 2.512-7.309-7.309 2.498-3.405-6.977-3.397 6.973-7.318-2.525 2.522 7.319-6.957 3.394 6.956 3.395M258.056 40.843l3.4 6.942 3.377-6.933"/></g><path d="M270.311 32.635a8.865 8.865 0 0 1-8.865 8.863 8.863 8.863 0 0 1-8.865-8.863 8.865 8.865 0 1 1 17.73 0z" fill="#fff" stroke="#273567" stroke-width="1.3332"/><path d="M268.249 32.633a6.802 6.802 0 0 1-6.803 6.804 6.802 6.802 0 0 1-6.804-6.804 6.801 6.801 0 0 1 6.804-6.802 6.801 6.801 0 0 1 6.803 6.802z" fill="#273567"/><path d="M257.802 34.32v-3.441h.46v1.705l1.7-1.705h.615l-1.441 1.4 1.506 2.04h-.6l-1.223-1.732-.558.542v1.19zM261.097 34.32v-3.441h.46v3.44zM262.346 34.32v-3.441h.471l1.807 2.702v-2.702h.44v3.44h-.47l-1.807-2.701v2.701z" fill="#fff"/></g></g><g stroke-width="2.222"><path d="M338.135 98.846c0 12.211-9.9 22.11-22.11 22.11-12.212 0-22.11-9.899-22.11-22.11 0-12.21 9.898-22.11 22.11-22.11 12.21 0 22.11 9.9 22.11 22.11z" fill="#86cfd0"/><path d="M327.08 109.901c0 6.106-4.95 11.055-11.055 11.055-6.106 0-11.056-4.949-11.056-11.055s4.95-11.055 11.056-11.055c6.105 0 11.055 4.95 11.055 11.055z" fill="#fff"/><g><path d="M319.35 106.424l7.305 2.517-2.495-7.308M324.174 94.844l2.513-7.309-7.31 2.497-3.405-6.976-3.397 6.973-7.317-2.526 2.522 7.32M307.779 101.612l-2.51 7.308 7.304-2.503" fill="#877ea6"/><path d="M324.839 98.222a8.866 8.866 0 1 1-17.732-.001 8.866 8.866 0 0 1 17.732.001z" fill="#fff" stroke="#877ea6" stroke-width="1.3332"/><path d="M322.331 100.922l5.34-2.62-5.33-2.602 1.933-5.623-5.621 1.921-2.62-5.366-2.614 5.364-5.628-1.943 1.94 5.63-5.352 2.611 5.35 2.612M313.418 104.602l2.616 5.339 2.598-5.333" fill="#273567"/><path d="M322.853 98.298a6.819 6.819 0 1 1-13.64 0 6.819 6.819 0 0 1 6.82-6.819 6.819 6.819 0 0 1 6.82 6.819z" fill="#fff" stroke="#273567" stroke-width="1.3332"/><path d="M320.285 98.297a4.253 4.253 0 1 1-8.504.002 4.253 4.253 0 0 1 8.504-.002z" fill="#273567"/><path d="M314.262 98.766v-.305h1.093v.957c-.168.133-.34.234-.518.3-.178.069-.36.102-.548.102a1.46 1.46 0 0 1-.69-.162 1.07 1.07 0 0 1-.467-.47 1.483 1.483 0 0 1-.158-.689c0-.25.052-.485.157-.703.105-.217.255-.378.452-.484.197-.106.423-.159.68-.159.186 0 .354.03.505.09.15.061.268.145.353.253.086.108.15.248.195.422l-.307.084a.949.949 0 0 0-.144-.31.587.587 0 0 0-.246-.18.903.903 0 0 0-.354-.068c-.156 0-.29.024-.404.072a.76.76 0 0 0-.275.187.897.897 0 0 0-.162.256c-.066.16-.099.333-.099.52 0 .23.04.423.118.579.08.154.195.27.345.345.152.075.312.113.482.113.148 0 .292-.029.432-.086.14-.057.247-.117.32-.183v-.481zM315.919 99.778V97.2h.343v2.578zM316.859 99.778V97.2h.35l1.355 2.024V97.2h.329v2.578h-.351l-1.356-2.024v2.024z" fill="#fff"/></g><path d="M339.075 98.846c0 12.68-10.28 22.961-22.962 22.961-12.68 0-22.96-10.28-22.96-22.961 0-12.68 10.28-22.96 22.96-22.96 12.681 0 22.962 10.28 22.962 22.96z" fill="none" stroke="#2c2c2b" stroke-width=".34619999999999995"/></g><g stroke-width="2.222"><path d="M393.699 31.935c0 12.68-10.28 22.96-22.961 22.96s-22.961-10.28-22.961-22.96c0-12.681 10.28-22.96 22.96-22.96 12.681 0 22.962 10.279 22.962 22.96z" fill="none" stroke="#2c2c2b" stroke-width=".34619999999999995"/><path d="M381.793 42.99c0 6.106-4.95 11.055-11.055 11.055-6.106 0-11.056-4.95-11.056-11.055 0-6.106 4.95-11.055 11.056-11.055 6.105 0 11.055 4.949 11.055 11.055z" fill="#86cfd0"/><g><path d="M362.936 17.366l5.363 3.287v-6.58z" fill="#273567"/><path d="M368.58 14.373v11.878h4.317V14.373z" fill="none" stroke="#273567" stroke-width="1.3332"/><path d="M378.56 17.366l-5.365 3.287v-6.58z" fill="#273567"/><path d="M379.603 32.23a8.866 8.866 0 1 1-17.731-.002 8.866 8.866 0 0 1 17.731.002z" fill="#fff" stroke="#273567" stroke-width="1.3332"/><path d="M377.541 32.23a6.802 6.802 0 0 1-6.803 6.804 6.801 6.801 0 0 1-6.803-6.804 6.8 6.8 0 0 1 6.803-6.803 6.801 6.801 0 0 1 6.803 6.803z" fill="#273567"/><path d="M367.226 34.071v-3.44h.46v1.705l1.7-1.705h.615l-1.441 1.4 1.506 2.04h-.6l-1.222-1.733-.558.543v1.19zM370.456 34.071v-3.44h2.475v.403h-2.016v1.059h1.884v.403h-1.884v1.172h2.1v.403zM373.723 34.071v-3.44h.46v3.44z" fill="#fff"/></g></g><g stroke-width="2.222"><path d="M456.44 31.935c0 12.68-10.28 22.96-22.961 22.96-12.68 0-22.96-10.28-22.96-22.96 0-12.681 10.28-22.96 22.96-22.96 12.68 0 22.961 10.279 22.961 22.96z" fill="none" stroke="#2c2c2b" stroke-width=".34619999999999995"/><path d="M444.535 42.99c0 6.106-4.95 11.055-11.056 11.055-6.105 0-11.055-4.95-11.055-11.055 0-6.106 4.95-11.055 11.055-11.055 6.106 0 11.056 4.949 11.056 11.055z" fill="#86cfd0"/><g><path d="M431.32 27.059v-7.953h-2.538l4.697-5.076 4.697 5.076h-2.538v7.953z" fill="#273567"/><path d="M442.345 32.742a8.866 8.866 0 0 1-17.731 0 8.863 8.863 0 0 1 8.865-8.864c4.895 0 8.866 3.968 8.866 8.864z" fill="#fff" stroke="#273567" stroke-width="1.3332"/><path d="M440.282 32.742a6.802 6.802 0 0 1-6.804 6.804 6.801 6.801 0 0 1-6.802-6.804 6.801 6.801 0 0 1 6.802-6.803 6.802 6.802 0 0 1 6.804 6.803z" fill="#273567"/><path d="M429.142 34.583v-3.44h.46v1.705l1.7-1.706h.615l-1.442 1.4 1.508 2.041h-.601l-1.222-1.733-.559.542v1.191zM433.328 34.583v-1.457l-1.322-1.984h.55l.67 1.046c.13.191.248.385.358.581.108-.18.234-.382.38-.608l.663-1.019h.529l-1.369 1.984v1.457zM436.238 31.81c.23-.22.506-.33.826-.33a1.091 1.091 0 0 1 1.022.655c.093.208.14.452.14.73 0 .441-.11.781-.33 1.021-.22.24-.5.36-.84.36a1.09 1.09 0 0 1-.832-.357c-.221-.237-.332-.562-.332-.975 0-.515.115-.883.346-1.103zm-.619 1.956c.13.27.323.483.577.64.254.156.54.233.863.233a1.7 1.7 0 0 0 .831-.212c.257-.14.455-.349.595-.624.14-.274.21-.586.21-.934 0-.344-.067-.651-.199-.922a1.485 1.485 0 0 0-.58-.633 1.633 1.633 0 0 0-.854-.227c-.483 0-.876.16-1.182.483-.305.322-.456.769-.456 1.339 0 .302.065.587.195.857z" fill="#fff"/></g></g><g stroke-width="2.222"><path d="M392.758 98.846c0 12.211-9.9 22.11-22.11 22.11-12.21 0-22.11-9.899-22.11-22.11 0-12.21 9.9-22.11 22.11-22.11 12.21 0 22.11 9.9 22.11 22.11z" fill="#86cfd0"/><path d="M381.704 109.901c0 6.106-4.95 11.055-11.056 11.055-6.105 0-11.055-4.949-11.055-11.055s4.95-11.055 11.055-11.055c6.106 0 11.056 4.95 11.056 11.055z" fill="#fff"/><g><path d="M362.84 83.71l5.363 3.288v-6.58z" fill="#877ea6"/><path d="M368.488 80.718v11.878h4.317V80.718z" fill="none" stroke="#877ea6" stroke-width="1.3332"/><path d="M364.01 98.683a6.637 6.637 0 1 1 13.274-.002 6.637 6.637 0 0 1-13.275.002z" fill="#fff" stroke="#2c2c2b" stroke-width=".6666"/><path d="M378.46 83.71l-5.364 3.288v-6.58z" fill="#877ea6"/><path d="M379.514 98.576a8.865 8.865 0 0 1-8.865 8.864 8.865 8.865 0 0 1 0-17.73 8.866 8.866 0 0 1 8.865 8.866z" fill="#fff" stroke="#877ea6" stroke-width="1.3332"/><path d="M377.453 98.575a6.802 6.802 0 0 1-6.804 6.804 6.8 6.8 0 0 1-6.803-6.804 6.8 6.8 0 0 1 6.803-6.802 6.801 6.801 0 0 1 6.804 6.802z" fill="#2c2c2b"/><path d="M376.955 101.242l5.34-2.621-5.33-2.602 1.933-5.622-5.622 1.92-2.619-5.366-2.614 5.364-5.628-1.943 1.94 5.631-5.352 2.611 5.35 2.61M368.041 104.92l2.616 5.34 2.598-5.333" fill="#273567"/><path d="M377.476 98.618a6.819 6.819 0 0 1-6.819 6.819 6.819 6.819 0 1 1 0-13.639 6.819 6.819 0 0 1 6.82 6.82z" fill="#fff" stroke="#273567" stroke-width="1.3332"/><path d="M374.908 98.617a4.249 4.249 0 0 1-4.25 4.252 4.25 4.25 0 1 1 0-8.502 4.249 4.249 0 0 1 4.25 4.25z" fill="#273567"/><path d="M368.27 100.098v-.895l.421-.407.92 1.302h.45l-1.13-1.532 1.083-1.046h-.463l-1.281 1.275V97.52h-.342v2.578zM370.357 100.098V97.52h1.856v.305H370.7v.787h1.416v.305h-1.416v.876h1.575v.305zM372.805 100.098V97.52h.342v2.578z" fill="#fff"/></g><path d="M393.699 98.846c0 12.68-10.28 22.961-22.962 22.961-12.68 0-22.96-10.28-22.96-22.961 0-12.68 10.28-22.96 22.96-22.96 12.681 0 22.962 10.28 22.962 22.96z" fill="none" stroke="#2c2c2b" stroke-width=".34619999999999995"/></g><g stroke-width="2.222"><path d="M228.545 98.643c0 12.211-9.9 22.11-22.11 22.11-12.211 0-22.11-9.899-22.11-22.11 0-12.21 9.899-22.11 22.11-22.11 12.21 0 22.11 9.9 22.11 22.11z" fill="#86cfd0"/><path d="M217.49 109.699c0 6.105-4.95 11.055-11.055 11.055-6.106 0-11.056-4.95-11.056-11.055 0-6.106 4.95-11.056 11.056-11.056 6.105 0 11.055 4.95 11.055 11.056z" fill="#fff"/><g><path d="M198.432 95.314l-6.96 3.387 6.96 3.393M210.039 90.516l-3.392-6.945-3.403 6.934M214.815 102.116l6.946-3.387-6.932-3.403" fill="#fff" stroke="#273567" stroke-width="1.3332"/><path d="M203.231 106.895l3.393 6.943 3.394-6.936" fill="none" stroke="#273567" stroke-width="1.3332"/><path d="M212.898 92.435a8.865 8.865 0 0 1-.001 12.537 8.864 8.864 0 0 1-12.537 0 8.866 8.866 0 0 1 12.538-12.537z" fill="#273567"/><path d="M209.028 92.957l5.629-5.628-1.794-1.794 6.915-.264-.268 6.91-1.796-1.794-5.627 5.628zM204.122 103.98l-5.627 5.627 1.794 1.795-6.91.269.263-6.916 1.794 1.795 5.628-5.628zM201.046 96.366l-5.623-5.623-1.795 1.795-.269-6.911 6.91.268-1.793 1.796 5.622 5.622zM212.185 101.4l5.623 5.623 1.795-1.794.269 6.91-6.912-.268 1.795-1.795-5.622-5.623z" fill="#273567"/><path d="M212.657 92.387c3.463 3.462 3.46 9.076 0 12.537a8.863 8.863 0 0 1-12.537 0 8.863 8.863 0 0 1 0-12.536c3.462-3.461 9.075-3.463 12.537 0z" fill="#fff" stroke="#273567" stroke-width="1.3332"/><path d="M211.916 93.128v11.055H200.86V93.128z" fill="#273567"/><path d="M203.902 97.505h.398v1.739c0 .302-.034.543-.103.72a.88.88 0 0 1-.37.435c-.179.111-.413.167-.704.167-.281 0-.512-.049-.692-.146a.832.832 0 0 1-.383-.422c-.077-.184-.115-.435-.115-.754v-1.74h.398v1.737c0 .26.024.453.073.577.048.124.132.22.25.287.119.066.264.1.435.1.292 0 .501-.066.626-.2.124-.132.187-.387.187-.764zM204.947 100.514v-3.01h.596l.715 2.13c.066.198.114.346.144.445.035-.11.088-.27.16-.483l.723-2.091h.535v3.01h-.384v-2.518l-.876 2.517h-.359l-.87-2.564v2.564zM209.323 98.396c.069-.19.124-.382.165-.577.048.166.121.374.218.627l.31.835h-1.02zm-.77 2.118l.325-.91h1.263l.348.91h.453l-1.227-3.01h-.435l-1.148 3.01z" fill="#fff"/></g><path d="M229.37 98.846c0 12.68-10.281 22.961-22.962 22.961-12.68 0-22.96-10.28-22.96-22.961 0-12.68 10.28-22.96 22.96-22.96 12.681 0 22.962 10.28 22.962 22.96z" fill="none" stroke="#2c2c2b" stroke-width=".34619999999999995"/></g><g stroke-width="2.222"><path d="M173.883 98.643c0 12.211-9.9 22.11-22.11 22.11-12.21 0-22.11-9.899-22.11-22.11 0-12.21 9.9-22.11 22.11-22.11 12.21 0 22.11 9.9 22.11 22.11z" fill="#86cfd0"/><path d="M162.828 109.699c0 6.105-4.95 11.055-11.055 11.055-6.105 0-11.055-4.95-11.055-11.055 0-6.106 4.95-11.056 11.055-11.056 6.105 0 11.055 4.95 11.055 11.056z" fill="#fff"/><g><g stroke="#273567"><g fill="#fff"><path d="M148.463 90.451l-7.317-2.526 2.522 7.32M160.062 95.266l2.513-7.31-7.31 2.498M155.238 106.846l7.305 2.516-2.495-7.308M143.667 102.034l-2.51 7.308 7.304-2.504" stroke-width="1.3332"/></g><path d="M160.726 98.644a8.866 8.866 0 1 1-17.731-.001 8.866 8.866 0 0 1 17.731 0z" fill="none" stroke-width="1.3332"/></g><path d="M157.318 96.305h7.959v-2.538l5.076 4.703-5.076 4.698v-2.539h-7.96zM146.227 100.629h-7.958v2.539l-5.077-4.698 5.077-4.703v2.538h7.958zM149.51 92.925v-7.952h-2.537l4.696-5.077 4.697 5.077h-2.538v7.952zM153.828 104.362v7.952h2.538l-4.697 5.077-4.696-5.077h2.538v-7.952z" fill="#273567"/><path d="M160.534 98.467a8.866 8.866 0 1 1-17.731-.001 8.866 8.866 0 0 1 17.731.001z" fill="#fff" stroke="#273567" stroke-width="1.3332"/><path d="M151.67 90.65l7.817 7.817-7.818 7.818-7.816-7.818z" fill="#273567"/><path d="M148.195 97.525h.951c.223 0 .385.045.488.137a.448.448 0 0 1 .154.35.486.486 0 0 1-.08.27.452.452 0 0 1-.232.18 1.286 1.286 0 0 1-.426.056h-.855zm0 2.676v-1.335h.461c.103 0 .177.004.222.014a.577.577 0 0 1 .181.08.91.91 0 0 1 .202.2c.076.097.171.235.288.415l.398.626h.497l-.52-.818a2.076 2.076 0 0 0-.33-.4 1.057 1.057 0 0 0-.24-.15c.289-.04.502-.134.64-.28a.758.758 0 0 0 .207-.54.855.855 0 0 0-.125-.454.669.669 0 0 0-.334-.286c-.14-.054-.344-.08-.612-.08h-1.334v3.008zM151.597 100.201v-1.275l-1.158-1.734h.479l.595.91c.108.17.21.34.306.509.091-.159.201-.336.331-.531l.582-.888h.464l-1.2 1.734v1.275zM155.524 98.927c0 .378-.063.633-.187.766-.125.133-.334.2-.626.2a.876.876 0 0 1-.435-.101.558.558 0 0 1-.25-.287c-.048-.123-.073-.316-.073-.578v-1.735h-.398v1.739c0 .319.038.57.115.754a.836.836 0 0 0 .383.422c.18.097.41.146.693.146.29 0 .525-.056.703-.167a.882.882 0 0 0 .37-.435c.07-.178.103-.418.103-.72v-1.739h-.398z" fill="#fff"/></g><path d="M174.708 98.846c0 12.68-10.28 22.961-22.96 22.961-12.682 0-22.961-10.28-22.961-22.961 0-12.68 10.28-22.96 22.96-22.96 12.68 0 22.96 10.28 22.96 22.96z" fill="none" stroke="#2c2c2b" stroke-width=".34619999999999995"/></g><g stroke-width="2.222"><path d="M455.59 98.846c0 12.211-9.9 22.11-22.111 22.11-12.21 0-22.11-9.899-22.11-22.11 0-12.21 9.9-22.11 22.11-22.11 12.211 0 22.11 9.9 22.11 22.11z" fill="#86cfd0"/><path d="M444.535 109.901c0 6.106-4.95 11.055-11.056 11.055-6.106 0-11.056-4.949-11.056-11.055s4.95-11.055 11.056-11.055c6.106 0 11.056 4.95 11.056 11.055z" fill="#fff"/><path d="M456.44 98.846c0 12.68-10.28 22.961-22.961 22.961s-22.96-10.28-22.96-22.961c0-12.68 10.279-22.96 22.96-22.96 12.68 0 22.961 10.28 22.961 22.96z" fill="none" stroke="#2c2c2b" stroke-width=".34619999999999995"/><g><path d="M442.345 99a8.865 8.865 0 1 1-17.73 0 8.863 8.863 0 0 1 8.865-8.863A8.865 8.865 0 0 1 442.345 99z" fill="#fff" stroke="#877ea6" stroke-width="1.3332"/><path d="M430.872 105.314l2.616 5.339 2.598-5.334" fill="#273567"/><path d="M431.32 93.317v-7.952h-2.537l4.697-5.077 4.696 5.077h-2.538v7.952z" fill="#877ea6"/><path d="M426.758 98.903a6.637 6.637 0 0 1 6.637-6.637 6.638 6.638 0 1 1-6.637 6.637z" fill="#fff" stroke="#2c2c2b" stroke-width=".6666"/><path d="M440.284 99a6.802 6.802 0 0 1-6.804 6.805A6.8 6.8 0 0 1 426.677 99a6.8 6.8 0 0 1 6.803-6.803A6.802 6.802 0 0 1 440.284 99z" fill="#2c2c2b"/><path d="M439.786 101.634l5.34-2.62-5.33-2.602 1.932-5.622-5.621 1.92-2.62-5.366-2.614 5.364-5.627-1.943 1.94 5.63-5.352 2.612 5.35 2.61" fill="#273567"/><path d="M440.307 99.01a6.819 6.819 0 0 1-6.82 6.82 6.819 6.819 0 1 1 0-13.639 6.818 6.818 0 0 1 6.82 6.82z" fill="#fff" stroke="#273567" stroke-width="1.3332"/><path d="M437.74 99.009a4.252 4.252 0 1 1-8.504.002 4.252 4.252 0 0 1 8.504-.002z" fill="#273567"/><path d="M429.978 100.49v-2.578h.342v1.276l1.28-1.276h.464l-1.083 1.045 1.13 1.533h-.45l-.92-1.302-.421.407v.895zM433.12 100.49v-1.092l-.994-1.486h.41l.509.78c.096.145.184.29.265.435.079-.135.173-.287.282-.457l.5-.758h.397l-1.027 1.486v1.092zM435.304 98.409a.87.87 0 0 1 .621-.248.819.819 0 0 1 .77.493c.07.156.106.339.106.549 0 .332-.083.588-.249.768a.82.82 0 0 1-.632.271.818.818 0 0 1-.627-.269c-.167-.178-.25-.423-.25-.733 0-.388.087-.665.26-.831zm-.465 1.468c.098.202.243.363.433.48.191.117.407.175.65.175.223 0 .432-.052.624-.16.194-.104.343-.26.448-.467.105-.207.158-.44.158-.702 0-.258-.05-.488-.15-.691a1.112 1.112 0 0 0-.436-.476 1.228 1.228 0 0 0-.643-.17c-.362 0-.658.12-.888.362-.229.242-.343.577-.343 1.005 0 .227.049.44.147.644z" fill="#fff"/></g></g></svg>