<svg xmlns="http://www.w3.org/2000/svg" width="52.157" height="60"><defs><filter id="a" color-interpolation-filters="sRGB"><feFlood flood-opacity=".498" flood-color="#000" result="flood"/><feComposite in="flood" in2="SourceGraphic" operator="in" result="composite1"/><feGaussianBlur in="composite1" stdDeviation="2.5" result="blur"/><feOffset dx="2" dy="2" result="offset"/><feComposite in="SourceGraphic" in2="offset" result="composite2"/></filter></defs><path d="M49.04 30c0 12.68-10.28 22.96-22.962 22.96-12.68 0-22.96-10.28-22.96-22.96 0-12.681 10.28-22.96 22.96-22.96C38.76 7.04 49.04 17.318 49.04 30z" fill="#fff" stroke="#000" stroke-width=".546" filter="url(#a)"/><g stroke-width="2.222"><path d="M3.996 30.21C3.996 18 13.895 8.1 26.106 8.1c12.21 0 22.11 9.9 22.11 22.11 0 12.211-9.9 22.11-22.11 22.11-12.211 0-22.11-9.899-22.11-22.11z" fill="#86cfd0"/><path d="M15.05 19.154C15.05 13.05 20 8.1 26.105 8.1c6.106 0 11.056 4.95 11.056 11.054 0 6.107-4.95 11.056-11.056 11.056-6.105 0-11.055-4.95-11.055-11.056z" fill="#fff"/><g><path d="M19.798 27.58l-5.34 2.62 5.33 2.601-1.933 5.624 5.622-1.922 2.62 5.367 2.614-5.364 5.627 1.943-1.94-5.63 5.352-2.612-5.35-2.61M28.712 23.9l-2.616-5.339-2.598 5.333" fill="#fff" stroke="#273567" stroke-width="1.3332"/><path d="M19.277 30.203a6.819 6.819 0 1 1 13.638 0 6.819 6.819 0 1 1-13.638 0z" fill="#fff" stroke="#2c2c2b" stroke-width=".6666"/><path d="M22.534 35.575l3.405 6.976 3.397-6.973" fill="#273567"/><path d="M32.743 30.22a6.637 6.637 0 1 1-13.274 0 6.637 6.637 0 0 1 13.274 0z" fill="#fff" stroke="#273567" stroke-width="1.3332"/><path d="M30.357 30.22a4.251 4.251 0 0 1-4.252 4.252 4.252 4.252 0 1 1 4.252-4.252z" fill="#273567"/><path d="M27.738 28.699v2.273h.848v.304h-2.039v-.304h.849v-2.273zM25.751 30.78a.87.87 0 0 1-.622.248.85.85 0 0 1-.459-.129.823.823 0 0 1-.31-.364 1.317 1.317 0 0 1-.106-.55c0-.331.083-.587.248-.767a.82.82 0 0 1 .633-.271c.25 0 .46.089.627.268.167.178.25.423.25.734 0 .388-.087.664-.261.83zm.465-1.468a1.129 1.129 0 0 0-.434-.48 1.215 1.215 0 0 0-.65-.176c-.222 0-.431.053-.624.16a1.071 1.071 0 0 0-.447.468 1.52 1.52 0 0 0-.159.701c0 .258.05.489.15.692.1.203.246.362.437.476.19.114.405.17.642.17.363 0 .66-.121.888-.363.23-.242.344-.577.344-1.005 0-.226-.049-.44-.147-.643z" fill="#fff"/></g><path d="M3.118 30c0-12.68 10.28-22.96 22.96-22.96C38.76 7.04 49.04 17.32 49.04 30c0 12.681-10.28 22.96-22.96 22.96C13.398 52.96 3.118 42.682 3.118 30z" fill="none" stroke="#2c2c2b" stroke-width=".34619999999999995"/></g></svg>